<?xml version="1.0" encoding="utf-8" standalone="no"?>
<!DOCTYPE svg PUBLIC "-//W3C//DTD SVG 1.1//EN"
  "http://www.w3.org/Graphics/SVG/1.1/DTD/svg11.dtd">
<!-- Created with matplotlib (http://matplotlib.org/) -->
<svg height="576pt" version="1.1" viewBox="0 0 576 576" width="576pt" xmlns="http://www.w3.org/2000/svg" xmlns:xlink="http://www.w3.org/1999/xlink">
 <defs>
  <style type="text/css">
*{stroke-linecap:butt;stroke-linejoin:round;stroke-miterlimit:100000;}
  </style>
 </defs>
 <g id="figure_1">
  <g id="patch_1">
   <path d="M 0 576 
L 576 576 
L 576 0 
L 0 0 
z
" style="fill:#ffffff;"/>
  </g>
  <g id="axes_1">
   <g id="patch_2">
    <path d="M 0 576 
L 576 576 
L 576 28.8 
L 0 28.8 
z
" style="fill:#ffffff;"/>
   </g>
   <g id="LineCollection_1">
    <path clip-path="url(#pa9cd377d57)" d="M 296.937766 373.511756 
L 258.755096 325.953621 
" style="fill:none;stroke:#808080;stroke-width:3.0;"/>
    <path clip-path="url(#pa9cd377d57)" d="M 296.937766 373.511756 
L 210.77191 399.375368 
" style="fill:none;stroke:#808080;"/>
    <path clip-path="url(#pa9cd377d57)" d="M 296.937766 373.511756 
L 422.416483 404.022775 
" style="fill:none;stroke:#808080;"/>
    <path clip-path="url(#pa9cd377d57)" d="M 296.937766 373.511756 
L 388.86438 428.508686 
" style="fill:none;stroke:#808080;"/>
    <path clip-path="url(#pa9cd377d57)" d="M 296.937766 373.511756 
L 434.080106 365.741245 
" style="fill:none;stroke:#808080;"/>
    <path clip-path="url(#pa9cd377d57)" d="M 296.937766 373.511756 
L 267.028561 354.14585 
" style="fill:none;stroke:#808080;stroke-width:7.0;"/>
    <path clip-path="url(#pa9cd377d57)" d="M 296.937766 373.511756 
L 256.474398 397.208439 
" style="fill:none;stroke:#808080;"/>
    <path clip-path="url(#pa9cd377d57)" d="M 296.937766 373.511756 
L 242.422708 315.418194 
" style="fill:none;stroke:#808080;stroke-width:4.0;"/>
    <path clip-path="url(#pa9cd377d57)" d="M 296.937766 373.511756 
L 286.979649 497.828571 
" style="fill:none;stroke:#808080;"/>
    <path clip-path="url(#pa9cd377d57)" d="M 296.937766 373.511756 
L 290.353072 283.715159 
" style="fill:none;stroke:#808080;"/>
    <path clip-path="url(#pa9cd377d57)" d="M 296.937766 373.511756 
L 245.679619 277.804173 
" style="fill:none;stroke:#808080;"/>
    <path clip-path="url(#pa9cd377d57)" d="M 296.937766 373.511756 
L 211.780333 362.589841 
" style="fill:none;stroke:#808080;stroke-width:2.0;"/>
    <path clip-path="url(#pa9cd377d57)" d="M 296.937766 373.511756 
L 236.657409 368.77833 
" style="fill:none;stroke:#808080;"/>
    <path clip-path="url(#pa9cd377d57)" d="M 296.937766 373.511756 
L 183.566025 283.465138 
" style="fill:none;stroke:#808080;"/>
    <path clip-path="url(#pa9cd377d57)" d="M 253.799301 137.209354 
L 195.374504 169.786972 
" style="fill:none;stroke:#808080;"/>
    <path clip-path="url(#pa9cd377d57)" d="M 253.799301 137.209354 
L 284.111082 152.77833 
" style="fill:none;stroke:#808080;"/>
    <path clip-path="url(#pa9cd377d57)" d="M 253.799301 137.209354 
L 290.353072 283.715159 
" style="fill:none;stroke:#808080;"/>
    <path clip-path="url(#pa9cd377d57)" d="M 253.799301 137.209354 
L 245.679619 277.804173 
" style="fill:none;stroke:#808080;"/>
    <path clip-path="url(#pa9cd377d57)" d="M 253.799301 137.209354 
L 245.760204 233.083887 
" style="fill:none;stroke:#808080;"/>
    <path clip-path="url(#pa9cd377d57)" d="M 253.799301 137.209354 
L 221.397851 148.284371 
" style="fill:none;stroke:#808080;"/>
    <path clip-path="url(#pa9cd377d57)" d="M 253.799301 137.209354 
L 236.418739 208.714058 
" style="fill:none;stroke:#808080;"/>
    <path clip-path="url(#pa9cd377d57)" d="M 82.285714 293.482784 
L 245.679619 277.804173 
" style="fill:none;stroke:#808080;"/>
    <path clip-path="url(#pa9cd377d57)" d="M 82.285714 293.482784 
L 242.422708 315.418194 
" style="fill:none;stroke:#808080;"/>
    <path clip-path="url(#pa9cd377d57)" d="M 388.86438 428.508686 
L 434.080106 365.741245 
" style="fill:none;stroke:#808080;"/>
    <path clip-path="url(#pa9cd377d57)" d="M 388.86438 428.508686 
L 290.353072 283.715159 
" style="fill:none;stroke:#808080;"/>
    <path clip-path="url(#pa9cd377d57)" d="M 388.86438 428.508686 
L 422.416483 404.022775 
" style="fill:none;stroke:#808080;"/>
    <path clip-path="url(#pa9cd377d57)" d="M 493.714286 237.105561 
L 351.054874 276.503252 
" style="fill:none;stroke:#808080;"/>
    <path clip-path="url(#pa9cd377d57)" d="M 316.838528 271.486861 
L 258.755096 325.953621 
" style="fill:none;stroke:#808080;stroke-width:2.0;"/>
    <path clip-path="url(#pa9cd377d57)" d="M 316.838528 271.486861 
L 276.80098 228.428965 
" style="fill:none;stroke:#808080;stroke-width:3.0;"/>
    <path clip-path="url(#pa9cd377d57)" d="M 316.838528 271.486861 
L 245.760204 233.083887 
" style="fill:none;stroke:#808080;"/>
    <path clip-path="url(#pa9cd377d57)" d="M 316.838528 271.486861 
L 317.366148 238.111526 
" style="fill:none;stroke:#808080;stroke-width:5.0;"/>
    <path clip-path="url(#pa9cd377d57)" d="M 316.838528 271.486861 
L 351.054874 276.503252 
" style="fill:none;stroke:#808080;stroke-width:8.0;"/>
    <path clip-path="url(#pa9cd377d57)" d="M 316.838528 271.486861 
L 245.679619 277.804173 
" style="fill:none;stroke:#808080;"/>
    <path clip-path="url(#pa9cd377d57)" d="M 316.838528 271.486861 
L 267.028561 354.14585 
" style="fill:none;stroke:#808080;"/>
    <path clip-path="url(#pa9cd377d57)" d="M 316.838528 271.486861 
L 242.422708 315.418194 
" style="fill:none;stroke:#808080;stroke-width:2.0;"/>
    <path clip-path="url(#pa9cd377d57)" d="M 316.838528 271.486861 
L 236.418739 208.714058 
" style="fill:none;stroke:#808080;"/>
    <path clip-path="url(#pa9cd377d57)" d="M 256.474398 397.208439 
L 258.755096 325.953621 
" style="fill:none;stroke:#808080;stroke-width:2.0;"/>
    <path clip-path="url(#pa9cd377d57)" d="M 256.474398 397.208439 
L 210.77191 399.375368 
" style="fill:none;stroke:#808080;"/>
    <path clip-path="url(#pa9cd377d57)" d="M 256.474398 397.208439 
L 245.679619 277.804173 
" style="fill:none;stroke:#808080;"/>
    <path clip-path="url(#pa9cd377d57)" d="M 256.474398 397.208439 
L 211.780333 362.589841 
" style="fill:none;stroke:#808080;stroke-width:2.0;"/>
    <path clip-path="url(#pa9cd377d57)" d="M 256.474398 397.208439 
L 267.028561 354.14585 
" style="fill:none;stroke:#808080;stroke-width:2.0;"/>
    <path clip-path="url(#pa9cd377d57)" d="M 256.474398 397.208439 
L 236.657409 368.77833 
" style="fill:none;stroke:#808080;stroke-width:2.0;"/>
    <path clip-path="url(#pa9cd377d57)" d="M 256.474398 397.208439 
L 242.422708 315.418194 
" style="fill:none;stroke:#808080;stroke-width:2.0;"/>
    <path clip-path="url(#pa9cd377d57)" d="M 256.474398 397.208439 
L 290.353072 283.715159 
" style="fill:none;stroke:#808080;"/>
    <path clip-path="url(#pa9cd377d57)" d="M 284.111082 152.77833 
L 195.374504 169.786972 
" style="fill:none;stroke:#808080;"/>
    <path clip-path="url(#pa9cd377d57)" d="M 284.111082 152.77833 
L 290.353072 283.715159 
" style="fill:none;stroke:#808080;"/>
    <path clip-path="url(#pa9cd377d57)" d="M 284.111082 152.77833 
L 245.679619 277.804173 
" style="fill:none;stroke:#808080;"/>
    <path clip-path="url(#pa9cd377d57)" d="M 284.111082 152.77833 
L 245.760204 233.083887 
" style="fill:none;stroke:#808080;"/>
    <path clip-path="url(#pa9cd377d57)" d="M 284.111082 152.77833 
L 221.397851 148.284371 
" style="fill:none;stroke:#808080;"/>
    <path clip-path="url(#pa9cd377d57)" d="M 284.111082 152.77833 
L 236.418739 208.714058 
" style="fill:none;stroke:#808080;"/>
    <path clip-path="url(#pa9cd377d57)" d="M 245.679619 277.804173 
L 351.054874 276.503252 
" style="fill:none;stroke:#808080;"/>
    <path clip-path="url(#pa9cd377d57)" d="M 245.679619 277.804173 
L 236.418739 208.714058 
" style="fill:none;stroke:#808080;"/>
    <path clip-path="url(#pa9cd377d57)" d="M 245.679619 277.804173 
L 236.657409 368.77833 
" style="fill:none;stroke:#808080;stroke-width:2.0;"/>
    <path clip-path="url(#pa9cd377d57)" d="M 245.679619 277.804173 
L 211.780333 362.589841 
" style="fill:none;stroke:#808080;"/>
    <path clip-path="url(#pa9cd377d57)" d="M 245.679619 277.804173 
L 258.755096 325.953621 
" style="fill:none;stroke:#808080;stroke-width:8.0;"/>
    <path clip-path="url(#pa9cd377d57)" d="M 245.679619 277.804173 
L 210.77191 399.375368 
" style="fill:none;stroke:#808080;"/>
    <path clip-path="url(#pa9cd377d57)" d="M 245.679619 277.804173 
L 344.16361 185.344695 
" style="fill:none;stroke:#808080;stroke-width:2.0;"/>
    <path clip-path="url(#pa9cd377d57)" d="M 245.679619 277.804173 
L 267.028561 354.14585 
" style="fill:none;stroke:#808080;stroke-width:3.0;"/>
    <path clip-path="url(#pa9cd377d57)" d="M 245.679619 277.804173 
L 242.422708 315.418194 
" style="fill:none;stroke:#808080;stroke-width:6.0;"/>
    <path clip-path="url(#pa9cd377d57)" d="M 245.679619 277.804173 
L 195.374504 169.786972 
" style="fill:none;stroke:#808080;"/>
    <path clip-path="url(#pa9cd377d57)" d="M 245.679619 277.804173 
L 290.353072 283.715159 
" style="fill:none;stroke:#808080;stroke-width:2.0;"/>
    <path clip-path="url(#pa9cd377d57)" d="M 245.679619 277.804173 
L 245.760204 233.083887 
" style="fill:none;stroke:#808080;stroke-width:4.0;"/>
    <path clip-path="url(#pa9cd377d57)" d="M 245.679619 277.804173 
L 221.397851 148.284371 
" style="fill:none;stroke:#808080;"/>
    <path clip-path="url(#pa9cd377d57)" d="M 245.679619 277.804173 
L 317.366148 238.111526 
" style="fill:none;stroke:#808080;stroke-width:3.0;"/>
    <path clip-path="url(#pa9cd377d57)" d="M 245.679619 277.804173 
L 183.566025 283.465138 
" style="fill:none;stroke:#808080;"/>
    <path clip-path="url(#pa9cd377d57)" d="M 245.679619 277.804173 
L 118.950208 349.415488 
" style="fill:none;stroke:#808080;"/>
    <path clip-path="url(#pa9cd377d57)" d="M 351.054874 276.503252 
L 258.755096 325.953621 
" style="fill:none;stroke:#808080;stroke-width:2.0;"/>
    <path clip-path="url(#pa9cd377d57)" d="M 351.054874 276.503252 
L 276.80098 228.428965 
" style="fill:none;stroke:#808080;stroke-width:2.0;"/>
    <path clip-path="url(#pa9cd377d57)" d="M 351.054874 276.503252 
L 267.028561 354.14585 
" style="fill:none;stroke:#808080;"/>
    <path clip-path="url(#pa9cd377d57)" d="M 351.054874 276.503252 
L 242.422708 315.418194 
" style="fill:none;stroke:#808080;"/>
    <path clip-path="url(#pa9cd377d57)" d="M 351.054874 276.503252 
L 317.366148 238.111526 
" style="fill:none;stroke:#808080;stroke-width:4.0;"/>
    <path clip-path="url(#pa9cd377d57)" d="M 236.418739 208.714058 
L 276.80098 228.428965 
" style="fill:none;stroke:#808080;stroke-width:4.0;"/>
    <path clip-path="url(#pa9cd377d57)" d="M 236.418739 208.714058 
L 242.422708 315.418194 
" style="fill:none;stroke:#808080;"/>
    <path clip-path="url(#pa9cd377d57)" d="M 236.418739 208.714058 
L 195.374504 169.786972 
" style="fill:none;stroke:#808080;"/>
    <path clip-path="url(#pa9cd377d57)" d="M 236.418739 208.714058 
L 290.353072 283.715159 
" style="fill:none;stroke:#808080;stroke-width:2.0;"/>
    <path clip-path="url(#pa9cd377d57)" d="M 236.418739 208.714058 
L 245.760204 233.083887 
" style="fill:none;stroke:#808080;stroke-width:3.0;"/>
    <path clip-path="url(#pa9cd377d57)" d="M 236.418739 208.714058 
L 221.397851 148.284371 
" style="fill:none;stroke:#808080;"/>
    <path clip-path="url(#pa9cd377d57)" d="M 236.418739 208.714058 
L 317.366148 238.111526 
" style="fill:none;stroke:#808080;"/>
    <path clip-path="url(#pa9cd377d57)" d="M 236.418739 208.714058 
L 183.566025 283.465138 
" style="fill:none;stroke:#808080;"/>
    <path clip-path="url(#pa9cd377d57)" d="M 236.418739 208.714058 
L 137.639538 185.492549 
" style="fill:none;stroke:#808080;"/>
    <path clip-path="url(#pa9cd377d57)" d="M 236.657409 368.77833 
L 258.755096 325.953621 
" style="fill:none;stroke:#808080;stroke-width:3.0;"/>
    <path clip-path="url(#pa9cd377d57)" d="M 236.657409 368.77833 
L 210.77191 399.375368 
" style="fill:none;stroke:#808080;stroke-width:2.0;"/>
    <path clip-path="url(#pa9cd377d57)" d="M 236.657409 368.77833 
L 211.780333 362.589841 
" style="fill:none;stroke:#808080;stroke-width:2.0;"/>
    <path clip-path="url(#pa9cd377d57)" d="M 236.657409 368.77833 
L 267.028561 354.14585 
" style="fill:none;stroke:#808080;stroke-width:3.0;"/>
    <path clip-path="url(#pa9cd377d57)" d="M 236.657409 368.77833 
L 242.422708 315.418194 
" style="fill:none;stroke:#808080;stroke-width:3.0;"/>
    <path clip-path="url(#pa9cd377d57)" d="M 236.657409 368.77833 
L 290.353072 283.715159 
" style="fill:none;stroke:#808080;"/>
    <path clip-path="url(#pa9cd377d57)" d="M 183.566025 283.465138 
L 258.755096 325.953621 
" style="fill:none;stroke:#808080;"/>
    <path clip-path="url(#pa9cd377d57)" d="M 183.566025 283.465138 
L 267.028561 354.14585 
" style="fill:none;stroke:#808080;"/>
    <path clip-path="url(#pa9cd377d57)" d="M 183.566025 283.465138 
L 245.760204 233.083887 
" style="fill:none;stroke:#808080;"/>
    <path clip-path="url(#pa9cd377d57)" d="M 183.566025 283.465138 
L 276.80098 228.428965 
" style="fill:none;stroke:#808080;"/>
    <path clip-path="url(#pa9cd377d57)" d="M 183.566025 283.465138 
L 137.639538 185.492549 
" style="fill:none;stroke:#808080;"/>
    <path clip-path="url(#pa9cd377d57)" d="M 183.566025 283.465138 
L 242.422708 315.418194 
" style="fill:none;stroke:#808080;"/>
    <path clip-path="url(#pa9cd377d57)" d="M 183.566025 283.465138 
L 118.950208 349.415488 
" style="fill:none;stroke:#808080;"/>
    <path clip-path="url(#pa9cd377d57)" d="M 422.416483 404.022775 
L 434.080106 365.741245 
" style="fill:none;stroke:#808080;"/>
    <path clip-path="url(#pa9cd377d57)" d="M 422.416483 404.022775 
L 290.353072 283.715159 
" style="fill:none;stroke:#808080;"/>
    <path clip-path="url(#pa9cd377d57)" d="M 258.755096 325.953621 
L 210.77191 399.375368 
" style="fill:none;stroke:#808080;stroke-width:2.0;"/>
    <path clip-path="url(#pa9cd377d57)" d="M 258.755096 325.953621 
L 267.028561 354.14585 
" style="fill:none;stroke:#808080;stroke-width:7.0;"/>
    <path clip-path="url(#pa9cd377d57)" d="M 258.755096 325.953621 
L 242.422708 315.418194 
" style="fill:none;stroke:#808080;stroke-width:6.0;"/>
    <path clip-path="url(#pa9cd377d57)" d="M 258.755096 325.953621 
L 290.353072 283.715159 
" style="fill:none;stroke:#808080;"/>
    <path clip-path="url(#pa9cd377d57)" d="M 258.755096 325.953621 
L 245.760204 233.083887 
" style="fill:none;stroke:#808080;"/>
    <path clip-path="url(#pa9cd377d57)" d="M 258.755096 325.953621 
L 317.366148 238.111526 
" style="fill:none;stroke:#808080;"/>
    <path clip-path="url(#pa9cd377d57)" d="M 258.755096 325.953621 
L 211.780333 362.589841 
" style="fill:none;stroke:#808080;stroke-width:3.0;"/>
    <path clip-path="url(#pa9cd377d57)" d="M 258.755096 325.953621 
L 118.950208 349.415488 
" style="fill:none;stroke:#808080;"/>
    <path clip-path="url(#pa9cd377d57)" d="M 210.77191 399.375368 
L 267.028561 354.14585 
" style="fill:none;stroke:#808080;stroke-width:2.0;"/>
    <path clip-path="url(#pa9cd377d57)" d="M 210.77191 399.375368 
L 211.780333 362.589841 
" style="fill:none;stroke:#808080;"/>
    <path clip-path="url(#pa9cd377d57)" d="M 210.77191 399.375368 
L 242.422708 315.418194 
" style="fill:none;stroke:#808080;stroke-width:2.0;"/>
    <path clip-path="url(#pa9cd377d57)" d="M 276.80098 228.428965 
L 290.353072 283.715159 
" style="fill:none;stroke:#808080;stroke-width:3.0;"/>
    <path clip-path="url(#pa9cd377d57)" d="M 276.80098 228.428965 
L 245.760204 233.083887 
" style="fill:none;stroke:#808080;stroke-width:2.0;"/>
    <path clip-path="url(#pa9cd377d57)" d="M 276.80098 228.428965 
L 317.366148 238.111526 
" style="fill:none;stroke:#808080;stroke-width:2.0;"/>
    <path clip-path="url(#pa9cd377d57)" d="M 276.80098 228.428965 
L 137.639538 185.492549 
" style="fill:none;stroke:#808080;"/>
    <path clip-path="url(#pa9cd377d57)" d="M 276.80098 228.428965 
L 242.422708 315.418194 
" style="fill:none;stroke:#808080;"/>
    <path clip-path="url(#pa9cd377d57)" d="M 344.16361 185.344695 
L 317.366148 238.111526 
" style="fill:none;stroke:#808080;stroke-width:2.0;"/>
    <path clip-path="url(#pa9cd377d57)" d="M 344.16361 185.344695 
L 245.760204 233.083887 
" style="fill:none;stroke:#808080;"/>
    <path clip-path="url(#pa9cd377d57)" d="M 434.080106 365.741245 
L 290.353072 283.715159 
" style="fill:none;stroke:#808080;"/>
    <path clip-path="url(#pa9cd377d57)" d="M 267.028561 354.14585 
L 242.422708 315.418194 
" style="fill:none;stroke:#808080;stroke-width:7.0;"/>
    <path clip-path="url(#pa9cd377d57)" d="M 267.028561 354.14585 
L 286.979649 497.828571 
" style="fill:none;stroke:#808080;"/>
    <path clip-path="url(#pa9cd377d57)" d="M 267.028561 354.14585 
L 290.353072 283.715159 
" style="fill:none;stroke:#808080;"/>
    <path clip-path="url(#pa9cd377d57)" d="M 267.028561 354.14585 
L 211.780333 362.589841 
" style="fill:none;stroke:#808080;stroke-width:3.0;"/>
    <path clip-path="url(#pa9cd377d57)" d="M 242.422708 315.418194 
L 290.353072 283.715159 
" style="fill:none;stroke:#808080;"/>
    <path clip-path="url(#pa9cd377d57)" d="M 242.422708 315.418194 
L 245.760204 233.083887 
" style="fill:none;stroke:#808080;stroke-width:3.0;"/>
    <path clip-path="url(#pa9cd377d57)" d="M 242.422708 315.418194 
L 317.366148 238.111526 
" style="fill:none;stroke:#808080;"/>
    <path clip-path="url(#pa9cd377d57)" d="M 242.422708 315.418194 
L 211.780333 362.589841 
" style="fill:none;stroke:#808080;stroke-width:2.0;"/>
    <path clip-path="url(#pa9cd377d57)" d="M 195.374504 169.786972 
L 290.353072 283.715159 
" style="fill:none;stroke:#808080;"/>
    <path clip-path="url(#pa9cd377d57)" d="M 195.374504 169.786972 
L 245.760204 233.083887 
" style="fill:none;stroke:#808080;"/>
    <path clip-path="url(#pa9cd377d57)" d="M 195.374504 169.786972 
L 221.397851 148.284371 
" style="fill:none;stroke:#808080;"/>
    <path clip-path="url(#pa9cd377d57)" d="M 290.353072 283.715159 
L 245.760204 233.083887 
" style="fill:none;stroke:#808080;stroke-width:4.0;"/>
    <path clip-path="url(#pa9cd377d57)" d="M 290.353072 283.715159 
L 221.397851 148.284371 
" style="fill:none;stroke:#808080;"/>
    <path clip-path="url(#pa9cd377d57)" d="M 290.353072 283.715159 
L 211.780333 362.589841 
" style="fill:none;stroke:#808080;"/>
    <path clip-path="url(#pa9cd377d57)" d="M 245.760204 233.083887 
L 317.366148 238.111526 
" style="fill:none;stroke:#808080;stroke-width:2.0;"/>
    <path clip-path="url(#pa9cd377d57)" d="M 245.760204 233.083887 
L 221.397851 148.284371 
" style="fill:none;stroke:#808080;"/>
    <path clip-path="url(#pa9cd377d57)" d="M 245.760204 233.083887 
L 137.639538 185.492549 
" style="fill:none;stroke:#808080;"/>
   </g>
   <g id="PathCollection_1">
    <path clip-path="url(#pa9cd377d57)" d="M 296.937766 379.004698 
C 298.394511 379.004698 299.791788 378.425927 300.821862 377.395852 
C 301.851937 376.365778 302.430708 374.968501 302.430708 373.511756 
C 302.430708 372.05501 301.851937 370.657733 300.821862 369.627659 
C 299.791788 368.597584 298.394511 368.018813 296.937766 368.018813 
C 295.48102 368.018813 294.083743 368.597584 293.053669 369.627659 
C 292.023594 370.657733 291.444823 372.05501 291.444823 373.511756 
C 291.444823 374.968501 292.023594 376.365778 293.053669 377.395852 
C 294.083743 378.425927 295.48102 379.004698 296.937766 379.004698 
z
" style="fill:#4682b4;fill-opacity:0.8;stroke:#000000;stroke-opacity:0.8;"/>
    <path clip-path="url(#pa9cd377d57)" d="M 253.799301 141.09345 
C 254.829376 141.09345 255.8174 140.684197 256.545772 139.955825 
C 257.274145 139.227452 257.683398 138.239428 257.683398 137.209354 
C 257.683398 136.179279 257.274145 135.191255 256.545772 134.462883 
C 255.8174 133.73451 254.829376 133.325257 253.799301 133.325257 
C 252.769227 133.325257 251.781203 133.73451 251.05283 134.462883 
C 250.324457 135.191255 249.915205 136.179279 249.915205 137.209354 
C 249.915205 138.239428 250.324457 139.227452 251.05283 139.955825 
C 251.781203 140.684197 252.769227 141.09345 253.799301 141.09345 
z
" style="fill:#4682b4;fill-opacity:0.8;stroke:#000000;stroke-opacity:0.8;"/>
    <path clip-path="url(#pa9cd377d57)" d="M 82.285714 296.418885 
C 83.064377 296.418885 83.811253 296.109519 84.361851 295.558921 
C 84.912449 295.008323 85.221815 294.261447 85.221815 293.482784 
C 85.221815 292.704121 84.912449 291.957245 84.361851 291.406647 
C 83.811253 290.856049 83.064377 290.546683 82.285714 290.546683 
C 81.507051 290.546683 80.760175 290.856049 80.209577 291.406647 
C 79.658979 291.957245 79.349613 292.704121 79.349613 293.482784 
C 79.349613 294.261447 79.658979 295.008323 80.209577 295.558921 
C 80.760175 296.109519 81.507051 296.418885 82.285714 296.418885 
z
" style="fill:#4682b4;fill-opacity:0.8;stroke:#000000;stroke-opacity:0.8;"/>
    <path clip-path="url(#pa9cd377d57)" d="M 388.86438 431.444787 
C 389.643043 431.444787 390.389919 431.135421 390.940517 430.584823 
C 391.491115 430.034225 391.800481 429.287349 391.800481 428.508686 
C 391.800481 427.730023 391.491115 426.983147 390.940517 426.432549 
C 390.389919 425.881951 389.643043 425.572585 388.86438 425.572585 
C 388.085717 425.572585 387.338841 425.881951 386.788243 426.432549 
C 386.237645 426.983147 385.928279 427.730023 385.928279 428.508686 
C 385.928279 429.287349 386.237645 430.034225 386.788243 430.584823 
C 387.338841 431.135421 388.085717 431.444787 388.86438 431.444787 
z
" style="fill:#4682b4;fill-opacity:0.8;stroke:#000000;stroke-opacity:0.8;"/>
    <path clip-path="url(#pa9cd377d57)" d="M 493.714286 238.573611 
C 494.103617 238.573611 494.477055 238.418928 494.752354 238.143629 
C 495.027653 237.86833 495.182336 237.494892 495.182336 237.105561 
C 495.182336 236.716229 495.027653 236.342791 494.752354 236.067492 
C 494.477055 235.792193 494.103617 235.63751 493.714286 235.63751 
C 493.324954 235.63751 492.951516 235.792193 492.676217 236.067492 
C 492.400918 236.342791 492.246235 236.716229 492.246235 237.105561 
C 492.246235 237.494892 492.400918 237.86833 492.676217 238.143629 
C 492.951516 238.418928 493.324954 238.573611 493.714286 238.573611 
z
" style="fill:#4682b4;fill-opacity:0.8;stroke:#000000;stroke-opacity:0.8;"/>
    <path clip-path="url(#pa9cd377d57)" d="M 316.838528 275.891012 
C 318.006523 275.891012 319.126837 275.426963 319.952734 274.601066 
C 320.778631 273.775169 321.24268 272.654855 321.24268 271.486861 
C 321.24268 270.318866 320.778631 269.198552 319.952734 268.372655 
C 319.126837 267.546758 318.006523 267.082709 316.838528 267.082709 
C 315.670534 267.082709 314.55022 267.546758 313.724323 268.372655 
C 312.898426 269.198552 312.434377 270.318866 312.434377 271.486861 
C 312.434377 272.654855 312.898426 273.775169 313.724323 274.601066 
C 314.55022 275.426963 315.670534 275.891012 316.838528 275.891012 
z
" style="fill:#4682b4;fill-opacity:0.8;stroke:#000000;stroke-opacity:0.8;"/>
    <path clip-path="url(#pa9cd377d57)" d="M 256.474398 401.612591 
C 257.642393 401.612591 258.762707 401.148542 259.588604 400.322645 
C 260.414501 399.496748 260.87855 398.376434 260.87855 397.208439 
C 260.87855 396.040445 260.414501 394.920131 259.588604 394.094234 
C 258.762707 393.268337 257.642393 392.804288 256.474398 392.804288 
C 255.306404 392.804288 254.18609 393.268337 253.360193 394.094234 
C 252.534296 394.920131 252.070247 396.040445 252.070247 397.208439 
C 252.070247 398.376434 252.534296 399.496748 253.360193 400.322645 
C 254.18609 401.148542 255.306404 401.612591 256.474398 401.612591 
z
" style="fill:#4682b4;fill-opacity:0.8;stroke:#000000;stroke-opacity:0.8;"/>
    <path clip-path="url(#pa9cd377d57)" d="M 284.111082 156.662427 
C 285.141156 156.662427 286.12918 156.253174 286.857553 155.524802 
C 287.585925 154.796429 287.995178 153.808405 287.995178 152.77833 
C 287.995178 151.748256 287.585925 150.760232 286.857553 150.031859 
C 286.12918 149.303487 285.141156 148.894234 284.111082 148.894234 
C 283.081007 148.894234 282.092983 149.303487 281.364611 150.031859 
C 280.636238 150.760232 280.226985 151.748256 280.226985 152.77833 
C 280.226985 153.808405 280.636238 154.796429 281.364611 155.524802 
C 282.092983 156.253174 283.081007 156.662427 284.111082 156.662427 
z
" style="fill:#4682b4;fill-opacity:0.8;stroke:#000000;stroke-opacity:0.8;"/>
    <path clip-path="url(#pa9cd377d57)" d="M 245.679619 284.68994 
C 247.505746 284.68994 249.257325 283.964412 250.548592 282.673146 
C 251.839859 281.381879 252.565387 279.6303 252.565387 277.804173 
C 252.565387 275.978046 251.839859 274.226467 250.548592 272.9352 
C 249.257325 271.643933 247.505746 270.918405 245.679619 270.918405 
C 243.853492 270.918405 242.101913 271.643933 240.810646 272.9352 
C 239.51938 274.226467 238.793852 275.978046 238.793852 277.804173 
C 238.793852 279.6303 239.51938 281.381879 240.810646 282.673146 
C 242.101913 283.964412 243.853492 284.68994 245.679619 284.68994 
z
" style="fill:#4682b4;fill-opacity:0.8;stroke:#000000;stroke-opacity:0.8;"/>
    <path clip-path="url(#pa9cd377d57)" d="M 351.054874 280.655526 
C 352.15607 280.655526 353.212312 280.218016 353.990975 279.439353 
C 354.769638 278.66069 355.207148 277.604448 355.207148 276.503252 
C 355.207148 275.402056 354.769638 274.345814 353.990975 273.567151 
C 353.212312 272.788488 352.15607 272.350978 351.054874 272.350978 
C 349.953678 272.350978 348.897436 272.788488 348.118773 273.567151 
C 347.34011 274.345814 346.9026 275.402056 346.9026 276.503252 
C 346.9026 277.604448 347.34011 278.66069 348.118773 279.439353 
C 348.897436 280.218016 349.953678 280.655526 351.054874 280.655526 
z
" style="fill:#4682b4;fill-opacity:0.8;stroke:#000000;stroke-opacity:0.8;"/>
    <path clip-path="url(#pa9cd377d57)" d="M 236.418739 214.007189 
C 237.822494 214.007189 239.168944 213.449472 240.161548 212.456867 
C 241.154153 211.464263 241.711871 210.117813 241.711871 208.714058 
C 241.711871 207.310303 241.154153 205.963853 240.161548 204.971249 
C 239.168944 203.978644 237.822494 203.420926 236.418739 203.420926 
C 235.014984 203.420926 233.668534 203.978644 232.67593 204.971249 
C 231.683325 205.963853 231.125608 207.310303 231.125608 208.714058 
C 231.125608 210.117813 231.683325 211.464263 232.67593 212.456867 
C 233.668534 213.449472 235.014984 214.007189 236.418739 214.007189 
z
" style="fill:#4682b4;fill-opacity:0.8;stroke:#000000;stroke-opacity:0.8;"/>
    <path clip-path="url(#pa9cd377d57)" d="M 236.657409 373.182482 
C 237.825404 373.182482 238.945717 372.718432 239.771614 371.892535 
C 240.597511 371.066639 241.061561 369.946325 241.061561 368.77833 
C 241.061561 367.610335 240.597511 366.490021 239.771614 365.664124 
C 238.945717 364.838228 237.825404 364.374178 236.657409 364.374178 
C 235.489414 364.374178 234.3691 364.838228 233.543203 365.664124 
C 232.717306 366.490021 232.253257 367.610335 232.253257 368.77833 
C 232.253257 369.946325 232.717306 371.066639 233.543203 371.892535 
C 234.3691 372.718432 235.489414 373.182482 236.657409 373.182482 
z
" style="fill:#4682b4;fill-opacity:0.8;stroke:#000000;stroke-opacity:0.8;"/>
    <path clip-path="url(#pa9cd377d57)" d="M 183.566025 287.869289 
C 184.734019 287.869289 185.854333 287.40524 186.68023 286.579343 
C 187.506127 285.753446 187.970176 284.633132 187.970176 283.465138 
C 187.970176 282.297143 187.506127 281.176829 186.68023 280.350932 
C 185.854333 279.525035 184.734019 279.060986 183.566025 279.060986 
C 182.39803 279.060986 181.277716 279.525035 180.451819 280.350932 
C 179.625922 281.176829 179.161873 282.297143 179.161873 283.465138 
C 179.161873 284.633132 179.625922 285.753446 180.451819 286.579343 
C 181.277716 287.40524 182.39803 287.869289 183.566025 287.869289 
z
" style="fill:#4682b4;fill-opacity:0.8;stroke:#000000;stroke-opacity:0.8;"/>
    <path clip-path="url(#pa9cd377d57)" d="M 422.416483 409.70851 
C 423.924358 409.70851 425.370677 409.109425 426.436905 408.043197 
C 427.503134 406.976969 428.102218 405.53065 428.102218 404.022775 
C 428.102218 402.5149 427.503134 401.068581 426.436905 400.002353 
C 425.370677 398.936125 423.924358 398.33704 422.416483 398.33704 
C 420.908609 398.33704 419.46229 398.936125 418.396061 400.002353 
C 417.329833 401.068581 416.730748 402.5149 416.730748 404.022775 
C 416.730748 405.53065 417.329833 406.976969 418.396061 408.043197 
C 419.46229 409.109425 420.908609 409.70851 422.416483 409.70851 
z
" style="fill:#4682b4;fill-opacity:0.8;stroke:#000000;stroke-opacity:0.8;"/>
    <path clip-path="url(#pa9cd377d57)" d="M 258.755096 330.105895 
C 259.856292 330.105895 260.912534 329.668385 261.691197 328.889722 
C 262.46986 328.111059 262.90737 327.054817 262.90737 325.953621 
C 262.90737 324.852425 262.46986 323.796183 261.691197 323.01752 
C 260.912534 322.238856 259.856292 321.801347 258.755096 321.801347 
C 257.6539 321.801347 256.597658 322.238856 255.818995 323.01752 
C 255.040331 323.796183 254.602822 324.852425 254.602822 325.953621 
C 254.602822 327.054817 255.040331 328.111059 255.818995 328.889722 
C 256.597658 329.668385 257.6539 330.105895 258.755096 330.105895 
z
" style="fill:#4682b4;fill-opacity:0.8;stroke:#000000;stroke-opacity:0.8;"/>
    <path clip-path="url(#pa9cd377d57)" d="M 210.77191 403.77952 
C 211.939904 403.77952 213.060218 403.31547 213.886115 402.489573 
C 214.712012 401.663677 215.176061 400.543363 215.176061 399.375368 
C 215.176061 398.207373 214.712012 397.087059 213.886115 396.261162 
C 213.060218 395.435266 211.939904 394.971216 210.77191 394.971216 
C 209.603915 394.971216 208.483601 395.435266 207.657704 396.261162 
C 206.831807 397.087059 206.367758 398.207373 206.367758 399.375368 
C 206.367758 400.543363 206.831807 401.663677 207.657704 402.489573 
C 208.483601 403.31547 209.603915 403.77952 210.77191 403.77952 
z
" style="fill:#4682b4;fill-opacity:0.8;stroke:#000000;stroke-opacity:0.8;"/>
    <path clip-path="url(#pa9cd377d57)" d="M 276.80098 230.971703 
C 277.475322 230.971703 278.122136 230.703784 278.598968 230.226952 
C 279.075799 229.75012 279.343718 229.103307 279.343718 228.428965 
C 279.343718 227.754623 279.075799 227.107809 278.598968 226.630978 
C 278.122136 226.154146 277.475322 225.886227 276.80098 225.886227 
C 276.126638 225.886227 275.479825 226.154146 275.002993 226.630978 
C 274.526161 227.107809 274.258242 227.754623 274.258242 228.428965 
C 274.258242 229.103307 274.526161 229.75012 275.002993 230.226952 
C 275.479825 230.703784 276.126638 230.971703 276.80098 230.971703 
z
" style="fill:#4682b4;fill-opacity:0.8;stroke:#000000;stroke-opacity:0.8;"/>
    <path clip-path="url(#pa9cd377d57)" d="M 344.16361 188.280796 
C 344.942273 188.280796 345.689149 187.97143 346.239747 187.420832 
C 346.790345 186.870234 347.099711 186.123358 347.099711 185.344695 
C 347.099711 184.566032 346.790345 183.819156 346.239747 183.268558 
C 345.689149 182.71796 344.942273 182.408594 344.16361 182.408594 
C 343.384947 182.408594 342.638071 182.71796 342.087473 183.268558 
C 341.536875 183.819156 341.227509 184.566032 341.227509 185.344695 
C 341.227509 186.123358 341.536875 186.870234 342.087473 187.420832 
C 342.638071 187.97143 343.384947 188.280796 344.16361 188.280796 
z
" style="fill:#4682b4;fill-opacity:0.8;stroke:#000000;stroke-opacity:0.8;"/>
    <path clip-path="url(#pa9cd377d57)" d="M 434.080106 371.034376 
C 435.483861 371.034376 436.83031 370.476659 437.822915 369.484054 
C 438.81552 368.49145 439.373237 367.145 439.373237 365.741245 
C 439.373237 364.33749 438.81552 362.99104 437.822915 361.998436 
C 436.83031 361.005831 435.483861 360.448113 434.080106 360.448113 
C 432.676351 360.448113 431.329901 361.005831 430.337297 361.998436 
C 429.344692 362.99104 428.786974 364.33749 428.786974 365.741245 
C 428.786974 367.145 429.344692 368.49145 430.337297 369.484054 
C 431.329901 370.476659 432.676351 371.034376 434.080106 371.034376 
z
" style="fill:#4682b4;fill-opacity:0.8;stroke:#000000;stroke-opacity:0.8;"/>
    <path clip-path="url(#pa9cd377d57)" d="M 267.028561 360.198777 
C 268.633816 360.198777 270.17354 359.561003 271.308627 358.425916 
C 272.443713 357.290829 273.081488 355.751105 273.081488 354.14585 
C 273.081488 352.540595 272.443713 351.000871 271.308627 349.865784 
C 270.17354 348.730697 268.633816 348.092922 267.028561 348.092922 
C 265.423305 348.092922 263.883581 348.730697 262.748494 349.865784 
C 261.613408 351.000871 260.975633 352.540595 260.975633 354.14585 
C 260.975633 355.751105 261.613408 357.290829 262.748494 358.425916 
C 263.883581 359.561003 265.423305 360.198777 267.028561 360.198777 
z
" style="fill:#4682b4;fill-opacity:0.8;stroke:#000000;stroke-opacity:0.8;"/>
    <path clip-path="url(#pa9cd377d57)" d="M 242.422708 319.302291 
C 243.452783 319.302291 244.440807 318.893038 245.169179 318.164665 
C 245.897552 317.436293 246.306805 316.448269 246.306805 315.418194 
C 246.306805 314.38812 245.897552 313.400096 245.169179 312.671723 
C 244.440807 311.943351 243.452783 311.534098 242.422708 311.534098 
C 241.392634 311.534098 240.40461 311.943351 239.676237 312.671723 
C 238.947864 313.400096 238.538611 314.38812 238.538611 315.418194 
C 238.538611 316.448269 238.947864 317.436293 239.676237 318.164665 
C 240.40461 318.893038 241.392634 319.302291 242.422708 319.302291 
z
" style="fill:#4682b4;fill-opacity:0.8;stroke:#000000;stroke-opacity:0.8;"/>
    <path clip-path="url(#pa9cd377d57)" d="M 286.979649 499.904708 
C 287.530247 499.904708 288.058368 499.685954 288.447699 499.296622 
C 288.837031 498.90729 289.055786 498.379169 289.055786 497.828571 
C 289.055786 497.277973 288.837031 496.749852 288.447699 496.360521 
C 288.058368 495.971189 287.530247 495.752434 286.979649 495.752434 
C 286.429051 495.752434 285.90093 495.971189 285.511598 496.360521 
C 285.122267 496.749852 284.903512 497.277973 284.903512 497.828571 
C 284.903512 498.379169 285.122267 498.90729 285.511598 499.296622 
C 285.90093 499.685954 286.429051 499.904708 286.979649 499.904708 
z
" style="fill:#4682b4;fill-opacity:0.8;stroke:#000000;stroke-opacity:0.8;"/>
    <path clip-path="url(#pa9cd377d57)" d="M 195.374504 173.671069 
C 196.404579 173.671069 197.392603 173.261816 198.120975 172.533443 
C 198.849348 171.80507 199.258601 170.817046 199.258601 169.786972 
C 199.258601 168.756897 198.849348 167.768874 198.120975 167.040501 
C 197.392603 166.312128 196.404579 165.902875 195.374504 165.902875 
C 194.34443 165.902875 193.356406 166.312128 192.628033 167.040501 
C 191.899661 167.768874 191.490408 168.756897 191.490408 169.786972 
C 191.490408 170.817046 191.899661 171.80507 192.628033 172.533443 
C 193.356406 173.261816 194.34443 173.671069 195.374504 173.671069 
z
" style="fill:#4682b4;fill-opacity:0.8;stroke:#000000;stroke-opacity:0.8;"/>
    <path clip-path="url(#pa9cd377d57)" d="M 290.353072 289.94357 
C 292.004866 289.94357 293.589229 289.287305 294.757224 288.11931 
C 295.925218 286.951316 296.581483 285.366953 296.581483 283.715159 
C 296.581483 282.063365 295.925218 280.479002 294.757224 279.311007 
C 293.589229 278.143012 292.004866 277.486748 290.353072 277.486748 
C 288.701278 277.486748 287.116915 278.143012 285.94892 279.311007 
C 284.780926 280.479002 284.124661 282.063365 284.124661 283.715159 
C 284.124661 285.366953 284.780926 286.951316 285.94892 288.11931 
C 287.116915 289.287305 288.701278 289.94357 290.353072 289.94357 
z
" style="fill:#4682b4;fill-opacity:0.8;stroke:#000000;stroke-opacity:0.8;"/>
    <path clip-path="url(#pa9cd377d57)" d="M 245.760204 238.769622 
C 247.268079 238.769622 248.714398 238.170537 249.780626 237.104309 
C 250.846854 236.03808 251.445939 234.591761 251.445939 233.083887 
C 251.445939 231.576012 250.846854 230.129693 249.780626 229.063465 
C 248.714398 227.997236 247.268079 227.398151 245.760204 227.398151 
C 244.252329 227.398151 242.80601 227.997236 241.739782 229.063465 
C 240.673554 230.129693 240.074469 231.576012 240.074469 233.083887 
C 240.074469 234.591761 240.673554 236.03808 241.739782 237.104309 
C 242.80601 238.170537 244.252329 238.769622 245.760204 238.769622 
z
" style="fill:#4682b4;fill-opacity:0.8;stroke:#000000;stroke-opacity:0.8;"/>
    <path clip-path="url(#pa9cd377d57)" d="M 221.397851 150.360508 
C 221.948449 150.360508 222.47657 150.141754 222.865901 149.752422 
C 223.255233 149.36309 223.473988 148.834969 223.473988 148.284371 
C 223.473988 147.733773 223.255233 147.205652 222.865901 146.816321 
C 222.47657 146.426989 221.948449 146.208234 221.397851 146.208234 
C 220.847253 146.208234 220.319132 146.426989 219.9298 146.816321 
C 219.540469 147.205652 219.321714 147.733773 219.321714 148.284371 
C 219.321714 148.834969 219.540469 149.36309 219.9298 149.752422 
C 220.319132 150.141754 220.847253 150.360508 221.397851 150.360508 
z
" style="fill:#4682b4;fill-opacity:0.8;stroke:#000000;stroke-opacity:0.8;"/>
    <path clip-path="url(#pa9cd377d57)" d="M 317.366148 242.515678 
C 318.534143 242.515678 319.654457 242.051628 320.480354 241.225732 
C 321.30625 240.399835 321.7703 239.279521 321.7703 238.111526 
C 321.7703 236.943531 321.30625 235.823218 320.480354 234.997321 
C 319.654457 234.171424 318.534143 233.707374 317.366148 233.707374 
C 316.198153 233.707374 315.077839 234.171424 314.251943 234.997321 
C 313.426046 235.823218 312.961996 236.943531 312.961996 238.111526 
C 312.961996 239.279521 313.426046 240.399835 314.251943 241.225732 
C 315.077839 242.051628 316.198153 242.515678 317.366148 242.515678 
z
" style="fill:#4682b4;fill-opacity:0.8;stroke:#000000;stroke-opacity:0.8;"/>
    <path clip-path="url(#pa9cd377d57)" d="M 211.780333 367.232225 
C 213.011508 367.232225 214.192422 366.743074 215.062994 365.872502 
C 215.933566 365.00193 216.422717 363.821016 216.422717 362.589841 
C 216.422717 361.358667 215.933566 360.177752 215.062994 359.307181 
C 214.192422 358.436609 213.011508 357.947458 211.780333 357.947458 
C 210.549159 357.947458 209.368244 358.436609 208.497672 359.307181 
C 207.627101 360.177752 207.13795 361.358667 207.13795 362.589841 
C 207.13795 363.821016 207.627101 365.00193 208.497672 365.872502 
C 209.368244 366.743074 210.549159 367.232225 211.780333 367.232225 
z
" style="fill:#4682b4;fill-opacity:0.8;stroke:#000000;stroke-opacity:0.8;"/>
    <path clip-path="url(#pa9cd377d57)" d="M 137.639538 188.42865 
C 138.418201 188.42865 139.165077 188.119284 139.715675 187.568686 
C 140.266273 187.018088 140.575639 186.271212 140.575639 185.492549 
C 140.575639 184.713886 140.266273 183.96701 139.715675 183.416412 
C 139.165077 182.865814 138.418201 182.556448 137.639538 182.556448 
C 136.860875 182.556448 136.113999 182.865814 135.563401 183.416412 
C 135.012803 183.96701 134.703437 184.713886 134.703437 185.492549 
C 134.703437 186.271212 135.012803 187.018088 135.563401 187.568686 
C 136.113999 188.119284 136.860875 188.42865 137.639538 188.42865 
z
" style="fill:#4682b4;fill-opacity:0.8;stroke:#000000;stroke-opacity:0.8;"/>
    <path clip-path="url(#pa9cd377d57)" d="M 118.950208 351.958226 
C 119.62455 351.958226 120.271363 351.690307 120.748195 351.213475 
C 121.225027 350.736644 121.492946 350.08983 121.492946 349.415488 
C 121.492946 348.741146 121.225027 348.094332 120.748195 347.617501 
C 120.271363 347.140669 119.62455 346.87275 118.950208 346.87275 
C 118.275866 346.87275 117.629052 347.140669 117.15222 347.617501 
C 116.675388 348.094332 116.40747 348.741146 116.40747 349.415488 
C 116.40747 350.08983 116.675388 350.736644 117.15222 351.213475 
C 117.629052 351.690307 118.275866 351.958226 118.950208 351.958226 
z
" style="fill:#4682b4;fill-opacity:0.8;stroke:#000000;stroke-opacity:0.8;"/>
   </g>
   <g id="patch_3">
    <path d="M 0 576 
L 576 576 
" style="fill:none;stroke:#000000;stroke-linecap:square;stroke-linejoin:miter;"/>
   </g>
   <g id="patch_4">
    <path d="M 0 576 
L 0 28.8 
" style="fill:none;stroke:#000000;stroke-linecap:square;stroke-linejoin:miter;"/>
   </g>
   <g id="patch_5">
    <path d="M 0 28.8 
L 576 28.8 
" style="fill:none;stroke:#000000;stroke-linecap:square;stroke-linejoin:miter;"/>
   </g>
   <g id="patch_6">
    <path d="M 576 576 
L 576 28.8 
" style="fill:none;stroke:#000000;stroke-linecap:square;stroke-linejoin:miter;"/>
   </g>
   <g id="matplotlib.axis_1">
    <g id="xtick_1">
     <g id="line2d_1">
      <defs>
       <path d="M 0 0 
L 0 -4 
" id="m7aed93fc00" style="stroke:#000000;stroke-width:0.5;"/>
      </defs>
      <g>
       <use style="stroke:#000000;stroke-width:0.5;" x="0.0" xlink:href="#m7aed93fc00" y="576.0"/>
      </g>
     </g>
     <g id="line2d_2">
      <defs>
       <path d="M 0 0 
L 0 4 
" id="mc549b35d53" style="stroke:#000000;stroke-width:0.5;"/>
      </defs>
      <g>
       <use style="stroke:#000000;stroke-width:0.5;" x="0.0" xlink:href="#mc549b35d53" y="28.8"/>
      </g>
     </g>
     <g id="text_1">
      <!-- −0.2 -->
      <defs>
       <path d="M 10.59375 35.5 
L 73.1875 35.5 
L 73.1875 27.203125 
L 10.59375 27.203125 
z
" id="BitstreamVeraSans-Roman-2212"/>
       <path d="M 10.6875 12.40625 
L 21 12.40625 
L 21 0 
L 10.6875 0 
z
" id="BitstreamVeraSans-Roman-2e"/>
       <path d="M 31.78125 66.40625 
Q 24.171875 66.40625 20.328125 58.90625 
Q 16.5 51.421875 16.5 36.375 
Q 16.5 21.390625 20.328125 13.890625 
Q 24.171875 6.390625 31.78125 6.390625 
Q 39.453125 6.390625 43.28125 13.890625 
Q 47.125 21.390625 47.125 36.375 
Q 47.125 51.421875 43.28125 58.90625 
Q 39.453125 66.40625 31.78125 66.40625 
M 31.78125 74.21875 
Q 44.046875 74.21875 50.515625 64.515625 
Q 56.984375 54.828125 56.984375 36.375 
Q 56.984375 17.96875 50.515625 8.265625 
Q 44.046875 -1.421875 31.78125 -1.421875 
Q 19.53125 -1.421875 13.0625 8.265625 
Q 6.59375 17.96875 6.59375 36.375 
Q 6.59375 54.828125 13.0625 64.515625 
Q 19.53125 74.21875 31.78125 74.21875 
" id="BitstreamVeraSans-Roman-30"/>
       <path d="M 19.1875 8.296875 
L 53.609375 8.296875 
L 53.609375 0 
L 7.328125 0 
L 7.328125 8.296875 
Q 12.9375 14.109375 22.625 23.890625 
Q 32.328125 33.6875 34.8125 36.53125 
Q 39.546875 41.84375 41.421875 45.53125 
Q 43.3125 49.21875 43.3125 52.78125 
Q 43.3125 58.59375 39.234375 62.25 
Q 35.15625 65.921875 28.609375 65.921875 
Q 23.96875 65.921875 18.8125 64.3125 
Q 13.671875 62.703125 7.8125 59.421875 
L 7.8125 69.390625 
Q 13.765625 71.78125 18.9375 73 
Q 24.125 74.21875 28.421875 74.21875 
Q 39.75 74.21875 46.484375 68.546875 
Q 53.21875 62.890625 53.21875 53.421875 
Q 53.21875 48.921875 51.53125 44.890625 
Q 49.859375 40.875 45.40625 35.40625 
Q 44.1875 33.984375 37.640625 27.21875 
Q 31.109375 20.453125 19.1875 8.296875 
" id="BitstreamVeraSans-Roman-32"/>
      </defs>
      <g transform="translate(-14.5696875 589.118125)scale(0.12 -0.12)">
       <use xlink:href="#BitstreamVeraSans-Roman-2212"/>
       <use x="83.7890625" xlink:href="#BitstreamVeraSans-Roman-30"/>
       <use x="147.412109375" xlink:href="#BitstreamVeraSans-Roman-2e"/>
       <use x="179.19921875" xlink:href="#BitstreamVeraSans-Roman-32"/>
      </g>
     </g>
    </g>
    <g id="xtick_2">
     <g id="line2d_3">
      <g>
       <use style="stroke:#000000;stroke-width:0.5;" x="82.2857142857" xlink:href="#m7aed93fc00" y="576.0"/>
      </g>
     </g>
     <g id="line2d_4">
      <g>
       <use style="stroke:#000000;stroke-width:0.5;" x="82.2857142857" xlink:href="#mc549b35d53" y="28.8"/>
      </g>
     </g>
     <g id="text_2">
      <!-- 0.0 -->
      <g transform="translate(72.7438392857 589.118125)scale(0.12 -0.12)">
       <use xlink:href="#BitstreamVeraSans-Roman-30"/>
       <use x="63.623046875" xlink:href="#BitstreamVeraSans-Roman-2e"/>
       <use x="95.41015625" xlink:href="#BitstreamVeraSans-Roman-30"/>
      </g>
     </g>
    </g>
    <g id="xtick_3">
     <g id="line2d_5">
      <g>
       <use style="stroke:#000000;stroke-width:0.5;" x="164.571428571" xlink:href="#m7aed93fc00" y="576.0"/>
      </g>
     </g>
     <g id="line2d_6">
      <g>
       <use style="stroke:#000000;stroke-width:0.5;" x="164.571428571" xlink:href="#mc549b35d53" y="28.8"/>
      </g>
     </g>
     <g id="text_3">
      <!-- 0.2 -->
      <g transform="translate(155.029553571 589.118125)scale(0.12 -0.12)">
       <use xlink:href="#BitstreamVeraSans-Roman-30"/>
       <use x="63.623046875" xlink:href="#BitstreamVeraSans-Roman-2e"/>
       <use x="95.41015625" xlink:href="#BitstreamVeraSans-Roman-32"/>
      </g>
     </g>
    </g>
    <g id="xtick_4">
     <g id="line2d_7">
      <g>
       <use style="stroke:#000000;stroke-width:0.5;" x="246.857142857" xlink:href="#m7aed93fc00" y="576.0"/>
      </g>
     </g>
     <g id="line2d_8">
      <g>
       <use style="stroke:#000000;stroke-width:0.5;" x="246.857142857" xlink:href="#mc549b35d53" y="28.8"/>
      </g>
     </g>
     <g id="text_4">
      <!-- 0.4 -->
      <defs>
       <path d="M 37.796875 64.3125 
L 12.890625 25.390625 
L 37.796875 25.390625 
z
M 35.203125 72.90625 
L 47.609375 72.90625 
L 47.609375 25.390625 
L 58.015625 25.390625 
L 58.015625 17.1875 
L 47.609375 17.1875 
L 47.609375 0 
L 37.796875 0 
L 37.796875 17.1875 
L 4.890625 17.1875 
L 4.890625 26.703125 
z
" id="BitstreamVeraSans-Roman-34"/>
      </defs>
      <g transform="translate(237.315267857 589.118125)scale(0.12 -0.12)">
       <use xlink:href="#BitstreamVeraSans-Roman-30"/>
       <use x="63.623046875" xlink:href="#BitstreamVeraSans-Roman-2e"/>
       <use x="95.41015625" xlink:href="#BitstreamVeraSans-Roman-34"/>
      </g>
     </g>
    </g>
    <g id="xtick_5">
     <g id="line2d_9">
      <g>
       <use style="stroke:#000000;stroke-width:0.5;" x="329.142857143" xlink:href="#m7aed93fc00" y="576.0"/>
      </g>
     </g>
     <g id="line2d_10">
      <g>
       <use style="stroke:#000000;stroke-width:0.5;" x="329.142857143" xlink:href="#mc549b35d53" y="28.8"/>
      </g>
     </g>
     <g id="text_5">
      <!-- 0.6 -->
      <defs>
       <path d="M 33.015625 40.375 
Q 26.375 40.375 22.484375 35.828125 
Q 18.609375 31.296875 18.609375 23.390625 
Q 18.609375 15.53125 22.484375 10.953125 
Q 26.375 6.390625 33.015625 6.390625 
Q 39.65625 6.390625 43.53125 10.953125 
Q 47.40625 15.53125 47.40625 23.390625 
Q 47.40625 31.296875 43.53125 35.828125 
Q 39.65625 40.375 33.015625 40.375 
M 52.59375 71.296875 
L 52.59375 62.3125 
Q 48.875 64.0625 45.09375 64.984375 
Q 41.3125 65.921875 37.59375 65.921875 
Q 27.828125 65.921875 22.671875 59.328125 
Q 17.53125 52.734375 16.796875 39.40625 
Q 19.671875 43.65625 24.015625 45.921875 
Q 28.375 48.1875 33.59375 48.1875 
Q 44.578125 48.1875 50.953125 41.515625 
Q 57.328125 34.859375 57.328125 23.390625 
Q 57.328125 12.15625 50.6875 5.359375 
Q 44.046875 -1.421875 33.015625 -1.421875 
Q 20.359375 -1.421875 13.671875 8.265625 
Q 6.984375 17.96875 6.984375 36.375 
Q 6.984375 53.65625 15.1875 63.9375 
Q 23.390625 74.21875 37.203125 74.21875 
Q 40.921875 74.21875 44.703125 73.484375 
Q 48.484375 72.75 52.59375 71.296875 
" id="BitstreamVeraSans-Roman-36"/>
      </defs>
      <g transform="translate(319.600982143 589.118125)scale(0.12 -0.12)">
       <use xlink:href="#BitstreamVeraSans-Roman-30"/>
       <use x="63.623046875" xlink:href="#BitstreamVeraSans-Roman-2e"/>
       <use x="95.41015625" xlink:href="#BitstreamVeraSans-Roman-36"/>
      </g>
     </g>
    </g>
    <g id="xtick_6">
     <g id="line2d_11">
      <g>
       <use style="stroke:#000000;stroke-width:0.5;" x="411.428571429" xlink:href="#m7aed93fc00" y="576.0"/>
      </g>
     </g>
     <g id="line2d_12">
      <g>
       <use style="stroke:#000000;stroke-width:0.5;" x="411.428571429" xlink:href="#mc549b35d53" y="28.8"/>
      </g>
     </g>
     <g id="text_6">
      <!-- 0.8 -->
      <defs>
       <path d="M 31.78125 34.625 
Q 24.75 34.625 20.71875 30.859375 
Q 16.703125 27.09375 16.703125 20.515625 
Q 16.703125 13.921875 20.71875 10.15625 
Q 24.75 6.390625 31.78125 6.390625 
Q 38.8125 6.390625 42.859375 10.171875 
Q 46.921875 13.96875 46.921875 20.515625 
Q 46.921875 27.09375 42.890625 30.859375 
Q 38.875 34.625 31.78125 34.625 
M 21.921875 38.8125 
Q 15.578125 40.375 12.03125 44.71875 
Q 8.5 49.078125 8.5 55.328125 
Q 8.5 64.0625 14.71875 69.140625 
Q 20.953125 74.21875 31.78125 74.21875 
Q 42.671875 74.21875 48.875 69.140625 
Q 55.078125 64.0625 55.078125 55.328125 
Q 55.078125 49.078125 51.53125 44.71875 
Q 48 40.375 41.703125 38.8125 
Q 48.828125 37.15625 52.796875 32.3125 
Q 56.78125 27.484375 56.78125 20.515625 
Q 56.78125 9.90625 50.3125 4.234375 
Q 43.84375 -1.421875 31.78125 -1.421875 
Q 19.734375 -1.421875 13.25 4.234375 
Q 6.78125 9.90625 6.78125 20.515625 
Q 6.78125 27.484375 10.78125 32.3125 
Q 14.796875 37.15625 21.921875 38.8125 
M 18.3125 54.390625 
Q 18.3125 48.734375 21.84375 45.5625 
Q 25.390625 42.390625 31.78125 42.390625 
Q 38.140625 42.390625 41.71875 45.5625 
Q 45.3125 48.734375 45.3125 54.390625 
Q 45.3125 60.0625 41.71875 63.234375 
Q 38.140625 66.40625 31.78125 66.40625 
Q 25.390625 66.40625 21.84375 63.234375 
Q 18.3125 60.0625 18.3125 54.390625 
" id="BitstreamVeraSans-Roman-38"/>
      </defs>
      <g transform="translate(401.886696429 589.118125)scale(0.12 -0.12)">
       <use xlink:href="#BitstreamVeraSans-Roman-30"/>
       <use x="63.623046875" xlink:href="#BitstreamVeraSans-Roman-2e"/>
       <use x="95.41015625" xlink:href="#BitstreamVeraSans-Roman-38"/>
      </g>
     </g>
    </g>
    <g id="xtick_7">
     <g id="line2d_13">
      <g>
       <use style="stroke:#000000;stroke-width:0.5;" x="493.714285714" xlink:href="#m7aed93fc00" y="576.0"/>
      </g>
     </g>
     <g id="line2d_14">
      <g>
       <use style="stroke:#000000;stroke-width:0.5;" x="493.714285714" xlink:href="#mc549b35d53" y="28.8"/>
      </g>
     </g>
     <g id="text_7">
      <!-- 1.0 -->
      <defs>
       <path d="M 12.40625 8.296875 
L 28.515625 8.296875 
L 28.515625 63.921875 
L 10.984375 60.40625 
L 10.984375 69.390625 
L 28.421875 72.90625 
L 38.28125 72.90625 
L 38.28125 8.296875 
L 54.390625 8.296875 
L 54.390625 0 
L 12.40625 0 
z
" id="BitstreamVeraSans-Roman-31"/>
      </defs>
      <g transform="translate(484.172410714 589.118125)scale(0.12 -0.12)">
       <use xlink:href="#BitstreamVeraSans-Roman-31"/>
       <use x="63.623046875" xlink:href="#BitstreamVeraSans-Roman-2e"/>
       <use x="95.41015625" xlink:href="#BitstreamVeraSans-Roman-30"/>
      </g>
     </g>
    </g>
    <g id="xtick_8">
     <g id="line2d_15">
      <g>
       <use style="stroke:#000000;stroke-width:0.5;" x="576.0" xlink:href="#m7aed93fc00" y="576.0"/>
      </g>
     </g>
     <g id="line2d_16">
      <g>
       <use style="stroke:#000000;stroke-width:0.5;" x="576.0" xlink:href="#mc549b35d53" y="28.8"/>
      </g>
     </g>
     <g id="text_8">
      <!-- 1.2 -->
      <g transform="translate(566.458125 589.118125)scale(0.12 -0.12)">
       <use xlink:href="#BitstreamVeraSans-Roman-31"/>
       <use x="63.623046875" xlink:href="#BitstreamVeraSans-Roman-2e"/>
       <use x="95.41015625" xlink:href="#BitstreamVeraSans-Roman-32"/>
      </g>
     </g>
    </g>
   </g>
   <g id="matplotlib.axis_2">
    <g id="ytick_1">
     <g id="line2d_17">
      <defs>
       <path d="M 0 0 
L 4 0 
" id="maa0f4d8acb" style="stroke:#000000;stroke-width:0.5;"/>
      </defs>
      <g>
       <use style="stroke:#000000;stroke-width:0.5;" x="0.0" xlink:href="#maa0f4d8acb" y="576.0"/>
      </g>
     </g>
     <g id="line2d_18">
      <defs>
       <path d="M 0 0 
L -4 0 
" id="m1bf1d005e7" style="stroke:#000000;stroke-width:0.5;"/>
      </defs>
      <g>
       <use style="stroke:#000000;stroke-width:0.5;" x="576.0" xlink:href="#m1bf1d005e7" y="576.0"/>
      </g>
     </g>
     <g id="text_9">
      <!-- −0.2 -->
      <g transform="translate(-33.139375 579.31125)scale(0.12 -0.12)">
       <use xlink:href="#BitstreamVeraSans-Roman-2212"/>
       <use x="83.7890625" xlink:href="#BitstreamVeraSans-Roman-30"/>
       <use x="147.412109375" xlink:href="#BitstreamVeraSans-Roman-2e"/>
       <use x="179.19921875" xlink:href="#BitstreamVeraSans-Roman-32"/>
      </g>
     </g>
    </g>
    <g id="ytick_2">
     <g id="line2d_19">
      <g>
       <use style="stroke:#000000;stroke-width:0.5;" x="0.0" xlink:href="#maa0f4d8acb" y="497.828571429"/>
      </g>
     </g>
     <g id="line2d_20">
      <g>
       <use style="stroke:#000000;stroke-width:0.5;" x="576.0" xlink:href="#m1bf1d005e7" y="497.828571429"/>
      </g>
     </g>
     <g id="text_10">
      <!-- 0.0 -->
      <g transform="translate(-23.08375 501.139821429)scale(0.12 -0.12)">
       <use xlink:href="#BitstreamVeraSans-Roman-30"/>
       <use x="63.623046875" xlink:href="#BitstreamVeraSans-Roman-2e"/>
       <use x="95.41015625" xlink:href="#BitstreamVeraSans-Roman-30"/>
      </g>
     </g>
    </g>
    <g id="ytick_3">
     <g id="line2d_21">
      <g>
       <use style="stroke:#000000;stroke-width:0.5;" x="0.0" xlink:href="#maa0f4d8acb" y="419.657142857"/>
      </g>
     </g>
     <g id="line2d_22">
      <g>
       <use style="stroke:#000000;stroke-width:0.5;" x="576.0" xlink:href="#m1bf1d005e7" y="419.657142857"/>
      </g>
     </g>
     <g id="text_11">
      <!-- 0.2 -->
      <g transform="translate(-23.08375 422.968392857)scale(0.12 -0.12)">
       <use xlink:href="#BitstreamVeraSans-Roman-30"/>
       <use x="63.623046875" xlink:href="#BitstreamVeraSans-Roman-2e"/>
       <use x="95.41015625" xlink:href="#BitstreamVeraSans-Roman-32"/>
      </g>
     </g>
    </g>
    <g id="ytick_4">
     <g id="line2d_23">
      <g>
       <use style="stroke:#000000;stroke-width:0.5;" x="0.0" xlink:href="#maa0f4d8acb" y="341.485714286"/>
      </g>
     </g>
     <g id="line2d_24">
      <g>
       <use style="stroke:#000000;stroke-width:0.5;" x="576.0" xlink:href="#m1bf1d005e7" y="341.485714286"/>
      </g>
     </g>
     <g id="text_12">
      <!-- 0.4 -->
      <g transform="translate(-23.08375 344.796964286)scale(0.12 -0.12)">
       <use xlink:href="#BitstreamVeraSans-Roman-30"/>
       <use x="63.623046875" xlink:href="#BitstreamVeraSans-Roman-2e"/>
       <use x="95.41015625" xlink:href="#BitstreamVeraSans-Roman-34"/>
      </g>
     </g>
    </g>
    <g id="ytick_5">
     <g id="line2d_25">
      <g>
       <use style="stroke:#000000;stroke-width:0.5;" x="0.0" xlink:href="#maa0f4d8acb" y="263.314285714"/>
      </g>
     </g>
     <g id="line2d_26">
      <g>
       <use style="stroke:#000000;stroke-width:0.5;" x="576.0" xlink:href="#m1bf1d005e7" y="263.314285714"/>
      </g>
     </g>
     <g id="text_13">
      <!-- 0.6 -->
      <g transform="translate(-23.08375 266.625535714)scale(0.12 -0.12)">
       <use xlink:href="#BitstreamVeraSans-Roman-30"/>
       <use x="63.623046875" xlink:href="#BitstreamVeraSans-Roman-2e"/>
       <use x="95.41015625" xlink:href="#BitstreamVeraSans-Roman-36"/>
      </g>
     </g>
    </g>
    <g id="ytick_6">
     <g id="line2d_27">
      <g>
       <use style="stroke:#000000;stroke-width:0.5;" x="0.0" xlink:href="#maa0f4d8acb" y="185.142857143"/>
      </g>
     </g>
     <g id="line2d_28">
      <g>
       <use style="stroke:#000000;stroke-width:0.5;" x="576.0" xlink:href="#m1bf1d005e7" y="185.142857143"/>
      </g>
     </g>
     <g id="text_14">
      <!-- 0.8 -->
      <g transform="translate(-23.08375 188.454107143)scale(0.12 -0.12)">
       <use xlink:href="#BitstreamVeraSans-Roman-30"/>
       <use x="63.623046875" xlink:href="#BitstreamVeraSans-Roman-2e"/>
       <use x="95.41015625" xlink:href="#BitstreamVeraSans-Roman-38"/>
      </g>
     </g>
    </g>
    <g id="ytick_7">
     <g id="line2d_29">
      <g>
       <use style="stroke:#000000;stroke-width:0.5;" x="0.0" xlink:href="#maa0f4d8acb" y="106.971428571"/>
      </g>
     </g>
     <g id="line2d_30">
      <g>
       <use style="stroke:#000000;stroke-width:0.5;" x="576.0" xlink:href="#m1bf1d005e7" y="106.971428571"/>
      </g>
     </g>
     <g id="text_15">
      <!-- 1.0 -->
      <g transform="translate(-23.08375 110.282678571)scale(0.12 -0.12)">
       <use xlink:href="#BitstreamVeraSans-Roman-31"/>
       <use x="63.623046875" xlink:href="#BitstreamVeraSans-Roman-2e"/>
       <use x="95.41015625" xlink:href="#BitstreamVeraSans-Roman-30"/>
      </g>
     </g>
    </g>
    <g id="ytick_8">
     <g id="line2d_31">
      <g>
       <use style="stroke:#000000;stroke-width:0.5;" x="0.0" xlink:href="#maa0f4d8acb" y="28.8"/>
      </g>
     </g>
     <g id="line2d_32">
      <g>
       <use style="stroke:#000000;stroke-width:0.5;" x="576.0" xlink:href="#m1bf1d005e7" y="28.8"/>
      </g>
     </g>
     <g id="text_16">
      <!-- 1.2 -->
      <g transform="translate(-23.08375 32.11125)scale(0.12 -0.12)">
       <use xlink:href="#BitstreamVeraSans-Roman-31"/>
       <use x="63.623046875" xlink:href="#BitstreamVeraSans-Roman-2e"/>
       <use x="95.41015625" xlink:href="#BitstreamVeraSans-Roman-32"/>
      </g>
     </g>
    </g>
   </g>
   <g id="text_17">
    <g clip-path="url(#pa9cd377d57)">
     <!-- JOHANN -->
     <defs>
      <path d="M 39.40625 66.21875 
Q 28.65625 66.21875 22.328125 58.203125 
Q 16.015625 50.203125 16.015625 36.375 
Q 16.015625 22.609375 22.328125 14.59375 
Q 28.65625 6.59375 39.40625 6.59375 
Q 50.140625 6.59375 56.421875 14.59375 
Q 62.703125 22.609375 62.703125 36.375 
Q 62.703125 50.203125 56.421875 58.203125 
Q 50.140625 66.21875 39.40625 66.21875 
M 39.40625 74.21875 
Q 54.734375 74.21875 63.90625 63.9375 
Q 73.09375 53.65625 73.09375 36.375 
Q 73.09375 19.140625 63.90625 8.859375 
Q 54.734375 -1.421875 39.40625 -1.421875 
Q 24.03125 -1.421875 14.8125 8.828125 
Q 5.609375 19.09375 5.609375 36.375 
Q 5.609375 53.65625 14.8125 63.9375 
Q 24.03125 74.21875 39.40625 74.21875 
" id="BitstreamVeraSans-Roman-4f"/>
      <path d="M 9.8125 72.90625 
L 23.09375 72.90625 
L 55.421875 11.921875 
L 55.421875 72.90625 
L 64.984375 72.90625 
L 64.984375 0 
L 51.703125 0 
L 19.390625 60.984375 
L 19.390625 0 
L 9.8125 0 
z
" id="BitstreamVeraSans-Roman-4e"/>
      <path d="M 9.8125 72.90625 
L 19.671875 72.90625 
L 19.671875 5.078125 
Q 19.671875 -8.109375 14.671875 -14.0625 
Q 9.671875 -20.015625 -1.421875 -20.015625 
L -5.171875 -20.015625 
L -5.171875 -11.71875 
L -2.09375 -11.71875 
Q 4.4375 -11.71875 7.125 -8.046875 
Q 9.8125 -4.390625 9.8125 5.078125 
z
" id="BitstreamVeraSans-Roman-4a"/>
      <path d="M 34.1875 63.1875 
L 20.796875 26.90625 
L 47.609375 26.90625 
z
M 28.609375 72.90625 
L 39.796875 72.90625 
L 67.578125 0 
L 57.328125 0 
L 50.6875 18.703125 
L 17.828125 18.703125 
L 11.1875 0 
L 0.78125 0 
z
" id="BitstreamVeraSans-Roman-41"/>
      <path d="M 9.8125 72.90625 
L 19.671875 72.90625 
L 19.671875 43.015625 
L 55.515625 43.015625 
L 55.515625 72.90625 
L 65.375 72.90625 
L 65.375 0 
L 55.515625 0 
L 55.515625 34.71875 
L 19.671875 34.71875 
L 19.671875 0 
L 9.8125 0 
z
" id="BitstreamVeraSans-Roman-48"/>
     </defs>
     <g transform="translate(272.850578062 376.823005599)scale(0.12 -0.12)">
      <use xlink:href="#BitstreamVeraSans-Roman-4a"/>
      <use x="29.4921875" xlink:href="#BitstreamVeraSans-Roman-4f"/>
      <use x="108.203125" xlink:href="#BitstreamVeraSans-Roman-48"/>
      <use x="183.3984375" xlink:href="#BitstreamVeraSans-Roman-41"/>
      <use x="251.806640625" xlink:href="#BitstreamVeraSans-Roman-4e"/>
      <use x="326.611328125" xlink:href="#BitstreamVeraSans-Roman-4e"/>
     </g>
    </g>
   </g>
   <g id="text_18">
    <g clip-path="url(#pa9cd377d57)">
     <!-- KRAFT -->
     <defs>
      <path d="M 9.8125 72.90625 
L 19.671875 72.90625 
L 19.671875 42.09375 
L 52.390625 72.90625 
L 65.09375 72.90625 
L 28.90625 38.921875 
L 67.671875 0 
L 54.6875 0 
L 19.671875 35.109375 
L 19.671875 0 
L 9.8125 0 
z
" id="BitstreamVeraSans-Roman-4b"/>
      <path d="M -0.296875 72.90625 
L 61.375 72.90625 
L 61.375 64.59375 
L 35.5 64.59375 
L 35.5 0 
L 25.59375 0 
L 25.59375 64.59375 
L -0.296875 64.59375 
z
" id="BitstreamVeraSans-Roman-54"/>
      <path d="M 44.390625 34.1875 
Q 47.5625 33.109375 50.5625 29.59375 
Q 53.5625 26.078125 56.59375 19.921875 
L 66.609375 0 
L 56 0 
L 46.6875 18.703125 
Q 43.0625 26.03125 39.671875 28.421875 
Q 36.28125 30.8125 30.421875 30.8125 
L 19.671875 30.8125 
L 19.671875 0 
L 9.8125 0 
L 9.8125 72.90625 
L 32.078125 72.90625 
Q 44.578125 72.90625 50.734375 67.671875 
Q 56.890625 62.453125 56.890625 51.90625 
Q 56.890625 45.015625 53.6875 40.46875 
Q 50.484375 35.9375 44.390625 34.1875 
M 19.671875 64.796875 
L 19.671875 38.921875 
L 32.078125 38.921875 
Q 39.203125 38.921875 42.84375 42.21875 
Q 46.484375 45.515625 46.484375 51.90625 
Q 46.484375 58.296875 42.84375 61.546875 
Q 39.203125 64.796875 32.078125 64.796875 
z
" id="BitstreamVeraSans-Roman-52"/>
      <path d="M 9.8125 72.90625 
L 51.703125 72.90625 
L 51.703125 64.59375 
L 19.671875 64.59375 
L 19.671875 43.109375 
L 48.578125 43.109375 
L 48.578125 34.8125 
L 19.671875 34.8125 
L 19.671875 0 
L 9.8125 0 
z
" id="BitstreamVeraSans-Roman-46"/>
     </defs>
     <g transform="translate(234.480238686 140.520603622)scale(0.12 -0.12)">
      <use xlink:href="#BitstreamVeraSans-Roman-4b"/>
      <use x="65.576171875" xlink:href="#BitstreamVeraSans-Roman-52"/>
      <use x="134.99609375" xlink:href="#BitstreamVeraSans-Roman-41"/>
      <use x="203.404296875" xlink:href="#BitstreamVeraSans-Roman-46"/>
      <use x="260.908203125" xlink:href="#BitstreamVeraSans-Roman-54"/>
     </g>
    </g>
   </g>
   <g id="text_19">
    <g clip-path="url(#pa9cd377d57)">
     <!-- MINNA -->
     <defs>
      <path d="M 9.8125 72.90625 
L 24.515625 72.90625 
L 43.109375 23.296875 
L 61.8125 72.90625 
L 76.515625 72.90625 
L 76.515625 0 
L 66.890625 0 
L 66.890625 64.015625 
L 48.09375 14.015625 
L 38.1875 14.015625 
L 19.390625 64.015625 
L 19.390625 0 
L 9.8125 0 
z
" id="BitstreamVeraSans-Roman-4d"/>
      <path d="M 9.8125 72.90625 
L 19.671875 72.90625 
L 19.671875 0 
L 9.8125 0 
z
" id="BitstreamVeraSans-Roman-49"/>
     </defs>
     <g transform="translate(402.387733167 407.33402511)scale(0.12 -0.12)">
      <use xlink:href="#BitstreamVeraSans-Roman-4d"/>
      <use x="86.279296875" xlink:href="#BitstreamVeraSans-Roman-49"/>
      <use x="115.771484375" xlink:href="#BitstreamVeraSans-Roman-4e"/>
      <use x="190.576171875" xlink:href="#BitstreamVeraSans-Roman-4e"/>
      <use x="265.380859375" xlink:href="#BitstreamVeraSans-Roman-41"/>
     </g>
    </g>
   </g>
   <g id="text_20">
    <g clip-path="url(#pa9cd377d57)">
     <!-- STILLE -->
     <defs>
      <path d="M 53.515625 70.515625 
L 53.515625 60.890625 
Q 47.90625 63.578125 42.921875 64.890625 
Q 37.9375 66.21875 33.296875 66.21875 
Q 25.25 66.21875 20.875 63.09375 
Q 16.5 59.96875 16.5 54.203125 
Q 16.5 49.359375 19.40625 46.890625 
Q 22.3125 44.4375 30.421875 42.921875 
L 36.375 41.703125 
Q 47.40625 39.59375 52.65625 34.296875 
Q 57.90625 29 57.90625 20.125 
Q 57.90625 9.515625 50.796875 4.046875 
Q 43.703125 -1.421875 29.984375 -1.421875 
Q 24.8125 -1.421875 18.96875 -0.25 
Q 13.140625 0.921875 6.890625 3.21875 
L 6.890625 13.375 
Q 12.890625 10.015625 18.65625 8.296875 
Q 24.421875 6.59375 29.984375 6.59375 
Q 38.421875 6.59375 43.015625 9.90625 
Q 47.609375 13.234375 47.609375 19.390625 
Q 47.609375 24.75 44.3125 27.78125 
Q 41.015625 30.8125 33.5 32.328125 
L 27.484375 33.5 
Q 16.453125 35.6875 11.515625 40.375 
Q 6.59375 45.0625 6.59375 53.421875 
Q 6.59375 63.09375 13.40625 68.65625 
Q 20.21875 74.21875 32.171875 74.21875 
Q 37.3125 74.21875 42.625 73.28125 
Q 47.953125 72.359375 53.515625 70.515625 
" id="BitstreamVeraSans-Roman-53"/>
      <path d="M 9.8125 72.90625 
L 55.90625 72.90625 
L 55.90625 64.59375 
L 19.671875 64.59375 
L 19.671875 43.015625 
L 54.390625 43.015625 
L 54.390625 34.71875 
L 19.671875 34.71875 
L 19.671875 8.296875 
L 56.78125 8.296875 
L 56.78125 0 
L 9.8125 0 
z
" id="BitstreamVeraSans-Roman-45"/>
      <path d="M 9.8125 72.90625 
L 19.671875 72.90625 
L 19.671875 8.296875 
L 55.171875 8.296875 
L 55.171875 0 
L 9.8125 0 
z
" id="BitstreamVeraSans-Roman-4c"/>
     </defs>
     <g transform="translate(369.143129712 431.819935863)scale(0.12 -0.12)">
      <use xlink:href="#BitstreamVeraSans-Roman-53"/>
      <use x="63.4765625" xlink:href="#BitstreamVeraSans-Roman-54"/>
      <use x="124.560546875" xlink:href="#BitstreamVeraSans-Roman-49"/>
      <use x="154.052734375" xlink:href="#BitstreamVeraSans-Roman-4c"/>
      <use x="209.765625" xlink:href="#BitstreamVeraSans-Roman-4c"/>
      <use x="265.478515625" xlink:href="#BitstreamVeraSans-Roman-45"/>
     </g>
    </g>
   </g>
   <g id="text_21">
    <g clip-path="url(#pa9cd377d57)">
     <!-- BELLER -->
     <defs>
      <path d="M 19.671875 34.8125 
L 19.671875 8.109375 
L 35.5 8.109375 
Q 43.453125 8.109375 47.28125 11.40625 
Q 51.125 14.703125 51.125 21.484375 
Q 51.125 28.328125 47.28125 31.5625 
Q 43.453125 34.8125 35.5 34.8125 
z
M 19.671875 64.796875 
L 19.671875 42.828125 
L 34.28125 42.828125 
Q 41.5 42.828125 45.03125 45.53125 
Q 48.578125 48.25 48.578125 53.8125 
Q 48.578125 59.328125 45.03125 62.0625 
Q 41.5 64.796875 34.28125 64.796875 
z
M 9.8125 72.90625 
L 35.015625 72.90625 
Q 46.296875 72.90625 52.390625 68.21875 
Q 58.5 63.53125 58.5 54.890625 
Q 58.5 48.1875 55.375 44.234375 
Q 52.25 40.28125 46.1875 39.3125 
Q 53.46875 37.75 57.5 32.78125 
Q 61.53125 27.828125 61.53125 20.40625 
Q 61.53125 10.640625 54.890625 5.3125 
Q 48.25 0 35.984375 0 
L 9.8125 0 
z
" id="BitstreamVeraSans-Roman-42"/>
     </defs>
     <g transform="translate(471.159910714 240.416810867)scale(0.12 -0.12)">
      <use xlink:href="#BitstreamVeraSans-Roman-42"/>
      <use x="68.603515625" xlink:href="#BitstreamVeraSans-Roman-45"/>
      <use x="131.787109375" xlink:href="#BitstreamVeraSans-Roman-4c"/>
      <use x="187.5" xlink:href="#BitstreamVeraSans-Roman-4c"/>
      <use x="243.212890625" xlink:href="#BitstreamVeraSans-Roman-45"/>
      <use x="306.396484375" xlink:href="#BitstreamVeraSans-Roman-52"/>
     </g>
    </g>
   </g>
   <g id="text_22">
    <g clip-path="url(#pa9cd377d57)">
     <!-- SCHÖN -->
     <defs>
      <path d="M 64.40625 67.28125 
L 64.40625 56.890625 
Q 59.421875 61.53125 53.78125 63.8125 
Q 48.140625 66.109375 41.796875 66.109375 
Q 29.296875 66.109375 22.65625 58.46875 
Q 16.015625 50.828125 16.015625 36.375 
Q 16.015625 21.96875 22.65625 14.328125 
Q 29.296875 6.6875 41.796875 6.6875 
Q 48.140625 6.6875 53.78125 8.984375 
Q 59.421875 11.28125 64.40625 15.921875 
L 64.40625 5.609375 
Q 59.234375 2.09375 53.4375 0.328125 
Q 47.65625 -1.421875 41.21875 -1.421875 
Q 24.65625 -1.421875 15.125 8.703125 
Q 5.609375 18.84375 5.609375 36.375 
Q 5.609375 53.953125 15.125 64.078125 
Q 24.65625 74.21875 41.21875 74.21875 
Q 47.75 74.21875 53.53125 72.484375 
Q 59.328125 70.75 64.40625 67.28125 
" id="BitstreamVeraSans-Roman-43"/>
      <path d="M 39.40625 66.21875 
Q 28.65625 66.21875 22.328125 58.203125 
Q 16.015625 50.203125 16.015625 36.375 
Q 16.015625 22.609375 22.328125 14.59375 
Q 28.65625 6.59375 39.40625 6.59375 
Q 50.140625 6.59375 56.421875 14.59375 
Q 62.703125 22.609375 62.703125 36.375 
Q 62.703125 50.203125 56.421875 58.203125 
Q 50.140625 66.21875 39.40625 66.21875 
M 39.40625 74.21875 
Q 54.734375 74.21875 63.90625 63.9375 
Q 73.09375 53.65625 73.09375 36.375 
Q 73.09375 19.140625 63.90625 8.859375 
Q 54.734375 -1.421875 39.40625 -1.421875 
Q 24.03125 -1.421875 14.8125 8.828125 
Q 5.609375 19.09375 5.609375 36.375 
Q 5.609375 53.65625 14.8125 63.9375 
Q 24.03125 74.21875 39.40625 74.21875 
M 43.96875 91.09375 
L 53.875 91.09375 
L 53.875 81.1875 
L 43.96875 81.1875 
z
M 24.875 91.09375 
L 34.78125 91.09375 
L 34.78125 81.1875 
L 24.875 81.1875 
z
" id="BitstreamVeraSans-Roman-d6"/>
     </defs>
     <g transform="translate(295.115715703 274.798110679)scale(0.12 -0.12)">
      <use xlink:href="#BitstreamVeraSans-Roman-53"/>
      <use x="63.4765625" xlink:href="#BitstreamVeraSans-Roman-43"/>
      <use x="133.30078125" xlink:href="#BitstreamVeraSans-Roman-48"/>
      <use x="208.49609375" xlink:href="#BitstreamVeraSans-Roman-d6"/>
      <use x="287.20703125" xlink:href="#BitstreamVeraSans-Roman-4e"/>
     </g>
    </g>
   </g>
   <g id="text_23">
    <g clip-path="url(#pa9cd377d57)">
     <!-- SEDLBERGER -->
     <defs>
      <path d="M 19.671875 64.796875 
L 19.671875 8.109375 
L 31.59375 8.109375 
Q 46.6875 8.109375 53.6875 14.9375 
Q 60.6875 21.78125 60.6875 36.53125 
Q 60.6875 51.171875 53.6875 57.984375 
Q 46.6875 64.796875 31.59375 64.796875 
z
M 9.8125 72.90625 
L 30.078125 72.90625 
Q 51.265625 72.90625 61.171875 64.09375 
Q 71.09375 55.28125 71.09375 36.53125 
Q 71.09375 17.671875 61.125 8.828125 
Q 51.171875 0 30.078125 0 
L 9.8125 0 
z
" id="BitstreamVeraSans-Roman-44"/>
      <path d="M 59.515625 10.40625 
L 59.515625 29.984375 
L 43.40625 29.984375 
L 43.40625 38.09375 
L 69.28125 38.09375 
L 69.28125 6.78125 
Q 63.578125 2.734375 56.6875 0.65625 
Q 49.8125 -1.421875 42 -1.421875 
Q 24.90625 -1.421875 15.25 8.5625 
Q 5.609375 18.5625 5.609375 36.375 
Q 5.609375 54.25 15.25 64.234375 
Q 24.90625 74.21875 42 74.21875 
Q 49.125 74.21875 55.546875 72.453125 
Q 61.96875 70.703125 67.390625 67.28125 
L 67.390625 56.78125 
Q 61.921875 61.421875 55.765625 63.765625 
Q 49.609375 66.109375 42.828125 66.109375 
Q 29.4375 66.109375 22.71875 58.640625 
Q 16.015625 51.171875 16.015625 36.375 
Q 16.015625 21.625 22.71875 14.15625 
Q 29.4375 6.6875 42.828125 6.6875 
Q 48.046875 6.6875 52.140625 7.59375 
Q 56.25 8.5 59.515625 10.40625 
" id="BitstreamVeraSans-Roman-47"/>
     </defs>
     <g transform="translate(216.22471081 400.519689182)scale(0.12 -0.12)">
      <use xlink:href="#BitstreamVeraSans-Roman-53"/>
      <use x="63.4765625" xlink:href="#BitstreamVeraSans-Roman-45"/>
      <use x="126.66015625" xlink:href="#BitstreamVeraSans-Roman-44"/>
      <use x="203.662109375" xlink:href="#BitstreamVeraSans-Roman-4c"/>
      <use x="259.375" xlink:href="#BitstreamVeraSans-Roman-42"/>
      <use x="327.978515625" xlink:href="#BitstreamVeraSans-Roman-45"/>
      <use x="391.162109375" xlink:href="#BitstreamVeraSans-Roman-52"/>
      <use x="460.64453125" xlink:href="#BitstreamVeraSans-Roman-47"/>
      <use x="538.134765625" xlink:href="#BitstreamVeraSans-Roman-45"/>
      <use x="601.318359375" xlink:href="#BitstreamVeraSans-Roman-52"/>
     </g>
    </g>
   </g>
   <g id="text_24">
    <g clip-path="url(#pa9cd377d57)">
     <!-- STÖBER -->
     <g transform="translate(259.837331601 156.089580485)scale(0.12 -0.12)">
      <use xlink:href="#BitstreamVeraSans-Roman-53"/>
      <use x="63.4765625" xlink:href="#BitstreamVeraSans-Roman-54"/>
      <use x="124.560546875" xlink:href="#BitstreamVeraSans-Roman-d6"/>
      <use x="203.271484375" xlink:href="#BitstreamVeraSans-Roman-42"/>
      <use x="271.875" xlink:href="#BitstreamVeraSans-Roman-45"/>
      <use x="335.05859375" xlink:href="#BitstreamVeraSans-Roman-52"/>
     </g>
    </g>
   </g>
   <g id="text_25">
    <g clip-path="url(#pa9cd377d57)">
     <!-- MARTIN -->
     <g transform="translate(222.312431582 281.115422673)scale(0.12 -0.12)">
      <use xlink:href="#BitstreamVeraSans-Roman-4d"/>
      <use x="86.279296875" xlink:href="#BitstreamVeraSans-Roman-41"/>
      <use x="154.6875" xlink:href="#BitstreamVeraSans-Roman-52"/>
      <use x="224.060546875" xlink:href="#BitstreamVeraSans-Roman-54"/>
      <use x="285.14453125" xlink:href="#BitstreamVeraSans-Roman-49"/>
      <use x="314.63671875" xlink:href="#BitstreamVeraSans-Roman-4e"/>
     </g>
    </g>
   </g>
   <g id="text_26">
    <g clip-path="url(#pa9cd377d57)">
     <!-- ANNA -->
     <g transform="translate(333.868623883 279.814501913)scale(0.12 -0.12)">
      <use xlink:href="#BitstreamVeraSans-Roman-41"/>
      <use x="68.408203125" xlink:href="#BitstreamVeraSans-Roman-4e"/>
      <use x="143.212890625" xlink:href="#BitstreamVeraSans-Roman-4e"/>
      <use x="218.017578125" xlink:href="#BitstreamVeraSans-Roman-41"/>
     </g>
    </g>
   </g>
   <g id="text_27">
    <g clip-path="url(#pa9cd377d57)">
     <!-- SIDONIE -->
     <g transform="translate(211.446551537 212.025307917)scale(0.12 -0.12)">
      <use xlink:href="#BitstreamVeraSans-Roman-53"/>
      <use x="63.4765625" xlink:href="#BitstreamVeraSans-Roman-49"/>
      <use x="92.96875" xlink:href="#BitstreamVeraSans-Roman-44"/>
      <use x="169.970703125" xlink:href="#BitstreamVeraSans-Roman-4f"/>
      <use x="248.681640625" xlink:href="#BitstreamVeraSans-Roman-4e"/>
      <use x="323.486328125" xlink:href="#BitstreamVeraSans-Roman-49"/>
      <use x="352.978515625" xlink:href="#BitstreamVeraSans-Roman-45"/>
     </g>
    </g>
   </g>
   <g id="text_28">
    <g clip-path="url(#pa9cd377d57)">
     <!-- STÖTZL -->
     <defs>
      <path d="M 5.609375 72.90625 
L 62.890625 72.90625 
L 62.890625 65.375 
L 16.796875 8.296875 
L 64.015625 8.296875 
L 64.015625 0 
L 4.5 0 
L 4.5 7.515625 
L 50.59375 64.59375 
L 5.609375 64.59375 
z
" id="BitstreamVeraSans-Roman-5a"/>
     </defs>
     <g transform="translate(213.342721396 372.089579987)scale(0.12 -0.12)">
      <use xlink:href="#BitstreamVeraSans-Roman-53"/>
      <use x="63.4765625" xlink:href="#BitstreamVeraSans-Roman-54"/>
      <use x="124.560546875" xlink:href="#BitstreamVeraSans-Roman-d6"/>
      <use x="203.271484375" xlink:href="#BitstreamVeraSans-Roman-54"/>
      <use x="264.35546875" xlink:href="#BitstreamVeraSans-Roman-5a"/>
      <use x="332.861328125" xlink:href="#BitstreamVeraSans-Roman-4c"/>
     </g>
    </g>
   </g>
   <g id="text_29">
    <g clip-path="url(#pa9cd377d57)">
     <!-- MOSTINGER -->
     <g transform="translate(175.538458264 365.901091492)scale(0.12 -0.12)">
      <use xlink:href="#BitstreamVeraSans-Roman-4d"/>
      <use x="86.279296875" xlink:href="#BitstreamVeraSans-Roman-4f"/>
      <use x="164.990234375" xlink:href="#BitstreamVeraSans-Roman-53"/>
      <use x="228.466796875" xlink:href="#BitstreamVeraSans-Roman-54"/>
      <use x="289.55078125" xlink:href="#BitstreamVeraSans-Roman-49"/>
      <use x="319.04296875" xlink:href="#BitstreamVeraSans-Roman-4e"/>
      <use x="393.84765625" xlink:href="#BitstreamVeraSans-Roman-47"/>
      <use x="471.337890625" xlink:href="#BitstreamVeraSans-Roman-45"/>
      <use x="534.521484375" xlink:href="#BitstreamVeraSans-Roman-52"/>
     </g>
    </g>
   </g>
   <g id="text_30">
    <g clip-path="url(#pa9cd377d57)">
     <!-- SCHALANTER -->
     <g transform="translate(218.576658154 329.264870634)scale(0.12 -0.12)">
      <use xlink:href="#BitstreamVeraSans-Roman-53"/>
      <use x="63.4765625" xlink:href="#BitstreamVeraSans-Roman-43"/>
      <use x="133.30078125" xlink:href="#BitstreamVeraSans-Roman-48"/>
      <use x="208.49609375" xlink:href="#BitstreamVeraSans-Roman-41"/>
      <use x="276.904296875" xlink:href="#BitstreamVeraSans-Roman-4c"/>
      <use x="332.6484375" xlink:href="#BitstreamVeraSans-Roman-41"/>
      <use x="401.056640625" xlink:href="#BitstreamVeraSans-Roman-4e"/>
      <use x="475.861328125" xlink:href="#BitstreamVeraSans-Roman-54"/>
      <use x="536.9453125" xlink:href="#BitstreamVeraSans-Roman-45"/>
      <use x="600.12890625" xlink:href="#BitstreamVeraSans-Roman-52"/>
     </g>
    </g>
   </g>
   <g id="text_31">
    <g clip-path="url(#pa9cd377d57)">
     <!-- KATSCHER -->
     <g transform="translate(178.604409719 402.686617972)scale(0.12 -0.12)">
      <use xlink:href="#BitstreamVeraSans-Roman-4b"/>
      <use x="65.560546875" xlink:href="#BitstreamVeraSans-Roman-41"/>
      <use x="133.859375" xlink:href="#BitstreamVeraSans-Roman-54"/>
      <use x="194.943359375" xlink:href="#BitstreamVeraSans-Roman-53"/>
      <use x="258.419921875" xlink:href="#BitstreamVeraSans-Roman-43"/>
      <use x="328.244140625" xlink:href="#BitstreamVeraSans-Roman-48"/>
      <use x="403.439453125" xlink:href="#BitstreamVeraSans-Roman-45"/>
      <use x="466.623046875" xlink:href="#BitstreamVeraSans-Roman-52"/>
     </g>
    </g>
   </g>
   <g id="text_32">
    <g clip-path="url(#pa9cd377d57)">
     <!-- HUTTERER -->
     <defs>
      <path d="M 8.6875 72.90625 
L 18.609375 72.90625 
L 18.609375 28.609375 
Q 18.609375 16.890625 22.84375 11.734375 
Q 27.09375 6.59375 36.625 6.59375 
Q 46.09375 6.59375 50.34375 11.734375 
Q 54.59375 16.890625 54.59375 28.609375 
L 54.59375 72.90625 
L 64.5 72.90625 
L 64.5 27.390625 
Q 64.5 13.140625 57.4375 5.859375 
Q 50.390625 -1.421875 36.625 -1.421875 
Q 22.796875 -1.421875 15.734375 5.859375 
Q 8.6875 13.140625 8.6875 27.390625 
z
" id="BitstreamVeraSans-Roman-55"/>
     </defs>
     <g transform="translate(244.648480159 231.7402149)scale(0.12 -0.12)">
      <use xlink:href="#BitstreamVeraSans-Roman-48"/>
      <use x="75.1953125" xlink:href="#BitstreamVeraSans-Roman-55"/>
      <use x="148.388671875" xlink:href="#BitstreamVeraSans-Roman-54"/>
      <use x="209.45703125" xlink:href="#BitstreamVeraSans-Roman-54"/>
      <use x="270.541015625" xlink:href="#BitstreamVeraSans-Roman-45"/>
      <use x="333.724609375" xlink:href="#BitstreamVeraSans-Roman-52"/>
      <use x="403.20703125" xlink:href="#BitstreamVeraSans-Roman-45"/>
      <use x="466.390625" xlink:href="#BitstreamVeraSans-Roman-52"/>
     </g>
    </g>
   </g>
   <g id="text_33">
    <g clip-path="url(#pa9cd377d57)">
     <!-- ATZWANGER -->
     <defs>
      <path d="M 3.328125 72.90625 
L 13.28125 72.90625 
L 28.609375 11.28125 
L 43.890625 72.90625 
L 54.984375 72.90625 
L 70.3125 11.28125 
L 85.59375 72.90625 
L 95.609375 72.90625 
L 77.296875 0 
L 64.890625 0 
L 49.515625 63.28125 
L 33.984375 0 
L 21.578125 0 
z
" id="BitstreamVeraSans-Roman-57"/>
     </defs>
     <g transform="translate(305.160797203 188.655944958)scale(0.12 -0.12)">
      <use xlink:href="#BitstreamVeraSans-Roman-41"/>
      <use x="68.298828125" xlink:href="#BitstreamVeraSans-Roman-54"/>
      <use x="129.3828125" xlink:href="#BitstreamVeraSans-Roman-5a"/>
      <use x="197.888671875" xlink:href="#BitstreamVeraSans-Roman-57"/>
      <use x="296.6875" xlink:href="#BitstreamVeraSans-Roman-41"/>
      <use x="365.095703125" xlink:href="#BitstreamVeraSans-Roman-4e"/>
      <use x="439.900390625" xlink:href="#BitstreamVeraSans-Roman-47"/>
      <use x="517.390625" xlink:href="#BitstreamVeraSans-Roman-45"/>
      <use x="580.57421875" xlink:href="#BitstreamVeraSans-Roman-52"/>
     </g>
    </g>
   </g>
   <g id="text_34">
    <g clip-path="url(#pa9cd377d57)">
     <!-- BERGER -->
     <g transform="translate(409.393855723 369.052494938)scale(0.12 -0.12)">
      <use xlink:href="#BitstreamVeraSans-Roman-42"/>
      <use x="68.603515625" xlink:href="#BitstreamVeraSans-Roman-45"/>
      <use x="131.787109375" xlink:href="#BitstreamVeraSans-Roman-52"/>
      <use x="201.26953125" xlink:href="#BitstreamVeraSans-Roman-47"/>
      <use x="278.759765625" xlink:href="#BitstreamVeraSans-Roman-45"/>
      <use x="341.943359375" xlink:href="#BitstreamVeraSans-Roman-52"/>
     </g>
    </g>
   </g>
   <g id="text_35">
    <g clip-path="url(#pa9cd377d57)">
     <!-- BARBARA -->
     <g transform="translate(238.147935553 357.457099904)scale(0.12 -0.12)">
      <use xlink:href="#BitstreamVeraSans-Roman-42"/>
      <use x="68.603515625" xlink:href="#BitstreamVeraSans-Roman-41"/>
      <use x="137.01171875" xlink:href="#BitstreamVeraSans-Roman-52"/>
      <use x="206.494140625" xlink:href="#BitstreamVeraSans-Roman-42"/>
      <use x="275.09765625" xlink:href="#BitstreamVeraSans-Roman-41"/>
      <use x="343.505859375" xlink:href="#BitstreamVeraSans-Roman-52"/>
      <use x="412.92578125" xlink:href="#BitstreamVeraSans-Roman-41"/>
     </g>
    </g>
   </g>
   <g id="text_36">
    <g clip-path="url(#pa9cd377d57)">
     <!-- JOSEPHA -->
     <defs>
      <path d="M 19.671875 64.796875 
L 19.671875 37.40625 
L 32.078125 37.40625 
Q 38.96875 37.40625 42.71875 40.96875 
Q 46.484375 44.53125 46.484375 51.125 
Q 46.484375 57.671875 42.71875 61.234375 
Q 38.96875 64.796875 32.078125 64.796875 
z
M 9.8125 72.90625 
L 32.078125 72.90625 
Q 44.34375 72.90625 50.609375 67.359375 
Q 56.890625 61.8125 56.890625 51.125 
Q 56.890625 40.328125 50.609375 34.8125 
Q 44.34375 29.296875 32.078125 29.296875 
L 19.671875 29.296875 
L 19.671875 0 
L 9.8125 0 
z
" id="BitstreamVeraSans-Roman-50"/>
     </defs>
     <g transform="translate(216.09489564 318.729444337)scale(0.12 -0.12)">
      <use xlink:href="#BitstreamVeraSans-Roman-4a"/>
      <use x="29.4921875" xlink:href="#BitstreamVeraSans-Roman-4f"/>
      <use x="108.203125" xlink:href="#BitstreamVeraSans-Roman-53"/>
      <use x="171.6796875" xlink:href="#BitstreamVeraSans-Roman-45"/>
      <use x="234.86328125" xlink:href="#BitstreamVeraSans-Roman-50"/>
      <use x="295.166015625" xlink:href="#BitstreamVeraSans-Roman-48"/>
      <use x="370.361328125" xlink:href="#BitstreamVeraSans-Roman-41"/>
     </g>
    </g>
   </g>
   <g id="text_37">
    <g clip-path="url(#pa9cd377d57)">
     <!-- SEEBURGER -->
     <g transform="translate(184.720038329 151.595621426)scale(0.12 -0.12)">
      <use xlink:href="#BitstreamVeraSans-Roman-53"/>
      <use x="63.4765625" xlink:href="#BitstreamVeraSans-Roman-45"/>
      <use x="126.66015625" xlink:href="#BitstreamVeraSans-Roman-45"/>
      <use x="189.84375" xlink:href="#BitstreamVeraSans-Roman-42"/>
      <use x="258.447265625" xlink:href="#BitstreamVeraSans-Roman-55"/>
      <use x="331.640625" xlink:href="#BitstreamVeraSans-Roman-52"/>
      <use x="401.123046875" xlink:href="#BitstreamVeraSans-Roman-47"/>
      <use x="478.61328125" xlink:href="#BitstreamVeraSans-Roman-45"/>
      <use x="541.796875" xlink:href="#BitstreamVeraSans-Roman-52"/>
     </g>
    </g>
   </g>
   <g id="text_38">
    <g clip-path="url(#pa9cd377d57)">
     <!-- MICHEL -->
     <g transform="translate(264.196523766 501.139821429)scale(0.12 -0.12)">
      <use xlink:href="#BitstreamVeraSans-Roman-4d"/>
      <use x="86.279296875" xlink:href="#BitstreamVeraSans-Roman-49"/>
      <use x="115.771484375" xlink:href="#BitstreamVeraSans-Roman-43"/>
      <use x="185.595703125" xlink:href="#BitstreamVeraSans-Roman-48"/>
      <use x="260.791015625" xlink:href="#BitstreamVeraSans-Roman-45"/>
      <use x="323.974609375" xlink:href="#BitstreamVeraSans-Roman-4c"/>
     </g>
    </g>
   </g>
   <g id="text_39">
    <g clip-path="url(#pa9cd377d57)">
     <!-- WERNER -->
     <g transform="translate(169.032629299 173.098221949)scale(0.12 -0.12)">
      <use xlink:href="#BitstreamVeraSans-Roman-57"/>
      <use x="98.876953125" xlink:href="#BitstreamVeraSans-Roman-45"/>
      <use x="162.060546875" xlink:href="#BitstreamVeraSans-Roman-52"/>
      <use x="231.54296875" xlink:href="#BitstreamVeraSans-Roman-4e"/>
      <use x="306.34765625" xlink:href="#BitstreamVeraSans-Roman-45"/>
      <use x="369.53125" xlink:href="#BitstreamVeraSans-Roman-52"/>
     </g>
    </g>
   </g>
   <g id="text_40">
    <g clip-path="url(#pa9cd377d57)">
     <!-- FREY -->
     <defs>
      <path d="M -0.203125 72.90625 
L 10.40625 72.90625 
L 30.609375 42.921875 
L 50.6875 72.90625 
L 61.28125 72.90625 
L 35.5 34.71875 
L 35.5 0 
L 25.59375 0 
L 25.59375 34.71875 
z
" id="BitstreamVeraSans-Roman-59"/>
     </defs>
     <g transform="translate(275.277134629 287.026408687)scale(0.12 -0.12)">
      <use xlink:href="#BitstreamVeraSans-Roman-46"/>
      <use x="57.51953125" xlink:href="#BitstreamVeraSans-Roman-52"/>
      <use x="127.001953125" xlink:href="#BitstreamVeraSans-Roman-45"/>
      <use x="190.185546875" xlink:href="#BitstreamVeraSans-Roman-59"/>
     </g>
    </g>
   </g>
   <g id="text_41">
    <g clip-path="url(#pa9cd377d57)">
     <!-- HEDWIG -->
     <g transform="translate(220.485204084 236.395136531)scale(0.12 -0.12)">
      <use xlink:href="#BitstreamVeraSans-Roman-48"/>
      <use x="75.1953125" xlink:href="#BitstreamVeraSans-Roman-45"/>
      <use x="138.37890625" xlink:href="#BitstreamVeraSans-Roman-44"/>
      <use x="215.380859375" xlink:href="#BitstreamVeraSans-Roman-57"/>
      <use x="314.2578125" xlink:href="#BitstreamVeraSans-Roman-49"/>
      <use x="343.75" xlink:href="#BitstreamVeraSans-Roman-47"/>
     </g>
    </g>
   </g>
   <g id="text_42">
    <g clip-path="url(#pa9cd377d57)">
     <!-- TOMERL -->
     <g transform="translate(57.4175892857 296.794034323)scale(0.12 -0.12)">
      <use xlink:href="#BitstreamVeraSans-Roman-54"/>
      <use x="61.083984375" xlink:href="#BitstreamVeraSans-Roman-4f"/>
      <use x="139.794921875" xlink:href="#BitstreamVeraSans-Roman-4d"/>
      <use x="226.07421875" xlink:href="#BitstreamVeraSans-Roman-45"/>
      <use x="289.2578125" xlink:href="#BitstreamVeraSans-Roman-52"/>
      <use x="358.740234375" xlink:href="#BitstreamVeraSans-Roman-4c"/>
     </g>
    </g>
   </g>
   <g id="text_43">
    <g clip-path="url(#pa9cd377d57)">
     <!-- EDUARD -->
     <g transform="translate(291.67021051 241.422776047)scale(0.12 -0.12)">
      <use xlink:href="#BitstreamVeraSans-Roman-45"/>
      <use x="63.18359375" xlink:href="#BitstreamVeraSans-Roman-44"/>
      <use x="140.185546875" xlink:href="#BitstreamVeraSans-Roman-55"/>
      <use x="213.37890625" xlink:href="#BitstreamVeraSans-Roman-41"/>
      <use x="281.787109375" xlink:href="#BitstreamVeraSans-Roman-52"/>
      <use x="351.26953125" xlink:href="#BitstreamVeraSans-Roman-44"/>
     </g>
    </g>
   </g>
   <g id="text_44">
    <g clip-path="url(#pa9cd377d57)">
     <!-- STOLZENTHALER -->
     <g transform="translate(132.051337265 286.776387724)scale(0.12 -0.12)">
      <use xlink:href="#BitstreamVeraSans-Roman-53"/>
      <use x="63.4765625" xlink:href="#BitstreamVeraSans-Roman-54"/>
      <use x="124.560546875" xlink:href="#BitstreamVeraSans-Roman-4f"/>
      <use x="203.271484375" xlink:href="#BitstreamVeraSans-Roman-4c"/>
      <use x="258.984375" xlink:href="#BitstreamVeraSans-Roman-5a"/>
      <use x="327.490234375" xlink:href="#BitstreamVeraSans-Roman-45"/>
      <use x="390.673828125" xlink:href="#BitstreamVeraSans-Roman-4e"/>
      <use x="465.478515625" xlink:href="#BitstreamVeraSans-Roman-54"/>
      <use x="526.5625" xlink:href="#BitstreamVeraSans-Roman-48"/>
      <use x="601.7578125" xlink:href="#BitstreamVeraSans-Roman-41"/>
      <use x="670.166015625" xlink:href="#BitstreamVeraSans-Roman-4c"/>
      <use x="725.87890625" xlink:href="#BitstreamVeraSans-Roman-45"/>
      <use x="789.0625" xlink:href="#BitstreamVeraSans-Roman-52"/>
     </g>
    </g>
   </g>
   <g id="text_45">
    <g clip-path="url(#pa9cd377d57)">
     <!-- RESI -->
     <g transform="translate(124.10016335 188.803798658)scale(0.12 -0.12)">
      <use xlink:href="#BitstreamVeraSans-Roman-52"/>
      <use x="69.482421875" xlink:href="#BitstreamVeraSans-Roman-45"/>
      <use x="132.666015625" xlink:href="#BitstreamVeraSans-Roman-53"/>
      <use x="196.142578125" xlink:href="#BitstreamVeraSans-Roman-49"/>
     </g>
    </g>
   </g>
   <g id="text_46">
    <g clip-path="url(#pa9cd377d57)">
     <!-- HÖLLER -->
     <g transform="translate(95.068332695 352.726738009)scale(0.12 -0.12)">
      <use xlink:href="#BitstreamVeraSans-Roman-48"/>
      <use x="75.1953125" xlink:href="#BitstreamVeraSans-Roman-d6"/>
      <use x="153.90625" xlink:href="#BitstreamVeraSans-Roman-4c"/>
      <use x="209.619140625" xlink:href="#BitstreamVeraSans-Roman-4c"/>
      <use x="265.33203125" xlink:href="#BitstreamVeraSans-Roman-45"/>
      <use x="328.515625" xlink:href="#BitstreamVeraSans-Roman-52"/>
     </g>
    </g>
   </g>
  </g>
 </g>
 <defs>
  <clipPath id="pa9cd377d57">
   <rect height="547.2" width="576.0" x="0.0" y="28.8"/>
  </clipPath>
 </defs>
</svg>
