<?xml version="1.0" encoding="utf-8" standalone="no"?>
<!DOCTYPE svg PUBLIC "-//W3C//DTD SVG 1.1//EN"
  "http://www.w3.org/Graphics/SVG/1.1/DTD/svg11.dtd">
<!-- Created with matplotlib (http://matplotlib.org/) -->
<svg height="576pt" version="1.1" viewBox="0 0 576 576" width="576pt" xmlns="http://www.w3.org/2000/svg" xmlns:xlink="http://www.w3.org/1999/xlink">
 <defs>
  <style type="text/css">
*{stroke-linecap:butt;stroke-linejoin:round;stroke-miterlimit:100000;}
  </style>
 </defs>
 <g id="figure_1">
  <g id="patch_1">
   <path d="M 0 576 
L 576 576 
L 576 0 
L 0 0 
z
" style="fill:#ffffff;"/>
  </g>
  <g id="axes_1">
   <g id="patch_2">
    <path d="M 0 576 
L 576 576 
L 576 28.8 
L 0 28.8 
z
" style="fill:#ffffff;"/>
   </g>
   <g id="LineCollection_1">
    <path clip-path="url(#pce58ca7632)" d="M 301.863442 279.519977 
L 374.549285 264.985052 
" style="fill:none;stroke:#808080;"/>
    <path clip-path="url(#pce58ca7632)" d="M 301.863442 279.519977 
L 353.111591 234.311871 
" style="fill:none;stroke:#808080;"/>
    <path clip-path="url(#pce58ca7632)" d="M 301.863442 279.519977 
L 379.805552 225.71629 
" style="fill:none;stroke:#808080;stroke-width:2.0;"/>
    <path clip-path="url(#pce58ca7632)" d="M 301.863442 279.519977 
L 295.399942 221.423851 
" style="fill:none;stroke:#808080;"/>
    <path clip-path="url(#pce58ca7632)" d="M 301.863442 279.519977 
L 402.487848 267.482968 
" style="fill:none;stroke:#808080;"/>
    <path clip-path="url(#pce58ca7632)" d="M 301.863442 279.519977 
L 327.274509 240.764674 
" style="fill:none;stroke:#808080;stroke-width:3.0;"/>
    <path clip-path="url(#pce58ca7632)" d="M 301.863442 279.519977 
L 359.788329 194.397397 
" style="fill:none;stroke:#808080;"/>
    <path clip-path="url(#pce58ca7632)" d="M 301.863442 279.519977 
L 328.935197 188.87955 
" style="fill:none;stroke:#808080;"/>
    <path clip-path="url(#pce58ca7632)" d="M 301.863442 279.519977 
L 344.989226 262.946704 
" style="fill:none;stroke:#808080;"/>
    <path clip-path="url(#pce58ca7632)" d="M 264.570006 106.971429 
L 370.030261 133.614337 
" style="fill:none;stroke:#808080;"/>
    <path clip-path="url(#pce58ca7632)" d="M 264.570006 106.971429 
L 328.935197 188.87955 
" style="fill:none;stroke:#808080;"/>
    <path clip-path="url(#pce58ca7632)" d="M 264.570006 106.971429 
L 328.96189 123.253869 
" style="fill:none;stroke:#808080;"/>
    <path clip-path="url(#pce58ca7632)" d="M 82.553873 262.537619 
L 82.285714 312.954081 
" style="fill:none;stroke:#808080;"/>
    <path clip-path="url(#pce58ca7632)" d="M 82.553873 262.537619 
L 100.440565 216.053329 
" style="fill:none;stroke:#808080;"/>
    <path clip-path="url(#pce58ca7632)" d="M 393.28304 472.17251 
L 351.477845 490.811167 
" style="fill:none;stroke:#808080;"/>
    <path clip-path="url(#pce58ca7632)" d="M 393.28304 472.17251 
L 325.332709 496.661761 
" style="fill:none;stroke:#808080;"/>
    <path clip-path="url(#pce58ca7632)" d="M 393.28304 472.17251 
L 299.248701 497.828571 
" style="fill:none;stroke:#808080;"/>
    <path clip-path="url(#pce58ca7632)" d="M 393.28304 472.17251 
L 272.458151 493.918718 
" style="fill:none;stroke:#808080;"/>
    <path clip-path="url(#pce58ca7632)" d="M 370.030261 133.614337 
L 379.805552 225.71629 
" style="fill:none;stroke:#808080;"/>
    <path clip-path="url(#pce58ca7632)" d="M 370.030261 133.614337 
L 359.788329 194.397397 
" style="fill:none;stroke:#808080;stroke-width:2.0;"/>
    <path clip-path="url(#pce58ca7632)" d="M 370.030261 133.614337 
L 328.935197 188.87955 
" style="fill:none;stroke:#808080;stroke-width:2.0;"/>
    <path clip-path="url(#pce58ca7632)" d="M 370.030261 133.614337 
L 328.96189 123.253869 
" style="fill:none;stroke:#808080;stroke-width:3.0;"/>
    <path clip-path="url(#pce58ca7632)" d="M 328.96189 123.253869 
L 379.805552 225.71629 
" style="fill:none;stroke:#808080;"/>
    <path clip-path="url(#pce58ca7632)" d="M 328.96189 123.253869 
L 359.788329 194.397397 
" style="fill:none;stroke:#808080;stroke-width:2.0;"/>
    <path clip-path="url(#pce58ca7632)" d="M 328.96189 123.253869 
L 328.935197 188.87955 
" style="fill:none;stroke:#808080;stroke-width:2.0;"/>
    <path clip-path="url(#pce58ca7632)" d="M 374.549285 264.985052 
L 379.805552 225.71629 
" style="fill:none;stroke:#808080;stroke-width:5.0;"/>
    <path clip-path="url(#pce58ca7632)" d="M 374.549285 264.985052 
L 295.399942 221.423851 
" style="fill:none;stroke:#808080;stroke-width:2.0;"/>
    <path clip-path="url(#pce58ca7632)" d="M 374.549285 264.985052 
L 402.487848 267.482968 
" style="fill:none;stroke:#808080;stroke-width:5.0;"/>
    <path clip-path="url(#pce58ca7632)" d="M 374.549285 264.985052 
L 327.274509 240.764674 
" style="fill:none;stroke:#808080;stroke-width:3.0;"/>
    <path clip-path="url(#pce58ca7632)" d="M 374.549285 264.985052 
L 328.935197 188.87955 
" style="fill:none;stroke:#808080;stroke-width:2.0;"/>
    <path clip-path="url(#pce58ca7632)" d="M 374.549285 264.985052 
L 359.788329 194.397397 
" style="fill:none;stroke:#808080;stroke-width:2.0;"/>
    <path clip-path="url(#pce58ca7632)" d="M 374.549285 264.985052 
L 472.460883 249.582967 
" style="fill:none;stroke:#808080;"/>
    <path clip-path="url(#pce58ca7632)" d="M 374.549285 264.985052 
L 353.111591 234.311871 
" style="fill:none;stroke:#808080;stroke-width:5.0;"/>
    <path clip-path="url(#pce58ca7632)" d="M 374.549285 264.985052 
L 344.989226 262.946704 
" style="fill:none;stroke:#808080;stroke-width:5.0;"/>
    <path clip-path="url(#pce58ca7632)" d="M 379.805552 225.71629 
L 327.274509 240.764674 
" style="fill:none;stroke:#808080;stroke-width:6.0;"/>
    <path clip-path="url(#pce58ca7632)" d="M 379.805552 225.71629 
L 295.399942 221.423851 
" style="fill:none;stroke:#808080;stroke-width:2.0;"/>
    <path clip-path="url(#pce58ca7632)" d="M 379.805552 225.71629 
L 472.460883 249.582967 
" style="fill:none;stroke:#808080;stroke-width:3.0;"/>
    <path clip-path="url(#pce58ca7632)" d="M 379.805552 225.71629 
L 344.989226 262.946704 
" style="fill:none;stroke:#808080;stroke-width:6.0;"/>
    <path clip-path="url(#pce58ca7632)" d="M 379.805552 225.71629 
L 328.935197 188.87955 
" style="fill:none;stroke:#808080;stroke-width:3.0;"/>
    <path clip-path="url(#pce58ca7632)" d="M 379.805552 225.71629 
L 402.487848 267.482968 
" style="fill:none;stroke:#808080;stroke-width:2.0;"/>
    <path clip-path="url(#pce58ca7632)" d="M 379.805552 225.71629 
L 359.788329 194.397397 
" style="fill:none;stroke:#808080;stroke-width:4.0;"/>
    <path clip-path="url(#pce58ca7632)" d="M 379.805552 225.71629 
L 353.111591 234.311871 
" style="fill:none;stroke:#808080;stroke-width:6.0;"/>
    <path clip-path="url(#pce58ca7632)" d="M 351.477845 490.811167 
L 299.248701 497.828571 
" style="fill:none;stroke:#808080;stroke-width:2.0;"/>
    <path clip-path="url(#pce58ca7632)" d="M 351.477845 490.811167 
L 325.332709 496.661761 
" style="fill:none;stroke:#808080;stroke-width:2.0;"/>
    <path clip-path="url(#pce58ca7632)" d="M 351.477845 490.811167 
L 272.458151 493.918718 
" style="fill:none;stroke:#808080;stroke-width:2.0;"/>
    <path clip-path="url(#pce58ca7632)" d="M 351.477845 490.811167 
L 227.712579 492.213768 
" style="fill:none;stroke:#808080;"/>
    <path clip-path="url(#pce58ca7632)" d="M 353.111591 234.311871 
L 295.399942 221.423851 
" style="fill:none;stroke:#808080;stroke-width:2.0;"/>
    <path clip-path="url(#pce58ca7632)" d="M 353.111591 234.311871 
L 402.487848 267.482968 
" style="fill:none;stroke:#808080;stroke-width:2.0;"/>
    <path clip-path="url(#pce58ca7632)" d="M 353.111591 234.311871 
L 359.788329 194.397397 
" style="fill:none;stroke:#808080;stroke-width:3.0;"/>
    <path clip-path="url(#pce58ca7632)" d="M 353.111591 234.311871 
L 327.274509 240.764674 
" style="fill:none;stroke:#808080;stroke-width:5.0;"/>
    <path clip-path="url(#pce58ca7632)" d="M 353.111591 234.311871 
L 328.935197 188.87955 
" style="fill:none;stroke:#808080;stroke-width:3.0;"/>
    <path clip-path="url(#pce58ca7632)" d="M 353.111591 234.311871 
L 344.989226 262.946704 
" style="fill:none;stroke:#808080;stroke-width:8.0;"/>
    <path clip-path="url(#pce58ca7632)" d="M 328.935197 188.87955 
L 295.399942 221.423851 
" style="fill:none;stroke:#808080;stroke-width:2.0;"/>
    <path clip-path="url(#pce58ca7632)" d="M 328.935197 188.87955 
L 344.989226 262.946704 
" style="fill:none;stroke:#808080;stroke-width:3.0;"/>
    <path clip-path="url(#pce58ca7632)" d="M 328.935197 188.87955 
L 402.487848 267.482968 
" style="fill:none;stroke:#808080;"/>
    <path clip-path="url(#pce58ca7632)" d="M 328.935197 188.87955 
L 327.274509 240.764674 
" style="fill:none;stroke:#808080;stroke-width:3.0;"/>
    <path clip-path="url(#pce58ca7632)" d="M 328.935197 188.87955 
L 359.788329 194.397397 
" style="fill:none;stroke:#808080;stroke-width:5.0;"/>
    <path clip-path="url(#pce58ca7632)" d="M 295.399942 221.423851 
L 402.487848 267.482968 
" style="fill:none;stroke:#808080;"/>
    <path clip-path="url(#pce58ca7632)" d="M 295.399942 221.423851 
L 359.788329 194.397397 
" style="fill:none;stroke:#808080;stroke-width:2.0;"/>
    <path clip-path="url(#pce58ca7632)" d="M 295.399942 221.423851 
L 327.274509 240.764674 
" style="fill:none;stroke:#808080;stroke-width:2.0;"/>
    <path clip-path="url(#pce58ca7632)" d="M 295.399942 221.423851 
L 344.989226 262.946704 
" style="fill:none;stroke:#808080;stroke-width:2.0;"/>
    <path clip-path="url(#pce58ca7632)" d="M 100.440565 216.053329 
L 82.285714 312.954081 
" style="fill:none;stroke:#808080;"/>
    <path clip-path="url(#pce58ca7632)" d="M 299.248701 497.828571 
L 325.332709 496.661761 
" style="fill:none;stroke:#808080;stroke-width:2.0;"/>
    <path clip-path="url(#pce58ca7632)" d="M 299.248701 497.828571 
L 272.458151 493.918718 
" style="fill:none;stroke:#808080;stroke-width:2.0;"/>
    <path clip-path="url(#pce58ca7632)" d="M 299.248701 497.828571 
L 227.712579 492.213768 
" style="fill:none;stroke:#808080;"/>
    <path clip-path="url(#pce58ca7632)" d="M 344.989226 262.946704 
L 402.487848 267.482968 
" style="fill:none;stroke:#808080;stroke-width:2.0;"/>
    <path clip-path="url(#pce58ca7632)" d="M 344.989226 262.946704 
L 359.788329 194.397397 
" style="fill:none;stroke:#808080;stroke-width:3.0;"/>
    <path clip-path="url(#pce58ca7632)" d="M 344.989226 262.946704 
L 327.274509 240.764674 
" style="fill:none;stroke:#808080;stroke-width:5.0;"/>
    <path clip-path="url(#pce58ca7632)" d="M 272.458151 493.918718 
L 325.332709 496.661761 
" style="fill:none;stroke:#808080;stroke-width:2.0;"/>
    <path clip-path="url(#pce58ca7632)" d="M 272.458151 493.918718 
L 227.712579 492.213768 
" style="fill:none;stroke:#808080;"/>
    <path clip-path="url(#pce58ca7632)" d="M 402.487848 267.482968 
L 359.788329 194.397397 
" style="fill:none;stroke:#808080;"/>
    <path clip-path="url(#pce58ca7632)" d="M 402.487848 267.482968 
L 327.274509 240.764674 
" style="fill:none;stroke:#808080;stroke-width:3.0;"/>
    <path clip-path="url(#pce58ca7632)" d="M 327.274509 240.764674 
L 359.788329 194.397397 
" style="fill:none;stroke:#808080;stroke-width:3.0;"/>
    <path clip-path="url(#pce58ca7632)" d="M 325.332709 496.661761 
L 227.712579 492.213768 
" style="fill:none;stroke:#808080;"/>
   </g>
   <g id="PathCollection_1">
    <path clip-path="url(#pce58ca7632)" d="M 301.863442 284.576476 
C 303.204441 284.576476 304.490697 284.043691 305.438927 283.095462 
C 306.387156 282.147232 306.919941 280.860976 306.919941 279.519977 
C 306.919941 278.178978 306.387156 276.892722 305.438927 275.944492 
C 304.490697 274.996263 303.204441 274.463478 301.863442 274.463478 
C 300.522443 274.463478 299.236187 274.996263 298.287957 275.944492 
C 297.339728 276.892722 296.806943 278.178978 296.806943 279.519977 
C 296.806943 280.860976 297.339728 282.147232 298.287957 283.095462 
C 299.236187 284.043691 300.522443 284.576476 301.863442 284.576476 
z
" style="fill:#4682b4;fill-opacity:0.8;stroke:#000000;stroke-opacity:0.8;"/>
    <path clip-path="url(#pce58ca7632)" d="M 264.570006 109.8908 
C 265.344232 109.8908 266.086852 109.583196 266.634313 109.035736 
C 267.181774 108.488275 267.489377 107.745655 267.489377 106.971429 
C 267.489377 106.197202 267.181774 105.454582 266.634313 104.907122 
C 266.086852 104.359661 265.344232 104.052058 264.570006 104.052058 
C 263.79578 104.052058 263.05316 104.359661 262.505699 104.907122 
C 261.958238 105.454582 261.650635 106.197202 261.650635 106.971429 
C 261.650635 107.745655 261.958238 108.488275 262.505699 109.035736 
C 263.05316 109.583196 263.79578 109.8908 264.570006 109.8908 
z
" style="fill:#4682b4;fill-opacity:0.8;stroke:#000000;stroke-opacity:0.8;"/>
    <path clip-path="url(#pce58ca7632)" d="M 82.553873 264.921275 
C 83.186026 264.921275 83.792373 264.670118 84.239372 264.223119 
C 84.686372 263.776119 84.937529 263.169772 84.937529 262.537619 
C 84.937529 261.905466 84.686372 261.299119 84.239372 260.852119 
C 83.792373 260.405119 83.186026 260.153962 82.553873 260.153962 
C 81.92172 260.153962 81.315373 260.405119 80.868373 260.852119 
C 80.421373 261.299119 80.170216 261.905466 80.170216 262.537619 
C 80.170216 263.169772 80.421373 263.776119 80.868373 264.223119 
C 81.315373 264.670118 81.92172 264.921275 82.553873 264.921275 
z
" style="fill:#4682b4;fill-opacity:0.8;stroke:#000000;stroke-opacity:0.8;"/>
    <path clip-path="url(#pce58ca7632)" d="M 393.28304 475.54351 
C 394.177039 475.54351 395.034543 475.18832 395.666696 474.556167 
C 396.29885 473.924014 396.654039 473.06651 396.654039 472.17251 
C 396.654039 471.278511 396.29885 470.421007 395.666696 469.788854 
C 395.034543 469.156701 394.177039 468.801511 393.28304 468.801511 
C 392.389041 468.801511 391.531537 469.156701 390.899384 469.788854 
C 390.26723 470.421007 389.912041 471.278511 389.912041 472.17251 
C 389.912041 473.06651 390.26723 473.924014 390.899384 474.556167 
C 391.531537 475.18832 392.389041 475.54351 393.28304 475.54351 
z
" style="fill:#4682b4;fill-opacity:0.8;stroke:#000000;stroke-opacity:0.8;"/>
    <path clip-path="url(#pce58ca7632)" d="M 370.030261 137.383229 
C 371.029783 137.383229 371.988501 136.986115 372.69527 136.279346 
C 373.402039 135.572577 373.799153 134.613859 373.799153 133.614337 
C 373.799153 132.614815 373.402039 131.656097 372.69527 130.949328 
C 371.988501 130.242559 371.029783 129.845445 370.030261 129.845445 
C 369.030739 129.845445 368.072021 130.242559 367.365252 130.949328 
C 366.658483 131.656097 366.261369 132.614815 366.261369 133.614337 
C 366.261369 134.613859 366.658483 135.572577 367.365252 136.279346 
C 368.072021 136.986115 369.030739 137.383229 370.030261 137.383229 
z
" style="fill:#4682b4;fill-opacity:0.8;stroke:#000000;stroke-opacity:0.8;"/>
    <path clip-path="url(#pce58ca7632)" d="M 328.96189 127.022761 
C 329.961412 127.022761 330.92013 126.625646 331.626899 125.918878 
C 332.333667 125.212109 332.730782 124.253391 332.730782 123.253869 
C 332.730782 122.254347 332.333667 121.295628 331.626899 120.58886 
C 330.92013 119.882091 329.961412 119.484977 328.96189 119.484977 
C 327.962368 119.484977 327.003649 119.882091 326.296881 120.58886 
C 325.590112 121.295628 325.192998 122.254347 325.192998 123.253869 
C 325.192998 124.253391 325.590112 125.212109 326.296881 125.918878 
C 327.003649 126.625646 327.962368 127.022761 328.96189 127.022761 
z
" style="fill:#4682b4;fill-opacity:0.8;stroke:#000000;stroke-opacity:0.8;"/>
    <path clip-path="url(#pce58ca7632)" d="M 374.549285 270.31507 
C 375.962823 270.31507 377.318655 269.753466 378.318177 268.753944 
C 379.317699 267.754422 379.879303 266.398589 379.879303 264.985052 
C 379.879303 263.571515 379.317699 262.215682 378.318177 261.21616 
C 377.318655 260.216638 375.962823 259.655034 374.549285 259.655034 
C 373.135748 259.655034 371.779915 260.216638 370.780394 261.21616 
C 369.780872 262.215682 369.219268 263.571515 369.219268 264.985052 
C 369.219268 266.398589 369.780872 267.754422 370.780394 268.753944 
C 371.779915 269.753466 373.135748 270.31507 374.549285 270.31507 
z
" style="fill:#4682b4;fill-opacity:0.8;stroke:#000000;stroke-opacity:0.8;"/>
    <path clip-path="url(#pce58ca7632)" d="M 379.805552 231.555032 
C 381.354004 231.555032 382.839245 230.939826 383.934166 229.844904 
C 385.029087 228.749983 385.644294 227.264743 385.644294 225.71629 
C 385.644294 224.167838 385.029087 222.682598 383.934166 221.587676 
C 382.839245 220.492755 381.354004 219.877548 379.805552 219.877548 
C 378.257099 219.877548 376.771859 220.492755 375.676938 221.587676 
C 374.582016 222.682598 373.96681 224.167838 373.96681 225.71629 
C 373.96681 227.264743 374.582016 228.749983 375.676938 229.844904 
C 376.771859 230.939826 378.257099 231.555032 379.805552 231.555032 
z
" style="fill:#4682b4;fill-opacity:0.8;stroke:#000000;stroke-opacity:0.8;"/>
    <path clip-path="url(#pce58ca7632)" d="M 351.477845 494.182166 
C 352.371844 494.182166 353.229348 493.826976 353.861501 493.194823 
C 354.493654 492.56267 354.848844 491.705166 354.848844 490.811167 
C 354.848844 489.917167 354.493654 489.059664 353.861501 488.42751 
C 353.229348 487.795357 352.371844 487.440168 351.477845 487.440168 
C 350.583845 487.440168 349.726341 487.795357 349.094188 488.42751 
C 348.462035 489.059664 348.106845 489.917167 348.106845 490.811167 
C 348.106845 491.705166 348.462035 492.56267 349.094188 493.194823 
C 349.726341 493.826976 350.583845 494.182166 351.477845 494.182166 
z
" style="fill:#4682b4;fill-opacity:0.8;stroke:#000000;stroke-opacity:0.8;"/>
    <path clip-path="url(#pce58ca7632)" d="M 353.111591 238.080762 
C 354.111113 238.080762 355.069831 237.683648 355.7766 236.97688 
C 356.483369 236.270111 356.880483 235.311392 356.880483 234.311871 
C 356.880483 233.312349 356.483369 232.35363 355.7766 231.646862 
C 355.069831 230.940093 354.111113 230.542979 353.111591 230.542979 
C 352.112069 230.542979 351.153351 230.940093 350.446582 231.646862 
C 349.739813 232.35363 349.342699 233.312349 349.342699 234.311871 
C 349.342699 235.311392 349.739813 236.270111 350.446582 236.97688 
C 351.153351 237.683648 352.112069 238.080762 353.111591 238.080762 
z
" style="fill:#4682b4;fill-opacity:0.8;stroke:#000000;stroke-opacity:0.8;"/>
    <path clip-path="url(#pce58ca7632)" d="M 328.935197 192.648442 
C 329.934719 192.648442 330.893438 192.251328 331.600206 191.544559 
C 332.306975 190.837791 332.704089 189.879072 332.704089 188.87955 
C 332.704089 187.880029 332.306975 186.92131 331.600206 186.214542 
C 330.893438 185.507773 329.934719 185.110659 328.935197 185.110659 
C 327.935676 185.110659 326.976957 185.507773 326.270188 186.214542 
C 325.56342 186.92131 325.166305 187.880029 325.166305 188.87955 
C 325.166305 189.879072 325.56342 190.837791 326.270188 191.544559 
C 326.976957 192.251328 327.935676 192.648442 328.935197 192.648442 
z
" style="fill:#4682b4;fill-opacity:0.8;stroke:#000000;stroke-opacity:0.8;"/>
    <path clip-path="url(#pce58ca7632)" d="M 295.399942 226.48035 
C 296.740942 226.48035 298.027197 225.947565 298.975427 224.999335 
C 299.923657 224.051106 300.456441 222.76485 300.456441 221.423851 
C 300.456441 220.082852 299.923657 218.796596 298.975427 217.848366 
C 298.027197 216.900136 296.740942 216.367352 295.399942 216.367352 
C 294.058943 216.367352 292.772687 216.900136 291.824458 217.848366 
C 290.876228 218.796596 290.343443 220.082852 290.343443 221.423851 
C 290.343443 222.76485 290.876228 224.051106 291.824458 224.999335 
C 292.772687 225.947565 294.058943 226.48035 295.399942 226.48035 
z
" style="fill:#4682b4;fill-opacity:0.8;stroke:#000000;stroke-opacity:0.8;"/>
    <path clip-path="url(#pce58ca7632)" d="M 100.440565 218.436986 
C 101.072718 218.436986 101.679065 218.185829 102.126064 217.738829 
C 102.573064 217.291829 102.824221 216.685482 102.824221 216.053329 
C 102.824221 215.421176 102.573064 214.814829 102.126064 214.367829 
C 101.679065 213.92083 101.072718 213.669673 100.440565 213.669673 
C 99.808412 213.669673 99.202065 213.92083 98.755065 214.367829 
C 98.308065 214.814829 98.056908 215.421176 98.056908 216.053329 
C 98.056908 216.685482 98.308065 217.291829 98.755065 217.738829 
C 99.202065 218.185829 99.808412 218.436986 100.440565 218.436986 
z
" style="fill:#4682b4;fill-opacity:0.8;stroke:#000000;stroke-opacity:0.8;"/>
    <path clip-path="url(#pce58ca7632)" d="M 299.248701 501.597463 
C 300.248223 501.597463 301.206941 501.200349 301.91371 500.49358 
C 302.620479 499.786812 303.017593 498.828093 303.017593 497.828571 
C 303.017593 496.82905 302.620479 495.870331 301.91371 495.163562 
C 301.206941 494.456794 300.248223 494.05968 299.248701 494.05968 
C 298.249179 494.05968 297.290461 494.456794 296.583692 495.163562 
C 295.876924 495.870331 295.479809 496.82905 295.479809 497.828571 
C 295.479809 498.828093 295.876924 499.786812 296.583692 500.49358 
C 297.290461 501.200349 298.249179 501.597463 299.248701 501.597463 
z
" style="fill:#4682b4;fill-opacity:0.8;stroke:#000000;stroke-opacity:0.8;"/>
    <path clip-path="url(#pce58ca7632)" d="M 472.460883 251.966623 
C 473.093036 251.966623 473.699383 251.715466 474.146383 251.268466 
C 474.593382 250.821467 474.844539 250.21512 474.844539 249.582967 
C 474.844539 248.950814 474.593382 248.344467 474.146383 247.897467 
C 473.699383 247.450467 473.093036 247.19931 472.460883 247.19931 
C 471.82873 247.19931 471.222383 247.450467 470.775383 247.897467 
C 470.328383 248.344467 470.077226 248.950814 470.077226 249.582967 
C 470.077226 250.21512 470.328383 250.821467 470.775383 251.268466 
C 471.222383 251.715466 471.82873 251.966623 472.460883 251.966623 
z
" style="fill:#4682b4;fill-opacity:0.8;stroke:#000000;stroke-opacity:0.8;"/>
    <path clip-path="url(#pce58ca7632)" d="M 82.285714 315.337737 
C 82.917867 315.337737 83.524214 315.08658 83.971214 314.639581 
C 84.418214 314.192581 84.669371 313.586234 84.669371 312.954081 
C 84.669371 312.321928 84.418214 311.715581 83.971214 311.268581 
C 83.524214 310.821582 82.917867 310.570424 82.285714 310.570424 
C 81.653561 310.570424 81.047214 310.821582 80.600215 311.268581 
C 80.153215 311.715581 79.902058 312.321928 79.902058 312.954081 
C 79.902058 313.586234 80.153215 314.192581 80.600215 314.639581 
C 81.047214 315.08658 81.653561 315.337737 82.285714 315.337737 
z
" style="fill:#4682b4;fill-opacity:0.8;stroke:#000000;stroke-opacity:0.8;"/>
    <path clip-path="url(#pce58ca7632)" d="M 344.989226 268.003203 
C 346.330225 268.003203 347.616481 267.470419 348.56471 266.522189 
C 349.51294 265.573959 350.045725 264.287703 350.045725 262.946704 
C 350.045725 261.605705 349.51294 260.319449 348.56471 259.37122 
C 347.616481 258.42299 346.330225 257.890205 344.989226 257.890205 
C 343.648227 257.890205 342.361971 258.42299 341.413741 259.37122 
C 340.465511 260.319449 339.932727 261.605705 339.932727 262.946704 
C 339.932727 264.287703 340.465511 265.573959 341.413741 266.522189 
C 342.361971 267.470419 343.648227 268.003203 344.989226 268.003203 
z
" style="fill:#4682b4;fill-opacity:0.8;stroke:#000000;stroke-opacity:0.8;"/>
    <path clip-path="url(#pce58ca7632)" d="M 272.458151 498.975217 
C 273.79915 498.975217 275.085406 498.442433 276.033635 497.494203 
C 276.981865 496.545973 277.51465 495.259718 277.51465 493.918718 
C 277.51465 492.577719 276.981865 491.291463 276.033635 490.343234 
C 275.085406 489.395004 273.79915 488.862219 272.458151 488.862219 
C 271.117151 488.862219 269.830896 489.395004 268.882666 490.343234 
C 267.934436 491.291463 267.401652 492.577719 267.401652 493.918718 
C 267.401652 495.259718 267.934436 496.545973 268.882666 497.494203 
C 269.830896 498.442433 271.117151 498.975217 272.458151 498.975217 
z
" style="fill:#4682b4;fill-opacity:0.8;stroke:#000000;stroke-opacity:0.8;"/>
    <path clip-path="url(#pce58ca7632)" d="M 402.487848 272.539467 
C 403.828847 272.539467 405.115103 272.006683 406.063332 271.058453 
C 407.011562 270.110223 407.544347 268.823967 407.544347 267.482968 
C 407.544347 266.141969 407.011562 264.855713 406.063332 263.907484 
C 405.115103 262.959254 403.828847 262.426469 402.487848 262.426469 
C 401.146848 262.426469 399.860592 262.959254 398.912363 263.907484 
C 397.964133 264.855713 397.431349 266.141969 397.431349 267.482968 
C 397.431349 268.823967 397.964133 270.110223 398.912363 271.058453 
C 399.860592 272.006683 401.146848 272.539467 402.487848 272.539467 
z
" style="fill:#4682b4;fill-opacity:0.8;stroke:#000000;stroke-opacity:0.8;"/>
    <path clip-path="url(#pce58ca7632)" d="M 327.274509 245.821173 
C 328.615508 245.821173 329.901764 245.288388 330.849993 244.340158 
C 331.798223 243.391929 332.331008 242.105673 332.331008 240.764674 
C 332.331008 239.423675 331.798223 238.137419 330.849993 237.189189 
C 329.901764 236.240959 328.615508 235.708175 327.274509 235.708175 
C 325.93351 235.708175 324.647254 236.240959 323.699024 237.189189 
C 322.750794 238.137419 322.21801 239.423675 322.21801 240.764674 
C 322.21801 242.105673 322.750794 243.391929 323.699024 244.340158 
C 324.647254 245.288388 325.93351 245.821173 327.274509 245.821173 
z
" style="fill:#4682b4;fill-opacity:0.8;stroke:#000000;stroke-opacity:0.8;"/>
    <path clip-path="url(#pce58ca7632)" d="M 359.788329 199.987567 
C 361.27086 199.987567 362.692869 199.398551 363.741176 198.350244 
C 364.789484 197.301937 365.378499 195.879927 365.378499 194.397397 
C 365.378499 192.914867 364.789484 191.492857 363.741176 190.44455 
C 362.692869 189.396243 361.27086 188.807227 359.788329 188.807227 
C 358.305799 188.807227 356.88379 189.396243 355.835482 190.44455 
C 354.787175 191.492857 354.198159 192.914867 354.198159 194.397397 
C 354.198159 195.879927 354.787175 197.301937 355.835482 198.350244 
C 356.88379 199.398551 358.305799 199.987567 359.788329 199.987567 
z
" style="fill:#4682b4;fill-opacity:0.8;stroke:#000000;stroke-opacity:0.8;"/>
    <path clip-path="url(#pce58ca7632)" d="M 325.332709 500.430653 
C 326.332231 500.430653 327.290949 500.033539 327.997718 499.32677 
C 328.704486 498.620001 329.101601 497.661283 329.101601 496.661761 
C 329.101601 495.662239 328.704486 494.703521 327.997718 493.996752 
C 327.290949 493.289983 326.332231 492.892869 325.332709 492.892869 
C 324.333187 492.892869 323.374468 493.289983 322.6677 493.996752 
C 321.960931 494.703521 321.563817 495.662239 321.563817 496.661761 
C 321.563817 497.661283 321.960931 498.620001 322.6677 499.32677 
C 323.374468 500.033539 324.333187 500.430653 325.332709 500.430653 
z
" style="fill:#4682b4;fill-opacity:0.8;stroke:#000000;stroke-opacity:0.8;"/>
    <path clip-path="url(#pce58ca7632)" d="M 227.712579 498.05251 
C 229.261032 498.05251 230.746272 497.437303 231.841193 496.342382 
C 232.936115 495.24746 233.551321 493.76222 233.551321 492.213768 
C 233.551321 490.665315 232.936115 489.180075 231.841193 488.085154 
C 230.746272 486.990232 229.261032 486.375026 227.712579 486.375026 
C 226.164127 486.375026 224.678886 486.990232 223.583965 488.085154 
C 222.489044 489.180075 221.873837 490.665315 221.873837 492.213768 
C 221.873837 493.76222 222.489044 495.24746 223.583965 496.342382 
C 224.678886 497.437303 226.164127 498.05251 227.712579 498.05251 
z
" style="fill:#4682b4;fill-opacity:0.8;stroke:#000000;stroke-opacity:0.8;"/>
   </g>
   <g id="patch_3">
    <path d="M 0 576 
L 576 576 
" style="fill:none;stroke:#000000;stroke-linecap:square;stroke-linejoin:miter;"/>
   </g>
   <g id="patch_4">
    <path d="M 0 576 
L 0 28.8 
" style="fill:none;stroke:#000000;stroke-linecap:square;stroke-linejoin:miter;"/>
   </g>
   <g id="patch_5">
    <path d="M 0 28.8 
L 576 28.8 
" style="fill:none;stroke:#000000;stroke-linecap:square;stroke-linejoin:miter;"/>
   </g>
   <g id="patch_6">
    <path d="M 576 576 
L 576 28.8 
" style="fill:none;stroke:#000000;stroke-linecap:square;stroke-linejoin:miter;"/>
   </g>
   <g id="matplotlib.axis_1">
    <g id="xtick_1">
     <g id="line2d_1">
      <defs>
       <path d="M 0 0 
L 0 -4 
" id="mb52fa2e407" style="stroke:#000000;stroke-width:0.5;"/>
      </defs>
      <g>
       <use style="stroke:#000000;stroke-width:0.5;" x="0.0" xlink:href="#mb52fa2e407" y="576.0"/>
      </g>
     </g>
     <g id="line2d_2">
      <defs>
       <path d="M 0 0 
L 0 4 
" id="mdb334ec456" style="stroke:#000000;stroke-width:0.5;"/>
      </defs>
      <g>
       <use style="stroke:#000000;stroke-width:0.5;" x="0.0" xlink:href="#mdb334ec456" y="28.8"/>
      </g>
     </g>
     <g id="text_1">
      <!-- −0.2 -->
      <defs>
       <path d="M 10.59375 35.5 
L 73.1875 35.5 
L 73.1875 27.203125 
L 10.59375 27.203125 
z
" id="BitstreamVeraSans-Roman-2212"/>
       <path d="M 10.6875 12.40625 
L 21 12.40625 
L 21 0 
L 10.6875 0 
z
" id="BitstreamVeraSans-Roman-2e"/>
       <path d="M 31.78125 66.40625 
Q 24.171875 66.40625 20.328125 58.90625 
Q 16.5 51.421875 16.5 36.375 
Q 16.5 21.390625 20.328125 13.890625 
Q 24.171875 6.390625 31.78125 6.390625 
Q 39.453125 6.390625 43.28125 13.890625 
Q 47.125 21.390625 47.125 36.375 
Q 47.125 51.421875 43.28125 58.90625 
Q 39.453125 66.40625 31.78125 66.40625 
M 31.78125 74.21875 
Q 44.046875 74.21875 50.515625 64.515625 
Q 56.984375 54.828125 56.984375 36.375 
Q 56.984375 17.96875 50.515625 8.265625 
Q 44.046875 -1.421875 31.78125 -1.421875 
Q 19.53125 -1.421875 13.0625 8.265625 
Q 6.59375 17.96875 6.59375 36.375 
Q 6.59375 54.828125 13.0625 64.515625 
Q 19.53125 74.21875 31.78125 74.21875 
" id="BitstreamVeraSans-Roman-30"/>
       <path d="M 19.1875 8.296875 
L 53.609375 8.296875 
L 53.609375 0 
L 7.328125 0 
L 7.328125 8.296875 
Q 12.9375 14.109375 22.625 23.890625 
Q 32.328125 33.6875 34.8125 36.53125 
Q 39.546875 41.84375 41.421875 45.53125 
Q 43.3125 49.21875 43.3125 52.78125 
Q 43.3125 58.59375 39.234375 62.25 
Q 35.15625 65.921875 28.609375 65.921875 
Q 23.96875 65.921875 18.8125 64.3125 
Q 13.671875 62.703125 7.8125 59.421875 
L 7.8125 69.390625 
Q 13.765625 71.78125 18.9375 73 
Q 24.125 74.21875 28.421875 74.21875 
Q 39.75 74.21875 46.484375 68.546875 
Q 53.21875 62.890625 53.21875 53.421875 
Q 53.21875 48.921875 51.53125 44.890625 
Q 49.859375 40.875 45.40625 35.40625 
Q 44.1875 33.984375 37.640625 27.21875 
Q 31.109375 20.453125 19.1875 8.296875 
" id="BitstreamVeraSans-Roman-32"/>
      </defs>
      <g transform="translate(-14.5696875 589.118125)scale(0.12 -0.12)">
       <use xlink:href="#BitstreamVeraSans-Roman-2212"/>
       <use x="83.7890625" xlink:href="#BitstreamVeraSans-Roman-30"/>
       <use x="147.412109375" xlink:href="#BitstreamVeraSans-Roman-2e"/>
       <use x="179.19921875" xlink:href="#BitstreamVeraSans-Roman-32"/>
      </g>
     </g>
    </g>
    <g id="xtick_2">
     <g id="line2d_3">
      <g>
       <use style="stroke:#000000;stroke-width:0.5;" x="82.2857142857" xlink:href="#mb52fa2e407" y="576.0"/>
      </g>
     </g>
     <g id="line2d_4">
      <g>
       <use style="stroke:#000000;stroke-width:0.5;" x="82.2857142857" xlink:href="#mdb334ec456" y="28.8"/>
      </g>
     </g>
     <g id="text_2">
      <!-- 0.0 -->
      <g transform="translate(72.7438392857 589.118125)scale(0.12 -0.12)">
       <use xlink:href="#BitstreamVeraSans-Roman-30"/>
       <use x="63.623046875" xlink:href="#BitstreamVeraSans-Roman-2e"/>
       <use x="95.41015625" xlink:href="#BitstreamVeraSans-Roman-30"/>
      </g>
     </g>
    </g>
    <g id="xtick_3">
     <g id="line2d_5">
      <g>
       <use style="stroke:#000000;stroke-width:0.5;" x="164.571428571" xlink:href="#mb52fa2e407" y="576.0"/>
      </g>
     </g>
     <g id="line2d_6">
      <g>
       <use style="stroke:#000000;stroke-width:0.5;" x="164.571428571" xlink:href="#mdb334ec456" y="28.8"/>
      </g>
     </g>
     <g id="text_3">
      <!-- 0.2 -->
      <g transform="translate(155.029553571 589.118125)scale(0.12 -0.12)">
       <use xlink:href="#BitstreamVeraSans-Roman-30"/>
       <use x="63.623046875" xlink:href="#BitstreamVeraSans-Roman-2e"/>
       <use x="95.41015625" xlink:href="#BitstreamVeraSans-Roman-32"/>
      </g>
     </g>
    </g>
    <g id="xtick_4">
     <g id="line2d_7">
      <g>
       <use style="stroke:#000000;stroke-width:0.5;" x="246.857142857" xlink:href="#mb52fa2e407" y="576.0"/>
      </g>
     </g>
     <g id="line2d_8">
      <g>
       <use style="stroke:#000000;stroke-width:0.5;" x="246.857142857" xlink:href="#mdb334ec456" y="28.8"/>
      </g>
     </g>
     <g id="text_4">
      <!-- 0.4 -->
      <defs>
       <path d="M 37.796875 64.3125 
L 12.890625 25.390625 
L 37.796875 25.390625 
z
M 35.203125 72.90625 
L 47.609375 72.90625 
L 47.609375 25.390625 
L 58.015625 25.390625 
L 58.015625 17.1875 
L 47.609375 17.1875 
L 47.609375 0 
L 37.796875 0 
L 37.796875 17.1875 
L 4.890625 17.1875 
L 4.890625 26.703125 
z
" id="BitstreamVeraSans-Roman-34"/>
      </defs>
      <g transform="translate(237.315267857 589.118125)scale(0.12 -0.12)">
       <use xlink:href="#BitstreamVeraSans-Roman-30"/>
       <use x="63.623046875" xlink:href="#BitstreamVeraSans-Roman-2e"/>
       <use x="95.41015625" xlink:href="#BitstreamVeraSans-Roman-34"/>
      </g>
     </g>
    </g>
    <g id="xtick_5">
     <g id="line2d_9">
      <g>
       <use style="stroke:#000000;stroke-width:0.5;" x="329.142857143" xlink:href="#mb52fa2e407" y="576.0"/>
      </g>
     </g>
     <g id="line2d_10">
      <g>
       <use style="stroke:#000000;stroke-width:0.5;" x="329.142857143" xlink:href="#mdb334ec456" y="28.8"/>
      </g>
     </g>
     <g id="text_5">
      <!-- 0.6 -->
      <defs>
       <path d="M 33.015625 40.375 
Q 26.375 40.375 22.484375 35.828125 
Q 18.609375 31.296875 18.609375 23.390625 
Q 18.609375 15.53125 22.484375 10.953125 
Q 26.375 6.390625 33.015625 6.390625 
Q 39.65625 6.390625 43.53125 10.953125 
Q 47.40625 15.53125 47.40625 23.390625 
Q 47.40625 31.296875 43.53125 35.828125 
Q 39.65625 40.375 33.015625 40.375 
M 52.59375 71.296875 
L 52.59375 62.3125 
Q 48.875 64.0625 45.09375 64.984375 
Q 41.3125 65.921875 37.59375 65.921875 
Q 27.828125 65.921875 22.671875 59.328125 
Q 17.53125 52.734375 16.796875 39.40625 
Q 19.671875 43.65625 24.015625 45.921875 
Q 28.375 48.1875 33.59375 48.1875 
Q 44.578125 48.1875 50.953125 41.515625 
Q 57.328125 34.859375 57.328125 23.390625 
Q 57.328125 12.15625 50.6875 5.359375 
Q 44.046875 -1.421875 33.015625 -1.421875 
Q 20.359375 -1.421875 13.671875 8.265625 
Q 6.984375 17.96875 6.984375 36.375 
Q 6.984375 53.65625 15.1875 63.9375 
Q 23.390625 74.21875 37.203125 74.21875 
Q 40.921875 74.21875 44.703125 73.484375 
Q 48.484375 72.75 52.59375 71.296875 
" id="BitstreamVeraSans-Roman-36"/>
      </defs>
      <g transform="translate(319.600982143 589.118125)scale(0.12 -0.12)">
       <use xlink:href="#BitstreamVeraSans-Roman-30"/>
       <use x="63.623046875" xlink:href="#BitstreamVeraSans-Roman-2e"/>
       <use x="95.41015625" xlink:href="#BitstreamVeraSans-Roman-36"/>
      </g>
     </g>
    </g>
    <g id="xtick_6">
     <g id="line2d_11">
      <g>
       <use style="stroke:#000000;stroke-width:0.5;" x="411.428571429" xlink:href="#mb52fa2e407" y="576.0"/>
      </g>
     </g>
     <g id="line2d_12">
      <g>
       <use style="stroke:#000000;stroke-width:0.5;" x="411.428571429" xlink:href="#mdb334ec456" y="28.8"/>
      </g>
     </g>
     <g id="text_6">
      <!-- 0.8 -->
      <defs>
       <path d="M 31.78125 34.625 
Q 24.75 34.625 20.71875 30.859375 
Q 16.703125 27.09375 16.703125 20.515625 
Q 16.703125 13.921875 20.71875 10.15625 
Q 24.75 6.390625 31.78125 6.390625 
Q 38.8125 6.390625 42.859375 10.171875 
Q 46.921875 13.96875 46.921875 20.515625 
Q 46.921875 27.09375 42.890625 30.859375 
Q 38.875 34.625 31.78125 34.625 
M 21.921875 38.8125 
Q 15.578125 40.375 12.03125 44.71875 
Q 8.5 49.078125 8.5 55.328125 
Q 8.5 64.0625 14.71875 69.140625 
Q 20.953125 74.21875 31.78125 74.21875 
Q 42.671875 74.21875 48.875 69.140625 
Q 55.078125 64.0625 55.078125 55.328125 
Q 55.078125 49.078125 51.53125 44.71875 
Q 48 40.375 41.703125 38.8125 
Q 48.828125 37.15625 52.796875 32.3125 
Q 56.78125 27.484375 56.78125 20.515625 
Q 56.78125 9.90625 50.3125 4.234375 
Q 43.84375 -1.421875 31.78125 -1.421875 
Q 19.734375 -1.421875 13.25 4.234375 
Q 6.78125 9.90625 6.78125 20.515625 
Q 6.78125 27.484375 10.78125 32.3125 
Q 14.796875 37.15625 21.921875 38.8125 
M 18.3125 54.390625 
Q 18.3125 48.734375 21.84375 45.5625 
Q 25.390625 42.390625 31.78125 42.390625 
Q 38.140625 42.390625 41.71875 45.5625 
Q 45.3125 48.734375 45.3125 54.390625 
Q 45.3125 60.0625 41.71875 63.234375 
Q 38.140625 66.40625 31.78125 66.40625 
Q 25.390625 66.40625 21.84375 63.234375 
Q 18.3125 60.0625 18.3125 54.390625 
" id="BitstreamVeraSans-Roman-38"/>
      </defs>
      <g transform="translate(401.886696429 589.118125)scale(0.12 -0.12)">
       <use xlink:href="#BitstreamVeraSans-Roman-30"/>
       <use x="63.623046875" xlink:href="#BitstreamVeraSans-Roman-2e"/>
       <use x="95.41015625" xlink:href="#BitstreamVeraSans-Roman-38"/>
      </g>
     </g>
    </g>
    <g id="xtick_7">
     <g id="line2d_13">
      <g>
       <use style="stroke:#000000;stroke-width:0.5;" x="493.714285714" xlink:href="#mb52fa2e407" y="576.0"/>
      </g>
     </g>
     <g id="line2d_14">
      <g>
       <use style="stroke:#000000;stroke-width:0.5;" x="493.714285714" xlink:href="#mdb334ec456" y="28.8"/>
      </g>
     </g>
     <g id="text_7">
      <!-- 1.0 -->
      <defs>
       <path d="M 12.40625 8.296875 
L 28.515625 8.296875 
L 28.515625 63.921875 
L 10.984375 60.40625 
L 10.984375 69.390625 
L 28.421875 72.90625 
L 38.28125 72.90625 
L 38.28125 8.296875 
L 54.390625 8.296875 
L 54.390625 0 
L 12.40625 0 
z
" id="BitstreamVeraSans-Roman-31"/>
      </defs>
      <g transform="translate(484.172410714 589.118125)scale(0.12 -0.12)">
       <use xlink:href="#BitstreamVeraSans-Roman-31"/>
       <use x="63.623046875" xlink:href="#BitstreamVeraSans-Roman-2e"/>
       <use x="95.41015625" xlink:href="#BitstreamVeraSans-Roman-30"/>
      </g>
     </g>
    </g>
    <g id="xtick_8">
     <g id="line2d_15">
      <g>
       <use style="stroke:#000000;stroke-width:0.5;" x="576.0" xlink:href="#mb52fa2e407" y="576.0"/>
      </g>
     </g>
     <g id="line2d_16">
      <g>
       <use style="stroke:#000000;stroke-width:0.5;" x="576.0" xlink:href="#mdb334ec456" y="28.8"/>
      </g>
     </g>
     <g id="text_8">
      <!-- 1.2 -->
      <g transform="translate(566.458125 589.118125)scale(0.12 -0.12)">
       <use xlink:href="#BitstreamVeraSans-Roman-31"/>
       <use x="63.623046875" xlink:href="#BitstreamVeraSans-Roman-2e"/>
       <use x="95.41015625" xlink:href="#BitstreamVeraSans-Roman-32"/>
      </g>
     </g>
    </g>
   </g>
   <g id="matplotlib.axis_2">
    <g id="ytick_1">
     <g id="line2d_17">
      <defs>
       <path d="M 0 0 
L 4 0 
" id="me16f05e5d3" style="stroke:#000000;stroke-width:0.5;"/>
      </defs>
      <g>
       <use style="stroke:#000000;stroke-width:0.5;" x="0.0" xlink:href="#me16f05e5d3" y="576.0"/>
      </g>
     </g>
     <g id="line2d_18">
      <defs>
       <path d="M 0 0 
L -4 0 
" id="mf864085a0c" style="stroke:#000000;stroke-width:0.5;"/>
      </defs>
      <g>
       <use style="stroke:#000000;stroke-width:0.5;" x="576.0" xlink:href="#mf864085a0c" y="576.0"/>
      </g>
     </g>
     <g id="text_9">
      <!-- −0.2 -->
      <g transform="translate(-33.139375 579.31125)scale(0.12 -0.12)">
       <use xlink:href="#BitstreamVeraSans-Roman-2212"/>
       <use x="83.7890625" xlink:href="#BitstreamVeraSans-Roman-30"/>
       <use x="147.412109375" xlink:href="#BitstreamVeraSans-Roman-2e"/>
       <use x="179.19921875" xlink:href="#BitstreamVeraSans-Roman-32"/>
      </g>
     </g>
    </g>
    <g id="ytick_2">
     <g id="line2d_19">
      <g>
       <use style="stroke:#000000;stroke-width:0.5;" x="0.0" xlink:href="#me16f05e5d3" y="497.828571429"/>
      </g>
     </g>
     <g id="line2d_20">
      <g>
       <use style="stroke:#000000;stroke-width:0.5;" x="576.0" xlink:href="#mf864085a0c" y="497.828571429"/>
      </g>
     </g>
     <g id="text_10">
      <!-- 0.0 -->
      <g transform="translate(-23.08375 501.139821429)scale(0.12 -0.12)">
       <use xlink:href="#BitstreamVeraSans-Roman-30"/>
       <use x="63.623046875" xlink:href="#BitstreamVeraSans-Roman-2e"/>
       <use x="95.41015625" xlink:href="#BitstreamVeraSans-Roman-30"/>
      </g>
     </g>
    </g>
    <g id="ytick_3">
     <g id="line2d_21">
      <g>
       <use style="stroke:#000000;stroke-width:0.5;" x="0.0" xlink:href="#me16f05e5d3" y="419.657142857"/>
      </g>
     </g>
     <g id="line2d_22">
      <g>
       <use style="stroke:#000000;stroke-width:0.5;" x="576.0" xlink:href="#mf864085a0c" y="419.657142857"/>
      </g>
     </g>
     <g id="text_11">
      <!-- 0.2 -->
      <g transform="translate(-23.08375 422.968392857)scale(0.12 -0.12)">
       <use xlink:href="#BitstreamVeraSans-Roman-30"/>
       <use x="63.623046875" xlink:href="#BitstreamVeraSans-Roman-2e"/>
       <use x="95.41015625" xlink:href="#BitstreamVeraSans-Roman-32"/>
      </g>
     </g>
    </g>
    <g id="ytick_4">
     <g id="line2d_23">
      <g>
       <use style="stroke:#000000;stroke-width:0.5;" x="0.0" xlink:href="#me16f05e5d3" y="341.485714286"/>
      </g>
     </g>
     <g id="line2d_24">
      <g>
       <use style="stroke:#000000;stroke-width:0.5;" x="576.0" xlink:href="#mf864085a0c" y="341.485714286"/>
      </g>
     </g>
     <g id="text_12">
      <!-- 0.4 -->
      <g transform="translate(-23.08375 344.796964286)scale(0.12 -0.12)">
       <use xlink:href="#BitstreamVeraSans-Roman-30"/>
       <use x="63.623046875" xlink:href="#BitstreamVeraSans-Roman-2e"/>
       <use x="95.41015625" xlink:href="#BitstreamVeraSans-Roman-34"/>
      </g>
     </g>
    </g>
    <g id="ytick_5">
     <g id="line2d_25">
      <g>
       <use style="stroke:#000000;stroke-width:0.5;" x="0.0" xlink:href="#me16f05e5d3" y="263.314285714"/>
      </g>
     </g>
     <g id="line2d_26">
      <g>
       <use style="stroke:#000000;stroke-width:0.5;" x="576.0" xlink:href="#mf864085a0c" y="263.314285714"/>
      </g>
     </g>
     <g id="text_13">
      <!-- 0.6 -->
      <g transform="translate(-23.08375 266.625535714)scale(0.12 -0.12)">
       <use xlink:href="#BitstreamVeraSans-Roman-30"/>
       <use x="63.623046875" xlink:href="#BitstreamVeraSans-Roman-2e"/>
       <use x="95.41015625" xlink:href="#BitstreamVeraSans-Roman-36"/>
      </g>
     </g>
    </g>
    <g id="ytick_6">
     <g id="line2d_27">
      <g>
       <use style="stroke:#000000;stroke-width:0.5;" x="0.0" xlink:href="#me16f05e5d3" y="185.142857143"/>
      </g>
     </g>
     <g id="line2d_28">
      <g>
       <use style="stroke:#000000;stroke-width:0.5;" x="576.0" xlink:href="#mf864085a0c" y="185.142857143"/>
      </g>
     </g>
     <g id="text_14">
      <!-- 0.8 -->
      <g transform="translate(-23.08375 188.454107143)scale(0.12 -0.12)">
       <use xlink:href="#BitstreamVeraSans-Roman-30"/>
       <use x="63.623046875" xlink:href="#BitstreamVeraSans-Roman-2e"/>
       <use x="95.41015625" xlink:href="#BitstreamVeraSans-Roman-38"/>
      </g>
     </g>
    </g>
    <g id="ytick_7">
     <g id="line2d_29">
      <g>
       <use style="stroke:#000000;stroke-width:0.5;" x="0.0" xlink:href="#me16f05e5d3" y="106.971428571"/>
      </g>
     </g>
     <g id="line2d_30">
      <g>
       <use style="stroke:#000000;stroke-width:0.5;" x="576.0" xlink:href="#mf864085a0c" y="106.971428571"/>
      </g>
     </g>
     <g id="text_15">
      <!-- 1.0 -->
      <g transform="translate(-23.08375 110.282678571)scale(0.12 -0.12)">
       <use xlink:href="#BitstreamVeraSans-Roman-31"/>
       <use x="63.623046875" xlink:href="#BitstreamVeraSans-Roman-2e"/>
       <use x="95.41015625" xlink:href="#BitstreamVeraSans-Roman-30"/>
      </g>
     </g>
    </g>
    <g id="ytick_8">
     <g id="line2d_31">
      <g>
       <use style="stroke:#000000;stroke-width:0.5;" x="0.0" xlink:href="#me16f05e5d3" y="28.8"/>
      </g>
     </g>
     <g id="line2d_32">
      <g>
       <use style="stroke:#000000;stroke-width:0.5;" x="576.0" xlink:href="#mf864085a0c" y="28.8"/>
      </g>
     </g>
     <g id="text_16">
      <!-- 1.2 -->
      <g transform="translate(-23.08375 32.11125)scale(0.12 -0.12)">
       <use xlink:href="#BitstreamVeraSans-Roman-31"/>
       <use x="63.623046875" xlink:href="#BitstreamVeraSans-Roman-2e"/>
       <use x="95.41015625" xlink:href="#BitstreamVeraSans-Roman-32"/>
      </g>
     </g>
    </g>
   </g>
   <g id="text_17">
    <g clip-path="url(#pce58ca7632)">
     <!-- JÖRG -->
     <defs>
      <path d="M 39.40625 66.21875 
Q 28.65625 66.21875 22.328125 58.203125 
Q 16.015625 50.203125 16.015625 36.375 
Q 16.015625 22.609375 22.328125 14.59375 
Q 28.65625 6.59375 39.40625 6.59375 
Q 50.140625 6.59375 56.421875 14.59375 
Q 62.703125 22.609375 62.703125 36.375 
Q 62.703125 50.203125 56.421875 58.203125 
Q 50.140625 66.21875 39.40625 66.21875 
M 39.40625 74.21875 
Q 54.734375 74.21875 63.90625 63.9375 
Q 73.09375 53.65625 73.09375 36.375 
Q 73.09375 19.140625 63.90625 8.859375 
Q 54.734375 -1.421875 39.40625 -1.421875 
Q 24.03125 -1.421875 14.8125 8.828125 
Q 5.609375 19.09375 5.609375 36.375 
Q 5.609375 53.65625 14.8125 63.9375 
Q 24.03125 74.21875 39.40625 74.21875 
M 43.96875 91.09375 
L 53.875 91.09375 
L 53.875 81.1875 
L 43.96875 81.1875 
z
M 24.875 91.09375 
L 34.78125 91.09375 
L 34.78125 81.1875 
L 24.875 81.1875 
z
" id="BitstreamVeraSans-Roman-d6"/>
      <path d="M 44.390625 34.1875 
Q 47.5625 33.109375 50.5625 29.59375 
Q 53.5625 26.078125 56.59375 19.921875 
L 66.609375 0 
L 56 0 
L 46.6875 18.703125 
Q 43.0625 26.03125 39.671875 28.421875 
Q 36.28125 30.8125 30.421875 30.8125 
L 19.671875 30.8125 
L 19.671875 0 
L 9.8125 0 
L 9.8125 72.90625 
L 32.078125 72.90625 
Q 44.578125 72.90625 50.734375 67.671875 
Q 56.890625 62.453125 56.890625 51.90625 
Q 56.890625 45.015625 53.6875 40.46875 
Q 50.484375 35.9375 44.390625 34.1875 
M 19.671875 64.796875 
L 19.671875 38.921875 
L 32.078125 38.921875 
Q 39.203125 38.921875 42.84375 42.21875 
Q 46.484375 45.515625 46.484375 51.90625 
Q 46.484375 58.296875 42.84375 61.546875 
Q 39.203125 64.796875 32.078125 64.796875 
z
" id="BitstreamVeraSans-Roman-52"/>
      <path d="M 59.515625 10.40625 
L 59.515625 29.984375 
L 43.40625 29.984375 
L 43.40625 38.09375 
L 69.28125 38.09375 
L 69.28125 6.78125 
Q 63.578125 2.734375 56.6875 0.65625 
Q 49.8125 -1.421875 42 -1.421875 
Q 24.90625 -1.421875 15.25 8.5625 
Q 5.609375 18.5625 5.609375 36.375 
Q 5.609375 54.25 15.25 64.234375 
Q 24.90625 74.21875 42 74.21875 
Q 49.125 74.21875 55.546875 72.453125 
Q 61.96875 70.703125 67.390625 67.28125 
L 67.390625 56.78125 
Q 61.921875 61.421875 55.765625 63.765625 
Q 49.609375 66.109375 42.828125 66.109375 
Q 29.4375 66.109375 22.71875 58.640625 
Q 16.015625 51.171875 16.015625 36.375 
Q 16.015625 21.625 22.71875 14.15625 
Q 29.4375 6.6875 42.828125 6.6875 
Q 48.046875 6.6875 52.140625 7.59375 
Q 56.25 8.5 59.515625 10.40625 
" id="BitstreamVeraSans-Roman-47"/>
      <path d="M 9.8125 72.90625 
L 19.671875 72.90625 
L 19.671875 5.078125 
Q 19.671875 -8.109375 14.671875 -14.0625 
Q 9.671875 -20.015625 -1.421875 -20.015625 
L -5.171875 -20.015625 
L -5.171875 -11.71875 
L -2.09375 -11.71875 
Q 4.4375 -11.71875 7.125 -8.046875 
Q 9.8125 -4.390625 9.8125 5.078125 
z
" id="BitstreamVeraSans-Roman-4a"/>
     </defs>
     <g transform="translate(286.552191873 283.690914598)scale(0.12 -0.12)">
      <use xlink:href="#BitstreamVeraSans-Roman-4a"/>
      <use x="29.4921875" xlink:href="#BitstreamVeraSans-Roman-d6"/>
      <use x="108.203125" xlink:href="#BitstreamVeraSans-Roman-52"/>
      <use x="177.685546875" xlink:href="#BitstreamVeraSans-Roman-47"/>
     </g>
    </g>
   </g>
   <g id="text_18">
    <g clip-path="url(#pce58ca7632)">
     <!-- KÖNIGIN -->
     <defs>
      <path d="M 9.8125 72.90625 
L 19.671875 72.90625 
L 19.671875 42.09375 
L 52.390625 72.90625 
L 65.09375 72.90625 
L 28.90625 38.921875 
L 67.671875 0 
L 54.6875 0 
L 19.671875 35.109375 
L 19.671875 0 
L 9.8125 0 
z
" id="BitstreamVeraSans-Roman-4b"/>
      <path d="M 9.8125 72.90625 
L 23.09375 72.90625 
L 55.421875 11.921875 
L 55.421875 72.90625 
L 64.984375 72.90625 
L 64.984375 0 
L 51.703125 0 
L 19.390625 60.984375 
L 19.390625 0 
L 9.8125 0 
z
" id="BitstreamVeraSans-Roman-4e"/>
      <path d="M 9.8125 72.90625 
L 19.671875 72.90625 
L 19.671875 0 
L 9.8125 0 
z
" id="BitstreamVeraSans-Roman-49"/>
     </defs>
     <g transform="translate(238.750318433 110.282678571)scale(0.12 -0.12)">
      <use xlink:href="#BitstreamVeraSans-Roman-4b"/>
      <use x="65.498046875" xlink:href="#BitstreamVeraSans-Roman-d6"/>
      <use x="144.208984375" xlink:href="#BitstreamVeraSans-Roman-4e"/>
      <use x="219.013671875" xlink:href="#BitstreamVeraSans-Roman-49"/>
      <use x="248.505859375" xlink:href="#BitstreamVeraSans-Roman-47"/>
      <use x="325.99609375" xlink:href="#BitstreamVeraSans-Roman-49"/>
      <use x="355.48828125" xlink:href="#BitstreamVeraSans-Roman-4e"/>
     </g>
    </g>
   </g>
   <g id="text_19">
    <g clip-path="url(#pce58ca7632)">
     <!-- DIE AFTERMUSE -->
     <defs>
      <path d="M 19.671875 64.796875 
L 19.671875 8.109375 
L 31.59375 8.109375 
Q 46.6875 8.109375 53.6875 14.9375 
Q 60.6875 21.78125 60.6875 36.53125 
Q 60.6875 51.171875 53.6875 57.984375 
Q 46.6875 64.796875 31.59375 64.796875 
z
M 9.8125 72.90625 
L 30.078125 72.90625 
Q 51.265625 72.90625 61.171875 64.09375 
Q 71.09375 55.28125 71.09375 36.53125 
Q 71.09375 17.671875 61.125 8.828125 
Q 51.171875 0 30.078125 0 
L 9.8125 0 
z
" id="BitstreamVeraSans-Roman-44"/>
      <path d="M 34.1875 63.1875 
L 20.796875 26.90625 
L 47.609375 26.90625 
z
M 28.609375 72.90625 
L 39.796875 72.90625 
L 67.578125 0 
L 57.328125 0 
L 50.6875 18.703125 
L 17.828125 18.703125 
L 11.1875 0 
L 0.78125 0 
z
" id="BitstreamVeraSans-Roman-41"/>
      <path d="M 8.6875 72.90625 
L 18.609375 72.90625 
L 18.609375 28.609375 
Q 18.609375 16.890625 22.84375 11.734375 
Q 27.09375 6.59375 36.625 6.59375 
Q 46.09375 6.59375 50.34375 11.734375 
Q 54.59375 16.890625 54.59375 28.609375 
L 54.59375 72.90625 
L 64.5 72.90625 
L 64.5 27.390625 
Q 64.5 13.140625 57.4375 5.859375 
Q 50.390625 -1.421875 36.625 -1.421875 
Q 22.796875 -1.421875 15.734375 5.859375 
Q 8.6875 13.140625 8.6875 27.390625 
z
" id="BitstreamVeraSans-Roman-55"/>
      <path d="M -0.296875 72.90625 
L 61.375 72.90625 
L 61.375 64.59375 
L 35.5 64.59375 
L 35.5 0 
L 25.59375 0 
L 25.59375 64.59375 
L -0.296875 64.59375 
z
" id="BitstreamVeraSans-Roman-54"/>
      <path d="M 9.8125 72.90625 
L 51.703125 72.90625 
L 51.703125 64.59375 
L 19.671875 64.59375 
L 19.671875 43.109375 
L 48.578125 43.109375 
L 48.578125 34.8125 
L 19.671875 34.8125 
L 19.671875 0 
L 9.8125 0 
z
" id="BitstreamVeraSans-Roman-46"/>
      <path id="BitstreamVeraSans-Roman-20"/>
      <path d="M 9.8125 72.90625 
L 24.515625 72.90625 
L 43.109375 23.296875 
L 61.8125 72.90625 
L 76.515625 72.90625 
L 76.515625 0 
L 66.890625 0 
L 66.890625 64.015625 
L 48.09375 14.015625 
L 38.1875 14.015625 
L 19.390625 64.015625 
L 19.390625 0 
L 9.8125 0 
z
" id="BitstreamVeraSans-Roman-4d"/>
      <path d="M 9.8125 72.90625 
L 55.90625 72.90625 
L 55.90625 64.59375 
L 19.671875 64.59375 
L 19.671875 43.015625 
L 54.390625 43.015625 
L 54.390625 34.71875 
L 19.671875 34.71875 
L 19.671875 8.296875 
L 56.78125 8.296875 
L 56.78125 0 
L 9.8125 0 
z
" id="BitstreamVeraSans-Roman-45"/>
      <path d="M 53.515625 70.515625 
L 53.515625 60.890625 
Q 47.90625 63.578125 42.921875 64.890625 
Q 37.9375 66.21875 33.296875 66.21875 
Q 25.25 66.21875 20.875 63.09375 
Q 16.5 59.96875 16.5 54.203125 
Q 16.5 49.359375 19.40625 46.890625 
Q 22.3125 44.4375 30.421875 42.921875 
L 36.375 41.703125 
Q 47.40625 39.59375 52.65625 34.296875 
Q 57.90625 29 57.90625 20.125 
Q 57.90625 9.515625 50.796875 4.046875 
Q 43.703125 -1.421875 29.984375 -1.421875 
Q 24.8125 -1.421875 18.96875 -0.25 
Q 13.140625 0.921875 6.890625 3.21875 
L 6.890625 13.375 
Q 12.890625 10.015625 18.65625 8.296875 
Q 24.421875 6.59375 29.984375 6.59375 
Q 38.421875 6.59375 43.015625 9.90625 
Q 47.609375 13.234375 47.609375 19.390625 
Q 47.609375 24.75 44.3125 27.78125 
Q 41.015625 30.8125 33.5 32.328125 
L 27.484375 33.5 
Q 16.453125 35.6875 11.515625 40.375 
Q 6.59375 45.0625 6.59375 53.421875 
Q 6.59375 63.09375 13.40625 68.65625 
Q 20.21875 74.21875 32.171875 74.21875 
Q 37.3125 74.21875 42.625 73.28125 
Q 47.953125 72.359375 53.515625 70.515625 
" id="BitstreamVeraSans-Roman-53"/>
     </defs>
     <g transform="translate(34.1179352678 265.848868851)scale(0.12 -0.12)">
      <use xlink:href="#BitstreamVeraSans-Roman-44"/>
      <use x="77.001953125" xlink:href="#BitstreamVeraSans-Roman-49"/>
      <use x="106.494140625" xlink:href="#BitstreamVeraSans-Roman-45"/>
      <use x="169.677734375" xlink:href="#BitstreamVeraSans-Roman-20"/>
      <use x="201.46484375" xlink:href="#BitstreamVeraSans-Roman-41"/>
      <use x="269.873046875" xlink:href="#BitstreamVeraSans-Roman-46"/>
      <use x="327.376953125" xlink:href="#BitstreamVeraSans-Roman-54"/>
      <use x="388.4609375" xlink:href="#BitstreamVeraSans-Roman-45"/>
      <use x="451.64453125" xlink:href="#BitstreamVeraSans-Roman-52"/>
      <use x="521.126953125" xlink:href="#BitstreamVeraSans-Roman-4d"/>
      <use x="607.40625" xlink:href="#BitstreamVeraSans-Roman-55"/>
      <use x="680.599609375" xlink:href="#BitstreamVeraSans-Roman-53"/>
      <use x="744.076171875" xlink:href="#BitstreamVeraSans-Roman-45"/>
     </g>
    </g>
   </g>
   <g id="text_20">
    <g clip-path="url(#pce58ca7632)">
     <!-- DIE HOFMEISTERIN -->
     <defs>
      <path d="M 39.40625 66.21875 
Q 28.65625 66.21875 22.328125 58.203125 
Q 16.015625 50.203125 16.015625 36.375 
Q 16.015625 22.609375 22.328125 14.59375 
Q 28.65625 6.59375 39.40625 6.59375 
Q 50.140625 6.59375 56.421875 14.59375 
Q 62.703125 22.609375 62.703125 36.375 
Q 62.703125 50.203125 56.421875 58.203125 
Q 50.140625 66.21875 39.40625 66.21875 
M 39.40625 74.21875 
Q 54.734375 74.21875 63.90625 63.9375 
Q 73.09375 53.65625 73.09375 36.375 
Q 73.09375 19.140625 63.90625 8.859375 
Q 54.734375 -1.421875 39.40625 -1.421875 
Q 24.03125 -1.421875 14.8125 8.828125 
Q 5.609375 19.09375 5.609375 36.375 
Q 5.609375 53.65625 14.8125 63.9375 
Q 24.03125 74.21875 39.40625 74.21875 
" id="BitstreamVeraSans-Roman-4f"/>
      <path d="M 9.8125 72.90625 
L 19.671875 72.90625 
L 19.671875 43.015625 
L 55.515625 43.015625 
L 55.515625 72.90625 
L 65.375 72.90625 
L 65.375 0 
L 55.515625 0 
L 55.515625 34.71875 
L 19.671875 34.71875 
L 19.671875 0 
L 9.8125 0 
z
" id="BitstreamVeraSans-Roman-48"/>
     </defs>
     <g transform="translate(336.077727512 475.483760382)scale(0.12 -0.12)">
      <use xlink:href="#BitstreamVeraSans-Roman-44"/>
      <use x="77.001953125" xlink:href="#BitstreamVeraSans-Roman-49"/>
      <use x="106.494140625" xlink:href="#BitstreamVeraSans-Roman-45"/>
      <use x="169.677734375" xlink:href="#BitstreamVeraSans-Roman-20"/>
      <use x="201.46484375" xlink:href="#BitstreamVeraSans-Roman-48"/>
      <use x="276.66015625" xlink:href="#BitstreamVeraSans-Roman-4f"/>
      <use x="355.37109375" xlink:href="#BitstreamVeraSans-Roman-46"/>
      <use x="412.890625" xlink:href="#BitstreamVeraSans-Roman-4d"/>
      <use x="499.169921875" xlink:href="#BitstreamVeraSans-Roman-45"/>
      <use x="562.353515625" xlink:href="#BitstreamVeraSans-Roman-49"/>
      <use x="591.845703125" xlink:href="#BitstreamVeraSans-Roman-53"/>
      <use x="655.322265625" xlink:href="#BitstreamVeraSans-Roman-54"/>
      <use x="716.40625" xlink:href="#BitstreamVeraSans-Roman-45"/>
      <use x="779.58984375" xlink:href="#BitstreamVeraSans-Roman-52"/>
      <use x="849.072265625" xlink:href="#BitstreamVeraSans-Roman-49"/>
      <use x="878.564453125" xlink:href="#BitstreamVeraSans-Roman-4e"/>
     </g>
    </g>
   </g>
   <g id="text_21">
    <g clip-path="url(#pce58ca7632)">
     <!-- KÖNIG -->
     <g transform="translate(350.469323588 136.925587031)scale(0.12 -0.12)">
      <use xlink:href="#BitstreamVeraSans-Roman-4b"/>
      <use x="65.498046875" xlink:href="#BitstreamVeraSans-Roman-d6"/>
      <use x="144.208984375" xlink:href="#BitstreamVeraSans-Roman-4e"/>
      <use x="219.013671875" xlink:href="#BitstreamVeraSans-Roman-49"/>
      <use x="248.505859375" xlink:href="#BitstreamVeraSans-Roman-47"/>
     </g>
    </g>
   </g>
   <g id="text_22">
    <g clip-path="url(#pce58ca7632)">
     <!-- PRINZESSIN -->
     <defs>
      <path d="M 19.671875 64.796875 
L 19.671875 37.40625 
L 32.078125 37.40625 
Q 38.96875 37.40625 42.71875 40.96875 
Q 46.484375 44.53125 46.484375 51.125 
Q 46.484375 57.671875 42.71875 61.234375 
Q 38.96875 64.796875 32.078125 64.796875 
z
M 9.8125 72.90625 
L 32.078125 72.90625 
Q 44.34375 72.90625 50.609375 67.359375 
Q 56.890625 61.8125 56.890625 51.125 
Q 56.890625 40.328125 50.609375 34.8125 
Q 44.34375 29.296875 32.078125 29.296875 
L 19.671875 29.296875 
L 19.671875 0 
L 9.8125 0 
z
" id="BitstreamVeraSans-Roman-50"/>
      <path d="M 5.609375 72.90625 
L 62.890625 72.90625 
L 62.890625 65.375 
L 16.796875 8.296875 
L 64.015625 8.296875 
L 64.015625 0 
L 4.5 0 
L 4.5 7.515625 
L 50.59375 64.59375 
L 5.609375 64.59375 
z
" id="BitstreamVeraSans-Roman-5a"/>
     </defs>
     <g transform="translate(293.138139712 126.565118781)scale(0.12 -0.12)">
      <use xlink:href="#BitstreamVeraSans-Roman-50"/>
      <use x="60.302734375" xlink:href="#BitstreamVeraSans-Roman-52"/>
      <use x="129.78515625" xlink:href="#BitstreamVeraSans-Roman-49"/>
      <use x="159.27734375" xlink:href="#BitstreamVeraSans-Roman-4e"/>
      <use x="234.08203125" xlink:href="#BitstreamVeraSans-Roman-5a"/>
      <use x="302.587890625" xlink:href="#BitstreamVeraSans-Roman-45"/>
      <use x="365.771484375" xlink:href="#BitstreamVeraSans-Roman-53"/>
      <use x="429.248046875" xlink:href="#BitstreamVeraSans-Roman-53"/>
      <use x="492.724609375" xlink:href="#BitstreamVeraSans-Roman-49"/>
      <use x="522.216796875" xlink:href="#BitstreamVeraSans-Roman-4e"/>
     </g>
    </g>
   </g>
   <g id="text_23">
    <g clip-path="url(#pce58ca7632)">
     <!-- BENJAMIN -->
     <defs>
      <path d="M 19.671875 34.8125 
L 19.671875 8.109375 
L 35.5 8.109375 
Q 43.453125 8.109375 47.28125 11.40625 
Q 51.125 14.703125 51.125 21.484375 
Q 51.125 28.328125 47.28125 31.5625 
Q 43.453125 34.8125 35.5 34.8125 
z
M 19.671875 64.796875 
L 19.671875 42.828125 
L 34.28125 42.828125 
Q 41.5 42.828125 45.03125 45.53125 
Q 48.578125 48.25 48.578125 53.8125 
Q 48.578125 59.328125 45.03125 62.0625 
Q 41.5 64.796875 34.28125 64.796875 
z
M 9.8125 72.90625 
L 35.015625 72.90625 
Q 46.296875 72.90625 52.390625 68.21875 
Q 58.5 63.53125 58.5 54.890625 
Q 58.5 48.1875 55.375 44.234375 
Q 52.25 40.28125 46.1875 39.3125 
Q 53.46875 37.75 57.5 32.78125 
Q 61.53125 27.828125 61.53125 20.40625 
Q 61.53125 10.640625 54.890625 5.3125 
Q 48.25 0 35.984375 0 
L 9.8125 0 
z
" id="BitstreamVeraSans-Roman-42"/>
     </defs>
     <g transform="translate(344.843660464 268.296301974)scale(0.12 -0.12)">
      <use xlink:href="#BitstreamVeraSans-Roman-42"/>
      <use x="68.603515625" xlink:href="#BitstreamVeraSans-Roman-45"/>
      <use x="131.787109375" xlink:href="#BitstreamVeraSans-Roman-4e"/>
      <use x="206.591796875" xlink:href="#BitstreamVeraSans-Roman-4a"/>
      <use x="236.068359375" xlink:href="#BitstreamVeraSans-Roman-41"/>
      <use x="304.4765625" xlink:href="#BitstreamVeraSans-Roman-4d"/>
      <use x="390.755859375" xlink:href="#BitstreamVeraSans-Roman-49"/>
      <use x="420.248046875" xlink:href="#BitstreamVeraSans-Roman-4e"/>
     </g>
    </g>
   </g>
   <g id="text_24">
    <g clip-path="url(#pce58ca7632)">
     <!-- JACOB -->
     <defs>
      <path d="M 64.40625 67.28125 
L 64.40625 56.890625 
Q 59.421875 61.53125 53.78125 63.8125 
Q 48.140625 66.109375 41.796875 66.109375 
Q 29.296875 66.109375 22.65625 58.46875 
Q 16.015625 50.828125 16.015625 36.375 
Q 16.015625 21.96875 22.65625 14.328125 
Q 29.296875 6.6875 41.796875 6.6875 
Q 48.140625 6.6875 53.78125 8.984375 
Q 59.421875 11.28125 64.40625 15.921875 
L 64.40625 5.609375 
Q 59.234375 2.09375 53.4375 0.328125 
Q 47.65625 -1.421875 41.21875 -1.421875 
Q 24.65625 -1.421875 15.125 8.703125 
Q 5.609375 18.84375 5.609375 36.375 
Q 5.609375 53.953125 15.125 64.078125 
Q 24.65625 74.21875 41.21875 74.21875 
Q 47.75 74.21875 53.53125 72.484375 
Q 59.328125 70.75 64.40625 67.28125 
" id="BitstreamVeraSans-Roman-43"/>
     </defs>
     <g transform="translate(360.90367666 229.027540361)scale(0.12 -0.12)">
      <use xlink:href="#BitstreamVeraSans-Roman-4a"/>
      <use x="29.4765625" xlink:href="#BitstreamVeraSans-Roman-41"/>
      <use x="97.869140625" xlink:href="#BitstreamVeraSans-Roman-43"/>
      <use x="167.693359375" xlink:href="#BitstreamVeraSans-Roman-4f"/>
      <use x="246.404296875" xlink:href="#BitstreamVeraSans-Roman-42"/>
     </g>
    </g>
   </g>
   <g id="text_25">
    <g clip-path="url(#pce58ca7632)">
     <!-- ZWEITER KAVALIER -->
     <defs>
      <path d="M 28.609375 0 
L 0.78125 72.90625 
L 11.078125 72.90625 
L 34.1875 11.53125 
L 57.328125 72.90625 
L 67.578125 72.90625 
L 39.796875 0 
z
" id="BitstreamVeraSans-Roman-56"/>
      <path d="M 9.8125 72.90625 
L 19.671875 72.90625 
L 19.671875 8.296875 
L 55.171875 8.296875 
L 55.171875 0 
L 9.8125 0 
z
" id="BitstreamVeraSans-Roman-4c"/>
      <path d="M 3.328125 72.90625 
L 13.28125 72.90625 
L 28.609375 11.28125 
L 43.890625 72.90625 
L 54.984375 72.90625 
L 70.3125 11.28125 
L 85.59375 72.90625 
L 95.609375 72.90625 
L 77.296875 0 
L 64.890625 0 
L 49.515625 63.28125 
L 33.984375 0 
L 21.578125 0 
z
" id="BitstreamVeraSans-Roman-57"/>
     </defs>
     <g transform="translate(169.267891629 495.525017628)scale(0.12 -0.12)">
      <use xlink:href="#BitstreamVeraSans-Roman-5a"/>
      <use x="68.505859375" xlink:href="#BitstreamVeraSans-Roman-57"/>
      <use x="167.3828125" xlink:href="#BitstreamVeraSans-Roman-45"/>
      <use x="230.56640625" xlink:href="#BitstreamVeraSans-Roman-49"/>
      <use x="260.05859375" xlink:href="#BitstreamVeraSans-Roman-54"/>
      <use x="321.142578125" xlink:href="#BitstreamVeraSans-Roman-45"/>
      <use x="384.326171875" xlink:href="#BitstreamVeraSans-Roman-52"/>
      <use x="453.80859375" xlink:href="#BitstreamVeraSans-Roman-20"/>
      <use x="485.595703125" xlink:href="#BitstreamVeraSans-Roman-4b"/>
      <use x="551.15625" xlink:href="#BitstreamVeraSans-Roman-41"/>
      <use x="619.470703125" xlink:href="#BitstreamVeraSans-Roman-56"/>
      <use x="687.78515625" xlink:href="#BitstreamVeraSans-Roman-41"/>
      <use x="756.193359375" xlink:href="#BitstreamVeraSans-Roman-4c"/>
      <use x="811.90625" xlink:href="#BitstreamVeraSans-Roman-49"/>
      <use x="841.3984375" xlink:href="#BitstreamVeraSans-Roman-45"/>
      <use x="904.58203125" xlink:href="#BitstreamVeraSans-Roman-52"/>
     </g>
    </g>
   </g>
   <g id="text_26">
    <g clip-path="url(#pce58ca7632)">
     <!-- ERSTE DAME -->
     <g transform="translate(312.654094523 494.122416925)scale(0.12 -0.12)">
      <use xlink:href="#BitstreamVeraSans-Roman-45"/>
      <use x="63.18359375" xlink:href="#BitstreamVeraSans-Roman-52"/>
      <use x="132.666015625" xlink:href="#BitstreamVeraSans-Roman-53"/>
      <use x="196.142578125" xlink:href="#BitstreamVeraSans-Roman-54"/>
      <use x="257.2265625" xlink:href="#BitstreamVeraSans-Roman-45"/>
      <use x="320.41015625" xlink:href="#BitstreamVeraSans-Roman-20"/>
      <use x="352.197265625" xlink:href="#BitstreamVeraSans-Roman-44"/>
      <use x="429.18359375" xlink:href="#BitstreamVeraSans-Roman-41"/>
      <use x="497.591796875" xlink:href="#BitstreamVeraSans-Roman-4d"/>
      <use x="583.87109375" xlink:href="#BitstreamVeraSans-Roman-45"/>
     </g>
    </g>
   </g>
   <g id="text_27">
    <g clip-path="url(#pce58ca7632)">
     <!-- DRITTE DAME -->
     <g transform="translate(231.180963135 497.22996837)scale(0.12 -0.12)">
      <use xlink:href="#BitstreamVeraSans-Roman-44"/>
      <use x="77.001953125" xlink:href="#BitstreamVeraSans-Roman-52"/>
      <use x="146.484375" xlink:href="#BitstreamVeraSans-Roman-49"/>
      <use x="175.9765625" xlink:href="#BitstreamVeraSans-Roman-54"/>
      <use x="237.044921875" xlink:href="#BitstreamVeraSans-Roman-54"/>
      <use x="298.12890625" xlink:href="#BitstreamVeraSans-Roman-45"/>
      <use x="361.3125" xlink:href="#BitstreamVeraSans-Roman-20"/>
      <use x="393.099609375" xlink:href="#BitstreamVeraSans-Roman-44"/>
      <use x="470.0859375" xlink:href="#BitstreamVeraSans-Roman-41"/>
      <use x="538.494140625" xlink:href="#BitstreamVeraSans-Roman-4d"/>
      <use x="624.7734375" xlink:href="#BitstreamVeraSans-Roman-45"/>
     </g>
    </g>
   </g>
   <g id="text_28">
    <g clip-path="url(#pce58ca7632)">
     <!-- DER JÄGER -->
     <defs>
      <path d="M 34.1875 63.1875 
L 20.796875 26.90625 
L 47.609375 26.90625 
z
M 28.609375 72.90625 
L 39.796875 72.90625 
L 67.578125 0 
L 57.328125 0 
L 50.6875 18.703125 
L 17.828125 18.703125 
L 11.1875 0 
L 0.78125 0 
z
M 38.71875 91.09375 
L 48.625 91.09375 
L 48.625 81.1875 
L 38.71875 81.1875 
z
M 19.625 91.09375 
L 29.53125 91.09375 
L 29.53125 81.1875 
L 19.625 81.1875 
z
" id="BitstreamVeraSans-Roman-c4"/>
     </defs>
     <g transform="translate(262.430879823 225.594788235)scale(0.12 -0.12)">
      <use xlink:href="#BitstreamVeraSans-Roman-44"/>
      <use x="77.001953125" xlink:href="#BitstreamVeraSans-Roman-45"/>
      <use x="140.185546875" xlink:href="#BitstreamVeraSans-Roman-52"/>
      <use x="209.66796875" xlink:href="#BitstreamVeraSans-Roman-20"/>
      <use x="241.455078125" xlink:href="#BitstreamVeraSans-Roman-4a"/>
      <use x="270.931640625" xlink:href="#BitstreamVeraSans-Roman-c4"/>
      <use x="339.32421875" xlink:href="#BitstreamVeraSans-Roman-47"/>
      <use x="416.814453125" xlink:href="#BitstreamVeraSans-Roman-45"/>
      <use x="479.998046875" xlink:href="#BitstreamVeraSans-Roman-52"/>
     </g>
    </g>
   </g>
   <g id="text_29">
    <g clip-path="url(#pce58ca7632)">
     <!-- DER DICHTER -->
     <g transform="translate(59.2365021318 219.364579144)scale(0.12 -0.12)">
      <use xlink:href="#BitstreamVeraSans-Roman-44"/>
      <use x="77.001953125" xlink:href="#BitstreamVeraSans-Roman-45"/>
      <use x="140.185546875" xlink:href="#BitstreamVeraSans-Roman-52"/>
      <use x="209.66796875" xlink:href="#BitstreamVeraSans-Roman-20"/>
      <use x="241.455078125" xlink:href="#BitstreamVeraSans-Roman-44"/>
      <use x="318.45703125" xlink:href="#BitstreamVeraSans-Roman-49"/>
      <use x="347.94921875" xlink:href="#BitstreamVeraSans-Roman-43"/>
      <use x="417.7734375" xlink:href="#BitstreamVeraSans-Roman-48"/>
      <use x="492.96875" xlink:href="#BitstreamVeraSans-Roman-54"/>
      <use x="554.052734375" xlink:href="#BitstreamVeraSans-Roman-45"/>
      <use x="617.236328125" xlink:href="#BitstreamVeraSans-Roman-52"/>
     </g>
    </g>
   </g>
   <g id="text_30">
    <g clip-path="url(#pce58ca7632)">
     <!-- ERSTER KAVALIER -->
     <g transform="translate(244.638388596 501.139821429)scale(0.12 -0.12)">
      <use xlink:href="#BitstreamVeraSans-Roman-45"/>
      <use x="63.18359375" xlink:href="#BitstreamVeraSans-Roman-52"/>
      <use x="132.666015625" xlink:href="#BitstreamVeraSans-Roman-53"/>
      <use x="196.142578125" xlink:href="#BitstreamVeraSans-Roman-54"/>
      <use x="257.2265625" xlink:href="#BitstreamVeraSans-Roman-45"/>
      <use x="320.41015625" xlink:href="#BitstreamVeraSans-Roman-52"/>
      <use x="389.892578125" xlink:href="#BitstreamVeraSans-Roman-20"/>
      <use x="421.6796875" xlink:href="#BitstreamVeraSans-Roman-4b"/>
      <use x="487.240234375" xlink:href="#BitstreamVeraSans-Roman-41"/>
      <use x="555.5546875" xlink:href="#BitstreamVeraSans-Roman-56"/>
      <use x="623.869140625" xlink:href="#BitstreamVeraSans-Roman-41"/>
      <use x="692.27734375" xlink:href="#BitstreamVeraSans-Roman-4c"/>
      <use x="747.990234375" xlink:href="#BitstreamVeraSans-Roman-49"/>
      <use x="777.482421875" xlink:href="#BitstreamVeraSans-Roman-45"/>
      <use x="840.666015625" xlink:href="#BitstreamVeraSans-Roman-52"/>
     </g>
    </g>
   </g>
   <g id="text_31">
    <g clip-path="url(#pce58ca7632)">
     <!-- BARBARA -->
     <g transform="translate(443.580257865 252.894216707)scale(0.12 -0.12)">
      <use xlink:href="#BitstreamVeraSans-Roman-42"/>
      <use x="68.603515625" xlink:href="#BitstreamVeraSans-Roman-41"/>
      <use x="137.01171875" xlink:href="#BitstreamVeraSans-Roman-52"/>
      <use x="206.494140625" xlink:href="#BitstreamVeraSans-Roman-42"/>
      <use x="275.09765625" xlink:href="#BitstreamVeraSans-Roman-41"/>
      <use x="343.505859375" xlink:href="#BitstreamVeraSans-Roman-52"/>
      <use x="412.92578125" xlink:href="#BitstreamVeraSans-Roman-41"/>
     </g>
    </g>
   </g>
   <g id="text_32">
    <g clip-path="url(#pce58ca7632)">
     <!-- DIE MUSE -->
     <g transform="translate(53.0291517857 316.26533095)scale(0.12 -0.12)">
      <use xlink:href="#BitstreamVeraSans-Roman-44"/>
      <use x="77.001953125" xlink:href="#BitstreamVeraSans-Roman-49"/>
      <use x="106.494140625" xlink:href="#BitstreamVeraSans-Roman-45"/>
      <use x="169.677734375" xlink:href="#BitstreamVeraSans-Roman-20"/>
      <use x="201.46484375" xlink:href="#BitstreamVeraSans-Roman-4d"/>
      <use x="287.744140625" xlink:href="#BitstreamVeraSans-Roman-55"/>
      <use x="360.9375" xlink:href="#BitstreamVeraSans-Roman-53"/>
      <use x="424.4140625" xlink:href="#BitstreamVeraSans-Roman-45"/>
     </g>
    </g>
   </g>
   <g id="text_33">
    <g clip-path="url(#pce58ca7632)">
     <!-- BLOCK -->
     <g transform="translate(324.684850703 266.257954281)scale(0.12 -0.12)">
      <use xlink:href="#BitstreamVeraSans-Roman-42"/>
      <use x="68.603515625" xlink:href="#BitstreamVeraSans-Roman-4c"/>
      <use x="124.26953125" xlink:href="#BitstreamVeraSans-Roman-4f"/>
      <use x="202.98046875" xlink:href="#BitstreamVeraSans-Roman-43"/>
      <use x="272.8046875" xlink:href="#BitstreamVeraSans-Roman-4b"/>
     </g>
    </g>
   </g>
   <g id="text_34">
    <g clip-path="url(#pce58ca7632)">
     <!-- DOKTOR PFEFFER -->
     <g transform="translate(299.654403422 237.623120561)scale(0.12 -0.12)">
      <use xlink:href="#BitstreamVeraSans-Roman-44"/>
      <use x="77.001953125" xlink:href="#BitstreamVeraSans-Roman-4f"/>
      <use x="155.712890625" xlink:href="#BitstreamVeraSans-Roman-4b"/>
      <use x="221.1796875" xlink:href="#BitstreamVeraSans-Roman-54"/>
      <use x="282.263671875" xlink:href="#BitstreamVeraSans-Roman-4f"/>
      <use x="360.974609375" xlink:href="#BitstreamVeraSans-Roman-52"/>
      <use x="430.45703125" xlink:href="#BitstreamVeraSans-Roman-20"/>
      <use x="462.244140625" xlink:href="#BitstreamVeraSans-Roman-50"/>
      <use x="522.546875" xlink:href="#BitstreamVeraSans-Roman-46"/>
      <use x="580.06640625" xlink:href="#BitstreamVeraSans-Roman-45"/>
      <use x="643.25" xlink:href="#BitstreamVeraSans-Roman-46"/>
      <use x="700.76953125" xlink:href="#BitstreamVeraSans-Roman-46"/>
      <use x="758.2890625" xlink:href="#BitstreamVeraSans-Roman-45"/>
      <use x="821.47265625" xlink:href="#BitstreamVeraSans-Roman-52"/>
     </g>
    </g>
   </g>
   <g id="text_35">
    <g clip-path="url(#pce58ca7632)">
     <!-- SCHLÜTER -->
     <defs>
      <path d="M 8.6875 72.90625 
L 18.609375 72.90625 
L 18.609375 28.609375 
Q 18.609375 16.890625 22.84375 11.734375 
Q 27.09375 6.59375 36.625 6.59375 
Q 46.09375 6.59375 50.34375 11.734375 
Q 54.59375 16.890625 54.59375 28.609375 
L 54.59375 72.90625 
L 64.5 72.90625 
L 64.5 27.390625 
Q 64.5 13.140625 57.4375 5.859375 
Q 50.390625 -1.421875 36.625 -1.421875 
Q 22.796875 -1.421875 15.734375 5.859375 
Q 8.6875 13.140625 8.6875 27.390625 
z
M 41.21875 91.09375 
L 51.125 91.09375 
L 51.125 81.1875 
L 41.21875 81.1875 
z
M 22.125 91.09375 
L 32.03125 91.09375 
L 32.03125 81.1875 
L 22.125 81.1875 
z
" id="BitstreamVeraSans-Roman-dc"/>
     </defs>
     <g transform="translate(370.622222579 270.794218221)scale(0.12 -0.12)">
      <use xlink:href="#BitstreamVeraSans-Roman-53"/>
      <use x="63.4765625" xlink:href="#BitstreamVeraSans-Roman-43"/>
      <use x="133.30078125" xlink:href="#BitstreamVeraSans-Roman-48"/>
      <use x="208.49609375" xlink:href="#BitstreamVeraSans-Roman-4c"/>
      <use x="264.130859375" xlink:href="#BitstreamVeraSans-Roman-dc"/>
      <use x="337.32421875" xlink:href="#BitstreamVeraSans-Roman-54"/>
      <use x="398.408203125" xlink:href="#BitstreamVeraSans-Roman-45"/>
      <use x="461.591796875" xlink:href="#BitstreamVeraSans-Roman-52"/>
     </g>
    </g>
   </g>
   <g id="text_36">
    <g clip-path="url(#pce58ca7632)">
     <!-- KILIAN -->
     <g transform="translate(307.863571286 244.075923723)scale(0.12 -0.12)">
      <use xlink:href="#BitstreamVeraSans-Roman-4b"/>
      <use x="65.576171875" xlink:href="#BitstreamVeraSans-Roman-49"/>
      <use x="95.068359375" xlink:href="#BitstreamVeraSans-Roman-4c"/>
      <use x="150.78125" xlink:href="#BitstreamVeraSans-Roman-49"/>
      <use x="180.2734375" xlink:href="#BitstreamVeraSans-Roman-41"/>
      <use x="248.681640625" xlink:href="#BitstreamVeraSans-Roman-4e"/>
     </g>
    </g>
   </g>
   <g id="text_37">
    <g clip-path="url(#pce58ca7632)">
     <!-- DER GRAF -->
     <g transform="translate(328.931454359 197.708647059)scale(0.12 -0.12)">
      <use xlink:href="#BitstreamVeraSans-Roman-44"/>
      <use x="77.001953125" xlink:href="#BitstreamVeraSans-Roman-45"/>
      <use x="140.185546875" xlink:href="#BitstreamVeraSans-Roman-52"/>
      <use x="209.66796875" xlink:href="#BitstreamVeraSans-Roman-20"/>
      <use x="241.455078125" xlink:href="#BitstreamVeraSans-Roman-47"/>
      <use x="318.9453125" xlink:href="#BitstreamVeraSans-Roman-52"/>
      <use x="388.365234375" xlink:href="#BitstreamVeraSans-Roman-41"/>
      <use x="456.7734375" xlink:href="#BitstreamVeraSans-Roman-46"/>
     </g>
    </g>
   </g>
   <g id="text_38">
    <g clip-path="url(#pce58ca7632)">
     <!-- ZWEITE DAME -->
     <g transform="translate(282.67458381 499.973011075)scale(0.12 -0.12)">
      <use xlink:href="#BitstreamVeraSans-Roman-5a"/>
      <use x="68.505859375" xlink:href="#BitstreamVeraSans-Roman-57"/>
      <use x="167.3828125" xlink:href="#BitstreamVeraSans-Roman-45"/>
      <use x="230.56640625" xlink:href="#BitstreamVeraSans-Roman-49"/>
      <use x="260.05859375" xlink:href="#BitstreamVeraSans-Roman-54"/>
      <use x="321.142578125" xlink:href="#BitstreamVeraSans-Roman-45"/>
      <use x="384.326171875" xlink:href="#BitstreamVeraSans-Roman-20"/>
      <use x="416.11328125" xlink:href="#BitstreamVeraSans-Roman-44"/>
      <use x="493.099609375" xlink:href="#BitstreamVeraSans-Roman-41"/>
      <use x="561.5078125" xlink:href="#BitstreamVeraSans-Roman-4d"/>
      <use x="647.787109375" xlink:href="#BitstreamVeraSans-Roman-45"/>
     </g>
    </g>
   </g>
   <g id="text_39">
    <g clip-path="url(#pce58ca7632)">
     <!-- PRINZ -->
     <g transform="translate(310.779572302 192.190800464)scale(0.12 -0.12)">
      <use xlink:href="#BitstreamVeraSans-Roman-50"/>
      <use x="60.302734375" xlink:href="#BitstreamVeraSans-Roman-52"/>
      <use x="129.78515625" xlink:href="#BitstreamVeraSans-Roman-49"/>
      <use x="159.27734375" xlink:href="#BitstreamVeraSans-Roman-4e"/>
      <use x="234.08203125" xlink:href="#BitstreamVeraSans-Roman-5a"/>
     </g>
    </g>
   </g>
  </g>
 </g>
 <defs>
  <clipPath id="pce58ca7632">
   <rect height="547.2" width="576.0" x="0.0" y="28.8"/>
  </clipPath>
 </defs>
</svg>
