<?xml version="1.0" encoding="utf-8" standalone="no"?>
<!DOCTYPE svg PUBLIC "-//W3C//DTD SVG 1.1//EN"
  "http://www.w3.org/Graphics/SVG/1.1/DTD/svg11.dtd">
<!-- Created with matplotlib (http://matplotlib.org/) -->
<svg height="576pt" version="1.1" viewBox="0 0 576 576" width="576pt" xmlns="http://www.w3.org/2000/svg" xmlns:xlink="http://www.w3.org/1999/xlink">
 <defs>
  <style type="text/css">
*{stroke-linecap:butt;stroke-linejoin:round;stroke-miterlimit:100000;}
  </style>
 </defs>
 <g id="figure_1">
  <g id="patch_1">
   <path d="M 0 576 
L 576 576 
L 576 0 
L 0 0 
z
" style="fill:#ffffff;"/>
  </g>
  <g id="axes_1">
   <g id="patch_2">
    <path d="M 0 576 
L 576 576 
L 576 28.8 
L 0 28.8 
z
" style="fill:#ffffff;"/>
   </g>
   <g id="LineCollection_1">
    <path clip-path="url(#p6101f89d8d)" d="M 378.166096 456.673742 
L 330.285034 401.658394 
" style="fill:none;stroke:#808080;"/>
    <path clip-path="url(#p6101f89d8d)" d="M 378.166096 456.673742 
L 303.234255 349.05669 
" style="fill:none;stroke:#808080;"/>
    <path clip-path="url(#p6101f89d8d)" d="M 378.166096 456.673742 
L 374.653891 348.351179 
" style="fill:none;stroke:#808080;"/>
    <path clip-path="url(#p6101f89d8d)" d="M 378.166096 456.673742 
L 259.616992 344.776089 
" style="fill:none;stroke:#808080;"/>
    <path clip-path="url(#p6101f89d8d)" d="M 378.166096 456.673742 
L 289.471042 406.023625 
" style="fill:none;stroke:#808080;"/>
    <path clip-path="url(#p6101f89d8d)" d="M 378.166096 456.673742 
L 330.962003 331.509337 
" style="fill:none;stroke:#808080;"/>
    <path clip-path="url(#p6101f89d8d)" d="M 330.285034 401.658394 
L 289.234947 291.700809 
" style="fill:none;stroke:#808080;stroke-width:2.0;"/>
    <path clip-path="url(#p6101f89d8d)" d="M 330.285034 401.658394 
L 374.653891 348.351179 
" style="fill:none;stroke:#808080;stroke-width:2.0;"/>
    <path clip-path="url(#p6101f89d8d)" d="M 330.285034 401.658394 
L 330.962003 331.509337 
" style="fill:none;stroke:#808080;stroke-width:2.0;"/>
    <path clip-path="url(#p6101f89d8d)" d="M 330.285034 401.658394 
L 493.714286 421.016538 
" style="fill:none;stroke:#808080;"/>
    <path clip-path="url(#p6101f89d8d)" d="M 330.285034 401.658394 
L 283.405711 484.8 
" style="fill:none;stroke:#808080;stroke-width:3.0;"/>
    <path clip-path="url(#p6101f89d8d)" d="M 330.285034 401.658394 
L 259.616992 344.776089 
" style="fill:none;stroke:#808080;stroke-width:5.0;"/>
    <path clip-path="url(#p6101f89d8d)" d="M 330.285034 401.658394 
L 289.471042 406.023625 
" style="fill:none;stroke:#808080;stroke-width:7.0;"/>
    <path clip-path="url(#p6101f89d8d)" d="M 330.285034 401.658394 
L 303.234255 349.05669 
" style="fill:none;stroke:#808080;stroke-width:4.0;"/>
    <path clip-path="url(#p6101f89d8d)" d="M 330.285034 401.658394 
L 288.594966 322.737347 
" style="fill:none;stroke:#808080;stroke-width:3.0;"/>
    <path clip-path="url(#p6101f89d8d)" d="M 307.676678 174.156546 
L 288.594966 322.737347 
" style="fill:none;stroke:#808080;"/>
    <path clip-path="url(#p6101f89d8d)" d="M 307.676678 174.156546 
L 289.234947 291.700809 
" style="fill:none;stroke:#808080;stroke-width:2.0;"/>
    <path clip-path="url(#p6101f89d8d)" d="M 307.676678 174.156546 
L 311.308955 247.424067 
" style="fill:none;stroke:#808080;stroke-width:2.0;"/>
    <path clip-path="url(#p6101f89d8d)" d="M 307.676678 174.156546 
L 259.616992 344.776089 
" style="fill:none;stroke:#808080;"/>
    <path clip-path="url(#p6101f89d8d)" d="M 289.234947 291.700809 
L 178.942487 418.593987 
" style="fill:none;stroke:#808080;"/>
    <path clip-path="url(#p6101f89d8d)" d="M 289.234947 291.700809 
L 311.308955 247.424067 
" style="fill:none;stroke:#808080;stroke-width:4.0;"/>
    <path clip-path="url(#p6101f89d8d)" d="M 289.234947 291.700809 
L 259.616992 344.776089 
" style="fill:none;stroke:#808080;stroke-width:6.0;"/>
    <path clip-path="url(#p6101f89d8d)" d="M 289.234947 291.700809 
L 289.471042 406.023625 
" style="fill:none;stroke:#808080;stroke-width:2.0;"/>
    <path clip-path="url(#p6101f89d8d)" d="M 289.234947 291.700809 
L 288.594966 322.737347 
" style="fill:none;stroke:#808080;stroke-width:8.0;"/>
    <path clip-path="url(#p6101f89d8d)" d="M 289.234947 291.700809 
L 374.653891 348.351179 
" style="fill:none;stroke:#808080;stroke-width:3.0;"/>
    <path clip-path="url(#p6101f89d8d)" d="M 289.234947 291.700809 
L 347.354379 273.449838 
" style="fill:none;stroke:#808080;stroke-width:2.0;"/>
    <path clip-path="url(#p6101f89d8d)" d="M 289.234947 291.700809 
L 211.089379 129.988549 
" style="fill:none;stroke:#808080;"/>
    <path clip-path="url(#p6101f89d8d)" d="M 289.234947 291.700809 
L 303.234255 349.05669 
" style="fill:none;stroke:#808080;stroke-width:6.0;"/>
    <path clip-path="url(#p6101f89d8d)" d="M 289.234947 291.700809 
L 330.962003 331.509337 
" style="fill:none;stroke:#808080;stroke-width:4.0;"/>
    <path clip-path="url(#p6101f89d8d)" d="M 311.308955 247.424067 
L 374.653891 348.351179 
" style="fill:none;stroke:#808080;"/>
    <path clip-path="url(#p6101f89d8d)" d="M 311.308955 247.424067 
L 239.849718 255.802438 
" style="fill:none;stroke:#808080;"/>
    <path clip-path="url(#p6101f89d8d)" d="M 311.308955 247.424067 
L 347.354379 273.449838 
" style="fill:none;stroke:#808080;stroke-width:3.0;"/>
    <path clip-path="url(#p6101f89d8d)" d="M 311.308955 247.424067 
L 259.616992 344.776089 
" style="fill:none;stroke:#808080;stroke-width:2.0;"/>
    <path clip-path="url(#p6101f89d8d)" d="M 311.308955 247.424067 
L 330.962003 331.509337 
" style="fill:none;stroke:#808080;"/>
    <path clip-path="url(#p6101f89d8d)" d="M 311.308955 247.424067 
L 303.234255 349.05669 
" style="fill:none;stroke:#808080;stroke-width:3.0;"/>
    <path clip-path="url(#p6101f89d8d)" d="M 311.308955 247.424067 
L 288.594966 322.737347 
" style="fill:none;stroke:#808080;stroke-width:3.0;"/>
    <path clip-path="url(#p6101f89d8d)" d="M 96.362531 311.39706 
L 259.616992 344.776089 
" style="fill:none;stroke:#808080;stroke-width:2.0;"/>
    <path clip-path="url(#p6101f89d8d)" d="M 96.362531 311.39706 
L 82.285714 395.718166 
" style="fill:none;stroke:#808080;"/>
    <path clip-path="url(#p6101f89d8d)" d="M 178.942487 418.593987 
L 303.234255 349.05669 
" style="fill:none;stroke:#808080;"/>
    <path clip-path="url(#p6101f89d8d)" d="M 178.942487 418.593987 
L 288.594966 322.737347 
" style="fill:none;stroke:#808080;"/>
    <path clip-path="url(#p6101f89d8d)" d="M 259.616992 344.776089 
L 289.471042 406.023625 
" style="fill:none;stroke:#808080;stroke-width:4.0;"/>
    <path clip-path="url(#p6101f89d8d)" d="M 259.616992 344.776089 
L 288.594966 322.737347 
" style="fill:none;stroke:#808080;stroke-width:6.0;"/>
    <path clip-path="url(#p6101f89d8d)" d="M 259.616992 344.776089 
L 374.653891 348.351179 
" style="fill:none;stroke:#808080;"/>
    <path clip-path="url(#p6101f89d8d)" d="M 259.616992 344.776089 
L 239.849718 255.802438 
" style="fill:none;stroke:#808080;stroke-width:2.0;"/>
    <path clip-path="url(#p6101f89d8d)" d="M 259.616992 344.776089 
L 347.354379 273.449838 
" style="fill:none;stroke:#808080;stroke-width:2.0;"/>
    <path clip-path="url(#p6101f89d8d)" d="M 259.616992 344.776089 
L 283.405711 484.8 
" style="fill:none;stroke:#808080;"/>
    <path clip-path="url(#p6101f89d8d)" d="M 259.616992 344.776089 
L 303.234255 349.05669 
" style="fill:none;stroke:#808080;stroke-width:8.0;"/>
    <path clip-path="url(#p6101f89d8d)" d="M 259.616992 344.776089 
L 330.962003 331.509337 
" style="fill:none;stroke:#808080;stroke-width:6.0;"/>
    <path clip-path="url(#p6101f89d8d)" d="M 259.616992 344.776089 
L 82.285714 395.718166 
" style="fill:none;stroke:#808080;"/>
    <path clip-path="url(#p6101f89d8d)" d="M 289.471042 406.023625 
L 374.653891 348.351179 
" style="fill:none;stroke:#808080;"/>
    <path clip-path="url(#p6101f89d8d)" d="M 289.471042 406.023625 
L 330.962003 331.509337 
" style="fill:none;stroke:#808080;stroke-width:2.0;"/>
    <path clip-path="url(#p6101f89d8d)" d="M 289.471042 406.023625 
L 283.405711 484.8 
" style="fill:none;stroke:#808080;stroke-width:4.0;"/>
    <path clip-path="url(#p6101f89d8d)" d="M 289.471042 406.023625 
L 303.234255 349.05669 
" style="fill:none;stroke:#808080;stroke-width:3.0;"/>
    <path clip-path="url(#p6101f89d8d)" d="M 289.471042 406.023625 
L 288.594966 322.737347 
" style="fill:none;stroke:#808080;stroke-width:5.0;"/>
    <path clip-path="url(#p6101f89d8d)" d="M 288.594966 322.737347 
L 374.653891 348.351179 
" style="fill:none;stroke:#808080;stroke-width:3.0;"/>
    <path clip-path="url(#p6101f89d8d)" d="M 288.594966 322.737347 
L 239.849718 255.802438 
" style="fill:none;stroke:#808080;"/>
    <path clip-path="url(#p6101f89d8d)" d="M 288.594966 322.737347 
L 347.354379 273.449838 
" style="fill:none;stroke:#808080;stroke-width:4.0;"/>
    <path clip-path="url(#p6101f89d8d)" d="M 288.594966 322.737347 
L 283.405711 484.8 
" style="fill:none;stroke:#808080;"/>
    <path clip-path="url(#p6101f89d8d)" d="M 288.594966 322.737347 
L 211.089379 129.988549 
" style="fill:none;stroke:#808080;"/>
    <path clip-path="url(#p6101f89d8d)" d="M 288.594966 322.737347 
L 303.234255 349.05669 
" style="fill:none;stroke:#808080;stroke-width:8.0;"/>
    <path clip-path="url(#p6101f89d8d)" d="M 288.594966 322.737347 
L 330.962003 331.509337 
" style="fill:none;stroke:#808080;stroke-width:5.0;"/>
    <path clip-path="url(#p6101f89d8d)" d="M 374.653891 348.351179 
L 330.962003 331.509337 
" style="fill:none;stroke:#808080;stroke-width:3.0;"/>
    <path clip-path="url(#p6101f89d8d)" d="M 374.653891 348.351179 
L 347.354379 273.449838 
" style="fill:none;stroke:#808080;"/>
    <path clip-path="url(#p6101f89d8d)" d="M 374.653891 348.351179 
L 493.714286 421.016538 
" style="fill:none;stroke:#808080;"/>
    <path clip-path="url(#p6101f89d8d)" d="M 374.653891 348.351179 
L 303.234255 349.05669 
" style="fill:none;stroke:#808080;stroke-width:3.0;"/>
    <path clip-path="url(#p6101f89d8d)" d="M 239.849718 255.802438 
L 347.354379 273.449838 
" style="fill:none;stroke:#808080;"/>
    <path clip-path="url(#p6101f89d8d)" d="M 239.849718 255.802438 
L 303.234255 349.05669 
" style="fill:none;stroke:#808080;stroke-width:2.0;"/>
    <path clip-path="url(#p6101f89d8d)" d="M 239.849718 255.802438 
L 330.962003 331.509337 
" style="fill:none;stroke:#808080;stroke-width:2.0;"/>
    <path clip-path="url(#p6101f89d8d)" d="M 347.354379 273.449838 
L 330.962003 331.509337 
" style="fill:none;stroke:#808080;stroke-width:2.0;"/>
    <path clip-path="url(#p6101f89d8d)" d="M 347.354379 273.449838 
L 303.234255 349.05669 
" style="fill:none;stroke:#808080;stroke-width:3.0;"/>
    <path clip-path="url(#p6101f89d8d)" d="M 303.234255 349.05669 
L 330.962003 331.509337 
" style="fill:none;stroke:#808080;stroke-width:7.0;"/>
   </g>
   <g id="PathCollection_1">
    <path clip-path="url(#p6101f89d8d)" d="M 378.166096 461.238097 
C 379.376577 461.238097 380.537643 460.757168 381.393582 459.901229 
C 382.249521 459.045289 382.730451 457.884223 382.730451 456.673742 
C 382.730451 455.463261 382.249521 454.302196 381.393582 453.446256 
C 380.537643 452.590317 379.376577 452.109388 378.166096 452.109388 
C 376.955615 452.109388 375.794549 452.590317 374.93861 453.446256 
C 374.082671 454.302196 373.601741 455.463261 373.601741 456.673742 
C 373.601741 457.884223 374.082671 459.045289 374.93861 459.901229 
C 375.794549 460.757168 376.955615 461.238097 378.166096 461.238097 
z
" style="fill:#4682b4;fill-opacity:0.8;stroke:#000000;stroke-opacity:0.8;"/>
    <path clip-path="url(#p6101f89d8d)" d="M 330.285034 407.55095 
C 331.847758 407.55095 333.346687 406.930074 334.4517 405.825061 
C 335.556713 404.720048 336.17759 403.221118 336.17759 401.658394 
C 336.17759 400.09567 335.556713 398.59674 334.4517 397.491727 
C 333.346687 396.386714 331.847758 395.765837 330.285034 395.765837 
C 328.722309 395.765837 327.22338 396.386714 326.118367 397.491727 
C 325.013354 398.59674 324.392477 400.09567 324.392477 401.658394 
C 324.392477 403.221118 325.013354 404.720048 326.118367 405.825061 
C 327.22338 406.930074 328.722309 407.55095 330.285034 407.55095 
z
" style="fill:#4682b4;fill-opacity:0.8;stroke:#000000;stroke-opacity:0.8;"/>
    <path clip-path="url(#p6101f89d8d)" d="M 307.676678 177.883326 
C 308.665032 177.883326 309.613038 177.490649 310.311909 176.791778 
C 311.010781 176.092906 311.403458 175.1449 311.403458 174.156546 
C 311.403458 173.168193 311.010781 172.220187 310.311909 171.521315 
C 309.613038 170.822443 308.665032 170.429766 307.676678 170.429766 
C 306.688324 170.429766 305.740318 170.822443 305.041447 171.521315 
C 304.342575 172.220187 303.949898 173.168193 303.949898 174.156546 
C 303.949898 175.1449 304.342575 176.092906 305.041447 176.791778 
C 305.740318 177.490649 306.688324 177.883326 307.676678 177.883326 
z
" style="fill:#4682b4;fill-opacity:0.8;stroke:#000000;stroke-opacity:0.8;"/>
    <path clip-path="url(#p6101f89d8d)" d="M 289.234947 298.155781 
C 290.946826 298.155781 292.588821 297.475644 293.799302 296.265163 
C 295.009783 295.054682 295.689919 293.412687 295.689919 291.700809 
C 295.689919 289.98893 295.009783 288.346935 293.799302 287.136454 
C 292.588821 285.925973 290.946826 285.245837 289.234947 285.245837 
C 287.523068 285.245837 285.881073 285.925973 284.670592 287.136454 
C 283.460111 288.346935 282.779975 289.98893 282.779975 291.700809 
C 282.779975 293.412687 283.460111 295.054682 284.670592 296.265163 
C 285.881073 297.475644 287.523068 298.155781 289.234947 298.155781 
z
" style="fill:#4682b4;fill-opacity:0.8;stroke:#000000;stroke-opacity:0.8;"/>
    <path clip-path="url(#p6101f89d8d)" d="M 311.308955 253.014237 
C 312.791486 253.014237 314.213495 252.425222 315.261802 251.376914 
C 316.31011 250.328607 316.899125 248.906598 316.899125 247.424067 
C 316.899125 245.941537 316.31011 244.519527 315.261802 243.47122 
C 314.213495 242.422913 312.791486 241.833897 311.308955 241.833897 
C 309.826425 241.833897 308.404415 242.422913 307.356108 243.47122 
C 306.307801 244.519527 305.718785 245.941537 305.718785 247.424067 
C 305.718785 248.906598 306.307801 250.328607 307.356108 251.376914 
C 308.404415 252.425222 309.826425 253.014237 311.308955 253.014237 
z
" style="fill:#4682b4;fill-opacity:0.8;stroke:#000000;stroke-opacity:0.8;"/>
    <path clip-path="url(#p6101f89d8d)" d="M 96.362531 314.032292 
C 97.061402 314.032292 97.731744 313.754627 98.225921 313.26045 
C 98.720098 312.766273 98.997762 312.095932 98.997762 311.39706 
C 98.997762 310.698189 98.720098 310.027847 98.225921 309.53367 
C 97.731744 309.039493 97.061402 308.761829 96.362531 308.761829 
C 95.663659 308.761829 94.993318 309.039493 94.499141 309.53367 
C 94.004964 310.027847 93.727299 310.698189 93.727299 311.39706 
C 93.727299 312.095932 94.004964 312.766273 94.499141 313.26045 
C 94.993318 313.754627 95.663659 314.032292 96.362531 314.032292 
z
" style="fill:#4682b4;fill-opacity:0.8;stroke:#000000;stroke-opacity:0.8;"/>
    <path clip-path="url(#p6101f89d8d)" d="M 178.942487 421.821473 
C 179.798426 421.821473 180.619424 421.481404 181.224664 420.876164 
C 181.829905 420.270923 182.169973 419.449926 182.169973 418.593987 
C 182.169973 417.738047 181.829905 416.91705 181.224664 416.311809 
C 180.619424 415.706569 179.798426 415.3665 178.942487 415.3665 
C 178.086548 415.3665 177.26555 415.706569 176.66031 416.311809 
C 176.055069 416.91705 175.715001 417.738047 175.715001 418.593987 
C 175.715001 419.449926 176.055069 420.270923 176.66031 420.876164 
C 177.26555 421.481404 178.086548 421.821473 178.942487 421.821473 
z
" style="fill:#4682b4;fill-opacity:0.8;stroke:#000000;stroke-opacity:0.8;"/>
    <path clip-path="url(#p6101f89d8d)" d="M 259.616992 351.992968 
C 261.530931 351.992968 263.366737 351.232552 264.720096 349.879193 
C 266.073455 348.525834 266.833871 346.690028 266.833871 344.776089 
C 266.833871 342.862151 266.073455 341.026345 264.720096 339.672986 
C 263.366737 338.319627 261.530931 337.559211 259.616992 337.559211 
C 257.703054 337.559211 255.867248 338.319627 254.513889 339.672986 
C 253.16053 341.026345 252.400114 342.862151 252.400114 344.776089 
C 252.400114 346.690028 253.16053 348.525834 254.513889 349.879193 
C 255.867248 351.232552 257.703054 351.992968 259.616992 351.992968 
z
" style="fill:#4682b4;fill-opacity:0.8;stroke:#000000;stroke-opacity:0.8;"/>
    <path clip-path="url(#p6101f89d8d)" d="M 289.471042 411.613795 
C 290.953572 411.613795 292.375582 411.024779 293.423889 409.976472 
C 294.472196 408.928164 295.061212 407.506155 295.061212 406.023625 
C 295.061212 404.541094 294.472196 403.119085 293.423889 402.070778 
C 292.375582 401.02247 290.953572 400.433455 289.471042 400.433455 
C 287.988511 400.433455 286.566502 401.02247 285.518195 402.070778 
C 284.469887 403.119085 283.880872 404.541094 283.880872 406.023625 
C 283.880872 407.506155 284.469887 408.928164 285.518195 409.976472 
C 286.566502 411.024779 287.988511 411.613795 289.471042 411.613795 
z
" style="fill:#4682b4;fill-opacity:0.8;stroke:#000000;stroke-opacity:0.8;"/>
    <path clip-path="url(#p6101f89d8d)" d="M 288.594966 329.709514 
C 290.444007 329.709514 292.217564 328.974883 293.525033 327.667414 
C 294.832502 326.359945 295.567133 324.586388 295.567133 322.737347 
C 295.567133 320.888307 294.832502 319.11475 293.525033 317.807281 
C 292.217564 316.499812 290.444007 315.76518 288.594966 315.76518 
C 286.745926 315.76518 284.972369 316.499812 283.6649 317.807281 
C 282.357431 319.11475 281.6228 320.888307 281.6228 322.737347 
C 281.6228 324.586388 282.357431 326.359945 283.6649 327.667414 
C 284.972369 328.974883 286.745926 329.709514 288.594966 329.709514 
z
" style="fill:#4682b4;fill-opacity:0.8;stroke:#000000;stroke-opacity:0.8;"/>
    <path clip-path="url(#p6101f89d8d)" d="M 374.653891 354.531344 
C 376.29289 354.531344 377.86498 353.880163 379.023927 352.721215 
C 380.182875 351.562268 380.834056 349.990178 380.834056 348.351179 
C 380.834056 346.71218 380.182875 345.140089 379.023927 343.981142 
C 377.86498 342.822194 376.29289 342.171013 374.653891 342.171013 
C 373.014892 342.171013 371.442801 342.822194 370.283854 343.981142 
C 369.124906 345.140089 368.473725 346.71218 368.473725 348.351179 
C 368.473725 349.990178 369.124906 351.562268 370.283854 352.721215 
C 371.442801 353.880163 373.014892 354.531344 374.653891 354.531344 
z
" style="fill:#4682b4;fill-opacity:0.8;stroke:#000000;stroke-opacity:0.8;"/>
    <path clip-path="url(#p6101f89d8d)" d="M 239.849718 260.366792 
C 241.060199 260.366792 242.221264 259.885863 243.077204 259.029924 
C 243.933143 258.173984 244.414072 257.012919 244.414072 255.802438 
C 244.414072 254.591957 243.933143 253.430891 243.077204 252.574951 
C 242.221264 251.719012 241.060199 251.238083 239.849718 251.238083 
C 238.639237 251.238083 237.478171 251.719012 236.622231 252.574951 
C 235.766292 253.430891 235.285363 254.591957 235.285363 255.802438 
C 235.285363 257.012919 235.766292 258.173984 236.622231 259.029924 
C 237.478171 259.885863 238.639237 260.366792 239.849718 260.366792 
z
" style="fill:#4682b4;fill-opacity:0.8;stroke:#000000;stroke-opacity:0.8;"/>
    <path clip-path="url(#p6101f89d8d)" d="M 347.354379 278.720301 
C 348.752122 278.720301 350.092806 278.164972 351.081159 277.176618 
C 352.069513 276.188264 352.624842 274.847581 352.624842 273.449838 
C 352.624842 272.052095 352.069513 270.711412 351.081159 269.723058 
C 350.092806 268.734704 348.752122 268.179375 347.354379 268.179375 
C 345.956636 268.179375 344.615953 268.734704 343.627599 269.723058 
C 342.639246 270.711412 342.083917 272.052095 342.083917 273.449838 
C 342.083917 274.847581 342.639246 276.188264 343.627599 277.176618 
C 344.615953 278.164972 345.956636 278.720301 347.354379 278.720301 
z
" style="fill:#4682b4;fill-opacity:0.8;stroke:#000000;stroke-opacity:0.8;"/>
    <path clip-path="url(#p6101f89d8d)" d="M 493.714286 424.743318 
C 494.702639 424.743318 495.650646 424.350641 496.349517 423.65177 
C 497.048389 422.952898 497.441066 422.004892 497.441066 421.016538 
C 497.441066 420.028185 497.048389 419.080179 496.349517 418.381307 
C 495.650646 417.682435 494.702639 417.289758 493.714286 417.289758 
C 492.725932 417.289758 491.777926 417.682435 491.079054 418.381307 
C 490.380183 419.080179 489.987506 420.028185 489.987506 421.016538 
C 489.987506 422.004892 490.380183 422.952898 491.079054 423.65177 
C 491.777926 424.350641 492.725932 424.743318 493.714286 424.743318 
z
" style="fill:#4682b4;fill-opacity:0.8;stroke:#000000;stroke-opacity:0.8;"/>
    <path clip-path="url(#p6101f89d8d)" d="M 283.405711 487.435231 
C 284.104582 487.435231 284.774924 487.157567 285.269101 486.66339 
C 285.763278 486.169213 286.040942 485.498872 286.040942 484.8 
C 286.040942 484.101128 285.763278 483.430787 285.269101 482.93661 
C 284.774924 482.442433 284.104582 482.164769 283.405711 482.164769 
C 282.706839 482.164769 282.036498 482.442433 281.542321 482.93661 
C 281.048144 483.430787 280.770479 484.101128 280.770479 484.8 
C 280.770479 485.498872 281.048144 486.169213 281.542321 486.66339 
C 282.036498 487.157567 282.706839 487.435231 283.405711 487.435231 
z
" style="fill:#4682b4;fill-opacity:0.8;stroke:#000000;stroke-opacity:0.8;"/>
    <path clip-path="url(#p6101f89d8d)" d="M 211.089379 132.62378 
C 211.78825 132.62378 212.458592 132.346115 212.952769 131.851939 
C 213.446946 131.357762 213.72461 130.68742 213.72461 129.988549 
C 213.72461 129.289677 213.446946 128.619335 212.952769 128.125159 
C 212.458592 127.630982 211.78825 127.353317 211.089379 127.353317 
C 210.390507 127.353317 209.720166 127.630982 209.225989 128.125159 
C 208.731812 128.619335 208.454147 129.289677 208.454147 129.988549 
C 208.454147 130.68742 208.731812 131.357762 209.225989 131.851939 
C 209.720166 132.346115 210.390507 132.62378 211.089379 132.62378 
z
" style="fill:#4682b4;fill-opacity:0.8;stroke:#000000;stroke-opacity:0.8;"/>
    <path clip-path="url(#p6101f89d8d)" d="M 303.234255 355.511662 
C 304.946134 355.511662 306.588129 354.831526 307.79861 353.621045 
C 309.009091 352.410564 309.689227 350.768569 309.689227 349.05669 
C 309.689227 347.344811 309.009091 345.702816 307.79861 344.492335 
C 306.588129 343.281854 304.946134 342.601718 303.234255 342.601718 
C 301.522377 342.601718 299.880382 343.281854 298.669901 344.492335 
C 297.45942 345.702816 296.779283 347.344811 296.779283 349.05669 
C 296.779283 350.768569 297.45942 352.410564 298.669901 353.621045 
C 299.880382 354.831526 301.522377 355.511662 303.234255 355.511662 
z
" style="fill:#4682b4;fill-opacity:0.8;stroke:#000000;stroke-opacity:0.8;"/>
    <path clip-path="url(#p6101f89d8d)" d="M 330.962003 337.689502 
C 332.601002 337.689502 334.173093 337.038321 335.33204 335.879374 
C 336.490987 334.720426 337.142169 333.148336 337.142169 331.509337 
C 337.142169 329.870338 336.490987 328.298247 335.33204 327.1393 
C 334.173093 325.980352 332.601002 325.329171 330.962003 325.329171 
C 329.323004 325.329171 327.750914 325.980352 326.591966 327.1393 
C 325.433019 328.298247 324.781838 329.870338 324.781838 331.509337 
C 324.781838 333.148336 325.433019 334.720426 326.591966 335.879374 
C 327.750914 337.038321 329.323004 337.689502 330.962003 337.689502 
z
" style="fill:#4682b4;fill-opacity:0.8;stroke:#000000;stroke-opacity:0.8;"/>
    <path clip-path="url(#p6101f89d8d)" d="M 82.285714 398.353398 
C 82.984586 398.353398 83.654927 398.075733 84.149104 397.581556 
C 84.643281 397.08738 84.920946 396.417038 84.920946 395.718166 
C 84.920946 395.019295 84.643281 394.348953 84.149104 393.854777 
C 83.654927 393.3606 82.984586 393.082935 82.285714 393.082935 
C 81.586843 393.082935 80.916501 393.3606 80.422324 393.854777 
C 79.928148 394.348953 79.650483 395.019295 79.650483 395.718166 
C 79.650483 396.417038 79.928148 397.08738 80.422324 397.581556 
C 80.916501 398.075733 81.586843 398.353398 82.285714 398.353398 
z
" style="fill:#4682b4;fill-opacity:0.8;stroke:#000000;stroke-opacity:0.8;"/>
   </g>
   <g id="patch_3">
    <path d="M 0 576 
L 576 576 
" style="fill:none;stroke:#000000;stroke-linecap:square;stroke-linejoin:miter;"/>
   </g>
   <g id="patch_4">
    <path d="M 0 576 
L 0 28.8 
" style="fill:none;stroke:#000000;stroke-linecap:square;stroke-linejoin:miter;"/>
   </g>
   <g id="patch_5">
    <path d="M 0 28.8 
L 576 28.8 
" style="fill:none;stroke:#000000;stroke-linecap:square;stroke-linejoin:miter;"/>
   </g>
   <g id="patch_6">
    <path d="M 576 576 
L 576 28.8 
" style="fill:none;stroke:#000000;stroke-linecap:square;stroke-linejoin:miter;"/>
   </g>
   <g id="matplotlib.axis_1">
    <g id="xtick_1">
     <g id="line2d_1">
      <defs>
       <path d="M 0 0 
L 0 -4 
" id="me1679a3bc7" style="stroke:#000000;stroke-width:0.5;"/>
      </defs>
      <g>
       <use style="stroke:#000000;stroke-width:0.5;" x="0.0" xlink:href="#me1679a3bc7" y="576.0"/>
      </g>
     </g>
     <g id="line2d_2">
      <defs>
       <path d="M 0 0 
L 0 4 
" id="m0a2d8eaa9f" style="stroke:#000000;stroke-width:0.5;"/>
      </defs>
      <g>
       <use style="stroke:#000000;stroke-width:0.5;" x="0.0" xlink:href="#m0a2d8eaa9f" y="28.8"/>
      </g>
     </g>
     <g id="text_1">
      <!-- −0.2 -->
      <defs>
       <path d="M 10.59375 35.5 
L 73.1875 35.5 
L 73.1875 27.203125 
L 10.59375 27.203125 
z
" id="BitstreamVeraSans-Roman-2212"/>
       <path d="M 10.6875 12.40625 
L 21 12.40625 
L 21 0 
L 10.6875 0 
z
" id="BitstreamVeraSans-Roman-2e"/>
       <path d="M 31.78125 66.40625 
Q 24.171875 66.40625 20.328125 58.90625 
Q 16.5 51.421875 16.5 36.375 
Q 16.5 21.390625 20.328125 13.890625 
Q 24.171875 6.390625 31.78125 6.390625 
Q 39.453125 6.390625 43.28125 13.890625 
Q 47.125 21.390625 47.125 36.375 
Q 47.125 51.421875 43.28125 58.90625 
Q 39.453125 66.40625 31.78125 66.40625 
M 31.78125 74.21875 
Q 44.046875 74.21875 50.515625 64.515625 
Q 56.984375 54.828125 56.984375 36.375 
Q 56.984375 17.96875 50.515625 8.265625 
Q 44.046875 -1.421875 31.78125 -1.421875 
Q 19.53125 -1.421875 13.0625 8.265625 
Q 6.59375 17.96875 6.59375 36.375 
Q 6.59375 54.828125 13.0625 64.515625 
Q 19.53125 74.21875 31.78125 74.21875 
" id="BitstreamVeraSans-Roman-30"/>
       <path d="M 19.1875 8.296875 
L 53.609375 8.296875 
L 53.609375 0 
L 7.328125 0 
L 7.328125 8.296875 
Q 12.9375 14.109375 22.625 23.890625 
Q 32.328125 33.6875 34.8125 36.53125 
Q 39.546875 41.84375 41.421875 45.53125 
Q 43.3125 49.21875 43.3125 52.78125 
Q 43.3125 58.59375 39.234375 62.25 
Q 35.15625 65.921875 28.609375 65.921875 
Q 23.96875 65.921875 18.8125 64.3125 
Q 13.671875 62.703125 7.8125 59.421875 
L 7.8125 69.390625 
Q 13.765625 71.78125 18.9375 73 
Q 24.125 74.21875 28.421875 74.21875 
Q 39.75 74.21875 46.484375 68.546875 
Q 53.21875 62.890625 53.21875 53.421875 
Q 53.21875 48.921875 51.53125 44.890625 
Q 49.859375 40.875 45.40625 35.40625 
Q 44.1875 33.984375 37.640625 27.21875 
Q 31.109375 20.453125 19.1875 8.296875 
" id="BitstreamVeraSans-Roman-32"/>
      </defs>
      <g transform="translate(-14.5696875 589.118125)scale(0.12 -0.12)">
       <use xlink:href="#BitstreamVeraSans-Roman-2212"/>
       <use x="83.7890625" xlink:href="#BitstreamVeraSans-Roman-30"/>
       <use x="147.412109375" xlink:href="#BitstreamVeraSans-Roman-2e"/>
       <use x="179.19921875" xlink:href="#BitstreamVeraSans-Roman-32"/>
      </g>
     </g>
    </g>
    <g id="xtick_2">
     <g id="line2d_3">
      <g>
       <use style="stroke:#000000;stroke-width:0.5;" x="82.2857142857" xlink:href="#me1679a3bc7" y="576.0"/>
      </g>
     </g>
     <g id="line2d_4">
      <g>
       <use style="stroke:#000000;stroke-width:0.5;" x="82.2857142857" xlink:href="#m0a2d8eaa9f" y="28.8"/>
      </g>
     </g>
     <g id="text_2">
      <!-- 0.0 -->
      <g transform="translate(72.7438392857 589.118125)scale(0.12 -0.12)">
       <use xlink:href="#BitstreamVeraSans-Roman-30"/>
       <use x="63.623046875" xlink:href="#BitstreamVeraSans-Roman-2e"/>
       <use x="95.41015625" xlink:href="#BitstreamVeraSans-Roman-30"/>
      </g>
     </g>
    </g>
    <g id="xtick_3">
     <g id="line2d_5">
      <g>
       <use style="stroke:#000000;stroke-width:0.5;" x="164.571428571" xlink:href="#me1679a3bc7" y="576.0"/>
      </g>
     </g>
     <g id="line2d_6">
      <g>
       <use style="stroke:#000000;stroke-width:0.5;" x="164.571428571" xlink:href="#m0a2d8eaa9f" y="28.8"/>
      </g>
     </g>
     <g id="text_3">
      <!-- 0.2 -->
      <g transform="translate(155.029553571 589.118125)scale(0.12 -0.12)">
       <use xlink:href="#BitstreamVeraSans-Roman-30"/>
       <use x="63.623046875" xlink:href="#BitstreamVeraSans-Roman-2e"/>
       <use x="95.41015625" xlink:href="#BitstreamVeraSans-Roman-32"/>
      </g>
     </g>
    </g>
    <g id="xtick_4">
     <g id="line2d_7">
      <g>
       <use style="stroke:#000000;stroke-width:0.5;" x="246.857142857" xlink:href="#me1679a3bc7" y="576.0"/>
      </g>
     </g>
     <g id="line2d_8">
      <g>
       <use style="stroke:#000000;stroke-width:0.5;" x="246.857142857" xlink:href="#m0a2d8eaa9f" y="28.8"/>
      </g>
     </g>
     <g id="text_4">
      <!-- 0.4 -->
      <defs>
       <path d="M 37.796875 64.3125 
L 12.890625 25.390625 
L 37.796875 25.390625 
z
M 35.203125 72.90625 
L 47.609375 72.90625 
L 47.609375 25.390625 
L 58.015625 25.390625 
L 58.015625 17.1875 
L 47.609375 17.1875 
L 47.609375 0 
L 37.796875 0 
L 37.796875 17.1875 
L 4.890625 17.1875 
L 4.890625 26.703125 
z
" id="BitstreamVeraSans-Roman-34"/>
      </defs>
      <g transform="translate(237.315267857 589.118125)scale(0.12 -0.12)">
       <use xlink:href="#BitstreamVeraSans-Roman-30"/>
       <use x="63.623046875" xlink:href="#BitstreamVeraSans-Roman-2e"/>
       <use x="95.41015625" xlink:href="#BitstreamVeraSans-Roman-34"/>
      </g>
     </g>
    </g>
    <g id="xtick_5">
     <g id="line2d_9">
      <g>
       <use style="stroke:#000000;stroke-width:0.5;" x="329.142857143" xlink:href="#me1679a3bc7" y="576.0"/>
      </g>
     </g>
     <g id="line2d_10">
      <g>
       <use style="stroke:#000000;stroke-width:0.5;" x="329.142857143" xlink:href="#m0a2d8eaa9f" y="28.8"/>
      </g>
     </g>
     <g id="text_5">
      <!-- 0.6 -->
      <defs>
       <path d="M 33.015625 40.375 
Q 26.375 40.375 22.484375 35.828125 
Q 18.609375 31.296875 18.609375 23.390625 
Q 18.609375 15.53125 22.484375 10.953125 
Q 26.375 6.390625 33.015625 6.390625 
Q 39.65625 6.390625 43.53125 10.953125 
Q 47.40625 15.53125 47.40625 23.390625 
Q 47.40625 31.296875 43.53125 35.828125 
Q 39.65625 40.375 33.015625 40.375 
M 52.59375 71.296875 
L 52.59375 62.3125 
Q 48.875 64.0625 45.09375 64.984375 
Q 41.3125 65.921875 37.59375 65.921875 
Q 27.828125 65.921875 22.671875 59.328125 
Q 17.53125 52.734375 16.796875 39.40625 
Q 19.671875 43.65625 24.015625 45.921875 
Q 28.375 48.1875 33.59375 48.1875 
Q 44.578125 48.1875 50.953125 41.515625 
Q 57.328125 34.859375 57.328125 23.390625 
Q 57.328125 12.15625 50.6875 5.359375 
Q 44.046875 -1.421875 33.015625 -1.421875 
Q 20.359375 -1.421875 13.671875 8.265625 
Q 6.984375 17.96875 6.984375 36.375 
Q 6.984375 53.65625 15.1875 63.9375 
Q 23.390625 74.21875 37.203125 74.21875 
Q 40.921875 74.21875 44.703125 73.484375 
Q 48.484375 72.75 52.59375 71.296875 
" id="BitstreamVeraSans-Roman-36"/>
      </defs>
      <g transform="translate(319.600982143 589.118125)scale(0.12 -0.12)">
       <use xlink:href="#BitstreamVeraSans-Roman-30"/>
       <use x="63.623046875" xlink:href="#BitstreamVeraSans-Roman-2e"/>
       <use x="95.41015625" xlink:href="#BitstreamVeraSans-Roman-36"/>
      </g>
     </g>
    </g>
    <g id="xtick_6">
     <g id="line2d_11">
      <g>
       <use style="stroke:#000000;stroke-width:0.5;" x="411.428571429" xlink:href="#me1679a3bc7" y="576.0"/>
      </g>
     </g>
     <g id="line2d_12">
      <g>
       <use style="stroke:#000000;stroke-width:0.5;" x="411.428571429" xlink:href="#m0a2d8eaa9f" y="28.8"/>
      </g>
     </g>
     <g id="text_6">
      <!-- 0.8 -->
      <defs>
       <path d="M 31.78125 34.625 
Q 24.75 34.625 20.71875 30.859375 
Q 16.703125 27.09375 16.703125 20.515625 
Q 16.703125 13.921875 20.71875 10.15625 
Q 24.75 6.390625 31.78125 6.390625 
Q 38.8125 6.390625 42.859375 10.171875 
Q 46.921875 13.96875 46.921875 20.515625 
Q 46.921875 27.09375 42.890625 30.859375 
Q 38.875 34.625 31.78125 34.625 
M 21.921875 38.8125 
Q 15.578125 40.375 12.03125 44.71875 
Q 8.5 49.078125 8.5 55.328125 
Q 8.5 64.0625 14.71875 69.140625 
Q 20.953125 74.21875 31.78125 74.21875 
Q 42.671875 74.21875 48.875 69.140625 
Q 55.078125 64.0625 55.078125 55.328125 
Q 55.078125 49.078125 51.53125 44.71875 
Q 48 40.375 41.703125 38.8125 
Q 48.828125 37.15625 52.796875 32.3125 
Q 56.78125 27.484375 56.78125 20.515625 
Q 56.78125 9.90625 50.3125 4.234375 
Q 43.84375 -1.421875 31.78125 -1.421875 
Q 19.734375 -1.421875 13.25 4.234375 
Q 6.78125 9.90625 6.78125 20.515625 
Q 6.78125 27.484375 10.78125 32.3125 
Q 14.796875 37.15625 21.921875 38.8125 
M 18.3125 54.390625 
Q 18.3125 48.734375 21.84375 45.5625 
Q 25.390625 42.390625 31.78125 42.390625 
Q 38.140625 42.390625 41.71875 45.5625 
Q 45.3125 48.734375 45.3125 54.390625 
Q 45.3125 60.0625 41.71875 63.234375 
Q 38.140625 66.40625 31.78125 66.40625 
Q 25.390625 66.40625 21.84375 63.234375 
Q 18.3125 60.0625 18.3125 54.390625 
" id="BitstreamVeraSans-Roman-38"/>
      </defs>
      <g transform="translate(401.886696429 589.118125)scale(0.12 -0.12)">
       <use xlink:href="#BitstreamVeraSans-Roman-30"/>
       <use x="63.623046875" xlink:href="#BitstreamVeraSans-Roman-2e"/>
       <use x="95.41015625" xlink:href="#BitstreamVeraSans-Roman-38"/>
      </g>
     </g>
    </g>
    <g id="xtick_7">
     <g id="line2d_13">
      <g>
       <use style="stroke:#000000;stroke-width:0.5;" x="493.714285714" xlink:href="#me1679a3bc7" y="576.0"/>
      </g>
     </g>
     <g id="line2d_14">
      <g>
       <use style="stroke:#000000;stroke-width:0.5;" x="493.714285714" xlink:href="#m0a2d8eaa9f" y="28.8"/>
      </g>
     </g>
     <g id="text_7">
      <!-- 1.0 -->
      <defs>
       <path d="M 12.40625 8.296875 
L 28.515625 8.296875 
L 28.515625 63.921875 
L 10.984375 60.40625 
L 10.984375 69.390625 
L 28.421875 72.90625 
L 38.28125 72.90625 
L 38.28125 8.296875 
L 54.390625 8.296875 
L 54.390625 0 
L 12.40625 0 
z
" id="BitstreamVeraSans-Roman-31"/>
      </defs>
      <g transform="translate(484.172410714 589.118125)scale(0.12 -0.12)">
       <use xlink:href="#BitstreamVeraSans-Roman-31"/>
       <use x="63.623046875" xlink:href="#BitstreamVeraSans-Roman-2e"/>
       <use x="95.41015625" xlink:href="#BitstreamVeraSans-Roman-30"/>
      </g>
     </g>
    </g>
    <g id="xtick_8">
     <g id="line2d_15">
      <g>
       <use style="stroke:#000000;stroke-width:0.5;" x="576.0" xlink:href="#me1679a3bc7" y="576.0"/>
      </g>
     </g>
     <g id="line2d_16">
      <g>
       <use style="stroke:#000000;stroke-width:0.5;" x="576.0" xlink:href="#m0a2d8eaa9f" y="28.8"/>
      </g>
     </g>
     <g id="text_8">
      <!-- 1.2 -->
      <g transform="translate(566.458125 589.118125)scale(0.12 -0.12)">
       <use xlink:href="#BitstreamVeraSans-Roman-31"/>
       <use x="63.623046875" xlink:href="#BitstreamVeraSans-Roman-2e"/>
       <use x="95.41015625" xlink:href="#BitstreamVeraSans-Roman-32"/>
      </g>
     </g>
    </g>
   </g>
   <g id="matplotlib.axis_2">
    <g id="ytick_1">
     <g id="line2d_17">
      <defs>
       <path d="M 0 0 
L 4 0 
" id="mf7e33ce0c7" style="stroke:#000000;stroke-width:0.5;"/>
      </defs>
      <g>
       <use style="stroke:#000000;stroke-width:0.5;" x="0.0" xlink:href="#mf7e33ce0c7" y="576.0"/>
      </g>
     </g>
     <g id="line2d_18">
      <defs>
       <path d="M 0 0 
L -4 0 
" id="m978fdbf32e" style="stroke:#000000;stroke-width:0.5;"/>
      </defs>
      <g>
       <use style="stroke:#000000;stroke-width:0.5;" x="576.0" xlink:href="#m978fdbf32e" y="576.0"/>
      </g>
     </g>
     <g id="text_9">
      <!-- −0.2 -->
      <g transform="translate(-33.139375 579.31125)scale(0.12 -0.12)">
       <use xlink:href="#BitstreamVeraSans-Roman-2212"/>
       <use x="83.7890625" xlink:href="#BitstreamVeraSans-Roman-30"/>
       <use x="147.412109375" xlink:href="#BitstreamVeraSans-Roman-2e"/>
       <use x="179.19921875" xlink:href="#BitstreamVeraSans-Roman-32"/>
      </g>
     </g>
    </g>
    <g id="ytick_2">
     <g id="line2d_19">
      <g>
       <use style="stroke:#000000;stroke-width:0.5;" x="0.0" xlink:href="#mf7e33ce0c7" y="484.8"/>
      </g>
     </g>
     <g id="line2d_20">
      <g>
       <use style="stroke:#000000;stroke-width:0.5;" x="576.0" xlink:href="#m978fdbf32e" y="484.8"/>
      </g>
     </g>
     <g id="text_10">
      <!-- 0.0 -->
      <g transform="translate(-23.08375 488.11125)scale(0.12 -0.12)">
       <use xlink:href="#BitstreamVeraSans-Roman-30"/>
       <use x="63.623046875" xlink:href="#BitstreamVeraSans-Roman-2e"/>
       <use x="95.41015625" xlink:href="#BitstreamVeraSans-Roman-30"/>
      </g>
     </g>
    </g>
    <g id="ytick_3">
     <g id="line2d_21">
      <g>
       <use style="stroke:#000000;stroke-width:0.5;" x="0.0" xlink:href="#mf7e33ce0c7" y="393.6"/>
      </g>
     </g>
     <g id="line2d_22">
      <g>
       <use style="stroke:#000000;stroke-width:0.5;" x="576.0" xlink:href="#m978fdbf32e" y="393.6"/>
      </g>
     </g>
     <g id="text_11">
      <!-- 0.2 -->
      <g transform="translate(-23.08375 396.91125)scale(0.12 -0.12)">
       <use xlink:href="#BitstreamVeraSans-Roman-30"/>
       <use x="63.623046875" xlink:href="#BitstreamVeraSans-Roman-2e"/>
       <use x="95.41015625" xlink:href="#BitstreamVeraSans-Roman-32"/>
      </g>
     </g>
    </g>
    <g id="ytick_4">
     <g id="line2d_23">
      <g>
       <use style="stroke:#000000;stroke-width:0.5;" x="0.0" xlink:href="#mf7e33ce0c7" y="302.4"/>
      </g>
     </g>
     <g id="line2d_24">
      <g>
       <use style="stroke:#000000;stroke-width:0.5;" x="576.0" xlink:href="#m978fdbf32e" y="302.4"/>
      </g>
     </g>
     <g id="text_12">
      <!-- 0.4 -->
      <g transform="translate(-23.08375 305.71125)scale(0.12 -0.12)">
       <use xlink:href="#BitstreamVeraSans-Roman-30"/>
       <use x="63.623046875" xlink:href="#BitstreamVeraSans-Roman-2e"/>
       <use x="95.41015625" xlink:href="#BitstreamVeraSans-Roman-34"/>
      </g>
     </g>
    </g>
    <g id="ytick_5">
     <g id="line2d_25">
      <g>
       <use style="stroke:#000000;stroke-width:0.5;" x="0.0" xlink:href="#mf7e33ce0c7" y="211.2"/>
      </g>
     </g>
     <g id="line2d_26">
      <g>
       <use style="stroke:#000000;stroke-width:0.5;" x="576.0" xlink:href="#m978fdbf32e" y="211.2"/>
      </g>
     </g>
     <g id="text_13">
      <!-- 0.6 -->
      <g transform="translate(-23.08375 214.51125)scale(0.12 -0.12)">
       <use xlink:href="#BitstreamVeraSans-Roman-30"/>
       <use x="63.623046875" xlink:href="#BitstreamVeraSans-Roman-2e"/>
       <use x="95.41015625" xlink:href="#BitstreamVeraSans-Roman-36"/>
      </g>
     </g>
    </g>
    <g id="ytick_6">
     <g id="line2d_27">
      <g>
       <use style="stroke:#000000;stroke-width:0.5;" x="0.0" xlink:href="#mf7e33ce0c7" y="120.0"/>
      </g>
     </g>
     <g id="line2d_28">
      <g>
       <use style="stroke:#000000;stroke-width:0.5;" x="576.0" xlink:href="#m978fdbf32e" y="120.0"/>
      </g>
     </g>
     <g id="text_14">
      <!-- 0.8 -->
      <g transform="translate(-23.08375 123.31125)scale(0.12 -0.12)">
       <use xlink:href="#BitstreamVeraSans-Roman-30"/>
       <use x="63.623046875" xlink:href="#BitstreamVeraSans-Roman-2e"/>
       <use x="95.41015625" xlink:href="#BitstreamVeraSans-Roman-38"/>
      </g>
     </g>
    </g>
    <g id="ytick_7">
     <g id="line2d_29">
      <g>
       <use style="stroke:#000000;stroke-width:0.5;" x="0.0" xlink:href="#mf7e33ce0c7" y="28.8"/>
      </g>
     </g>
     <g id="line2d_30">
      <g>
       <use style="stroke:#000000;stroke-width:0.5;" x="576.0" xlink:href="#m978fdbf32e" y="28.8"/>
      </g>
     </g>
     <g id="text_15">
      <!-- 1.0 -->
      <g transform="translate(-23.08375 32.11125)scale(0.12 -0.12)">
       <use xlink:href="#BitstreamVeraSans-Roman-31"/>
       <use x="63.623046875" xlink:href="#BitstreamVeraSans-Roman-2e"/>
       <use x="95.41015625" xlink:href="#BitstreamVeraSans-Roman-30"/>
      </g>
     </g>
    </g>
   </g>
   <g id="text_16">
    <g clip-path="url(#p6101f89d8d)">
     <!-- KAMMERJUNGFER -->
     <defs>
      <path d="M 9.8125 72.90625 
L 19.671875 72.90625 
L 19.671875 42.09375 
L 52.390625 72.90625 
L 65.09375 72.90625 
L 28.90625 38.921875 
L 67.671875 0 
L 54.6875 0 
L 19.671875 35.109375 
L 19.671875 0 
L 9.8125 0 
z
" id="BitstreamVeraSans-Roman-4b"/>
      <path d="M 9.8125 72.90625 
L 23.09375 72.90625 
L 55.421875 11.921875 
L 55.421875 72.90625 
L 64.984375 72.90625 
L 64.984375 0 
L 51.703125 0 
L 19.390625 60.984375 
L 19.390625 0 
L 9.8125 0 
z
" id="BitstreamVeraSans-Roman-4e"/>
      <path d="M 8.6875 72.90625 
L 18.609375 72.90625 
L 18.609375 28.609375 
Q 18.609375 16.890625 22.84375 11.734375 
Q 27.09375 6.59375 36.625 6.59375 
Q 46.09375 6.59375 50.34375 11.734375 
Q 54.59375 16.890625 54.59375 28.609375 
L 54.59375 72.90625 
L 64.5 72.90625 
L 64.5 27.390625 
Q 64.5 13.140625 57.4375 5.859375 
Q 50.390625 -1.421875 36.625 -1.421875 
Q 22.796875 -1.421875 15.734375 5.859375 
Q 8.6875 13.140625 8.6875 27.390625 
z
" id="BitstreamVeraSans-Roman-55"/>
      <path d="M 9.8125 72.90625 
L 51.703125 72.90625 
L 51.703125 64.59375 
L 19.671875 64.59375 
L 19.671875 43.109375 
L 48.578125 43.109375 
L 48.578125 34.8125 
L 19.671875 34.8125 
L 19.671875 0 
L 9.8125 0 
z
" id="BitstreamVeraSans-Roman-46"/>
      <path d="M 59.515625 10.40625 
L 59.515625 29.984375 
L 43.40625 29.984375 
L 43.40625 38.09375 
L 69.28125 38.09375 
L 69.28125 6.78125 
Q 63.578125 2.734375 56.6875 0.65625 
Q 49.8125 -1.421875 42 -1.421875 
Q 24.90625 -1.421875 15.25 8.5625 
Q 5.609375 18.5625 5.609375 36.375 
Q 5.609375 54.25 15.25 64.234375 
Q 24.90625 74.21875 42 74.21875 
Q 49.125 74.21875 55.546875 72.453125 
Q 61.96875 70.703125 67.390625 67.28125 
L 67.390625 56.78125 
Q 61.921875 61.421875 55.765625 63.765625 
Q 49.609375 66.109375 42.828125 66.109375 
Q 29.4375 66.109375 22.71875 58.640625 
Q 16.015625 51.171875 16.015625 36.375 
Q 16.015625 21.625 22.71875 14.15625 
Q 29.4375 6.6875 42.828125 6.6875 
Q 48.046875 6.6875 52.140625 7.59375 
Q 56.25 8.5 59.515625 10.40625 
" id="BitstreamVeraSans-Roman-47"/>
      <path d="M 9.8125 72.90625 
L 24.515625 72.90625 
L 43.109375 23.296875 
L 61.8125 72.90625 
L 76.515625 72.90625 
L 76.515625 0 
L 66.890625 0 
L 66.890625 64.015625 
L 48.09375 14.015625 
L 38.1875 14.015625 
L 19.390625 64.015625 
L 19.390625 0 
L 9.8125 0 
z
" id="BitstreamVeraSans-Roman-4d"/>
      <path d="M 9.8125 72.90625 
L 55.90625 72.90625 
L 55.90625 64.59375 
L 19.671875 64.59375 
L 19.671875 43.015625 
L 54.390625 43.015625 
L 54.390625 34.71875 
L 19.671875 34.71875 
L 19.671875 8.296875 
L 56.78125 8.296875 
L 56.78125 0 
L 9.8125 0 
z
" id="BitstreamVeraSans-Roman-45"/>
      <path d="M 9.8125 72.90625 
L 19.671875 72.90625 
L 19.671875 5.078125 
Q 19.671875 -8.109375 14.671875 -14.0625 
Q 9.671875 -20.015625 -1.421875 -20.015625 
L -5.171875 -20.015625 
L -5.171875 -11.71875 
L -2.09375 -11.71875 
Q 4.4375 -11.71875 7.125 -8.046875 
Q 9.8125 -4.390625 9.8125 5.078125 
z
" id="BitstreamVeraSans-Roman-4a"/>
      <path d="M 34.1875 63.1875 
L 20.796875 26.90625 
L 47.609375 26.90625 
z
M 28.609375 72.90625 
L 39.796875 72.90625 
L 67.578125 0 
L 57.328125 0 
L 50.6875 18.703125 
L 17.828125 18.703125 
L 11.1875 0 
L 0.78125 0 
z
" id="BitstreamVeraSans-Roman-41"/>
      <path d="M 44.390625 34.1875 
Q 47.5625 33.109375 50.5625 29.59375 
Q 53.5625 26.078125 56.59375 19.921875 
L 66.609375 0 
L 56 0 
L 46.6875 18.703125 
Q 43.0625 26.03125 39.671875 28.421875 
Q 36.28125 30.8125 30.421875 30.8125 
L 19.671875 30.8125 
L 19.671875 0 
L 9.8125 0 
L 9.8125 72.90625 
L 32.078125 72.90625 
Q 44.578125 72.90625 50.734375 67.671875 
Q 56.890625 62.453125 56.890625 51.90625 
Q 56.890625 45.015625 53.6875 40.46875 
Q 50.484375 35.9375 44.390625 34.1875 
M 19.671875 64.796875 
L 19.671875 38.921875 
L 32.078125 38.921875 
Q 39.203125 38.921875 42.84375 42.21875 
Q 46.484375 45.515625 46.484375 51.90625 
Q 46.484375 58.296875 42.84375 61.546875 
Q 39.203125 64.796875 32.078125 64.796875 
z
" id="BitstreamVeraSans-Roman-52"/>
     </defs>
     <g transform="translate(325.103596012 459.984992406)scale(0.12 -0.12)">
      <use xlink:href="#BitstreamVeraSans-Roman-4b"/>
      <use x="65.560546875" xlink:href="#BitstreamVeraSans-Roman-41"/>
      <use x="133.96875" xlink:href="#BitstreamVeraSans-Roman-4d"/>
      <use x="220.248046875" xlink:href="#BitstreamVeraSans-Roman-4d"/>
      <use x="306.52734375" xlink:href="#BitstreamVeraSans-Roman-45"/>
      <use x="369.7109375" xlink:href="#BitstreamVeraSans-Roman-52"/>
      <use x="439.193359375" xlink:href="#BitstreamVeraSans-Roman-4a"/>
      <use x="468.685546875" xlink:href="#BitstreamVeraSans-Roman-55"/>
      <use x="541.87890625" xlink:href="#BitstreamVeraSans-Roman-4e"/>
      <use x="616.68359375" xlink:href="#BitstreamVeraSans-Roman-47"/>
      <use x="694.173828125" xlink:href="#BitstreamVeraSans-Roman-46"/>
      <use x="751.693359375" xlink:href="#BitstreamVeraSans-Roman-45"/>
      <use x="814.876953125" xlink:href="#BitstreamVeraSans-Roman-52"/>
     </g>
    </g>
   </g>
   <g id="text_17">
    <g clip-path="url(#p6101f89d8d)">
     <!-- LOTTCHEN -->
     <defs>
      <path d="M 64.40625 67.28125 
L 64.40625 56.890625 
Q 59.421875 61.53125 53.78125 63.8125 
Q 48.140625 66.109375 41.796875 66.109375 
Q 29.296875 66.109375 22.65625 58.46875 
Q 16.015625 50.828125 16.015625 36.375 
Q 16.015625 21.96875 22.65625 14.328125 
Q 29.296875 6.6875 41.796875 6.6875 
Q 48.140625 6.6875 53.78125 8.984375 
Q 59.421875 11.28125 64.40625 15.921875 
L 64.40625 5.609375 
Q 59.234375 2.09375 53.4375 0.328125 
Q 47.65625 -1.421875 41.21875 -1.421875 
Q 24.65625 -1.421875 15.125 8.703125 
Q 5.609375 18.84375 5.609375 36.375 
Q 5.609375 53.953125 15.125 64.078125 
Q 24.65625 74.21875 41.21875 74.21875 
Q 47.75 74.21875 53.53125 72.484375 
Q 59.328125 70.75 64.40625 67.28125 
" id="BitstreamVeraSans-Roman-43"/>
      <path d="M 39.40625 66.21875 
Q 28.65625 66.21875 22.328125 58.203125 
Q 16.015625 50.203125 16.015625 36.375 
Q 16.015625 22.609375 22.328125 14.59375 
Q 28.65625 6.59375 39.40625 6.59375 
Q 50.140625 6.59375 56.421875 14.59375 
Q 62.703125 22.609375 62.703125 36.375 
Q 62.703125 50.203125 56.421875 58.203125 
Q 50.140625 66.21875 39.40625 66.21875 
M 39.40625 74.21875 
Q 54.734375 74.21875 63.90625 63.9375 
Q 73.09375 53.65625 73.09375 36.375 
Q 73.09375 19.140625 63.90625 8.859375 
Q 54.734375 -1.421875 39.40625 -1.421875 
Q 24.03125 -1.421875 14.8125 8.828125 
Q 5.609375 19.09375 5.609375 36.375 
Q 5.609375 53.65625 14.8125 63.9375 
Q 24.03125 74.21875 39.40625 74.21875 
" id="BitstreamVeraSans-Roman-4f"/>
      <path d="M 9.8125 72.90625 
L 19.671875 72.90625 
L 19.671875 43.015625 
L 55.515625 43.015625 
L 55.515625 72.90625 
L 65.375 72.90625 
L 65.375 0 
L 55.515625 0 
L 55.515625 34.71875 
L 19.671875 34.71875 
L 19.671875 0 
L 9.8125 0 
z
" id="BitstreamVeraSans-Roman-48"/>
      <path d="M 9.8125 72.90625 
L 19.671875 72.90625 
L 19.671875 8.296875 
L 55.171875 8.296875 
L 55.171875 0 
L 9.8125 0 
z
" id="BitstreamVeraSans-Roman-4c"/>
      <path d="M -0.296875 72.90625 
L 61.375 72.90625 
L 61.375 64.59375 
L 35.5 64.59375 
L 35.5 0 
L 25.59375 0 
L 25.59375 64.59375 
L -0.296875 64.59375 
z
" id="BitstreamVeraSans-Roman-54"/>
     </defs>
     <g transform="translate(297.915971116 404.969643947)scale(0.12 -0.12)">
      <use xlink:href="#BitstreamVeraSans-Roman-4c"/>
      <use x="55.666015625" xlink:href="#BitstreamVeraSans-Roman-4f"/>
      <use x="134.376953125" xlink:href="#BitstreamVeraSans-Roman-54"/>
      <use x="195.4453125" xlink:href="#BitstreamVeraSans-Roman-54"/>
      <use x="256.451171875" xlink:href="#BitstreamVeraSans-Roman-43"/>
      <use x="326.275390625" xlink:href="#BitstreamVeraSans-Roman-48"/>
      <use x="401.470703125" xlink:href="#BitstreamVeraSans-Roman-45"/>
      <use x="464.654296875" xlink:href="#BitstreamVeraSans-Roman-4e"/>
     </g>
    </g>
   </g>
   <g id="text_18">
    <g clip-path="url(#p6101f89d8d)">
     <!-- ADJUTANT -->
     <defs>
      <path d="M 19.671875 64.796875 
L 19.671875 8.109375 
L 31.59375 8.109375 
Q 46.6875 8.109375 53.6875 14.9375 
Q 60.6875 21.78125 60.6875 36.53125 
Q 60.6875 51.171875 53.6875 57.984375 
Q 46.6875 64.796875 31.59375 64.796875 
z
M 9.8125 72.90625 
L 30.078125 72.90625 
Q 51.265625 72.90625 61.171875 64.09375 
Q 71.09375 55.28125 71.09375 36.53125 
Q 71.09375 17.671875 61.125 8.828125 
Q 51.171875 0 30.078125 0 
L 9.8125 0 
z
" id="BitstreamVeraSans-Roman-44"/>
     </defs>
     <g transform="translate(276.875115588 177.46779638)scale(0.12 -0.12)">
      <use xlink:href="#BitstreamVeraSans-Roman-41"/>
      <use x="68.408203125" xlink:href="#BitstreamVeraSans-Roman-44"/>
      <use x="145.41015625" xlink:href="#BitstreamVeraSans-Roman-4a"/>
      <use x="174.90234375" xlink:href="#BitstreamVeraSans-Roman-55"/>
      <use x="248.095703125" xlink:href="#BitstreamVeraSans-Roman-54"/>
      <use x="309.0703125" xlink:href="#BitstreamVeraSans-Roman-41"/>
      <use x="377.478515625" xlink:href="#BitstreamVeraSans-Roman-4e"/>
      <use x="452.283203125" xlink:href="#BitstreamVeraSans-Roman-54"/>
     </g>
    </g>
   </g>
   <g id="text_19">
    <g clip-path="url(#p6101f89d8d)">
     <!-- DROMER -->
     <g transform="translate(262.58557205 295.012058794)scale(0.12 -0.12)">
      <use xlink:href="#BitstreamVeraSans-Roman-44"/>
      <use x="77.001953125" xlink:href="#BitstreamVeraSans-Roman-52"/>
      <use x="146.484375" xlink:href="#BitstreamVeraSans-Roman-4f"/>
      <use x="225.1953125" xlink:href="#BitstreamVeraSans-Roman-4d"/>
      <use x="311.474609375" xlink:href="#BitstreamVeraSans-Roman-45"/>
      <use x="374.658203125" xlink:href="#BitstreamVeraSans-Roman-52"/>
     </g>
    </g>
   </g>
   <g id="text_20">
    <g clip-path="url(#p6101f89d8d)">
     <!-- FERDINAND -->
     <defs>
      <path d="M 9.8125 72.90625 
L 19.671875 72.90625 
L 19.671875 0 
L 9.8125 0 
z
" id="BitstreamVeraSans-Roman-49"/>
     </defs>
     <g transform="translate(275.805830211 250.735317255)scale(0.12 -0.12)">
      <use xlink:href="#BitstreamVeraSans-Roman-46"/>
      <use x="57.51953125" xlink:href="#BitstreamVeraSans-Roman-45"/>
      <use x="120.703125" xlink:href="#BitstreamVeraSans-Roman-52"/>
      <use x="190.185546875" xlink:href="#BitstreamVeraSans-Roman-44"/>
      <use x="267.1875" xlink:href="#BitstreamVeraSans-Roman-49"/>
      <use x="296.6796875" xlink:href="#BitstreamVeraSans-Roman-4e"/>
      <use x="371.484375" xlink:href="#BitstreamVeraSans-Roman-41"/>
      <use x="439.892578125" xlink:href="#BitstreamVeraSans-Roman-4e"/>
      <use x="514.697265625" xlink:href="#BitstreamVeraSans-Roman-44"/>
     </g>
    </g>
   </g>
   <g id="text_21">
    <g clip-path="url(#p6101f89d8d)">
     <!-- DER BAUER -->
     <defs>
      <path id="BitstreamVeraSans-Roman-20"/>
      <path d="M 19.671875 34.8125 
L 19.671875 8.109375 
L 35.5 8.109375 
Q 43.453125 8.109375 47.28125 11.40625 
Q 51.125 14.703125 51.125 21.484375 
Q 51.125 28.328125 47.28125 31.5625 
Q 43.453125 34.8125 35.5 34.8125 
z
M 19.671875 64.796875 
L 19.671875 42.828125 
L 34.28125 42.828125 
Q 41.5 42.828125 45.03125 45.53125 
Q 48.578125 48.25 48.578125 53.8125 
Q 48.578125 59.328125 45.03125 62.0625 
Q 41.5 64.796875 34.28125 64.796875 
z
M 9.8125 72.90625 
L 35.015625 72.90625 
Q 46.296875 72.90625 52.390625 68.21875 
Q 58.5 63.53125 58.5 54.890625 
Q 58.5 48.1875 55.375 44.234375 
Q 52.25 40.28125 46.1875 39.3125 
Q 53.46875 37.75 57.5 32.78125 
Q 61.53125 27.828125 61.53125 20.40625 
Q 61.53125 10.640625 54.890625 5.3125 
Q 48.25 0 35.984375 0 
L 9.8125 0 
z
" id="BitstreamVeraSans-Roman-42"/>
     </defs>
     <g transform="translate(61.3028432708 314.708310171)scale(0.12 -0.12)">
      <use xlink:href="#BitstreamVeraSans-Roman-44"/>
      <use x="77.001953125" xlink:href="#BitstreamVeraSans-Roman-45"/>
      <use x="140.185546875" xlink:href="#BitstreamVeraSans-Roman-52"/>
      <use x="209.66796875" xlink:href="#BitstreamVeraSans-Roman-20"/>
      <use x="241.455078125" xlink:href="#BitstreamVeraSans-Roman-42"/>
      <use x="310.05859375" xlink:href="#BitstreamVeraSans-Roman-41"/>
      <use x="378.466796875" xlink:href="#BitstreamVeraSans-Roman-55"/>
      <use x="451.66015625" xlink:href="#BitstreamVeraSans-Roman-45"/>
      <use x="514.84375" xlink:href="#BitstreamVeraSans-Roman-52"/>
     </g>
    </g>
   </g>
   <g id="text_22">
    <g clip-path="url(#p6101f89d8d)">
     <!-- FRITZ -->
     <defs>
      <path d="M 5.609375 72.90625 
L 62.890625 72.90625 
L 62.890625 65.375 
L 16.796875 8.296875 
L 64.015625 8.296875 
L 64.015625 0 
L 4.5 0 
L 4.5 7.515625 
L 50.59375 64.59375 
L 5.609375 64.59375 
z
" id="BitstreamVeraSans-Roman-5a"/>
     </defs>
     <g transform="translate(161.777799588 421.905236548)scale(0.12 -0.12)">
      <use xlink:href="#BitstreamVeraSans-Roman-46"/>
      <use x="57.51953125" xlink:href="#BitstreamVeraSans-Roman-52"/>
      <use x="127.001953125" xlink:href="#BitstreamVeraSans-Roman-49"/>
      <use x="156.494140625" xlink:href="#BitstreamVeraSans-Roman-54"/>
      <use x="217.578125" xlink:href="#BitstreamVeraSans-Roman-5a"/>
     </g>
    </g>
   </g>
   <g id="text_23">
    <g clip-path="url(#p6101f89d8d)">
     <!-- HAUSVATER -->
     <defs>
      <path d="M 53.515625 70.515625 
L 53.515625 60.890625 
Q 47.90625 63.578125 42.921875 64.890625 
Q 37.9375 66.21875 33.296875 66.21875 
Q 25.25 66.21875 20.875 63.09375 
Q 16.5 59.96875 16.5 54.203125 
Q 16.5 49.359375 19.40625 46.890625 
Q 22.3125 44.4375 30.421875 42.921875 
L 36.375 41.703125 
Q 47.40625 39.59375 52.65625 34.296875 
Q 57.90625 29 57.90625 20.125 
Q 57.90625 9.515625 50.796875 4.046875 
Q 43.703125 -1.421875 29.984375 -1.421875 
Q 24.8125 -1.421875 18.96875 -0.25 
Q 13.140625 0.921875 6.890625 3.21875 
L 6.890625 13.375 
Q 12.890625 10.015625 18.65625 8.296875 
Q 24.421875 6.59375 29.984375 6.59375 
Q 38.421875 6.59375 43.015625 9.90625 
Q 47.609375 13.234375 47.609375 19.390625 
Q 47.609375 24.75 44.3125 27.78125 
Q 41.015625 30.8125 33.5 32.328125 
L 27.484375 33.5 
Q 16.453125 35.6875 11.515625 40.375 
Q 6.59375 45.0625 6.59375 53.421875 
Q 6.59375 63.09375 13.40625 68.65625 
Q 20.21875 74.21875 32.171875 74.21875 
Q 37.3125 74.21875 42.625 73.28125 
Q 47.953125 72.359375 53.515625 70.515625 
" id="BitstreamVeraSans-Roman-53"/>
      <path d="M 28.609375 0 
L 0.78125 72.90625 
L 11.078125 72.90625 
L 34.1875 11.53125 
L 57.328125 72.90625 
L 67.578125 72.90625 
L 39.796875 0 
z
" id="BitstreamVeraSans-Roman-56"/>
     </defs>
     <g transform="translate(222.978554892 348.087339395)scale(0.12 -0.12)">
      <use xlink:href="#BitstreamVeraSans-Roman-48"/>
      <use x="75.1953125" xlink:href="#BitstreamVeraSans-Roman-41"/>
      <use x="143.603515625" xlink:href="#BitstreamVeraSans-Roman-55"/>
      <use x="216.796875" xlink:href="#BitstreamVeraSans-Roman-53"/>
      <use x="280.2734375" xlink:href="#BitstreamVeraSans-Roman-56"/>
      <use x="348.587890625" xlink:href="#BitstreamVeraSans-Roman-41"/>
      <use x="416.88671875" xlink:href="#BitstreamVeraSans-Roman-54"/>
      <use x="477.970703125" xlink:href="#BitstreamVeraSans-Roman-45"/>
      <use x="541.154296875" xlink:href="#BitstreamVeraSans-Roman-52"/>
     </g>
    </g>
   </g>
   <g id="text_24">
    <g clip-path="url(#p6101f89d8d)">
     <!-- MALER -->
     <g transform="translate(268.886354344 409.334874591)scale(0.12 -0.12)">
      <use xlink:href="#BitstreamVeraSans-Roman-4d"/>
      <use x="86.279296875" xlink:href="#BitstreamVeraSans-Roman-41"/>
      <use x="154.6875" xlink:href="#BitstreamVeraSans-Roman-4c"/>
      <use x="210.400390625" xlink:href="#BitstreamVeraSans-Roman-45"/>
      <use x="273.583984375" xlink:href="#BitstreamVeraSans-Roman-52"/>
     </g>
    </g>
   </g>
   <g id="text_25">
    <g clip-path="url(#p6101f89d8d)">
     <!-- KARL -->
     <g transform="translate(273.0446539 326.048597285)scale(0.12 -0.12)">
      <use xlink:href="#BitstreamVeraSans-Roman-4b"/>
      <use x="65.560546875" xlink:href="#BitstreamVeraSans-Roman-41"/>
      <use x="133.96875" xlink:href="#BitstreamVeraSans-Roman-52"/>
      <use x="203.451171875" xlink:href="#BitstreamVeraSans-Roman-4c"/>
     </g>
    </g>
   </g>
   <g id="text_26">
    <g clip-path="url(#p6101f89d8d)">
     <!-- GRÄFIN AMALDI -->
     <defs>
      <path d="M 34.1875 63.1875 
L 20.796875 26.90625 
L 47.609375 26.90625 
z
M 28.609375 72.90625 
L 39.796875 72.90625 
L 67.578125 0 
L 57.328125 0 
L 50.6875 18.703125 
L 17.828125 18.703125 
L 11.1875 0 
L 0.78125 0 
z
M 38.71875 91.09375 
L 48.625 91.09375 
L 48.625 81.1875 
L 38.71875 81.1875 
z
M 19.625 91.09375 
L 29.53125 91.09375 
L 29.53125 81.1875 
L 19.625 81.1875 
z
" id="BitstreamVeraSans-Roman-c4"/>
     </defs>
     <g transform="translate(326.999828034 351.662428544)scale(0.12 -0.12)">
      <use xlink:href="#BitstreamVeraSans-Roman-47"/>
      <use x="77.490234375" xlink:href="#BitstreamVeraSans-Roman-52"/>
      <use x="146.91015625" xlink:href="#BitstreamVeraSans-Roman-c4"/>
      <use x="215.318359375" xlink:href="#BitstreamVeraSans-Roman-46"/>
      <use x="272.837890625" xlink:href="#BitstreamVeraSans-Roman-49"/>
      <use x="302.330078125" xlink:href="#BitstreamVeraSans-Roman-4e"/>
      <use x="377.134765625" xlink:href="#BitstreamVeraSans-Roman-20"/>
      <use x="408.921875" xlink:href="#BitstreamVeraSans-Roman-41"/>
      <use x="477.330078125" xlink:href="#BitstreamVeraSans-Roman-4d"/>
      <use x="563.609375" xlink:href="#BitstreamVeraSans-Roman-41"/>
      <use x="632.017578125" xlink:href="#BitstreamVeraSans-Roman-4c"/>
      <use x="687.73046875" xlink:href="#BitstreamVeraSans-Roman-44"/>
      <use x="764.732421875" xlink:href="#BitstreamVeraSans-Roman-49"/>
     </g>
    </g>
   </g>
   <g id="text_27">
    <g clip-path="url(#p6101f89d8d)">
     <!-- DAS KIND -->
     <g transform="translate(210.596905106 259.113687612)scale(0.12 -0.12)">
      <use xlink:href="#BitstreamVeraSans-Roman-44"/>
      <use x="76.986328125" xlink:href="#BitstreamVeraSans-Roman-41"/>
      <use x="145.39453125" xlink:href="#BitstreamVeraSans-Roman-53"/>
      <use x="208.87109375" xlink:href="#BitstreamVeraSans-Roman-20"/>
      <use x="240.658203125" xlink:href="#BitstreamVeraSans-Roman-4b"/>
      <use x="306.234375" xlink:href="#BitstreamVeraSans-Roman-49"/>
      <use x="335.7265625" xlink:href="#BitstreamVeraSans-Roman-4e"/>
      <use x="410.53125" xlink:href="#BitstreamVeraSans-Roman-44"/>
     </g>
    </g>
   </g>
   <g id="text_28">
    <g clip-path="url(#p6101f89d8d)">
     <!-- EIN BEDIENTER -->
     <g transform="translate(301.194691821 276.761088014)scale(0.12 -0.12)">
      <use xlink:href="#BitstreamVeraSans-Roman-45"/>
      <use x="63.18359375" xlink:href="#BitstreamVeraSans-Roman-49"/>
      <use x="92.67578125" xlink:href="#BitstreamVeraSans-Roman-4e"/>
      <use x="167.48046875" xlink:href="#BitstreamVeraSans-Roman-20"/>
      <use x="199.267578125" xlink:href="#BitstreamVeraSans-Roman-42"/>
      <use x="267.87109375" xlink:href="#BitstreamVeraSans-Roman-45"/>
      <use x="331.0546875" xlink:href="#BitstreamVeraSans-Roman-44"/>
      <use x="408.056640625" xlink:href="#BitstreamVeraSans-Roman-49"/>
      <use x="437.548828125" xlink:href="#BitstreamVeraSans-Roman-45"/>
      <use x="500.732421875" xlink:href="#BitstreamVeraSans-Roman-4e"/>
      <use x="575.537109375" xlink:href="#BitstreamVeraSans-Roman-54"/>
      <use x="636.62109375" xlink:href="#BitstreamVeraSans-Roman-45"/>
      <use x="699.8046875" xlink:href="#BitstreamVeraSans-Roman-52"/>
     </g>
    </g>
   </g>
   <g id="text_29">
    <g clip-path="url(#p6101f89d8d)">
     <!-- ANNE -->
     <g transform="translate(266.532585755 488.11125)scale(0.12 -0.12)">
      <use xlink:href="#BitstreamVeraSans-Roman-41"/>
      <use x="68.408203125" xlink:href="#BitstreamVeraSans-Roman-4e"/>
      <use x="143.212890625" xlink:href="#BitstreamVeraSans-Roman-4e"/>
      <use x="218.017578125" xlink:href="#BitstreamVeraSans-Roman-45"/>
     </g>
    </g>
   </g>
   <g id="text_30">
    <g clip-path="url(#p6101f89d8d)">
     <!-- DIE BEDIENTE -->
     <g transform="translate(451.592410714 424.327788412)scale(0.12 -0.12)">
      <use xlink:href="#BitstreamVeraSans-Roman-44"/>
      <use x="77.001953125" xlink:href="#BitstreamVeraSans-Roman-49"/>
      <use x="106.494140625" xlink:href="#BitstreamVeraSans-Roman-45"/>
      <use x="169.677734375" xlink:href="#BitstreamVeraSans-Roman-20"/>
      <use x="201.46484375" xlink:href="#BitstreamVeraSans-Roman-42"/>
      <use x="270.068359375" xlink:href="#BitstreamVeraSans-Roman-45"/>
      <use x="333.251953125" xlink:href="#BitstreamVeraSans-Roman-44"/>
      <use x="410.25390625" xlink:href="#BitstreamVeraSans-Roman-49"/>
      <use x="439.74609375" xlink:href="#BitstreamVeraSans-Roman-45"/>
      <use x="502.9296875" xlink:href="#BitstreamVeraSans-Roman-4e"/>
      <use x="577.734375" xlink:href="#BitstreamVeraSans-Roman-54"/>
      <use x="638.818359375" xlink:href="#BitstreamVeraSans-Roman-45"/>
     </g>
    </g>
   </g>
   <g id="text_31">
    <g clip-path="url(#p6101f89d8d)">
     <!-- BEDIENTER -->
     <g transform="translate(176.886566272 133.299798654)scale(0.12 -0.12)">
      <use xlink:href="#BitstreamVeraSans-Roman-42"/>
      <use x="68.603515625" xlink:href="#BitstreamVeraSans-Roman-45"/>
      <use x="131.787109375" xlink:href="#BitstreamVeraSans-Roman-44"/>
      <use x="208.7890625" xlink:href="#BitstreamVeraSans-Roman-49"/>
      <use x="238.28125" xlink:href="#BitstreamVeraSans-Roman-45"/>
      <use x="301.46484375" xlink:href="#BitstreamVeraSans-Roman-4e"/>
      <use x="376.26953125" xlink:href="#BitstreamVeraSans-Roman-54"/>
      <use x="437.353515625" xlink:href="#BitstreamVeraSans-Roman-45"/>
      <use x="500.537109375" xlink:href="#BitstreamVeraSans-Roman-52"/>
     </g>
    </g>
   </g>
   <g id="text_32">
    <g clip-path="url(#p6101f89d8d)">
     <!-- SOPHIE -->
     <defs>
      <path d="M 19.671875 64.796875 
L 19.671875 37.40625 
L 32.078125 37.40625 
Q 38.96875 37.40625 42.71875 40.96875 
Q 46.484375 44.53125 46.484375 51.125 
Q 46.484375 57.671875 42.71875 61.234375 
Q 38.96875 64.796875 32.078125 64.796875 
z
M 9.8125 72.90625 
L 32.078125 72.90625 
Q 44.34375 72.90625 50.609375 67.359375 
Q 56.890625 61.8125 56.890625 51.125 
Q 56.890625 40.328125 50.609375 34.8125 
Q 44.34375 29.296875 32.078125 29.296875 
L 19.671875 29.296875 
L 19.671875 0 
L 9.8125 0 
z
" id="BitstreamVeraSans-Roman-50"/>
     </defs>
     <g transform="translate(281.010817752 352.367940115)scale(0.12 -0.12)">
      <use xlink:href="#BitstreamVeraSans-Roman-53"/>
      <use x="63.4765625" xlink:href="#BitstreamVeraSans-Roman-4f"/>
      <use x="142.1875" xlink:href="#BitstreamVeraSans-Roman-50"/>
      <use x="202.490234375" xlink:href="#BitstreamVeraSans-Roman-48"/>
      <use x="277.685546875" xlink:href="#BitstreamVeraSans-Roman-49"/>
      <use x="307.177734375" xlink:href="#BitstreamVeraSans-Roman-45"/>
     </g>
    </g>
   </g>
   <g id="text_33">
    <g clip-path="url(#p6101f89d8d)">
     <!-- GRAF MONHEIM -->
     <g transform="translate(283.04637829 334.820586673)scale(0.12 -0.12)">
      <use xlink:href="#BitstreamVeraSans-Roman-47"/>
      <use x="77.490234375" xlink:href="#BitstreamVeraSans-Roman-52"/>
      <use x="146.91015625" xlink:href="#BitstreamVeraSans-Roman-41"/>
      <use x="215.318359375" xlink:href="#BitstreamVeraSans-Roman-46"/>
      <use x="272.837890625" xlink:href="#BitstreamVeraSans-Roman-20"/>
      <use x="304.625" xlink:href="#BitstreamVeraSans-Roman-4d"/>
      <use x="390.904296875" xlink:href="#BitstreamVeraSans-Roman-4f"/>
      <use x="469.615234375" xlink:href="#BitstreamVeraSans-Roman-4e"/>
      <use x="544.419921875" xlink:href="#BitstreamVeraSans-Roman-48"/>
      <use x="619.615234375" xlink:href="#BitstreamVeraSans-Roman-45"/>
      <use x="682.798828125" xlink:href="#BitstreamVeraSans-Roman-49"/>
      <use x="712.291015625" xlink:href="#BitstreamVeraSans-Roman-4d"/>
     </g>
    </g>
   </g>
   <g id="text_34">
    <g clip-path="url(#p6101f89d8d)">
     <!-- AMTMANN -->
     <g transform="translate(51.0810267857 399.029416484)scale(0.12 -0.12)">
      <use xlink:href="#BitstreamVeraSans-Roman-41"/>
      <use x="68.408203125" xlink:href="#BitstreamVeraSans-Roman-4d"/>
      <use x="154.6875" xlink:href="#BitstreamVeraSans-Roman-54"/>
      <use x="215.771484375" xlink:href="#BitstreamVeraSans-Roman-4d"/>
      <use x="302.05078125" xlink:href="#BitstreamVeraSans-Roman-41"/>
      <use x="370.458984375" xlink:href="#BitstreamVeraSans-Roman-4e"/>
      <use x="445.263671875" xlink:href="#BitstreamVeraSans-Roman-4e"/>
     </g>
    </g>
   </g>
  </g>
 </g>
 <defs>
  <clipPath id="p6101f89d8d">
   <rect height="547.2" width="576.0" x="0.0" y="28.8"/>
  </clipPath>
 </defs>
</svg>
