<?xml version="1.0" encoding="utf-8" standalone="no"?>
<!DOCTYPE svg PUBLIC "-//W3C//DTD SVG 1.1//EN"
  "http://www.w3.org/Graphics/SVG/1.1/DTD/svg11.dtd">
<!-- Created with matplotlib (http://matplotlib.org/) -->
<svg height="576pt" version="1.1" viewBox="0 0 576 576" width="576pt" xmlns="http://www.w3.org/2000/svg" xmlns:xlink="http://www.w3.org/1999/xlink">
 <defs>
  <style type="text/css">
*{stroke-linecap:butt;stroke-linejoin:round;stroke-miterlimit:100000;}
  </style>
 </defs>
 <g id="figure_1">
  <g id="patch_1">
   <path d="M 0 576 
L 576 576 
L 576 0 
L 0 0 
z
" style="fill:#ffffff;"/>
  </g>
  <g id="axes_1">
   <g id="patch_2">
    <path d="M 0 576 
L 576 576 
L 576 28.8 
L 0 28.8 
z
" style="fill:#ffffff;"/>
   </g>
   <g id="LineCollection_1">
    <path clip-path="url(#p0cddea45e7)" d="M 182.87029 321.351098 
L 239.836716 353.94994 
" style="fill:none;stroke:#808080;stroke-width:3.0;"/>
    <path clip-path="url(#p0cddea45e7)" d="M 182.87029 321.351098 
L 271.796189 383.826827 
" style="fill:none;stroke:#808080;stroke-width:3.0;"/>
    <path clip-path="url(#p0cddea45e7)" d="M 182.87029 321.351098 
L 493.714286 72.250239 
" style="fill:none;stroke:#808080;"/>
    <path clip-path="url(#p0cddea45e7)" d="M 182.87029 321.351098 
L 296.758022 327.802814 
" style="fill:none;stroke:#808080;stroke-width:2.0;"/>
    <path clip-path="url(#p0cddea45e7)" d="M 182.87029 321.351098 
L 82.285714 484.8 
" style="fill:none;stroke:#808080;stroke-width:3.0;"/>
    <path clip-path="url(#p0cddea45e7)" d="M 182.87029 321.351098 
L 220.678461 282.764592 
" style="fill:none;stroke:#808080;stroke-width:3.0;"/>
    <path clip-path="url(#p0cddea45e7)" d="M 271.796189 383.826827 
L 239.836716 353.94994 
" style="fill:none;stroke:#808080;stroke-width:5.0;"/>
    <path clip-path="url(#p0cddea45e7)" d="M 271.796189 383.826827 
L 82.285714 484.8 
" style="fill:none;stroke:#808080;stroke-width:3.0;"/>
    <path clip-path="url(#p0cddea45e7)" d="M 271.796189 383.826827 
L 330.425482 459.596847 
" style="fill:none;stroke:#808080;stroke-width:3.0;"/>
    <path clip-path="url(#p0cddea45e7)" d="M 271.796189 383.826827 
L 220.678461 282.764592 
" style="fill:none;stroke:#808080;stroke-width:4.0;"/>
    <path clip-path="url(#p0cddea45e7)" d="M 271.796189 383.826827 
L 296.758022 327.802814 
" style="fill:none;stroke:#808080;stroke-width:7.0;"/>
    <path clip-path="url(#p0cddea45e7)" d="M 271.796189 383.826827 
L 493.714286 72.250239 
" style="fill:none;stroke:#808080;"/>
    <path clip-path="url(#p0cddea45e7)" d="M 271.796189 383.826827 
L 409.373913 415.236525 
" style="fill:none;stroke:#808080;stroke-width:2.0;"/>
    <path clip-path="url(#p0cddea45e7)" d="M 82.285714 484.8 
L 493.714286 72.250239 
" style="fill:none;stroke:#808080;"/>
    <path clip-path="url(#p0cddea45e7)" d="M 82.285714 484.8 
L 220.678461 282.764592 
" style="fill:none;stroke:#808080;stroke-width:3.0;"/>
    <path clip-path="url(#p0cddea45e7)" d="M 82.285714 484.8 
L 296.758022 327.802814 
" style="fill:none;stroke:#808080;stroke-width:2.0;"/>
    <path clip-path="url(#p0cddea45e7)" d="M 82.285714 484.8 
L 239.836716 353.94994 
" style="fill:none;stroke:#808080;stroke-width:3.0;"/>
    <path clip-path="url(#p0cddea45e7)" d="M 330.425482 459.596847 
L 239.836716 353.94994 
" style="fill:none;stroke:#808080;stroke-width:2.0;"/>
    <path clip-path="url(#p0cddea45e7)" d="M 330.425482 459.596847 
L 296.758022 327.802814 
" style="fill:none;stroke:#808080;stroke-width:3.0;"/>
    <path clip-path="url(#p0cddea45e7)" d="M 330.425482 459.596847 
L 409.373913 415.236525 
" style="fill:none;stroke:#808080;stroke-width:2.0;"/>
    <path clip-path="url(#p0cddea45e7)" d="M 296.758022 327.802814 
L 220.678461 282.764592 
" style="fill:none;stroke:#808080;stroke-width:3.0;"/>
    <path clip-path="url(#p0cddea45e7)" d="M 296.758022 327.802814 
L 239.836716 353.94994 
" style="fill:none;stroke:#808080;stroke-width:4.0;"/>
    <path clip-path="url(#p0cddea45e7)" d="M 296.758022 327.802814 
L 493.714286 72.250239 
" style="fill:none;stroke:#808080;"/>
    <path clip-path="url(#p0cddea45e7)" d="M 296.758022 327.802814 
L 409.373913 415.236525 
" style="fill:none;stroke:#808080;"/>
    <path clip-path="url(#p0cddea45e7)" d="M 239.836716 353.94994 
L 220.678461 282.764592 
" style="fill:none;stroke:#808080;stroke-width:3.0;"/>
    <path clip-path="url(#p0cddea45e7)" d="M 239.836716 353.94994 
L 493.714286 72.250239 
" style="fill:none;stroke:#808080;"/>
    <path clip-path="url(#p0cddea45e7)" d="M 239.836716 353.94994 
L 409.373913 415.236525 
" style="fill:none;stroke:#808080;"/>
    <path clip-path="url(#p0cddea45e7)" d="M 493.714286 72.250239 
L 220.678461 282.764592 
" style="fill:none;stroke:#808080;"/>
   </g>
   <g id="PathCollection_1">
    <path clip-path="url(#p0cddea45e7)" d="M 182.87029 328.19763 
C 184.686012 328.19763 186.42761 327.476236 187.711519 326.192327 
C 188.995428 324.908418 189.716822 323.166819 189.716822 321.351098 
C 189.716822 319.535376 188.995428 317.793777 187.711519 316.509868 
C 186.42761 315.225959 184.686012 314.504566 182.87029 314.504566 
C 181.054569 314.504566 179.31297 315.225959 178.029061 316.509868 
C 176.745152 317.793777 176.023758 319.535376 176.023758 321.351098 
C 176.023758 323.166819 176.745152 324.908418 178.029061 326.192327 
C 179.31297 327.476236 181.054569 328.19763 182.87029 328.19763 
z
" style="fill:#4682b4;fill-opacity:0.8;stroke:#000000;stroke-opacity:0.8;"/>
    <path clip-path="url(#p0cddea45e7)" d="M 271.796189 391.732521 
C 273.892804 391.732521 275.903829 390.899528 277.386359 389.416997 
C 278.868889 387.934467 279.701883 385.923442 279.701883 383.826827 
C 279.701883 381.730213 278.868889 379.719188 277.386359 378.236657 
C 275.903829 376.754127 273.892804 375.921133 271.796189 375.921133 
C 269.699575 375.921133 267.68855 376.754127 266.206019 378.236657 
C 264.723489 379.719188 263.890495 381.730213 263.890495 383.826827 
C 263.890495 385.923442 264.723489 387.934467 266.206019 389.416997 
C 267.68855 390.899528 269.699575 391.732521 271.796189 391.732521 
z
" style="fill:#4682b4;fill-opacity:0.8;stroke:#000000;stroke-opacity:0.8;"/>
    <path clip-path="url(#p0cddea45e7)" d="M 82.285714 491.646532 
C 84.101436 491.646532 85.843034 490.925138 87.126943 489.641229 
C 88.410852 488.35732 89.132246 486.615722 89.132246 484.8 
C 89.132246 482.984278 88.410852 481.24268 87.126943 479.958771 
C 85.843034 478.674862 84.101436 477.953468 82.285714 477.953468 
C 80.469993 477.953468 78.728394 478.674862 77.444485 479.958771 
C 76.160576 481.24268 75.439182 482.984278 75.439182 484.8 
C 75.439182 486.615722 76.160576 488.35732 77.444485 489.641229 
C 78.728394 490.925138 80.469993 491.646532 82.285714 491.646532 
z
" style="fill:#4682b4;fill-opacity:0.8;stroke:#000000;stroke-opacity:0.8;"/>
    <path clip-path="url(#p0cddea45e7)" d="M 330.425482 465.187016 
C 331.908013 465.187016 333.330022 464.598001 334.378329 463.549694 
C 335.426637 462.501386 336.015652 461.079377 336.015652 459.596847 
C 336.015652 458.114316 335.426637 456.692307 334.378329 455.643999 
C 333.330022 454.595692 331.908013 454.006677 330.425482 454.006677 
C 328.942952 454.006677 327.520942 454.595692 326.472635 455.643999 
C 325.424328 456.692307 324.835312 458.114316 324.835312 459.596847 
C 324.835312 461.079377 325.424328 462.501386 326.472635 463.549694 
C 327.520942 464.598001 328.942952 465.187016 330.425482 465.187016 
z
" style="fill:#4682b4;fill-opacity:0.8;stroke:#000000;stroke-opacity:0.8;"/>
    <path clip-path="url(#p0cddea45e7)" d="M 296.758022 333.392983 
C 298.240553 333.392983 299.662562 332.803968 300.710869 331.755661 
C 301.759176 330.707353 302.348192 329.285344 302.348192 327.802814 
C 302.348192 326.320283 301.759176 324.898274 300.710869 323.849966 
C 299.662562 322.801659 298.240553 322.212644 296.758022 322.212644 
C 295.275492 322.212644 293.853482 322.801659 292.805175 323.849966 
C 291.756868 324.898274 291.167852 326.320283 291.167852 327.802814 
C 291.167852 329.285344 291.756868 330.707353 292.805175 331.755661 
C 293.853482 332.803968 295.275492 333.392983 296.758022 333.392983 
z
" style="fill:#4682b4;fill-opacity:0.8;stroke:#000000;stroke-opacity:0.8;"/>
    <path clip-path="url(#p0cddea45e7)" d="M 239.836716 360.796472 
C 241.652437 360.796472 243.394036 360.075078 244.677945 358.791169 
C 245.961854 357.50726 246.683247 355.765661 246.683247 353.94994 
C 246.683247 352.134218 245.961854 350.392619 244.677945 349.10871 
C 243.394036 347.824801 241.652437 347.103408 239.836716 347.103408 
C 238.020994 347.103408 236.279395 347.824801 234.995486 349.10871 
C 233.711577 350.392619 232.990184 352.134218 232.990184 353.94994 
C 232.990184 355.765661 233.711577 357.50726 234.995486 358.791169 
C 236.279395 360.075078 238.020994 360.796472 239.836716 360.796472 
z
" style="fill:#4682b4;fill-opacity:0.8;stroke:#000000;stroke-opacity:0.8;"/>
    <path clip-path="url(#p0cddea45e7)" d="M 493.714286 80.155933 
C 495.8109 80.155933 497.821925 79.322939 499.304456 77.840409 
C 500.786986 76.357878 501.61998 74.346854 501.61998 72.250239 
C 501.61998 70.153624 500.786986 68.142599 499.304456 66.660069 
C 497.821925 65.177539 495.8109 64.344545 493.714286 64.344545 
C 491.617671 64.344545 489.606646 65.177539 488.124116 66.660069 
C 486.641585 68.142599 485.808592 70.153624 485.808592 72.250239 
C 485.808592 74.346854 486.641585 76.357878 488.124116 77.840409 
C 489.606646 79.322939 491.617671 80.155933 493.714286 80.155933 
z
" style="fill:#4682b4;fill-opacity:0.8;stroke:#000000;stroke-opacity:0.8;"/>
    <path clip-path="url(#p0cddea45e7)" d="M 409.373913 422.083057 
C 411.189634 422.083057 412.931233 421.361663 414.215142 420.077754 
C 415.499051 418.793845 416.220445 417.052246 416.220445 415.236525 
C 416.220445 413.420803 415.499051 411.679205 414.215142 410.395296 
C 412.931233 409.111387 411.189634 408.389993 409.373913 408.389993 
C 407.558191 408.389993 405.816592 409.111387 404.532683 410.395296 
C 403.248775 411.679205 402.527381 413.420803 402.527381 415.236525 
C 402.527381 417.052246 403.248775 418.793845 404.532683 420.077754 
C 405.816592 421.361663 407.558191 422.083057 409.373913 422.083057 
z
" style="fill:#4682b4;fill-opacity:0.8;stroke:#000000;stroke-opacity:0.8;"/>
    <path clip-path="url(#p0cddea45e7)" d="M 220.678461 290.670286 
C 222.775076 290.670286 224.786101 289.837292 226.268631 288.354762 
C 227.751161 286.872232 228.584155 284.861207 228.584155 282.764592 
C 228.584155 280.667978 227.751161 278.656953 226.268631 277.174422 
C 224.786101 275.691892 222.775076 274.858898 220.678461 274.858898 
C 218.581847 274.858898 216.570822 275.691892 215.088291 277.174422 
C 213.605761 278.656953 212.772767 280.667978 212.772767 282.764592 
C 212.772767 284.861207 213.605761 286.872232 215.088291 288.354762 
C 216.570822 289.837292 218.581847 290.670286 220.678461 290.670286 
z
" style="fill:#4682b4;fill-opacity:0.8;stroke:#000000;stroke-opacity:0.8;"/>
   </g>
   <g id="patch_3">
    <path d="M 0 576 
L 576 576 
" style="fill:none;stroke:#000000;stroke-linecap:square;stroke-linejoin:miter;"/>
   </g>
   <g id="patch_4">
    <path d="M 0 576 
L 0 28.8 
" style="fill:none;stroke:#000000;stroke-linecap:square;stroke-linejoin:miter;"/>
   </g>
   <g id="patch_5">
    <path d="M 0 28.8 
L 576 28.8 
" style="fill:none;stroke:#000000;stroke-linecap:square;stroke-linejoin:miter;"/>
   </g>
   <g id="patch_6">
    <path d="M 576 576 
L 576 28.8 
" style="fill:none;stroke:#000000;stroke-linecap:square;stroke-linejoin:miter;"/>
   </g>
   <g id="matplotlib.axis_1">
    <g id="xtick_1">
     <g id="line2d_1">
      <defs>
       <path d="M 0 0 
L 0 -4 
" id="m0ff0e6726c" style="stroke:#000000;stroke-width:0.5;"/>
      </defs>
      <g>
       <use style="stroke:#000000;stroke-width:0.5;" x="0.0" xlink:href="#m0ff0e6726c" y="576.0"/>
      </g>
     </g>
     <g id="line2d_2">
      <defs>
       <path d="M 0 0 
L 0 4 
" id="md51745e175" style="stroke:#000000;stroke-width:0.5;"/>
      </defs>
      <g>
       <use style="stroke:#000000;stroke-width:0.5;" x="0.0" xlink:href="#md51745e175" y="28.8"/>
      </g>
     </g>
     <g id="text_1">
      <!-- −0.2 -->
      <defs>
       <path d="M 10.59375 35.5 
L 73.1875 35.5 
L 73.1875 27.203125 
L 10.59375 27.203125 
z
" id="BitstreamVeraSans-Roman-2212"/>
       <path d="M 10.6875 12.40625 
L 21 12.40625 
L 21 0 
L 10.6875 0 
z
" id="BitstreamVeraSans-Roman-2e"/>
       <path d="M 31.78125 66.40625 
Q 24.171875 66.40625 20.328125 58.90625 
Q 16.5 51.421875 16.5 36.375 
Q 16.5 21.390625 20.328125 13.890625 
Q 24.171875 6.390625 31.78125 6.390625 
Q 39.453125 6.390625 43.28125 13.890625 
Q 47.125 21.390625 47.125 36.375 
Q 47.125 51.421875 43.28125 58.90625 
Q 39.453125 66.40625 31.78125 66.40625 
M 31.78125 74.21875 
Q 44.046875 74.21875 50.515625 64.515625 
Q 56.984375 54.828125 56.984375 36.375 
Q 56.984375 17.96875 50.515625 8.265625 
Q 44.046875 -1.421875 31.78125 -1.421875 
Q 19.53125 -1.421875 13.0625 8.265625 
Q 6.59375 17.96875 6.59375 36.375 
Q 6.59375 54.828125 13.0625 64.515625 
Q 19.53125 74.21875 31.78125 74.21875 
" id="BitstreamVeraSans-Roman-30"/>
       <path d="M 19.1875 8.296875 
L 53.609375 8.296875 
L 53.609375 0 
L 7.328125 0 
L 7.328125 8.296875 
Q 12.9375 14.109375 22.625 23.890625 
Q 32.328125 33.6875 34.8125 36.53125 
Q 39.546875 41.84375 41.421875 45.53125 
Q 43.3125 49.21875 43.3125 52.78125 
Q 43.3125 58.59375 39.234375 62.25 
Q 35.15625 65.921875 28.609375 65.921875 
Q 23.96875 65.921875 18.8125 64.3125 
Q 13.671875 62.703125 7.8125 59.421875 
L 7.8125 69.390625 
Q 13.765625 71.78125 18.9375 73 
Q 24.125 74.21875 28.421875 74.21875 
Q 39.75 74.21875 46.484375 68.546875 
Q 53.21875 62.890625 53.21875 53.421875 
Q 53.21875 48.921875 51.53125 44.890625 
Q 49.859375 40.875 45.40625 35.40625 
Q 44.1875 33.984375 37.640625 27.21875 
Q 31.109375 20.453125 19.1875 8.296875 
" id="BitstreamVeraSans-Roman-32"/>
      </defs>
      <g transform="translate(-14.5696875 589.118125)scale(0.12 -0.12)">
       <use xlink:href="#BitstreamVeraSans-Roman-2212"/>
       <use x="83.7890625" xlink:href="#BitstreamVeraSans-Roman-30"/>
       <use x="147.412109375" xlink:href="#BitstreamVeraSans-Roman-2e"/>
       <use x="179.19921875" xlink:href="#BitstreamVeraSans-Roman-32"/>
      </g>
     </g>
    </g>
    <g id="xtick_2">
     <g id="line2d_3">
      <g>
       <use style="stroke:#000000;stroke-width:0.5;" x="82.2857142857" xlink:href="#m0ff0e6726c" y="576.0"/>
      </g>
     </g>
     <g id="line2d_4">
      <g>
       <use style="stroke:#000000;stroke-width:0.5;" x="82.2857142857" xlink:href="#md51745e175" y="28.8"/>
      </g>
     </g>
     <g id="text_2">
      <!-- 0.0 -->
      <g transform="translate(72.7438392857 589.118125)scale(0.12 -0.12)">
       <use xlink:href="#BitstreamVeraSans-Roman-30"/>
       <use x="63.623046875" xlink:href="#BitstreamVeraSans-Roman-2e"/>
       <use x="95.41015625" xlink:href="#BitstreamVeraSans-Roman-30"/>
      </g>
     </g>
    </g>
    <g id="xtick_3">
     <g id="line2d_5">
      <g>
       <use style="stroke:#000000;stroke-width:0.5;" x="164.571428571" xlink:href="#m0ff0e6726c" y="576.0"/>
      </g>
     </g>
     <g id="line2d_6">
      <g>
       <use style="stroke:#000000;stroke-width:0.5;" x="164.571428571" xlink:href="#md51745e175" y="28.8"/>
      </g>
     </g>
     <g id="text_3">
      <!-- 0.2 -->
      <g transform="translate(155.029553571 589.118125)scale(0.12 -0.12)">
       <use xlink:href="#BitstreamVeraSans-Roman-30"/>
       <use x="63.623046875" xlink:href="#BitstreamVeraSans-Roman-2e"/>
       <use x="95.41015625" xlink:href="#BitstreamVeraSans-Roman-32"/>
      </g>
     </g>
    </g>
    <g id="xtick_4">
     <g id="line2d_7">
      <g>
       <use style="stroke:#000000;stroke-width:0.5;" x="246.857142857" xlink:href="#m0ff0e6726c" y="576.0"/>
      </g>
     </g>
     <g id="line2d_8">
      <g>
       <use style="stroke:#000000;stroke-width:0.5;" x="246.857142857" xlink:href="#md51745e175" y="28.8"/>
      </g>
     </g>
     <g id="text_4">
      <!-- 0.4 -->
      <defs>
       <path d="M 37.796875 64.3125 
L 12.890625 25.390625 
L 37.796875 25.390625 
z
M 35.203125 72.90625 
L 47.609375 72.90625 
L 47.609375 25.390625 
L 58.015625 25.390625 
L 58.015625 17.1875 
L 47.609375 17.1875 
L 47.609375 0 
L 37.796875 0 
L 37.796875 17.1875 
L 4.890625 17.1875 
L 4.890625 26.703125 
z
" id="BitstreamVeraSans-Roman-34"/>
      </defs>
      <g transform="translate(237.315267857 589.118125)scale(0.12 -0.12)">
       <use xlink:href="#BitstreamVeraSans-Roman-30"/>
       <use x="63.623046875" xlink:href="#BitstreamVeraSans-Roman-2e"/>
       <use x="95.41015625" xlink:href="#BitstreamVeraSans-Roman-34"/>
      </g>
     </g>
    </g>
    <g id="xtick_5">
     <g id="line2d_9">
      <g>
       <use style="stroke:#000000;stroke-width:0.5;" x="329.142857143" xlink:href="#m0ff0e6726c" y="576.0"/>
      </g>
     </g>
     <g id="line2d_10">
      <g>
       <use style="stroke:#000000;stroke-width:0.5;" x="329.142857143" xlink:href="#md51745e175" y="28.8"/>
      </g>
     </g>
     <g id="text_5">
      <!-- 0.6 -->
      <defs>
       <path d="M 33.015625 40.375 
Q 26.375 40.375 22.484375 35.828125 
Q 18.609375 31.296875 18.609375 23.390625 
Q 18.609375 15.53125 22.484375 10.953125 
Q 26.375 6.390625 33.015625 6.390625 
Q 39.65625 6.390625 43.53125 10.953125 
Q 47.40625 15.53125 47.40625 23.390625 
Q 47.40625 31.296875 43.53125 35.828125 
Q 39.65625 40.375 33.015625 40.375 
M 52.59375 71.296875 
L 52.59375 62.3125 
Q 48.875 64.0625 45.09375 64.984375 
Q 41.3125 65.921875 37.59375 65.921875 
Q 27.828125 65.921875 22.671875 59.328125 
Q 17.53125 52.734375 16.796875 39.40625 
Q 19.671875 43.65625 24.015625 45.921875 
Q 28.375 48.1875 33.59375 48.1875 
Q 44.578125 48.1875 50.953125 41.515625 
Q 57.328125 34.859375 57.328125 23.390625 
Q 57.328125 12.15625 50.6875 5.359375 
Q 44.046875 -1.421875 33.015625 -1.421875 
Q 20.359375 -1.421875 13.671875 8.265625 
Q 6.984375 17.96875 6.984375 36.375 
Q 6.984375 53.65625 15.1875 63.9375 
Q 23.390625 74.21875 37.203125 74.21875 
Q 40.921875 74.21875 44.703125 73.484375 
Q 48.484375 72.75 52.59375 71.296875 
" id="BitstreamVeraSans-Roman-36"/>
      </defs>
      <g transform="translate(319.600982143 589.118125)scale(0.12 -0.12)">
       <use xlink:href="#BitstreamVeraSans-Roman-30"/>
       <use x="63.623046875" xlink:href="#BitstreamVeraSans-Roman-2e"/>
       <use x="95.41015625" xlink:href="#BitstreamVeraSans-Roman-36"/>
      </g>
     </g>
    </g>
    <g id="xtick_6">
     <g id="line2d_11">
      <g>
       <use style="stroke:#000000;stroke-width:0.5;" x="411.428571429" xlink:href="#m0ff0e6726c" y="576.0"/>
      </g>
     </g>
     <g id="line2d_12">
      <g>
       <use style="stroke:#000000;stroke-width:0.5;" x="411.428571429" xlink:href="#md51745e175" y="28.8"/>
      </g>
     </g>
     <g id="text_6">
      <!-- 0.8 -->
      <defs>
       <path d="M 31.78125 34.625 
Q 24.75 34.625 20.71875 30.859375 
Q 16.703125 27.09375 16.703125 20.515625 
Q 16.703125 13.921875 20.71875 10.15625 
Q 24.75 6.390625 31.78125 6.390625 
Q 38.8125 6.390625 42.859375 10.171875 
Q 46.921875 13.96875 46.921875 20.515625 
Q 46.921875 27.09375 42.890625 30.859375 
Q 38.875 34.625 31.78125 34.625 
M 21.921875 38.8125 
Q 15.578125 40.375 12.03125 44.71875 
Q 8.5 49.078125 8.5 55.328125 
Q 8.5 64.0625 14.71875 69.140625 
Q 20.953125 74.21875 31.78125 74.21875 
Q 42.671875 74.21875 48.875 69.140625 
Q 55.078125 64.0625 55.078125 55.328125 
Q 55.078125 49.078125 51.53125 44.71875 
Q 48 40.375 41.703125 38.8125 
Q 48.828125 37.15625 52.796875 32.3125 
Q 56.78125 27.484375 56.78125 20.515625 
Q 56.78125 9.90625 50.3125 4.234375 
Q 43.84375 -1.421875 31.78125 -1.421875 
Q 19.734375 -1.421875 13.25 4.234375 
Q 6.78125 9.90625 6.78125 20.515625 
Q 6.78125 27.484375 10.78125 32.3125 
Q 14.796875 37.15625 21.921875 38.8125 
M 18.3125 54.390625 
Q 18.3125 48.734375 21.84375 45.5625 
Q 25.390625 42.390625 31.78125 42.390625 
Q 38.140625 42.390625 41.71875 45.5625 
Q 45.3125 48.734375 45.3125 54.390625 
Q 45.3125 60.0625 41.71875 63.234375 
Q 38.140625 66.40625 31.78125 66.40625 
Q 25.390625 66.40625 21.84375 63.234375 
Q 18.3125 60.0625 18.3125 54.390625 
" id="BitstreamVeraSans-Roman-38"/>
      </defs>
      <g transform="translate(401.886696429 589.118125)scale(0.12 -0.12)">
       <use xlink:href="#BitstreamVeraSans-Roman-30"/>
       <use x="63.623046875" xlink:href="#BitstreamVeraSans-Roman-2e"/>
       <use x="95.41015625" xlink:href="#BitstreamVeraSans-Roman-38"/>
      </g>
     </g>
    </g>
    <g id="xtick_7">
     <g id="line2d_13">
      <g>
       <use style="stroke:#000000;stroke-width:0.5;" x="493.714285714" xlink:href="#m0ff0e6726c" y="576.0"/>
      </g>
     </g>
     <g id="line2d_14">
      <g>
       <use style="stroke:#000000;stroke-width:0.5;" x="493.714285714" xlink:href="#md51745e175" y="28.8"/>
      </g>
     </g>
     <g id="text_7">
      <!-- 1.0 -->
      <defs>
       <path d="M 12.40625 8.296875 
L 28.515625 8.296875 
L 28.515625 63.921875 
L 10.984375 60.40625 
L 10.984375 69.390625 
L 28.421875 72.90625 
L 38.28125 72.90625 
L 38.28125 8.296875 
L 54.390625 8.296875 
L 54.390625 0 
L 12.40625 0 
z
" id="BitstreamVeraSans-Roman-31"/>
      </defs>
      <g transform="translate(484.172410714 589.118125)scale(0.12 -0.12)">
       <use xlink:href="#BitstreamVeraSans-Roman-31"/>
       <use x="63.623046875" xlink:href="#BitstreamVeraSans-Roman-2e"/>
       <use x="95.41015625" xlink:href="#BitstreamVeraSans-Roman-30"/>
      </g>
     </g>
    </g>
    <g id="xtick_8">
     <g id="line2d_15">
      <g>
       <use style="stroke:#000000;stroke-width:0.5;" x="576.0" xlink:href="#m0ff0e6726c" y="576.0"/>
      </g>
     </g>
     <g id="line2d_16">
      <g>
       <use style="stroke:#000000;stroke-width:0.5;" x="576.0" xlink:href="#md51745e175" y="28.8"/>
      </g>
     </g>
     <g id="text_8">
      <!-- 1.2 -->
      <g transform="translate(566.458125 589.118125)scale(0.12 -0.12)">
       <use xlink:href="#BitstreamVeraSans-Roman-31"/>
       <use x="63.623046875" xlink:href="#BitstreamVeraSans-Roman-2e"/>
       <use x="95.41015625" xlink:href="#BitstreamVeraSans-Roman-32"/>
      </g>
     </g>
    </g>
   </g>
   <g id="matplotlib.axis_2">
    <g id="ytick_1">
     <g id="line2d_17">
      <defs>
       <path d="M 0 0 
L 4 0 
" id="mf1b8daeb8c" style="stroke:#000000;stroke-width:0.5;"/>
      </defs>
      <g>
       <use style="stroke:#000000;stroke-width:0.5;" x="0.0" xlink:href="#mf1b8daeb8c" y="576.0"/>
      </g>
     </g>
     <g id="line2d_18">
      <defs>
       <path d="M 0 0 
L -4 0 
" id="m6da58ac311" style="stroke:#000000;stroke-width:0.5;"/>
      </defs>
      <g>
       <use style="stroke:#000000;stroke-width:0.5;" x="576.0" xlink:href="#m6da58ac311" y="576.0"/>
      </g>
     </g>
     <g id="text_9">
      <!-- −0.2 -->
      <g transform="translate(-33.139375 579.31125)scale(0.12 -0.12)">
       <use xlink:href="#BitstreamVeraSans-Roman-2212"/>
       <use x="83.7890625" xlink:href="#BitstreamVeraSans-Roman-30"/>
       <use x="147.412109375" xlink:href="#BitstreamVeraSans-Roman-2e"/>
       <use x="179.19921875" xlink:href="#BitstreamVeraSans-Roman-32"/>
      </g>
     </g>
    </g>
    <g id="ytick_2">
     <g id="line2d_19">
      <g>
       <use style="stroke:#000000;stroke-width:0.5;" x="0.0" xlink:href="#mf1b8daeb8c" y="484.8"/>
      </g>
     </g>
     <g id="line2d_20">
      <g>
       <use style="stroke:#000000;stroke-width:0.5;" x="576.0" xlink:href="#m6da58ac311" y="484.8"/>
      </g>
     </g>
     <g id="text_10">
      <!-- 0.0 -->
      <g transform="translate(-23.08375 488.11125)scale(0.12 -0.12)">
       <use xlink:href="#BitstreamVeraSans-Roman-30"/>
       <use x="63.623046875" xlink:href="#BitstreamVeraSans-Roman-2e"/>
       <use x="95.41015625" xlink:href="#BitstreamVeraSans-Roman-30"/>
      </g>
     </g>
    </g>
    <g id="ytick_3">
     <g id="line2d_21">
      <g>
       <use style="stroke:#000000;stroke-width:0.5;" x="0.0" xlink:href="#mf1b8daeb8c" y="393.6"/>
      </g>
     </g>
     <g id="line2d_22">
      <g>
       <use style="stroke:#000000;stroke-width:0.5;" x="576.0" xlink:href="#m6da58ac311" y="393.6"/>
      </g>
     </g>
     <g id="text_11">
      <!-- 0.2 -->
      <g transform="translate(-23.08375 396.91125)scale(0.12 -0.12)">
       <use xlink:href="#BitstreamVeraSans-Roman-30"/>
       <use x="63.623046875" xlink:href="#BitstreamVeraSans-Roman-2e"/>
       <use x="95.41015625" xlink:href="#BitstreamVeraSans-Roman-32"/>
      </g>
     </g>
    </g>
    <g id="ytick_4">
     <g id="line2d_23">
      <g>
       <use style="stroke:#000000;stroke-width:0.5;" x="0.0" xlink:href="#mf1b8daeb8c" y="302.4"/>
      </g>
     </g>
     <g id="line2d_24">
      <g>
       <use style="stroke:#000000;stroke-width:0.5;" x="576.0" xlink:href="#m6da58ac311" y="302.4"/>
      </g>
     </g>
     <g id="text_12">
      <!-- 0.4 -->
      <g transform="translate(-23.08375 305.71125)scale(0.12 -0.12)">
       <use xlink:href="#BitstreamVeraSans-Roman-30"/>
       <use x="63.623046875" xlink:href="#BitstreamVeraSans-Roman-2e"/>
       <use x="95.41015625" xlink:href="#BitstreamVeraSans-Roman-34"/>
      </g>
     </g>
    </g>
    <g id="ytick_5">
     <g id="line2d_25">
      <g>
       <use style="stroke:#000000;stroke-width:0.5;" x="0.0" xlink:href="#mf1b8daeb8c" y="211.2"/>
      </g>
     </g>
     <g id="line2d_26">
      <g>
       <use style="stroke:#000000;stroke-width:0.5;" x="576.0" xlink:href="#m6da58ac311" y="211.2"/>
      </g>
     </g>
     <g id="text_13">
      <!-- 0.6 -->
      <g transform="translate(-23.08375 214.51125)scale(0.12 -0.12)">
       <use xlink:href="#BitstreamVeraSans-Roman-30"/>
       <use x="63.623046875" xlink:href="#BitstreamVeraSans-Roman-2e"/>
       <use x="95.41015625" xlink:href="#BitstreamVeraSans-Roman-36"/>
      </g>
     </g>
    </g>
    <g id="ytick_6">
     <g id="line2d_27">
      <g>
       <use style="stroke:#000000;stroke-width:0.5;" x="0.0" xlink:href="#mf1b8daeb8c" y="120.0"/>
      </g>
     </g>
     <g id="line2d_28">
      <g>
       <use style="stroke:#000000;stroke-width:0.5;" x="576.0" xlink:href="#m6da58ac311" y="120.0"/>
      </g>
     </g>
     <g id="text_14">
      <!-- 0.8 -->
      <g transform="translate(-23.08375 123.31125)scale(0.12 -0.12)">
       <use xlink:href="#BitstreamVeraSans-Roman-30"/>
       <use x="63.623046875" xlink:href="#BitstreamVeraSans-Roman-2e"/>
       <use x="95.41015625" xlink:href="#BitstreamVeraSans-Roman-38"/>
      </g>
     </g>
    </g>
    <g id="ytick_7">
     <g id="line2d_29">
      <g>
       <use style="stroke:#000000;stroke-width:0.5;" x="0.0" xlink:href="#mf1b8daeb8c" y="28.8"/>
      </g>
     </g>
     <g id="line2d_30">
      <g>
       <use style="stroke:#000000;stroke-width:0.5;" x="576.0" xlink:href="#m6da58ac311" y="28.8"/>
      </g>
     </g>
     <g id="text_15">
      <!-- 1.0 -->
      <g transform="translate(-23.08375 32.11125)scale(0.12 -0.12)">
       <use xlink:href="#BitstreamVeraSans-Roman-31"/>
       <use x="63.623046875" xlink:href="#BitstreamVeraSans-Roman-2e"/>
       <use x="95.41015625" xlink:href="#BitstreamVeraSans-Roman-30"/>
      </g>
     </g>
    </g>
   </g>
   <g id="text_16">
    <g clip-path="url(#p0cddea45e7)">
     <!-- PEDRO -->
     <defs>
      <path d="M 19.671875 64.796875 
L 19.671875 37.40625 
L 32.078125 37.40625 
Q 38.96875 37.40625 42.71875 40.96875 
Q 46.484375 44.53125 46.484375 51.125 
Q 46.484375 57.671875 42.71875 61.234375 
Q 38.96875 64.796875 32.078125 64.796875 
z
M 9.8125 72.90625 
L 32.078125 72.90625 
Q 44.34375 72.90625 50.609375 67.359375 
Q 56.890625 61.8125 56.890625 51.125 
Q 56.890625 40.328125 50.609375 34.8125 
Q 44.34375 29.296875 32.078125 29.296875 
L 19.671875 29.296875 
L 19.671875 0 
L 9.8125 0 
z
" id="BitstreamVeraSans-Roman-50"/>
      <path d="M 44.390625 34.1875 
Q 47.5625 33.109375 50.5625 29.59375 
Q 53.5625 26.078125 56.59375 19.921875 
L 66.609375 0 
L 56 0 
L 46.6875 18.703125 
Q 43.0625 26.03125 39.671875 28.421875 
Q 36.28125 30.8125 30.421875 30.8125 
L 19.671875 30.8125 
L 19.671875 0 
L 9.8125 0 
L 9.8125 72.90625 
L 32.078125 72.90625 
Q 44.578125 72.90625 50.734375 67.671875 
Q 56.890625 62.453125 56.890625 51.90625 
Q 56.890625 45.015625 53.6875 40.46875 
Q 50.484375 35.9375 44.390625 34.1875 
M 19.671875 64.796875 
L 19.671875 38.921875 
L 32.078125 38.921875 
Q 39.203125 38.921875 42.84375 42.21875 
Q 46.484375 45.515625 46.484375 51.90625 
Q 46.484375 58.296875 42.84375 61.546875 
Q 39.203125 64.796875 32.078125 64.796875 
z
" id="BitstreamVeraSans-Roman-52"/>
      <path d="M 9.8125 72.90625 
L 55.90625 72.90625 
L 55.90625 64.59375 
L 19.671875 64.59375 
L 19.671875 43.015625 
L 54.390625 43.015625 
L 54.390625 34.71875 
L 19.671875 34.71875 
L 19.671875 8.296875 
L 56.78125 8.296875 
L 56.78125 0 
L 9.8125 0 
z
" id="BitstreamVeraSans-Roman-45"/>
      <path d="M 39.40625 66.21875 
Q 28.65625 66.21875 22.328125 58.203125 
Q 16.015625 50.203125 16.015625 36.375 
Q 16.015625 22.609375 22.328125 14.59375 
Q 28.65625 6.59375 39.40625 6.59375 
Q 50.140625 6.59375 56.421875 14.59375 
Q 62.703125 22.609375 62.703125 36.375 
Q 62.703125 50.203125 56.421875 58.203125 
Q 50.140625 66.21875 39.40625 66.21875 
M 39.40625 74.21875 
Q 54.734375 74.21875 63.90625 63.9375 
Q 73.09375 53.65625 73.09375 36.375 
Q 73.09375 19.140625 63.90625 8.859375 
Q 54.734375 -1.421875 39.40625 -1.421875 
Q 24.03125 -1.421875 14.8125 8.828125 
Q 5.609375 19.09375 5.609375 36.375 
Q 5.609375 53.65625 14.8125 63.9375 
Q 24.03125 74.21875 39.40625 74.21875 
" id="BitstreamVeraSans-Roman-4f"/>
      <path d="M 19.671875 64.796875 
L 19.671875 8.109375 
L 31.59375 8.109375 
Q 46.6875 8.109375 53.6875 14.9375 
Q 60.6875 21.78125 60.6875 36.53125 
Q 60.6875 51.171875 53.6875 57.984375 
Q 46.6875 64.796875 31.59375 64.796875 
z
M 9.8125 72.90625 
L 30.078125 72.90625 
Q 51.265625 72.90625 61.171875 64.09375 
Q 71.09375 55.28125 71.09375 36.53125 
Q 71.09375 17.671875 61.125 8.828125 
Q 51.171875 0 30.078125 0 
L 9.8125 0 
z
" id="BitstreamVeraSans-Roman-44"/>
     </defs>
     <g transform="translate(161.949040156 324.66234765)scale(0.12 -0.12)">
      <use xlink:href="#BitstreamVeraSans-Roman-50"/>
      <use x="60.302734375" xlink:href="#BitstreamVeraSans-Roman-45"/>
      <use x="123.486328125" xlink:href="#BitstreamVeraSans-Roman-44"/>
      <use x="200.48828125" xlink:href="#BitstreamVeraSans-Roman-52"/>
      <use x="269.970703125" xlink:href="#BitstreamVeraSans-Roman-4f"/>
     </g>
    </g>
   </g>
   <g id="text_17">
    <g clip-path="url(#p0cddea45e7)">
     <!-- JÄGER -->
     <defs>
      <path d="M 59.515625 10.40625 
L 59.515625 29.984375 
L 43.40625 29.984375 
L 43.40625 38.09375 
L 69.28125 38.09375 
L 69.28125 6.78125 
Q 63.578125 2.734375 56.6875 0.65625 
Q 49.8125 -1.421875 42 -1.421875 
Q 24.90625 -1.421875 15.25 8.5625 
Q 5.609375 18.5625 5.609375 36.375 
Q 5.609375 54.25 15.25 64.234375 
Q 24.90625 74.21875 42 74.21875 
Q 49.125 74.21875 55.546875 72.453125 
Q 61.96875 70.703125 67.390625 67.28125 
L 67.390625 56.78125 
Q 61.921875 61.421875 55.765625 63.765625 
Q 49.609375 66.109375 42.828125 66.109375 
Q 29.4375 66.109375 22.71875 58.640625 
Q 16.015625 51.171875 16.015625 36.375 
Q 16.015625 21.625 22.71875 14.15625 
Q 29.4375 6.6875 42.828125 6.6875 
Q 48.046875 6.6875 52.140625 7.59375 
Q 56.25 8.5 59.515625 10.40625 
" id="BitstreamVeraSans-Roman-47"/>
      <path d="M 9.8125 72.90625 
L 19.671875 72.90625 
L 19.671875 5.078125 
Q 19.671875 -8.109375 14.671875 -14.0625 
Q 9.671875 -20.015625 -1.421875 -20.015625 
L -5.171875 -20.015625 
L -5.171875 -11.71875 
L -2.09375 -11.71875 
Q 4.4375 -11.71875 7.125 -8.046875 
Q 9.8125 -4.390625 9.8125 5.078125 
z
" id="BitstreamVeraSans-Roman-4a"/>
      <path d="M 34.1875 63.1875 
L 20.796875 26.90625 
L 47.609375 26.90625 
z
M 28.609375 72.90625 
L 39.796875 72.90625 
L 67.578125 0 
L 57.328125 0 
L 50.6875 18.703125 
L 17.828125 18.703125 
L 11.1875 0 
L 0.78125 0 
z
M 38.71875 91.09375 
L 48.625 91.09375 
L 48.625 81.1875 
L 38.71875 81.1875 
z
M 19.625 91.09375 
L 29.53125 91.09375 
L 29.53125 81.1875 
L 19.625 81.1875 
z
" id="BitstreamVeraSans-Roman-c4"/>
     </defs>
     <g transform="translate(253.314314152 387.997764712)scale(0.12 -0.12)">
      <use xlink:href="#BitstreamVeraSans-Roman-4a"/>
      <use x="29.4765625" xlink:href="#BitstreamVeraSans-Roman-c4"/>
      <use x="97.869140625" xlink:href="#BitstreamVeraSans-Roman-47"/>
      <use x="175.359375" xlink:href="#BitstreamVeraSans-Roman-45"/>
      <use x="238.54296875" xlink:href="#BitstreamVeraSans-Roman-52"/>
     </g>
    </g>
   </g>
   <g id="text_18">
    <g clip-path="url(#p0cddea45e7)">
     <!-- AMBROSIO -->
     <defs>
      <path d="M 19.671875 34.8125 
L 19.671875 8.109375 
L 35.5 8.109375 
Q 43.453125 8.109375 47.28125 11.40625 
Q 51.125 14.703125 51.125 21.484375 
Q 51.125 28.328125 47.28125 31.5625 
Q 43.453125 34.8125 35.5 34.8125 
z
M 19.671875 64.796875 
L 19.671875 42.828125 
L 34.28125 42.828125 
Q 41.5 42.828125 45.03125 45.53125 
Q 48.578125 48.25 48.578125 53.8125 
Q 48.578125 59.328125 45.03125 62.0625 
Q 41.5 64.796875 34.28125 64.796875 
z
M 9.8125 72.90625 
L 35.015625 72.90625 
Q 46.296875 72.90625 52.390625 68.21875 
Q 58.5 63.53125 58.5 54.890625 
Q 58.5 48.1875 55.375 44.234375 
Q 52.25 40.28125 46.1875 39.3125 
Q 53.46875 37.75 57.5 32.78125 
Q 61.53125 27.828125 61.53125 20.40625 
Q 61.53125 10.640625 54.890625 5.3125 
Q 48.25 0 35.984375 0 
L 9.8125 0 
z
" id="BitstreamVeraSans-Roman-42"/>
      <path d="M 34.1875 63.1875 
L 20.796875 26.90625 
L 47.609375 26.90625 
z
M 28.609375 72.90625 
L 39.796875 72.90625 
L 67.578125 0 
L 57.328125 0 
L 50.6875 18.703125 
L 17.828125 18.703125 
L 11.1875 0 
L 0.78125 0 
z
" id="BitstreamVeraSans-Roman-41"/>
      <path d="M 9.8125 72.90625 
L 19.671875 72.90625 
L 19.671875 0 
L 9.8125 0 
z
" id="BitstreamVeraSans-Roman-49"/>
      <path d="M 9.8125 72.90625 
L 24.515625 72.90625 
L 43.109375 23.296875 
L 61.8125 72.90625 
L 76.515625 72.90625 
L 76.515625 0 
L 66.890625 0 
L 66.890625 64.015625 
L 48.09375 14.015625 
L 38.1875 14.015625 
L 19.390625 64.015625 
L 19.390625 0 
L 9.8125 0 
z
" id="BitstreamVeraSans-Roman-4d"/>
      <path d="M 53.515625 70.515625 
L 53.515625 60.890625 
Q 47.90625 63.578125 42.921875 64.890625 
Q 37.9375 66.21875 33.296875 66.21875 
Q 25.25 66.21875 20.875 63.09375 
Q 16.5 59.96875 16.5 54.203125 
Q 16.5 49.359375 19.40625 46.890625 
Q 22.3125 44.4375 30.421875 42.921875 
L 36.375 41.703125 
Q 47.40625 39.59375 52.65625 34.296875 
Q 57.90625 29 57.90625 20.125 
Q 57.90625 9.515625 50.796875 4.046875 
Q 43.703125 -1.421875 29.984375 -1.421875 
Q 24.8125 -1.421875 18.96875 -0.25 
Q 13.140625 0.921875 6.890625 3.21875 
L 6.890625 13.375 
Q 12.890625 10.015625 18.65625 8.296875 
Q 24.421875 6.59375 29.984375 6.59375 
Q 38.421875 6.59375 43.015625 9.90625 
Q 47.609375 13.234375 47.609375 19.390625 
Q 47.609375 24.75 44.3125 27.78125 
Q 41.015625 30.8125 33.5 32.328125 
L 27.484375 33.5 
Q 16.453125 35.6875 11.515625 40.375 
Q 6.59375 45.0625 6.59375 53.421875 
Q 6.59375 63.09375 13.40625 68.65625 
Q 20.21875 74.21875 32.171875 74.21875 
Q 37.3125 74.21875 42.625 73.28125 
Q 47.953125 72.359375 53.515625 70.515625 
" id="BitstreamVeraSans-Roman-53"/>
     </defs>
     <g transform="translate(49.6935267857 488.11125)scale(0.12 -0.12)">
      <use xlink:href="#BitstreamVeraSans-Roman-41"/>
      <use x="68.408203125" xlink:href="#BitstreamVeraSans-Roman-4d"/>
      <use x="154.6875" xlink:href="#BitstreamVeraSans-Roman-42"/>
      <use x="223.291015625" xlink:href="#BitstreamVeraSans-Roman-52"/>
      <use x="292.7734375" xlink:href="#BitstreamVeraSans-Roman-4f"/>
      <use x="371.484375" xlink:href="#BitstreamVeraSans-Roman-53"/>
      <use x="434.9609375" xlink:href="#BitstreamVeraSans-Roman-49"/>
      <use x="464.453125" xlink:href="#BitstreamVeraSans-Roman-4f"/>
     </g>
    </g>
   </g>
   <g id="text_19">
    <g clip-path="url(#p0cddea45e7)">
     <!-- OTTO -->
     <defs>
      <path d="M -0.296875 72.90625 
L 61.375 72.90625 
L 61.375 64.59375 
L 35.5 64.59375 
L 35.5 0 
L 25.59375 0 
L 25.59375 64.59375 
L -0.296875 64.59375 
z
" id="BitstreamVeraSans-Roman-54"/>
     </defs>
     <g transform="translate(392.599225179 418.547774879)scale(0.12 -0.12)">
      <use xlink:href="#BitstreamVeraSans-Roman-4f"/>
      <use x="78.7109375" xlink:href="#BitstreamVeraSans-Roman-54"/>
      <use x="139.779296875" xlink:href="#BitstreamVeraSans-Roman-54"/>
      <use x="200.86328125" xlink:href="#BitstreamVeraSans-Roman-4f"/>
     </g>
    </g>
   </g>
   <g id="text_20">
    <g clip-path="url(#p0cddea45e7)">
     <!-- GOMEZ -->
     <defs>
      <path d="M 5.609375 72.90625 
L 62.890625 72.90625 
L 62.890625 65.375 
L 16.796875 8.296875 
L 64.015625 8.296875 
L 64.015625 0 
L 4.5 0 
L 4.5 7.515625 
L 50.59375 64.59375 
L 5.609375 64.59375 
z
" id="BitstreamVeraSans-Roman-5a"/>
     </defs>
     <g transform="translate(307.975169712 462.908096548)scale(0.12 -0.12)">
      <use xlink:href="#BitstreamVeraSans-Roman-47"/>
      <use x="77.490234375" xlink:href="#BitstreamVeraSans-Roman-4f"/>
      <use x="156.201171875" xlink:href="#BitstreamVeraSans-Roman-4d"/>
      <use x="242.48046875" xlink:href="#BitstreamVeraSans-Roman-45"/>
      <use x="305.6640625" xlink:href="#BitstreamVeraSans-Roman-5a"/>
     </g>
    </g>
   </g>
   <g id="text_21">
    <g clip-path="url(#p0cddea45e7)">
     <!-- VASCO -->
     <defs>
      <path d="M 64.40625 67.28125 
L 64.40625 56.890625 
Q 59.421875 61.53125 53.78125 63.8125 
Q 48.140625 66.109375 41.796875 66.109375 
Q 29.296875 66.109375 22.65625 58.46875 
Q 16.015625 50.828125 16.015625 36.375 
Q 16.015625 21.96875 22.65625 14.328125 
Q 29.296875 6.6875 41.796875 6.6875 
Q 48.140625 6.6875 53.78125 8.984375 
Q 59.421875 11.28125 64.40625 15.921875 
L 64.40625 5.609375 
Q 59.234375 2.09375 53.4375 0.328125 
Q 47.65625 -1.421875 41.21875 -1.421875 
Q 24.65625 -1.421875 15.125 8.703125 
Q 5.609375 18.84375 5.609375 36.375 
Q 5.609375 53.953125 15.125 64.078125 
Q 24.65625 74.21875 41.21875 74.21875 
Q 47.75 74.21875 53.53125 72.484375 
Q 59.328125 70.75 64.40625 67.28125 
" id="BitstreamVeraSans-Roman-43"/>
      <path d="M 28.609375 0 
L 0.78125 72.90625 
L 11.078125 72.90625 
L 34.1875 11.53125 
L 57.328125 72.90625 
L 67.578125 72.90625 
L 39.796875 0 
z
" id="BitstreamVeraSans-Roman-56"/>
     </defs>
     <g transform="translate(199.753461111 286.075842101)scale(0.12 -0.12)">
      <use xlink:href="#BitstreamVeraSans-Roman-56"/>
      <use x="68.314453125" xlink:href="#BitstreamVeraSans-Roman-41"/>
      <use x="136.72265625" xlink:href="#BitstreamVeraSans-Roman-53"/>
      <use x="200.19921875" xlink:href="#BitstreamVeraSans-Roman-43"/>
      <use x="270.0234375" xlink:href="#BitstreamVeraSans-Roman-4f"/>
     </g>
    </g>
   </g>
   <g id="text_22">
    <g clip-path="url(#p0cddea45e7)">
     <!-- GABRIELE -->
     <defs>
      <path d="M 9.8125 72.90625 
L 19.671875 72.90625 
L 19.671875 8.296875 
L 55.171875 8.296875 
L 55.171875 0 
L 9.8125 0 
z
" id="BitstreamVeraSans-Roman-4c"/>
     </defs>
     <g transform="translate(267.023334623 331.114063527)scale(0.12 -0.12)">
      <use xlink:href="#BitstreamVeraSans-Roman-47"/>
      <use x="77.490234375" xlink:href="#BitstreamVeraSans-Roman-41"/>
      <use x="145.8984375" xlink:href="#BitstreamVeraSans-Roman-42"/>
      <use x="214.501953125" xlink:href="#BitstreamVeraSans-Roman-52"/>
      <use x="283.984375" xlink:href="#BitstreamVeraSans-Roman-49"/>
      <use x="313.4765625" xlink:href="#BitstreamVeraSans-Roman-45"/>
      <use x="376.66015625" xlink:href="#BitstreamVeraSans-Roman-4c"/>
      <use x="432.373046875" xlink:href="#BitstreamVeraSans-Roman-45"/>
     </g>
    </g>
   </g>
   <g id="text_23">
    <g clip-path="url(#p0cddea45e7)">
     <!-- CHOR -->
     <defs>
      <path d="M 9.8125 72.90625 
L 19.671875 72.90625 
L 19.671875 43.015625 
L 55.515625 43.015625 
L 55.515625 72.90625 
L 65.375 72.90625 
L 65.375 0 
L 55.515625 0 
L 55.515625 34.71875 
L 19.671875 34.71875 
L 19.671875 0 
L 9.8125 0 
z
" id="BitstreamVeraSans-Roman-48"/>
     </defs>
     <g transform="translate(476.120223214 75.5614889547)scale(0.12 -0.12)">
      <use xlink:href="#BitstreamVeraSans-Roman-43"/>
      <use x="69.82421875" xlink:href="#BitstreamVeraSans-Roman-48"/>
      <use x="145.01953125" xlink:href="#BitstreamVeraSans-Roman-4f"/>
      <use x="223.73046875" xlink:href="#BitstreamVeraSans-Roman-52"/>
     </g>
    </g>
   </g>
   <g id="text_24">
    <g clip-path="url(#p0cddea45e7)">
     <!-- DIE DREI HIRTEN -->
     <defs>
      <path id="BitstreamVeraSans-Roman-20"/>
      <path d="M 9.8125 72.90625 
L 23.09375 72.90625 
L 55.421875 11.921875 
L 55.421875 72.90625 
L 64.984375 72.90625 
L 64.984375 0 
L 51.703125 0 
L 19.390625 60.984375 
L 19.390625 0 
L 9.8125 0 
z
" id="BitstreamVeraSans-Roman-4e"/>
     </defs>
     <g transform="translate(189.102028 357.261189655)scale(0.12 -0.12)">
      <use xlink:href="#BitstreamVeraSans-Roman-44"/>
      <use x="77.001953125" xlink:href="#BitstreamVeraSans-Roman-49"/>
      <use x="106.494140625" xlink:href="#BitstreamVeraSans-Roman-45"/>
      <use x="169.677734375" xlink:href="#BitstreamVeraSans-Roman-20"/>
      <use x="201.46484375" xlink:href="#BitstreamVeraSans-Roman-44"/>
      <use x="278.466796875" xlink:href="#BitstreamVeraSans-Roman-52"/>
      <use x="347.94921875" xlink:href="#BitstreamVeraSans-Roman-45"/>
      <use x="411.1328125" xlink:href="#BitstreamVeraSans-Roman-49"/>
      <use x="440.625" xlink:href="#BitstreamVeraSans-Roman-20"/>
      <use x="472.412109375" xlink:href="#BitstreamVeraSans-Roman-48"/>
      <use x="547.607421875" xlink:href="#BitstreamVeraSans-Roman-49"/>
      <use x="577.099609375" xlink:href="#BitstreamVeraSans-Roman-52"/>
      <use x="646.47265625" xlink:href="#BitstreamVeraSans-Roman-54"/>
      <use x="707.556640625" xlink:href="#BitstreamVeraSans-Roman-45"/>
      <use x="770.740234375" xlink:href="#BitstreamVeraSans-Roman-4e"/>
     </g>
    </g>
   </g>
  </g>
 </g>
 <defs>
  <clipPath id="p0cddea45e7">
   <rect height="547.2" width="576.0" x="0.0" y="28.8"/>
  </clipPath>
 </defs>
</svg>
