<?xml version="1.0" encoding="utf-8" standalone="no"?>
<!DOCTYPE svg PUBLIC "-//W3C//DTD SVG 1.1//EN"
  "http://www.w3.org/Graphics/SVG/1.1/DTD/svg11.dtd">
<!-- Created with matplotlib (http://matplotlib.org/) -->
<svg height="576pt" version="1.1" viewBox="0 0 576 576" width="576pt" xmlns="http://www.w3.org/2000/svg" xmlns:xlink="http://www.w3.org/1999/xlink">
 <defs>
  <style type="text/css">
*{stroke-linecap:butt;stroke-linejoin:round;stroke-miterlimit:100000;}
  </style>
 </defs>
 <g id="figure_1">
  <g id="patch_1">
   <path d="M 0 576 
L 576 576 
L 576 0 
L 0 0 
z
" style="fill:#ffffff;"/>
  </g>
  <g id="axes_1">
   <g id="patch_2">
    <path d="M 0 576 
L 576 576 
L 576 28.8 
L 0 28.8 
z
" style="fill:#ffffff;"/>
   </g>
   <g id="LineCollection_1">
    <path clip-path="url(#pa7542462e2)" d="M 273.247521 356.117532 
L 373.220157 198.761609 
" style="fill:none;stroke:#808080;"/>
    <path clip-path="url(#pa7542462e2)" d="M 273.247521 356.117532 
L 211.5263 409.906073 
" style="fill:none;stroke:#808080;stroke-width:7.0;"/>
    <path clip-path="url(#pa7542462e2)" d="M 273.247521 356.117532 
L 248.44309 450.187955 
" style="fill:none;stroke:#808080;stroke-width:2.0;"/>
    <path clip-path="url(#pa7542462e2)" d="M 273.247521 356.117532 
L 240.653526 405.054629 
" style="fill:none;stroke:#808080;stroke-width:7.0;"/>
    <path clip-path="url(#pa7542462e2)" d="M 273.247521 356.117532 
L 241.425969 338.080483 
" style="fill:none;stroke:#808080;stroke-width:6.0;"/>
    <path clip-path="url(#pa7542462e2)" d="M 273.247521 356.117532 
L 368.320243 434.76577 
" style="fill:none;stroke:#808080;stroke-width:2.0;"/>
    <path clip-path="url(#pa7542462e2)" d="M 273.247521 356.117532 
L 72 389.485745 
" style="fill:none;stroke:#808080;stroke-width:2.0;"/>
    <path clip-path="url(#pa7542462e2)" d="M 273.247521 356.117532 
L 222.808544 373.34834 
" style="fill:none;stroke:#808080;stroke-width:5.0;"/>
    <path clip-path="url(#pa7542462e2)" d="M 273.247521 356.117532 
L 280.845961 258.540199 
" style="fill:none;stroke:#808080;stroke-width:3.0;"/>
    <path clip-path="url(#pa7542462e2)" d="M 273.247521 356.117532 
L 344.602988 404.333153 
" style="fill:none;stroke:#808080;stroke-width:3.0;"/>
    <path clip-path="url(#pa7542462e2)" d="M 273.247521 356.117532 
L 236.729515 483.763659 
" style="fill:none;stroke:#808080;"/>
    <path clip-path="url(#pa7542462e2)" d="M 273.247521 356.117532 
L 300.378002 187.406315 
" style="fill:none;stroke:#808080;"/>
    <path clip-path="url(#pa7542462e2)" d="M 273.247521 356.117532 
L 327.628861 497.828571 
" style="fill:none;stroke:#808080;"/>
    <path clip-path="url(#pa7542462e2)" d="M 273.247521 356.117532 
L 301.726466 419.124633 
" style="fill:none;stroke:#808080;stroke-width:4.0;"/>
    <path clip-path="url(#pa7542462e2)" d="M 273.247521 356.117532 
L 401.048498 106.971429 
" style="fill:none;stroke:#808080;"/>
    <path clip-path="url(#pa7542462e2)" d="M 273.247521 356.117532 
L 270.935424 414.753679 
" style="fill:none;stroke:#808080;stroke-width:4.0;"/>
    <path clip-path="url(#pa7542462e2)" d="M 273.247521 356.117532 
L 178.384397 284.313065 
" style="fill:none;stroke:#808080;stroke-width:2.0;"/>
    <path clip-path="url(#pa7542462e2)" d="M 273.247521 356.117532 
L 306.772182 314.003722 
" style="fill:none;stroke:#808080;stroke-width:5.0;"/>
    <path clip-path="url(#pa7542462e2)" d="M 273.247521 356.117532 
L 352.225352 388.644761 
" style="fill:none;stroke:#808080;stroke-width:3.0;"/>
    <path clip-path="url(#pa7542462e2)" d="M 273.247521 356.117532 
L 279.793389 324.794501 
" style="fill:none;stroke:#808080;stroke-width:3.0;"/>
    <path clip-path="url(#pa7542462e2)" d="M 273.247521 356.117532 
L 161.960345 376.148977 
" style="fill:none;stroke:#808080;stroke-width:5.0;"/>
    <path clip-path="url(#pa7542462e2)" d="M 273.247521 356.117532 
L 308.158707 454.654853 
" style="fill:none;stroke:#808080;stroke-width:2.0;"/>
    <path clip-path="url(#pa7542462e2)" d="M 273.247521 356.117532 
L 291.494509 399.066893 
" style="fill:none;stroke:#808080;stroke-width:3.0;"/>
    <path clip-path="url(#pa7542462e2)" d="M 373.220157 198.761609 
L 306.772182 314.003722 
" style="fill:none;stroke:#808080;"/>
    <path clip-path="url(#pa7542462e2)" d="M 373.220157 198.761609 
L 300.378002 187.406315 
" style="fill:none;stroke:#808080;stroke-width:2.0;"/>
    <path clip-path="url(#pa7542462e2)" d="M 373.220157 198.761609 
L 279.793389 324.794501 
" style="fill:none;stroke:#808080;"/>
    <path clip-path="url(#pa7542462e2)" d="M 373.220157 198.761609 
L 401.048498 106.971429 
" style="fill:none;stroke:#808080;stroke-width:2.0;"/>
    <path clip-path="url(#pa7542462e2)" d="M 373.220157 198.761609 
L 280.845961 258.540199 
" style="fill:none;stroke:#808080;"/>
    <path clip-path="url(#pa7542462e2)" d="M 211.5263 409.906073 
L 241.425969 338.080483 
" style="fill:none;stroke:#808080;"/>
    <path clip-path="url(#pa7542462e2)" d="M 211.5263 409.906073 
L 161.960345 376.148977 
" style="fill:none;stroke:#808080;stroke-width:6.0;"/>
    <path clip-path="url(#pa7542462e2)" d="M 211.5263 409.906073 
L 248.44309 450.187955 
" style="fill:none;stroke:#808080;stroke-width:2.0;"/>
    <path clip-path="url(#pa7542462e2)" d="M 211.5263 409.906073 
L 240.653526 405.054629 
" style="fill:none;stroke:#808080;stroke-width:4.0;"/>
    <path clip-path="url(#pa7542462e2)" d="M 211.5263 409.906073 
L 327.628861 497.828571 
" style="fill:none;stroke:#808080;"/>
    <path clip-path="url(#pa7542462e2)" d="M 211.5263 409.906073 
L 270.935424 414.753679 
" style="fill:none;stroke:#808080;stroke-width:4.0;"/>
    <path clip-path="url(#pa7542462e2)" d="M 211.5263 409.906073 
L 301.726466 419.124633 
" style="fill:none;stroke:#808080;stroke-width:4.0;"/>
    <path clip-path="url(#pa7542462e2)" d="M 211.5263 409.906073 
L 368.320243 434.76577 
" style="fill:none;stroke:#808080;stroke-width:2.0;"/>
    <path clip-path="url(#pa7542462e2)" d="M 211.5263 409.906073 
L 72 389.485745 
" style="fill:none;stroke:#808080;stroke-width:2.0;"/>
    <path clip-path="url(#pa7542462e2)" d="M 211.5263 409.906073 
L 222.808544 373.34834 
" style="fill:none;stroke:#808080;stroke-width:4.0;"/>
    <path clip-path="url(#pa7542462e2)" d="M 211.5263 409.906073 
L 306.772182 314.003722 
" style="fill:none;stroke:#808080;stroke-width:2.0;"/>
    <path clip-path="url(#pa7542462e2)" d="M 211.5263 409.906073 
L 352.225352 388.644761 
" style="fill:none;stroke:#808080;stroke-width:3.0;"/>
    <path clip-path="url(#pa7542462e2)" d="M 211.5263 409.906073 
L 279.793389 324.794501 
" style="fill:none;stroke:#808080;stroke-width:2.0;"/>
    <path clip-path="url(#pa7542462e2)" d="M 211.5263 409.906073 
L 236.729515 483.763659 
" style="fill:none;stroke:#808080;"/>
    <path clip-path="url(#pa7542462e2)" d="M 211.5263 409.906073 
L 344.602988 404.333153 
" style="fill:none;stroke:#808080;stroke-width:3.0;"/>
    <path clip-path="url(#pa7542462e2)" d="M 211.5263 409.906073 
L 291.494509 399.066893 
" style="fill:none;stroke:#808080;stroke-width:3.0;"/>
    <path clip-path="url(#pa7542462e2)" d="M 211.5263 409.906073 
L 308.158707 454.654853 
" style="fill:none;stroke:#808080;stroke-width:2.0;"/>
    <path clip-path="url(#pa7542462e2)" d="M 248.44309 450.187955 
L 236.729515 483.763659 
" style="fill:none;stroke:#808080;"/>
    <path clip-path="url(#pa7542462e2)" d="M 248.44309 450.187955 
L 327.628861 497.828571 
" style="fill:none;stroke:#808080;"/>
    <path clip-path="url(#pa7542462e2)" d="M 248.44309 450.187955 
L 240.653526 405.054629 
" style="fill:none;stroke:#808080;stroke-width:2.0;"/>
    <path clip-path="url(#pa7542462e2)" d="M 248.44309 450.187955 
L 270.935424 414.753679 
" style="fill:none;stroke:#808080;stroke-width:3.0;"/>
    <path clip-path="url(#pa7542462e2)" d="M 248.44309 450.187955 
L 301.726466 419.124633 
" style="fill:none;stroke:#808080;stroke-width:3.0;"/>
    <path clip-path="url(#pa7542462e2)" d="M 248.44309 450.187955 
L 368.320243 434.76577 
" style="fill:none;stroke:#808080;stroke-width:2.0;"/>
    <path clip-path="url(#pa7542462e2)" d="M 248.44309 450.187955 
L 306.772182 314.003722 
" style="fill:none;stroke:#808080;"/>
    <path clip-path="url(#pa7542462e2)" d="M 248.44309 450.187955 
L 352.225352 388.644761 
" style="fill:none;stroke:#808080;stroke-width:2.0;"/>
    <path clip-path="url(#pa7542462e2)" d="M 248.44309 450.187955 
L 279.793389 324.794501 
" style="fill:none;stroke:#808080;"/>
    <path clip-path="url(#pa7542462e2)" d="M 248.44309 450.187955 
L 308.158707 454.654853 
" style="fill:none;stroke:#808080;stroke-width:2.0;"/>
    <path clip-path="url(#pa7542462e2)" d="M 248.44309 450.187955 
L 291.494509 399.066893 
" style="fill:none;stroke:#808080;stroke-width:2.0;"/>
    <path clip-path="url(#pa7542462e2)" d="M 248.44309 450.187955 
L 344.602988 404.333153 
" style="fill:none;stroke:#808080;stroke-width:2.0;"/>
    <path clip-path="url(#pa7542462e2)" d="M 240.653526 405.054629 
L 241.425969 338.080483 
" style="fill:none;stroke:#808080;"/>
    <path clip-path="url(#pa7542462e2)" d="M 240.653526 405.054629 
L 161.960345 376.148977 
" style="fill:none;stroke:#808080;stroke-width:2.0;"/>
    <path clip-path="url(#pa7542462e2)" d="M 240.653526 405.054629 
L 327.628861 497.828571 
" style="fill:none;stroke:#808080;"/>
    <path clip-path="url(#pa7542462e2)" d="M 240.653526 405.054629 
L 270.935424 414.753679 
" style="fill:none;stroke:#808080;stroke-width:5.0;"/>
    <path clip-path="url(#pa7542462e2)" d="M 240.653526 405.054629 
L 301.726466 419.124633 
" style="fill:none;stroke:#808080;stroke-width:7.0;"/>
    <path clip-path="url(#pa7542462e2)" d="M 240.653526 405.054629 
L 368.320243 434.76577 
" style="fill:none;stroke:#808080;stroke-width:2.0;"/>
    <path clip-path="url(#pa7542462e2)" d="M 240.653526 405.054629 
L 72 389.485745 
" style="fill:none;stroke:#808080;"/>
    <path clip-path="url(#pa7542462e2)" d="M 240.653526 405.054629 
L 222.808544 373.34834 
" style="fill:none;stroke:#808080;stroke-width:7.0;"/>
    <path clip-path="url(#pa7542462e2)" d="M 240.653526 405.054629 
L 306.772182 314.003722 
" style="fill:none;stroke:#808080;"/>
    <path clip-path="url(#pa7542462e2)" d="M 240.653526 405.054629 
L 352.225352 388.644761 
" style="fill:none;stroke:#808080;stroke-width:2.0;"/>
    <path clip-path="url(#pa7542462e2)" d="M 240.653526 405.054629 
L 279.793389 324.794501 
" style="fill:none;stroke:#808080;stroke-width:2.0;"/>
    <path clip-path="url(#pa7542462e2)" d="M 240.653526 405.054629 
L 236.729515 483.763659 
" style="fill:none;stroke:#808080;stroke-width:2.0;"/>
    <path clip-path="url(#pa7542462e2)" d="M 240.653526 405.054629 
L 344.602988 404.333153 
" style="fill:none;stroke:#808080;stroke-width:2.0;"/>
    <path clip-path="url(#pa7542462e2)" d="M 240.653526 405.054629 
L 291.494509 399.066893 
" style="fill:none;stroke:#808080;stroke-width:4.0;"/>
    <path clip-path="url(#pa7542462e2)" d="M 240.653526 405.054629 
L 308.158707 454.654853 
" style="fill:none;stroke:#808080;stroke-width:3.0;"/>
    <path clip-path="url(#pa7542462e2)" d="M 241.425969 338.080483 
L 270.935424 414.753679 
" style="fill:none;stroke:#808080;stroke-width:3.0;"/>
    <path clip-path="url(#pa7542462e2)" d="M 241.425969 338.080483 
L 301.726466 419.124633 
" style="fill:none;stroke:#808080;stroke-width:3.0;"/>
    <path clip-path="url(#pa7542462e2)" d="M 241.425969 338.080483 
L 280.845961 258.540199 
" style="fill:none;stroke:#808080;stroke-width:4.0;"/>
    <path clip-path="url(#pa7542462e2)" d="M 241.425969 338.080483 
L 222.808544 373.34834 
" style="fill:none;stroke:#808080;stroke-width:4.0;"/>
    <path clip-path="url(#pa7542462e2)" d="M 241.425969 338.080483 
L 178.384397 284.313065 
" style="fill:none;stroke:#808080;stroke-width:5.0;"/>
    <path clip-path="url(#pa7542462e2)" d="M 241.425969 338.080483 
L 306.772182 314.003722 
" style="fill:none;stroke:#808080;stroke-width:5.0;"/>
    <path clip-path="url(#pa7542462e2)" d="M 241.425969 338.080483 
L 352.225352 388.644761 
" style="fill:none;stroke:#808080;stroke-width:2.0;"/>
    <path clip-path="url(#pa7542462e2)" d="M 241.425969 338.080483 
L 161.960345 376.148977 
" style="fill:none;stroke:#808080;"/>
    <path clip-path="url(#pa7542462e2)" d="M 241.425969 338.080483 
L 291.494509 399.066893 
" style="fill:none;stroke:#808080;stroke-width:3.0;"/>
    <path clip-path="url(#pa7542462e2)" d="M 241.425969 338.080483 
L 344.602988 404.333153 
" style="fill:none;stroke:#808080;stroke-width:3.0;"/>
    <path clip-path="url(#pa7542462e2)" d="M 368.320243 434.76577 
L 236.729515 483.763659 
" style="fill:none;stroke:#808080;"/>
    <path clip-path="url(#pa7542462e2)" d="M 368.320243 434.76577 
L 327.628861 497.828571 
" style="fill:none;stroke:#808080;"/>
    <path clip-path="url(#pa7542462e2)" d="M 368.320243 434.76577 
L 270.935424 414.753679 
" style="fill:none;stroke:#808080;stroke-width:2.0;"/>
    <path clip-path="url(#pa7542462e2)" d="M 368.320243 434.76577 
L 301.726466 419.124633 
" style="fill:none;stroke:#808080;stroke-width:2.0;"/>
    <path clip-path="url(#pa7542462e2)" d="M 368.320243 434.76577 
L 306.772182 314.003722 
" style="fill:none;stroke:#808080;"/>
    <path clip-path="url(#pa7542462e2)" d="M 368.320243 434.76577 
L 352.225352 388.644761 
" style="fill:none;stroke:#808080;stroke-width:2.0;"/>
    <path clip-path="url(#pa7542462e2)" d="M 368.320243 434.76577 
L 279.793389 324.794501 
" style="fill:none;stroke:#808080;"/>
    <path clip-path="url(#pa7542462e2)" d="M 368.320243 434.76577 
L 344.602988 404.333153 
" style="fill:none;stroke:#808080;stroke-width:2.0;"/>
    <path clip-path="url(#pa7542462e2)" d="M 368.320243 434.76577 
L 291.494509 399.066893 
" style="fill:none;stroke:#808080;stroke-width:2.0;"/>
    <path clip-path="url(#pa7542462e2)" d="M 368.320243 434.76577 
L 308.158707 454.654853 
" style="fill:none;stroke:#808080;stroke-width:2.0;"/>
    <path clip-path="url(#pa7542462e2)" d="M 72 389.485745 
L 279.793389 324.794501 
" style="fill:none;stroke:#808080;"/>
    <path clip-path="url(#pa7542462e2)" d="M 72 389.485745 
L 270.935424 414.753679 
" style="fill:none;stroke:#808080;"/>
    <path clip-path="url(#pa7542462e2)" d="M 72 389.485745 
L 161.960345 376.148977 
" style="fill:none;stroke:#808080;stroke-width:2.0;"/>
    <path clip-path="url(#pa7542462e2)" d="M 72 389.485745 
L 222.808544 373.34834 
" style="fill:none;stroke:#808080;"/>
    <path clip-path="url(#pa7542462e2)" d="M 222.808544 373.34834 
L 161.960345 376.148977 
" style="fill:none;stroke:#808080;stroke-width:3.0;"/>
    <path clip-path="url(#pa7542462e2)" d="M 222.808544 373.34834 
L 270.935424 414.753679 
" style="fill:none;stroke:#808080;stroke-width:5.0;"/>
    <path clip-path="url(#pa7542462e2)" d="M 222.808544 373.34834 
L 301.726466 419.124633 
" style="fill:none;stroke:#808080;stroke-width:7.0;"/>
    <path clip-path="url(#pa7542462e2)" d="M 222.808544 373.34834 
L 178.384397 284.313065 
" style="fill:none;stroke:#808080;stroke-width:2.0;"/>
    <path clip-path="url(#pa7542462e2)" d="M 222.808544 373.34834 
L 306.772182 314.003722 
" style="fill:none;stroke:#808080;stroke-width:3.0;"/>
    <path clip-path="url(#pa7542462e2)" d="M 222.808544 373.34834 
L 280.845961 258.540199 
" style="fill:none;stroke:#808080;"/>
    <path clip-path="url(#pa7542462e2)" d="M 222.808544 373.34834 
L 352.225352 388.644761 
" style="fill:none;stroke:#808080;"/>
    <path clip-path="url(#pa7542462e2)" d="M 222.808544 373.34834 
L 279.793389 324.794501 
" style="fill:none;stroke:#808080;"/>
    <path clip-path="url(#pa7542462e2)" d="M 222.808544 373.34834 
L 236.729515 483.763659 
" style="fill:none;stroke:#808080;"/>
    <path clip-path="url(#pa7542462e2)" d="M 222.808544 373.34834 
L 308.158707 454.654853 
" style="fill:none;stroke:#808080;"/>
    <path clip-path="url(#pa7542462e2)" d="M 222.808544 373.34834 
L 291.494509 399.066893 
" style="fill:none;stroke:#808080;stroke-width:3.0;"/>
    <path clip-path="url(#pa7542462e2)" d="M 222.808544 373.34834 
L 344.602988 404.333153 
" style="fill:none;stroke:#808080;"/>
    <path clip-path="url(#pa7542462e2)" d="M 280.845961 258.540199 
L 306.772182 314.003722 
" style="fill:none;stroke:#808080;stroke-width:5.0;"/>
    <path clip-path="url(#pa7542462e2)" d="M 280.845961 258.540199 
L 300.378002 187.406315 
" style="fill:none;stroke:#808080;"/>
    <path clip-path="url(#pa7542462e2)" d="M 280.845961 258.540199 
L 279.793389 324.794501 
" style="fill:none;stroke:#808080;"/>
    <path clip-path="url(#pa7542462e2)" d="M 280.845961 258.540199 
L 178.384397 284.313065 
" style="fill:none;stroke:#808080;stroke-width:2.0;"/>
    <path clip-path="url(#pa7542462e2)" d="M 280.845961 258.540199 
L 401.048498 106.971429 
" style="fill:none;stroke:#808080;"/>
    <path clip-path="url(#pa7542462e2)" d="M 344.602988 404.333153 
L 327.628861 497.828571 
" style="fill:none;stroke:#808080;"/>
    <path clip-path="url(#pa7542462e2)" d="M 344.602988 404.333153 
L 270.935424 414.753679 
" style="fill:none;stroke:#808080;stroke-width:8.0;"/>
    <path clip-path="url(#pa7542462e2)" d="M 344.602988 404.333153 
L 301.726466 419.124633 
" style="fill:none;stroke:#808080;stroke-width:9.0;"/>
    <path clip-path="url(#pa7542462e2)" d="M 344.602988 404.333153 
L 291.494509 399.066893 
" style="fill:none;stroke:#808080;stroke-width:5.0;"/>
    <path clip-path="url(#pa7542462e2)" d="M 344.602988 404.333153 
L 161.960345 376.148977 
" style="fill:none;stroke:#808080;"/>
    <path clip-path="url(#pa7542462e2)" d="M 344.602988 404.333153 
L 524.487153 254.131873 
" style="fill:none;stroke:#808080;"/>
    <path clip-path="url(#pa7542462e2)" d="M 344.602988 404.333153 
L 306.772182 314.003722 
" style="fill:none;stroke:#808080;"/>
    <path clip-path="url(#pa7542462e2)" d="M 344.602988 404.333153 
L 352.225352 388.644761 
" style="fill:none;stroke:#808080;stroke-width:9.0;"/>
    <path clip-path="url(#pa7542462e2)" d="M 344.602988 404.333153 
L 279.793389 324.794501 
" style="fill:none;stroke:#808080;"/>
    <path clip-path="url(#pa7542462e2)" d="M 344.602988 404.333153 
L 236.729515 483.763659 
" style="fill:none;stroke:#808080;"/>
    <path clip-path="url(#pa7542462e2)" d="M 344.602988 404.333153 
L 508.430577 480.80584 
" style="fill:none;stroke:#808080;"/>
    <path clip-path="url(#pa7542462e2)" d="M 344.602988 404.333153 
L 308.158707 454.654853 
" style="fill:none;stroke:#808080;stroke-width:2.0;"/>
    <path clip-path="url(#pa7542462e2)" d="M 236.729515 483.763659 
L 327.628861 497.828571 
" style="fill:none;stroke:#808080;"/>
    <path clip-path="url(#pa7542462e2)" d="M 236.729515 483.763659 
L 270.935424 414.753679 
" style="fill:none;stroke:#808080;"/>
    <path clip-path="url(#pa7542462e2)" d="M 236.729515 483.763659 
L 301.726466 419.124633 
" style="fill:none;stroke:#808080;stroke-width:2.0;"/>
    <path clip-path="url(#pa7542462e2)" d="M 236.729515 483.763659 
L 352.225352 388.644761 
" style="fill:none;stroke:#808080;"/>
    <path clip-path="url(#pa7542462e2)" d="M 236.729515 483.763659 
L 291.494509 399.066893 
" style="fill:none;stroke:#808080;stroke-width:2.0;"/>
    <path clip-path="url(#pa7542462e2)" d="M 236.729515 483.763659 
L 308.158707 454.654853 
" style="fill:none;stroke:#808080;stroke-width:2.0;"/>
    <path clip-path="url(#pa7542462e2)" d="M 300.378002 187.406315 
L 306.772182 314.003722 
" style="fill:none;stroke:#808080;"/>
    <path clip-path="url(#pa7542462e2)" d="M 300.378002 187.406315 
L 279.793389 324.794501 
" style="fill:none;stroke:#808080;"/>
    <path clip-path="url(#pa7542462e2)" d="M 300.378002 187.406315 
L 401.048498 106.971429 
" style="fill:none;stroke:#808080;stroke-width:2.0;"/>
    <path clip-path="url(#pa7542462e2)" d="M 327.628861 497.828571 
L 270.935424 414.753679 
" style="fill:none;stroke:#808080;"/>
    <path clip-path="url(#pa7542462e2)" d="M 327.628861 497.828571 
L 301.726466 419.124633 
" style="fill:none;stroke:#808080;"/>
    <path clip-path="url(#pa7542462e2)" d="M 327.628861 497.828571 
L 352.225352 388.644761 
" style="fill:none;stroke:#808080;"/>
    <path clip-path="url(#pa7542462e2)" d="M 327.628861 497.828571 
L 308.158707 454.654853 
" style="fill:none;stroke:#808080;"/>
    <path clip-path="url(#pa7542462e2)" d="M 327.628861 497.828571 
L 291.494509 399.066893 
" style="fill:none;stroke:#808080;"/>
    <path clip-path="url(#pa7542462e2)" d="M 524.487153 254.131873 
L 401.048498 106.971429 
" style="fill:none;stroke:#808080;"/>
    <path clip-path="url(#pa7542462e2)" d="M 524.487153 254.131873 
L 352.225352 388.644761 
" style="fill:none;stroke:#808080;"/>
    <path clip-path="url(#pa7542462e2)" d="M 301.726466 419.124633 
L 270.935424 414.753679 
" style="fill:none;stroke:#808080;stroke-width:13.0;"/>
    <path clip-path="url(#pa7542462e2)" d="M 301.726466 419.124633 
L 508.430577 480.80584 
" style="fill:none;stroke:#808080;"/>
    <path clip-path="url(#pa7542462e2)" d="M 301.726466 419.124633 
L 161.960345 376.148977 
" style="fill:none;stroke:#808080;"/>
    <path clip-path="url(#pa7542462e2)" d="M 301.726466 419.124633 
L 306.772182 314.003722 
" style="fill:none;stroke:#808080;"/>
    <path clip-path="url(#pa7542462e2)" d="M 301.726466 419.124633 
L 352.225352 388.644761 
" style="fill:none;stroke:#808080;stroke-width:6.0;"/>
    <path clip-path="url(#pa7542462e2)" d="M 301.726466 419.124633 
L 279.793389 324.794501 
" style="fill:none;stroke:#808080;"/>
    <path clip-path="url(#pa7542462e2)" d="M 301.726466 419.124633 
L 308.158707 454.654853 
" style="fill:none;stroke:#808080;stroke-width:3.0;"/>
    <path clip-path="url(#pa7542462e2)" d="M 301.726466 419.124633 
L 291.494509 399.066893 
" style="fill:none;stroke:#808080;stroke-width:8.0;"/>
    <path clip-path="url(#pa7542462e2)" d="M 291.494509 399.066893 
L 270.935424 414.753679 
" style="fill:none;stroke:#808080;stroke-width:7.0;"/>
    <path clip-path="url(#pa7542462e2)" d="M 291.494509 399.066893 
L 161.960345 376.148977 
" style="fill:none;stroke:#808080;"/>
    <path clip-path="url(#pa7542462e2)" d="M 291.494509 399.066893 
L 306.772182 314.003722 
" style="fill:none;stroke:#808080;"/>
    <path clip-path="url(#pa7542462e2)" d="M 291.494509 399.066893 
L 352.225352 388.644761 
" style="fill:none;stroke:#808080;stroke-width:3.0;"/>
    <path clip-path="url(#pa7542462e2)" d="M 291.494509 399.066893 
L 279.793389 324.794501 
" style="fill:none;stroke:#808080;"/>
    <path clip-path="url(#pa7542462e2)" d="M 291.494509 399.066893 
L 308.158707 454.654853 
" style="fill:none;stroke:#808080;stroke-width:3.0;"/>
    <path clip-path="url(#pa7542462e2)" d="M 401.048498 106.971429 
L 306.772182 314.003722 
" style="fill:none;stroke:#808080;"/>
    <path clip-path="url(#pa7542462e2)" d="M 401.048498 106.971429 
L 279.793389 324.794501 
" style="fill:none;stroke:#808080;"/>
    <path clip-path="url(#pa7542462e2)" d="M 270.935424 414.753679 
L 508.430577 480.80584 
" style="fill:none;stroke:#808080;"/>
    <path clip-path="url(#pa7542462e2)" d="M 270.935424 414.753679 
L 306.772182 314.003722 
" style="fill:none;stroke:#808080;"/>
    <path clip-path="url(#pa7542462e2)" d="M 270.935424 414.753679 
L 352.225352 388.644761 
" style="fill:none;stroke:#808080;stroke-width:6.0;"/>
    <path clip-path="url(#pa7542462e2)" d="M 270.935424 414.753679 
L 279.793389 324.794501 
" style="fill:none;stroke:#808080;stroke-width:2.0;"/>
    <path clip-path="url(#pa7542462e2)" d="M 270.935424 414.753679 
L 161.960345 376.148977 
" style="fill:none;stroke:#808080;stroke-width:2.0;"/>
    <path clip-path="url(#pa7542462e2)" d="M 270.935424 414.753679 
L 308.158707 454.654853 
" style="fill:none;stroke:#808080;stroke-width:2.0;"/>
    <path clip-path="url(#pa7542462e2)" d="M 178.384397 284.313065 
L 306.772182 314.003722 
" style="fill:none;stroke:#808080;stroke-width:3.0;"/>
    <path clip-path="url(#pa7542462e2)" d="M 306.772182 314.003722 
L 352.225352 388.644761 
" style="fill:none;stroke:#808080;"/>
    <path clip-path="url(#pa7542462e2)" d="M 306.772182 314.003722 
L 279.793389 324.794501 
" style="fill:none;stroke:#808080;stroke-width:2.0;"/>
    <path clip-path="url(#pa7542462e2)" d="M 306.772182 314.003722 
L 161.960345 376.148977 
" style="fill:none;stroke:#808080;"/>
    <path clip-path="url(#pa7542462e2)" d="M 306.772182 314.003722 
L 308.158707 454.654853 
" style="fill:none;stroke:#808080;"/>
    <path clip-path="url(#pa7542462e2)" d="M 352.225352 388.644761 
L 508.430577 480.80584 
" style="fill:none;stroke:#808080;"/>
    <path clip-path="url(#pa7542462e2)" d="M 352.225352 388.644761 
L 161.960345 376.148977 
" style="fill:none;stroke:#808080;"/>
    <path clip-path="url(#pa7542462e2)" d="M 352.225352 388.644761 
L 279.793389 324.794501 
" style="fill:none;stroke:#808080;"/>
    <path clip-path="url(#pa7542462e2)" d="M 352.225352 388.644761 
L 308.158707 454.654853 
" style="fill:none;stroke:#808080;stroke-width:2.0;"/>
    <path clip-path="url(#pa7542462e2)" d="M 279.793389 324.794501 
L 161.960345 376.148977 
" style="fill:none;stroke:#808080;"/>
    <path clip-path="url(#pa7542462e2)" d="M 279.793389 324.794501 
L 308.158707 454.654853 
" style="fill:none;stroke:#808080;"/>
   </g>
   <g id="PathCollection_1">
    <path clip-path="url(#pa7542462e2)" d="M 273.247521 363.700407 
C 275.258524 363.700407 277.187431 362.901428 278.609424 361.479435 
C 280.031417 360.057441 280.830397 358.128534 280.830397 356.117532 
C 280.830397 354.10653 280.031417 352.177623 278.609424 350.755629 
C 277.187431 349.333636 275.258524 348.534657 273.247521 348.534657 
C 271.236519 348.534657 269.307612 349.333636 267.885619 350.755629 
C 266.463626 352.177623 265.664646 354.10653 265.664646 356.117532 
C 265.664646 358.128534 266.463626 360.057441 267.885619 361.479435 
C 269.307612 362.901428 271.236519 363.700407 273.247521 363.700407 
z
" style="fill:#4682b4;fill-opacity:0.8;stroke:#000000;stroke-opacity:0.8;"/>
    <path clip-path="url(#pa7542462e2)" d="M 373.220157 202.634592 
C 374.247284 202.634592 375.232481 202.22651 375.958769 201.500221 
C 376.685058 200.773933 377.09314 199.788736 377.09314 198.761609 
C 377.09314 197.734481 376.685058 196.749284 375.958769 196.022996 
C 375.232481 195.296707 374.247284 194.888625 373.220157 194.888625 
C 372.193029 194.888625 371.207832 195.296707 370.481544 196.022996 
C 369.755255 196.749284 369.347173 197.734481 369.347173 198.761609 
C 369.347173 199.788736 369.755255 200.773933 370.481544 201.500221 
C 371.207832 202.22651 372.193029 202.634592 373.220157 202.634592 
z
" style="fill:#4682b4;fill-opacity:0.8;stroke:#000000;stroke-opacity:0.8;"/>
    <path clip-path="url(#pa7542462e2)" d="M 211.5263 416.614277 
C 213.305336 416.614277 215.011748 415.907459 216.269716 414.64949 
C 217.527685 413.391521 218.234504 411.68511 218.234504 409.906073 
C 218.234504 408.127037 217.527685 406.420626 216.269716 405.162657 
C 215.011748 403.904688 213.305336 403.19787 211.5263 403.19787 
C 209.747263 403.19787 208.040852 403.904688 206.782883 405.162657 
C 205.524915 406.420626 204.818096 408.127037 204.818096 409.906073 
C 204.818096 411.68511 205.524915 413.391521 206.782883 414.64949 
C 208.040852 415.907459 209.747263 416.614277 211.5263 416.614277 
z
" style="fill:#4682b4;fill-opacity:0.8;stroke:#000000;stroke-opacity:0.8;"/>
    <path clip-path="url(#pa7542462e2)" d="M 248.44309 456.104034 
C 250.012053 456.104034 251.516966 455.480679 252.62639 454.371255 
C 253.735814 453.26183 254.35917 451.756917 254.35917 450.187955 
C 254.35917 448.618992 253.735814 447.114079 252.62639 446.004654 
C 251.516966 444.89523 250.012053 444.271875 248.44309 444.271875 
C 246.874127 444.271875 245.369214 444.89523 244.25979 446.004654 
C 243.150366 447.114079 242.52701 448.618992 242.52701 450.187955 
C 242.52701 451.756917 243.150366 453.26183 244.25979 454.371255 
C 245.369214 455.480679 246.874127 456.104034 248.44309 456.104034 
z
" style="fill:#4682b4;fill-opacity:0.8;stroke:#000000;stroke-opacity:0.8;"/>
    <path clip-path="url(#pa7542462e2)" d="M 240.653526 411.762833 
C 242.432563 411.762833 244.138974 411.056014 245.396943 409.798045 
C 246.654912 408.540076 247.36173 406.833665 247.36173 405.054629 
C 247.36173 403.275592 246.654912 401.569181 245.396943 400.311212 
C 244.138974 399.053243 242.432563 398.346425 240.653526 398.346425 
C 238.87449 398.346425 237.168079 399.053243 235.91011 400.311212 
C 234.652141 401.569181 233.945323 403.275592 233.945323 405.054629 
C 233.945323 406.833665 234.652141 408.540076 235.91011 409.798045 
C 237.168079 411.056014 238.87449 411.762833 240.653526 411.762833 
z
" style="fill:#4682b4;fill-opacity:0.8;stroke:#000000;stroke-opacity:0.8;"/>
    <path clip-path="url(#pa7542462e2)" d="M 241.425969 343.78136 
C 242.937859 343.78136 244.38803 343.180679 245.457098 342.111611 
C 246.526166 341.042544 247.126846 339.592373 247.126846 338.080483 
C 247.126846 336.568592 246.526166 335.118422 245.457098 334.049354 
C 244.38803 332.980286 242.937859 332.379605 241.425969 332.379605 
C 239.914079 332.379605 238.463908 332.980286 237.39484 334.049354 
C 236.325772 335.118422 235.725092 336.568592 235.725092 338.080483 
C 235.725092 339.592373 236.325772 341.042544 237.39484 342.111611 
C 238.463908 343.180679 239.914079 343.78136 241.425969 343.78136 
z
" style="fill:#4682b4;fill-opacity:0.8;stroke:#000000;stroke-opacity:0.8;"/>
    <path clip-path="url(#pa7542462e2)" d="M 368.320243 440.68185 
C 369.889206 440.68185 371.394119 440.058494 372.503543 438.94907 
C 373.612968 437.839646 374.236323 436.334732 374.236323 434.76577 
C 374.236323 433.196807 373.612968 431.691894 372.503543 430.58247 
C 371.394119 429.473045 369.889206 428.84969 368.320243 428.84969 
C 366.751281 428.84969 365.246367 429.473045 364.136943 430.58247 
C 363.027519 431.691894 362.404164 433.196807 362.404164 434.76577 
C 362.404164 436.334732 363.027519 437.839646 364.136943 438.94907 
C 365.246367 440.058494 366.751281 440.68185 368.320243 440.68185 
z
" style="fill:#4682b4;fill-opacity:0.8;stroke:#000000;stroke-opacity:0.8;"/>
    <path clip-path="url(#pa7542462e2)" d="M 72 393.669045 
C 73.109424 393.669045 74.173559 393.228266 74.95804 392.443785 
C 75.742521 391.659303 76.1833 390.595169 76.1833 389.485745 
C 76.1833 388.376321 75.742521 387.312186 74.95804 386.527705 
C 74.173559 385.743224 73.109424 385.302445 72 385.302445 
C 70.890576 385.302445 69.826441 385.743224 69.04196 386.527705 
C 68.257479 387.312186 67.8167 388.376321 67.8167 389.485745 
C 67.8167 390.595169 68.257479 391.659303 69.04196 392.443785 
C 69.826441 393.228266 70.890576 393.669045 72 393.669045 
z
" style="fill:#4682b4;fill-opacity:0.8;stroke:#000000;stroke-opacity:0.8;"/>
    <path clip-path="url(#pa7542462e2)" d="M 222.808544 379.867542 
C 224.537456 379.867542 226.19579 379.180638 227.418316 377.958112 
C 228.640842 376.735586 229.327746 375.077253 229.327746 373.34834 
C 229.327746 371.619427 228.640842 369.961094 227.418316 368.738568 
C 226.19579 367.516042 224.537456 366.829138 222.808544 366.829138 
C 221.079631 366.829138 219.421297 367.516042 218.198772 368.738568 
C 216.976246 369.961094 216.289341 371.619427 216.289341 373.34834 
C 216.289341 375.077253 216.976246 376.735586 218.198772 377.958112 
C 219.421297 379.180638 221.079631 379.867542 222.808544 379.867542 
z
" style="fill:#4682b4;fill-opacity:0.8;stroke:#000000;stroke-opacity:0.8;"/>
    <path clip-path="url(#pa7542462e2)" d="M 280.845961 263.283616 
C 282.10393 263.283616 283.310545 262.783819 284.200063 261.894301 
C 285.089581 261.004783 285.589377 259.798168 285.589377 258.540199 
C 285.589377 257.28223 285.089581 256.075615 284.200063 255.186097 
C 283.310545 254.296579 282.10393 253.796783 280.845961 253.796783 
C 279.587992 253.796783 278.381377 254.296579 277.491859 255.186097 
C 276.602341 256.075615 276.102544 257.28223 276.102544 258.540199 
C 276.102544 259.798168 276.602341 261.004783 277.491859 261.894301 
C 278.381377 262.783819 279.587992 263.283616 280.845961 263.283616 
z
" style="fill:#4682b4;fill-opacity:0.8;stroke:#000000;stroke-opacity:0.8;"/>
    <path clip-path="url(#pa7542462e2)" d="M 344.602988 411.225177 
C 346.430775 411.225177 348.183946 410.49899 349.476386 409.20655 
C 350.768826 407.91411 351.495013 406.160939 351.495013 404.333153 
C 351.495013 402.505367 350.768826 400.752196 349.476386 399.459756 
C 348.183946 398.167316 346.430775 397.441128 344.602988 397.441128 
C 342.775202 397.441128 341.022031 398.167316 339.729591 399.459756 
C 338.437151 400.752196 337.710964 402.505367 337.710964 404.333153 
C 337.710964 406.160939 338.437151 407.91411 339.729591 409.20655 
C 341.022031 410.49899 342.775202 411.225177 344.602988 411.225177 
z
" style="fill:#4682b4;fill-opacity:0.8;stroke:#000000;stroke-opacity:0.8;"/>
    <path clip-path="url(#pa7542462e2)" d="M 236.729515 489.464536 
C 238.241405 489.464536 239.691576 488.863856 240.760643 487.794788 
C 241.829711 486.72572 242.430392 485.275549 242.430392 483.763659 
C 242.430392 482.251769 241.829711 480.801598 240.760643 479.73253 
C 239.691576 478.663462 238.241405 478.062782 236.729515 478.062782 
C 235.217624 478.062782 233.767454 478.663462 232.698386 479.73253 
C 231.629318 480.801598 231.028637 482.251769 231.028637 483.763659 
C 231.028637 485.275549 231.629318 486.72572 232.698386 487.794788 
C 233.767454 488.863856 235.217624 489.464536 236.729515 489.464536 
z
" style="fill:#4682b4;fill-opacity:0.8;stroke:#000000;stroke-opacity:0.8;"/>
    <path clip-path="url(#pa7542462e2)" d="M 300.378002 191.279298 
C 301.405129 191.279298 302.390326 190.871216 303.116614 190.144927 
C 303.842903 189.418639 304.250985 188.433442 304.250985 187.406315 
C 304.250985 186.379187 303.842903 185.39399 303.116614 184.667702 
C 302.390326 183.941413 301.405129 183.533331 300.378002 183.533331 
C 299.350874 183.533331 298.365677 183.941413 297.639389 184.667702 
C 296.9131 185.39399 296.505018 186.379187 296.505018 187.406315 
C 296.505018 188.433442 296.9131 189.418639 297.639389 190.144927 
C 298.365677 190.871216 299.350874 191.279298 300.378002 191.279298 
z
" style="fill:#4682b4;fill-opacity:0.8;stroke:#000000;stroke-opacity:0.8;"/>
    <path clip-path="url(#pa7542462e2)" d="M 327.628861 503.305797 
C 329.081438 503.305797 330.474717 502.728682 331.501844 501.701555 
C 332.528971 500.674428 333.106086 499.281149 333.106086 497.828571 
C 333.106086 496.375994 332.528971 494.982715 331.501844 493.955588 
C 330.474717 492.928461 329.081438 492.351346 327.628861 492.351346 
C 326.176283 492.351346 324.783004 492.928461 323.755877 493.955588 
C 322.72875 494.982715 322.151635 496.375994 322.151635 497.828571 
C 322.151635 499.281149 322.72875 500.674428 323.755877 501.701555 
C 324.783004 502.728682 326.176283 503.305797 327.628861 503.305797 
z
" style="fill:#4682b4;fill-opacity:0.8;stroke:#000000;stroke-opacity:0.8;"/>
    <path clip-path="url(#pa7542462e2)" d="M 524.487153 257.667407 
C 525.424788 257.667407 526.324146 257.294881 526.987153 256.631873 
C 527.650161 255.968865 528.022687 255.069508 528.022687 254.131873 
C 528.022687 253.194239 527.650161 252.294881 526.987153 251.631873 
C 526.324146 250.968865 525.424788 250.596339 524.487153 250.596339 
C 523.549519 250.596339 522.650161 250.968865 521.987153 251.631873 
C 521.324146 252.294881 520.951619 253.194239 520.951619 254.131873 
C 520.951619 255.069508 521.324146 255.968865 521.987153 256.631873 
C 522.650161 257.294881 523.549519 257.667407 524.487153 257.667407 
z
" style="fill:#4682b4;fill-opacity:0.8;stroke:#000000;stroke-opacity:0.8;"/>
    <path clip-path="url(#pa7542462e2)" d="M 301.726466 425.832837 
C 303.505502 425.832837 305.211914 425.126018 306.469882 423.86805 
C 307.727851 422.610081 308.43467 420.90367 308.43467 419.124633 
C 308.43467 417.345597 307.727851 415.639185 306.469882 414.381217 
C 305.211914 413.123248 303.505502 412.416429 301.726466 412.416429 
C 299.947429 412.416429 298.241018 413.123248 296.983049 414.381217 
C 295.725081 415.639185 295.018262 417.345597 295.018262 419.124633 
C 295.018262 420.90367 295.725081 422.610081 296.983049 423.86805 
C 298.241018 425.126018 299.947429 425.832837 301.726466 425.832837 
z
" style="fill:#4682b4;fill-opacity:0.8;stroke:#000000;stroke-opacity:0.8;"/>
    <path clip-path="url(#pa7542462e2)" d="M 291.494509 402.229171 
C 292.333155 402.229171 293.137565 401.895973 293.730577 401.302961 
C 294.323589 400.709949 294.656787 399.905539 294.656787 399.066893 
C 294.656787 398.228247 294.323589 397.423837 293.730577 396.830825 
C 293.137565 396.237813 292.333155 395.904615 291.494509 395.904615 
C 290.655863 395.904615 289.851453 396.237813 289.258441 396.830825 
C 288.665429 397.423837 288.332232 398.228247 288.332232 399.066893 
C 288.332232 399.905539 288.665429 400.709949 289.258441 401.302961 
C 289.851453 401.895973 290.655863 402.229171 291.494509 402.229171 
z
" style="fill:#4682b4;fill-opacity:0.8;stroke:#000000;stroke-opacity:0.8;"/>
    <path clip-path="url(#pa7542462e2)" d="M 401.048498 111.154729 
C 402.157922 111.154729 403.222057 110.71395 404.006538 109.929468 
C 404.791019 109.144987 405.231798 108.080853 405.231798 106.971429 
C 405.231798 105.862004 404.791019 104.79787 404.006538 104.013389 
C 403.222057 103.228907 402.157922 102.788128 401.048498 102.788128 
C 399.939074 102.788128 398.87494 103.228907 398.090458 104.013389 
C 397.305977 104.79787 396.865198 105.862004 396.865198 106.971429 
C 396.865198 108.080853 397.305977 109.144987 398.090458 109.929468 
C 398.87494 110.71395 399.939074 111.154729 401.048498 111.154729 
z
" style="fill:#4682b4;fill-opacity:0.8;stroke:#000000;stroke-opacity:0.8;"/>
    <path clip-path="url(#pa7542462e2)" d="M 270.935424 421.645703 
C 272.76321 421.645703 274.516381 420.919516 275.808821 419.627076 
C 277.101261 418.334636 277.827448 416.581465 277.827448 414.753679 
C 277.827448 412.925893 277.101261 411.172722 275.808821 409.880282 
C 274.516381 408.587842 272.76321 407.861654 270.935424 407.861654 
C 269.107638 407.861654 267.354467 408.587842 266.062027 409.880282 
C 264.769587 411.172722 264.0434 412.925893 264.0434 414.753679 
C 264.0434 416.581465 264.769587 418.334636 266.062027 419.627076 
C 267.354467 420.919516 269.107638 421.645703 270.935424 421.645703 
z
" style="fill:#4682b4;fill-opacity:0.8;stroke:#000000;stroke-opacity:0.8;"/>
    <path clip-path="url(#pa7542462e2)" d="M 178.384397 287.051677 
C 179.110686 287.051677 179.807325 286.76312 180.320889 286.249556 
C 180.834453 285.735993 181.12301 285.039353 181.12301 284.313065 
C 181.12301 283.586776 180.834453 282.890136 180.320889 282.376573 
C 179.807325 281.863009 179.110686 281.574452 178.384397 281.574452 
C 177.658109 281.574452 176.961469 281.863009 176.447906 282.376573 
C 175.934342 282.890136 175.645785 283.586776 175.645785 284.313065 
C 175.645785 285.039353 175.934342 285.735993 176.447906 286.249556 
C 176.961469 286.76312 177.658109 287.051677 178.384397 287.051677 
z
" style="fill:#4682b4;fill-opacity:0.8;stroke:#000000;stroke-opacity:0.8;"/>
    <path clip-path="url(#pa7542462e2)" d="M 306.772182 321.07479 
C 308.647452 321.07479 310.446167 320.329737 311.772182 319.003722 
C 313.098198 317.677706 313.84325 315.878991 313.84325 314.003722 
C 313.84325 312.128453 313.098198 310.329737 311.772182 309.003722 
C 310.446167 307.677706 308.647452 306.932654 306.772182 306.932654 
C 304.896913 306.932654 303.098198 307.677706 301.772182 309.003722 
C 300.446167 310.329737 299.701115 312.128453 299.701115 314.003722 
C 299.701115 315.878991 300.446167 317.677706 301.772182 319.003722 
C 303.098198 320.329737 304.896913 321.07479 306.772182 321.07479 
z
" style="fill:#4682b4;fill-opacity:0.8;stroke:#000000;stroke-opacity:0.8;"/>
    <path clip-path="url(#pa7542462e2)" d="M 352.225352 395.536785 
C 354.053138 395.536785 355.806309 394.810598 357.098749 393.518158 
C 358.391189 392.225718 359.117376 390.472547 359.117376 388.644761 
C 359.117376 386.816975 358.391189 385.063804 357.098749 383.771364 
C 355.806309 382.478924 354.053138 381.752736 352.225352 381.752736 
C 350.397566 381.752736 348.644395 382.478924 347.351955 383.771364 
C 346.059515 385.063804 345.333328 386.816975 345.333328 388.644761 
C 345.333328 390.472547 346.059515 392.225718 347.351955 393.518158 
C 348.644395 394.810598 350.397566 395.536785 352.225352 395.536785 
z
" style="fill:#4682b4;fill-opacity:0.8;stroke:#000000;stroke-opacity:0.8;"/>
    <path clip-path="url(#pa7542462e2)" d="M 279.793389 331.686525 
C 281.621175 331.686525 283.374346 330.960338 284.666786 329.667898 
C 285.959226 328.375458 286.685414 326.622287 286.685414 324.794501 
C 286.685414 322.966715 285.959226 321.213544 284.666786 319.921104 
C 283.374346 318.628664 281.621175 317.902477 279.793389 317.902477 
C 277.965603 317.902477 276.212432 318.628664 274.919992 319.921104 
C 273.627552 321.213544 272.901365 322.966715 272.901365 324.794501 
C 272.901365 326.622287 273.627552 328.375458 274.919992 329.667898 
C 276.212432 330.960338 277.965603 331.686525 279.793389 331.686525 
z
" style="fill:#4682b4;fill-opacity:0.8;stroke:#000000;stroke-opacity:0.8;"/>
    <path clip-path="url(#pa7542462e2)" d="M 161.960345 381.849854 
C 163.472235 381.849854 164.922406 381.249174 165.991473 380.180106 
C 167.060541 379.111038 167.661222 377.660868 167.661222 376.148977 
C 167.661222 374.637087 167.060541 373.186916 165.991473 372.117848 
C 164.922406 371.048781 163.472235 370.4481 161.960345 370.4481 
C 160.448454 370.4481 158.998284 371.048781 157.929216 372.117848 
C 156.860148 373.186916 156.259467 374.637087 156.259467 376.148977 
C 156.259467 377.660868 156.860148 379.111038 157.929216 380.180106 
C 158.998284 381.249174 160.448454 381.849854 161.960345 381.849854 
z
" style="fill:#4682b4;fill-opacity:0.8;stroke:#000000;stroke-opacity:0.8;"/>
    <path clip-path="url(#pa7542462e2)" d="M 308.158707 460.778577 
C 309.782738 460.778577 311.340471 460.133343 312.488834 458.98498 
C 313.637197 457.836616 314.282431 456.278883 314.282431 454.654853 
C 314.282431 453.030822 313.637197 451.473089 312.488834 450.324726 
C 311.340471 449.176362 309.782738 448.531128 308.158707 448.531128 
C 306.534676 448.531128 304.976943 449.176362 303.82858 450.324726 
C 302.680217 451.473089 302.034983 453.030822 302.034983 454.654853 
C 302.034983 456.278883 302.680217 457.836616 303.82858 458.98498 
C 304.976943 460.133343 306.534676 460.778577 308.158707 460.778577 
z
" style="fill:#4682b4;fill-opacity:0.8;stroke:#000000;stroke-opacity:0.8;"/>
    <path clip-path="url(#pa7542462e2)" d="M 508.430577 487.325042 
C 510.15949 487.325042 511.817824 486.638138 513.040349 485.415612 
C 514.262875 484.193086 514.94978 482.534752 514.94978 480.80584 
C 514.94978 479.076927 514.262875 477.418593 513.040349 476.196067 
C 511.817824 474.973541 510.15949 474.286637 508.430577 474.286637 
C 506.701665 474.286637 505.043331 474.973541 503.820805 476.196067 
C 502.598279 477.418593 501.911375 479.076927 501.911375 480.80584 
C 501.911375 482.534752 502.598279 484.193086 503.820805 485.415612 
C 505.043331 486.638138 506.701665 487.325042 508.430577 487.325042 
z
" style="fill:#4682b4;fill-opacity:0.8;stroke:#000000;stroke-opacity:0.8;"/>
   </g>
   <g id="patch_3">
    <path d="M 0 576 
L 576 576 
" style="fill:none;stroke:#000000;stroke-linecap:square;stroke-linejoin:miter;"/>
   </g>
   <g id="patch_4">
    <path d="M 0 576 
L 0 28.8 
" style="fill:none;stroke:#000000;stroke-linecap:square;stroke-linejoin:miter;"/>
   </g>
   <g id="patch_5">
    <path d="M 0 28.8 
L 576 28.8 
" style="fill:none;stroke:#000000;stroke-linecap:square;stroke-linejoin:miter;"/>
   </g>
   <g id="patch_6">
    <path d="M 576 576 
L 576 28.8 
" style="fill:none;stroke:#000000;stroke-linecap:square;stroke-linejoin:miter;"/>
   </g>
   <g id="matplotlib.axis_1">
    <g id="xtick_1">
     <g id="line2d_1">
      <defs>
       <path d="M 0 0 
L 0 -4 
" id="me4cecc46ac" style="stroke:#000000;stroke-width:0.5;"/>
      </defs>
      <g>
       <use style="stroke:#000000;stroke-width:0.5;" x="0.0" xlink:href="#me4cecc46ac" y="576.0"/>
      </g>
     </g>
     <g id="line2d_2">
      <defs>
       <path d="M 0 0 
L 0 4 
" id="me40d977af0" style="stroke:#000000;stroke-width:0.5;"/>
      </defs>
      <g>
       <use style="stroke:#000000;stroke-width:0.5;" x="0.0" xlink:href="#me40d977af0" y="28.8"/>
      </g>
     </g>
     <g id="text_1">
      <!-- −0.1 -->
      <defs>
       <path d="M 10.59375 35.5 
L 73.1875 35.5 
L 73.1875 27.203125 
L 10.59375 27.203125 
z
" id="BitstreamVeraSans-Roman-2212"/>
       <path d="M 10.6875 12.40625 
L 21 12.40625 
L 21 0 
L 10.6875 0 
z
" id="BitstreamVeraSans-Roman-2e"/>
       <path d="M 31.78125 66.40625 
Q 24.171875 66.40625 20.328125 58.90625 
Q 16.5 51.421875 16.5 36.375 
Q 16.5 21.390625 20.328125 13.890625 
Q 24.171875 6.390625 31.78125 6.390625 
Q 39.453125 6.390625 43.28125 13.890625 
Q 47.125 21.390625 47.125 36.375 
Q 47.125 51.421875 43.28125 58.90625 
Q 39.453125 66.40625 31.78125 66.40625 
M 31.78125 74.21875 
Q 44.046875 74.21875 50.515625 64.515625 
Q 56.984375 54.828125 56.984375 36.375 
Q 56.984375 17.96875 50.515625 8.265625 
Q 44.046875 -1.421875 31.78125 -1.421875 
Q 19.53125 -1.421875 13.0625 8.265625 
Q 6.59375 17.96875 6.59375 36.375 
Q 6.59375 54.828125 13.0625 64.515625 
Q 19.53125 74.21875 31.78125 74.21875 
" id="BitstreamVeraSans-Roman-30"/>
       <path d="M 12.40625 8.296875 
L 28.515625 8.296875 
L 28.515625 63.921875 
L 10.984375 60.40625 
L 10.984375 69.390625 
L 28.421875 72.90625 
L 38.28125 72.90625 
L 38.28125 8.296875 
L 54.390625 8.296875 
L 54.390625 0 
L 12.40625 0 
z
" id="BitstreamVeraSans-Roman-31"/>
      </defs>
      <g transform="translate(-14.5696875 589.118125)scale(0.12 -0.12)">
       <use xlink:href="#BitstreamVeraSans-Roman-2212"/>
       <use x="83.7890625" xlink:href="#BitstreamVeraSans-Roman-30"/>
       <use x="147.412109375" xlink:href="#BitstreamVeraSans-Roman-2e"/>
       <use x="179.19921875" xlink:href="#BitstreamVeraSans-Roman-31"/>
      </g>
     </g>
    </g>
    <g id="xtick_2">
     <g id="line2d_3">
      <g>
       <use style="stroke:#000000;stroke-width:0.5;" x="72.0" xlink:href="#me4cecc46ac" y="576.0"/>
      </g>
     </g>
     <g id="line2d_4">
      <g>
       <use style="stroke:#000000;stroke-width:0.5;" x="72.0" xlink:href="#me40d977af0" y="28.8"/>
      </g>
     </g>
     <g id="text_2">
      <!-- 0.0 -->
      <g transform="translate(62.458125 589.118125)scale(0.12 -0.12)">
       <use xlink:href="#BitstreamVeraSans-Roman-30"/>
       <use x="63.623046875" xlink:href="#BitstreamVeraSans-Roman-2e"/>
       <use x="95.41015625" xlink:href="#BitstreamVeraSans-Roman-30"/>
      </g>
     </g>
    </g>
    <g id="xtick_3">
     <g id="line2d_5">
      <g>
       <use style="stroke:#000000;stroke-width:0.5;" x="144.0" xlink:href="#me4cecc46ac" y="576.0"/>
      </g>
     </g>
     <g id="line2d_6">
      <g>
       <use style="stroke:#000000;stroke-width:0.5;" x="144.0" xlink:href="#me40d977af0" y="28.8"/>
      </g>
     </g>
     <g id="text_3">
      <!-- 0.1 -->
      <g transform="translate(134.458125 589.118125)scale(0.12 -0.12)">
       <use xlink:href="#BitstreamVeraSans-Roman-30"/>
       <use x="63.623046875" xlink:href="#BitstreamVeraSans-Roman-2e"/>
       <use x="95.41015625" xlink:href="#BitstreamVeraSans-Roman-31"/>
      </g>
     </g>
    </g>
    <g id="xtick_4">
     <g id="line2d_7">
      <g>
       <use style="stroke:#000000;stroke-width:0.5;" x="216.0" xlink:href="#me4cecc46ac" y="576.0"/>
      </g>
     </g>
     <g id="line2d_8">
      <g>
       <use style="stroke:#000000;stroke-width:0.5;" x="216.0" xlink:href="#me40d977af0" y="28.8"/>
      </g>
     </g>
     <g id="text_4">
      <!-- 0.2 -->
      <defs>
       <path d="M 19.1875 8.296875 
L 53.609375 8.296875 
L 53.609375 0 
L 7.328125 0 
L 7.328125 8.296875 
Q 12.9375 14.109375 22.625 23.890625 
Q 32.328125 33.6875 34.8125 36.53125 
Q 39.546875 41.84375 41.421875 45.53125 
Q 43.3125 49.21875 43.3125 52.78125 
Q 43.3125 58.59375 39.234375 62.25 
Q 35.15625 65.921875 28.609375 65.921875 
Q 23.96875 65.921875 18.8125 64.3125 
Q 13.671875 62.703125 7.8125 59.421875 
L 7.8125 69.390625 
Q 13.765625 71.78125 18.9375 73 
Q 24.125 74.21875 28.421875 74.21875 
Q 39.75 74.21875 46.484375 68.546875 
Q 53.21875 62.890625 53.21875 53.421875 
Q 53.21875 48.921875 51.53125 44.890625 
Q 49.859375 40.875 45.40625 35.40625 
Q 44.1875 33.984375 37.640625 27.21875 
Q 31.109375 20.453125 19.1875 8.296875 
" id="BitstreamVeraSans-Roman-32"/>
      </defs>
      <g transform="translate(206.458125 589.118125)scale(0.12 -0.12)">
       <use xlink:href="#BitstreamVeraSans-Roman-30"/>
       <use x="63.623046875" xlink:href="#BitstreamVeraSans-Roman-2e"/>
       <use x="95.41015625" xlink:href="#BitstreamVeraSans-Roman-32"/>
      </g>
     </g>
    </g>
    <g id="xtick_5">
     <g id="line2d_9">
      <g>
       <use style="stroke:#000000;stroke-width:0.5;" x="288.0" xlink:href="#me4cecc46ac" y="576.0"/>
      </g>
     </g>
     <g id="line2d_10">
      <g>
       <use style="stroke:#000000;stroke-width:0.5;" x="288.0" xlink:href="#me40d977af0" y="28.8"/>
      </g>
     </g>
     <g id="text_5">
      <!-- 0.3 -->
      <defs>
       <path d="M 40.578125 39.3125 
Q 47.65625 37.796875 51.625 33 
Q 55.609375 28.21875 55.609375 21.1875 
Q 55.609375 10.40625 48.1875 4.484375 
Q 40.765625 -1.421875 27.09375 -1.421875 
Q 22.515625 -1.421875 17.65625 -0.515625 
Q 12.796875 0.390625 7.625 2.203125 
L 7.625 11.71875 
Q 11.71875 9.328125 16.59375 8.109375 
Q 21.484375 6.890625 26.8125 6.890625 
Q 36.078125 6.890625 40.9375 10.546875 
Q 45.796875 14.203125 45.796875 21.1875 
Q 45.796875 27.640625 41.28125 31.265625 
Q 36.765625 34.90625 28.71875 34.90625 
L 20.21875 34.90625 
L 20.21875 43.015625 
L 29.109375 43.015625 
Q 36.375 43.015625 40.234375 45.921875 
Q 44.09375 48.828125 44.09375 54.296875 
Q 44.09375 59.90625 40.109375 62.90625 
Q 36.140625 65.921875 28.71875 65.921875 
Q 24.65625 65.921875 20.015625 65.03125 
Q 15.375 64.15625 9.8125 62.3125 
L 9.8125 71.09375 
Q 15.4375 72.65625 20.34375 73.4375 
Q 25.25 74.21875 29.59375 74.21875 
Q 40.828125 74.21875 47.359375 69.109375 
Q 53.90625 64.015625 53.90625 55.328125 
Q 53.90625 49.265625 50.4375 45.09375 
Q 46.96875 40.921875 40.578125 39.3125 
" id="BitstreamVeraSans-Roman-33"/>
      </defs>
      <g transform="translate(278.458125 589.118125)scale(0.12 -0.12)">
       <use xlink:href="#BitstreamVeraSans-Roman-30"/>
       <use x="63.623046875" xlink:href="#BitstreamVeraSans-Roman-2e"/>
       <use x="95.41015625" xlink:href="#BitstreamVeraSans-Roman-33"/>
      </g>
     </g>
    </g>
    <g id="xtick_6">
     <g id="line2d_11">
      <g>
       <use style="stroke:#000000;stroke-width:0.5;" x="360.0" xlink:href="#me4cecc46ac" y="576.0"/>
      </g>
     </g>
     <g id="line2d_12">
      <g>
       <use style="stroke:#000000;stroke-width:0.5;" x="360.0" xlink:href="#me40d977af0" y="28.8"/>
      </g>
     </g>
     <g id="text_6">
      <!-- 0.4 -->
      <defs>
       <path d="M 37.796875 64.3125 
L 12.890625 25.390625 
L 37.796875 25.390625 
z
M 35.203125 72.90625 
L 47.609375 72.90625 
L 47.609375 25.390625 
L 58.015625 25.390625 
L 58.015625 17.1875 
L 47.609375 17.1875 
L 47.609375 0 
L 37.796875 0 
L 37.796875 17.1875 
L 4.890625 17.1875 
L 4.890625 26.703125 
z
" id="BitstreamVeraSans-Roman-34"/>
      </defs>
      <g transform="translate(350.458125 589.118125)scale(0.12 -0.12)">
       <use xlink:href="#BitstreamVeraSans-Roman-30"/>
       <use x="63.623046875" xlink:href="#BitstreamVeraSans-Roman-2e"/>
       <use x="95.41015625" xlink:href="#BitstreamVeraSans-Roman-34"/>
      </g>
     </g>
    </g>
    <g id="xtick_7">
     <g id="line2d_13">
      <g>
       <use style="stroke:#000000;stroke-width:0.5;" x="432.0" xlink:href="#me4cecc46ac" y="576.0"/>
      </g>
     </g>
     <g id="line2d_14">
      <g>
       <use style="stroke:#000000;stroke-width:0.5;" x="432.0" xlink:href="#me40d977af0" y="28.8"/>
      </g>
     </g>
     <g id="text_7">
      <!-- 0.5 -->
      <defs>
       <path d="M 10.796875 72.90625 
L 49.515625 72.90625 
L 49.515625 64.59375 
L 19.828125 64.59375 
L 19.828125 46.734375 
Q 21.96875 47.46875 24.109375 47.828125 
Q 26.265625 48.1875 28.421875 48.1875 
Q 40.625 48.1875 47.75 41.5 
Q 54.890625 34.8125 54.890625 23.390625 
Q 54.890625 11.625 47.5625 5.09375 
Q 40.234375 -1.421875 26.90625 -1.421875 
Q 22.3125 -1.421875 17.546875 -0.640625 
Q 12.796875 0.140625 7.71875 1.703125 
L 7.71875 11.625 
Q 12.109375 9.234375 16.796875 8.0625 
Q 21.484375 6.890625 26.703125 6.890625 
Q 35.15625 6.890625 40.078125 11.328125 
Q 45.015625 15.765625 45.015625 23.390625 
Q 45.015625 31 40.078125 35.4375 
Q 35.15625 39.890625 26.703125 39.890625 
Q 22.75 39.890625 18.8125 39.015625 
Q 14.890625 38.140625 10.796875 36.28125 
z
" id="BitstreamVeraSans-Roman-35"/>
      </defs>
      <g transform="translate(422.458125 589.118125)scale(0.12 -0.12)">
       <use xlink:href="#BitstreamVeraSans-Roman-30"/>
       <use x="63.623046875" xlink:href="#BitstreamVeraSans-Roman-2e"/>
       <use x="95.41015625" xlink:href="#BitstreamVeraSans-Roman-35"/>
      </g>
     </g>
    </g>
    <g id="xtick_8">
     <g id="line2d_15">
      <g>
       <use style="stroke:#000000;stroke-width:0.5;" x="504.0" xlink:href="#me4cecc46ac" y="576.0"/>
      </g>
     </g>
     <g id="line2d_16">
      <g>
       <use style="stroke:#000000;stroke-width:0.5;" x="504.0" xlink:href="#me40d977af0" y="28.8"/>
      </g>
     </g>
     <g id="text_8">
      <!-- 0.6 -->
      <defs>
       <path d="M 33.015625 40.375 
Q 26.375 40.375 22.484375 35.828125 
Q 18.609375 31.296875 18.609375 23.390625 
Q 18.609375 15.53125 22.484375 10.953125 
Q 26.375 6.390625 33.015625 6.390625 
Q 39.65625 6.390625 43.53125 10.953125 
Q 47.40625 15.53125 47.40625 23.390625 
Q 47.40625 31.296875 43.53125 35.828125 
Q 39.65625 40.375 33.015625 40.375 
M 52.59375 71.296875 
L 52.59375 62.3125 
Q 48.875 64.0625 45.09375 64.984375 
Q 41.3125 65.921875 37.59375 65.921875 
Q 27.828125 65.921875 22.671875 59.328125 
Q 17.53125 52.734375 16.796875 39.40625 
Q 19.671875 43.65625 24.015625 45.921875 
Q 28.375 48.1875 33.59375 48.1875 
Q 44.578125 48.1875 50.953125 41.515625 
Q 57.328125 34.859375 57.328125 23.390625 
Q 57.328125 12.15625 50.6875 5.359375 
Q 44.046875 -1.421875 33.015625 -1.421875 
Q 20.359375 -1.421875 13.671875 8.265625 
Q 6.984375 17.96875 6.984375 36.375 
Q 6.984375 53.65625 15.1875 63.9375 
Q 23.390625 74.21875 37.203125 74.21875 
Q 40.921875 74.21875 44.703125 73.484375 
Q 48.484375 72.75 52.59375 71.296875 
" id="BitstreamVeraSans-Roman-36"/>
      </defs>
      <g transform="translate(494.458125 589.118125)scale(0.12 -0.12)">
       <use xlink:href="#BitstreamVeraSans-Roman-30"/>
       <use x="63.623046875" xlink:href="#BitstreamVeraSans-Roman-2e"/>
       <use x="95.41015625" xlink:href="#BitstreamVeraSans-Roman-36"/>
      </g>
     </g>
    </g>
    <g id="xtick_9">
     <g id="line2d_17">
      <g>
       <use style="stroke:#000000;stroke-width:0.5;" x="576.0" xlink:href="#me4cecc46ac" y="576.0"/>
      </g>
     </g>
     <g id="line2d_18">
      <g>
       <use style="stroke:#000000;stroke-width:0.5;" x="576.0" xlink:href="#me40d977af0" y="28.8"/>
      </g>
     </g>
     <g id="text_9">
      <!-- 0.7 -->
      <defs>
       <path d="M 8.203125 72.90625 
L 55.078125 72.90625 
L 55.078125 68.703125 
L 28.609375 0 
L 18.3125 0 
L 43.21875 64.59375 
L 8.203125 64.59375 
z
" id="BitstreamVeraSans-Roman-37"/>
      </defs>
      <g transform="translate(566.458125 589.118125)scale(0.12 -0.12)">
       <use xlink:href="#BitstreamVeraSans-Roman-30"/>
       <use x="63.623046875" xlink:href="#BitstreamVeraSans-Roman-2e"/>
       <use x="95.41015625" xlink:href="#BitstreamVeraSans-Roman-37"/>
      </g>
     </g>
    </g>
   </g>
   <g id="matplotlib.axis_2">
    <g id="ytick_1">
     <g id="line2d_19">
      <defs>
       <path d="M 0 0 
L 4 0 
" id="mbc33840c35" style="stroke:#000000;stroke-width:0.5;"/>
      </defs>
      <g>
       <use style="stroke:#000000;stroke-width:0.5;" x="0.0" xlink:href="#mbc33840c35" y="576.0"/>
      </g>
     </g>
     <g id="line2d_20">
      <defs>
       <path d="M 0 0 
L -4 0 
" id="m8465190d57" style="stroke:#000000;stroke-width:0.5;"/>
      </defs>
      <g>
       <use style="stroke:#000000;stroke-width:0.5;" x="576.0" xlink:href="#m8465190d57" y="576.0"/>
      </g>
     </g>
     <g id="text_10">
      <!-- −0.2 -->
      <g transform="translate(-33.139375 579.31125)scale(0.12 -0.12)">
       <use xlink:href="#BitstreamVeraSans-Roman-2212"/>
       <use x="83.7890625" xlink:href="#BitstreamVeraSans-Roman-30"/>
       <use x="147.412109375" xlink:href="#BitstreamVeraSans-Roman-2e"/>
       <use x="179.19921875" xlink:href="#BitstreamVeraSans-Roman-32"/>
      </g>
     </g>
    </g>
    <g id="ytick_2">
     <g id="line2d_21">
      <g>
       <use style="stroke:#000000;stroke-width:0.5;" x="0.0" xlink:href="#mbc33840c35" y="497.828571429"/>
      </g>
     </g>
     <g id="line2d_22">
      <g>
       <use style="stroke:#000000;stroke-width:0.5;" x="576.0" xlink:href="#m8465190d57" y="497.828571429"/>
      </g>
     </g>
     <g id="text_11">
      <!-- 0.0 -->
      <g transform="translate(-23.08375 501.139821429)scale(0.12 -0.12)">
       <use xlink:href="#BitstreamVeraSans-Roman-30"/>
       <use x="63.623046875" xlink:href="#BitstreamVeraSans-Roman-2e"/>
       <use x="95.41015625" xlink:href="#BitstreamVeraSans-Roman-30"/>
      </g>
     </g>
    </g>
    <g id="ytick_3">
     <g id="line2d_23">
      <g>
       <use style="stroke:#000000;stroke-width:0.5;" x="0.0" xlink:href="#mbc33840c35" y="419.657142857"/>
      </g>
     </g>
     <g id="line2d_24">
      <g>
       <use style="stroke:#000000;stroke-width:0.5;" x="576.0" xlink:href="#m8465190d57" y="419.657142857"/>
      </g>
     </g>
     <g id="text_12">
      <!-- 0.2 -->
      <g transform="translate(-23.08375 422.968392857)scale(0.12 -0.12)">
       <use xlink:href="#BitstreamVeraSans-Roman-30"/>
       <use x="63.623046875" xlink:href="#BitstreamVeraSans-Roman-2e"/>
       <use x="95.41015625" xlink:href="#BitstreamVeraSans-Roman-32"/>
      </g>
     </g>
    </g>
    <g id="ytick_4">
     <g id="line2d_25">
      <g>
       <use style="stroke:#000000;stroke-width:0.5;" x="0.0" xlink:href="#mbc33840c35" y="341.485714286"/>
      </g>
     </g>
     <g id="line2d_26">
      <g>
       <use style="stroke:#000000;stroke-width:0.5;" x="576.0" xlink:href="#m8465190d57" y="341.485714286"/>
      </g>
     </g>
     <g id="text_13">
      <!-- 0.4 -->
      <g transform="translate(-23.08375 344.796964286)scale(0.12 -0.12)">
       <use xlink:href="#BitstreamVeraSans-Roman-30"/>
       <use x="63.623046875" xlink:href="#BitstreamVeraSans-Roman-2e"/>
       <use x="95.41015625" xlink:href="#BitstreamVeraSans-Roman-34"/>
      </g>
     </g>
    </g>
    <g id="ytick_5">
     <g id="line2d_27">
      <g>
       <use style="stroke:#000000;stroke-width:0.5;" x="0.0" xlink:href="#mbc33840c35" y="263.314285714"/>
      </g>
     </g>
     <g id="line2d_28">
      <g>
       <use style="stroke:#000000;stroke-width:0.5;" x="576.0" xlink:href="#m8465190d57" y="263.314285714"/>
      </g>
     </g>
     <g id="text_14">
      <!-- 0.6 -->
      <g transform="translate(-23.08375 266.625535714)scale(0.12 -0.12)">
       <use xlink:href="#BitstreamVeraSans-Roman-30"/>
       <use x="63.623046875" xlink:href="#BitstreamVeraSans-Roman-2e"/>
       <use x="95.41015625" xlink:href="#BitstreamVeraSans-Roman-36"/>
      </g>
     </g>
    </g>
    <g id="ytick_6">
     <g id="line2d_29">
      <g>
       <use style="stroke:#000000;stroke-width:0.5;" x="0.0" xlink:href="#mbc33840c35" y="185.142857143"/>
      </g>
     </g>
     <g id="line2d_30">
      <g>
       <use style="stroke:#000000;stroke-width:0.5;" x="576.0" xlink:href="#m8465190d57" y="185.142857143"/>
      </g>
     </g>
     <g id="text_15">
      <!-- 0.8 -->
      <defs>
       <path d="M 31.78125 34.625 
Q 24.75 34.625 20.71875 30.859375 
Q 16.703125 27.09375 16.703125 20.515625 
Q 16.703125 13.921875 20.71875 10.15625 
Q 24.75 6.390625 31.78125 6.390625 
Q 38.8125 6.390625 42.859375 10.171875 
Q 46.921875 13.96875 46.921875 20.515625 
Q 46.921875 27.09375 42.890625 30.859375 
Q 38.875 34.625 31.78125 34.625 
M 21.921875 38.8125 
Q 15.578125 40.375 12.03125 44.71875 
Q 8.5 49.078125 8.5 55.328125 
Q 8.5 64.0625 14.71875 69.140625 
Q 20.953125 74.21875 31.78125 74.21875 
Q 42.671875 74.21875 48.875 69.140625 
Q 55.078125 64.0625 55.078125 55.328125 
Q 55.078125 49.078125 51.53125 44.71875 
Q 48 40.375 41.703125 38.8125 
Q 48.828125 37.15625 52.796875 32.3125 
Q 56.78125 27.484375 56.78125 20.515625 
Q 56.78125 9.90625 50.3125 4.234375 
Q 43.84375 -1.421875 31.78125 -1.421875 
Q 19.734375 -1.421875 13.25 4.234375 
Q 6.78125 9.90625 6.78125 20.515625 
Q 6.78125 27.484375 10.78125 32.3125 
Q 14.796875 37.15625 21.921875 38.8125 
M 18.3125 54.390625 
Q 18.3125 48.734375 21.84375 45.5625 
Q 25.390625 42.390625 31.78125 42.390625 
Q 38.140625 42.390625 41.71875 45.5625 
Q 45.3125 48.734375 45.3125 54.390625 
Q 45.3125 60.0625 41.71875 63.234375 
Q 38.140625 66.40625 31.78125 66.40625 
Q 25.390625 66.40625 21.84375 63.234375 
Q 18.3125 60.0625 18.3125 54.390625 
" id="BitstreamVeraSans-Roman-38"/>
      </defs>
      <g transform="translate(-23.08375 188.454107143)scale(0.12 -0.12)">
       <use xlink:href="#BitstreamVeraSans-Roman-30"/>
       <use x="63.623046875" xlink:href="#BitstreamVeraSans-Roman-2e"/>
       <use x="95.41015625" xlink:href="#BitstreamVeraSans-Roman-38"/>
      </g>
     </g>
    </g>
    <g id="ytick_7">
     <g id="line2d_31">
      <g>
       <use style="stroke:#000000;stroke-width:0.5;" x="0.0" xlink:href="#mbc33840c35" y="106.971428571"/>
      </g>
     </g>
     <g id="line2d_32">
      <g>
       <use style="stroke:#000000;stroke-width:0.5;" x="576.0" xlink:href="#m8465190d57" y="106.971428571"/>
      </g>
     </g>
     <g id="text_16">
      <!-- 1.0 -->
      <g transform="translate(-23.08375 110.282678571)scale(0.12 -0.12)">
       <use xlink:href="#BitstreamVeraSans-Roman-31"/>
       <use x="63.623046875" xlink:href="#BitstreamVeraSans-Roman-2e"/>
       <use x="95.41015625" xlink:href="#BitstreamVeraSans-Roman-30"/>
      </g>
     </g>
    </g>
    <g id="ytick_8">
     <g id="line2d_33">
      <g>
       <use style="stroke:#000000;stroke-width:0.5;" x="0.0" xlink:href="#mbc33840c35" y="28.8"/>
      </g>
     </g>
     <g id="line2d_34">
      <g>
       <use style="stroke:#000000;stroke-width:0.5;" x="576.0" xlink:href="#m8465190d57" y="28.8"/>
      </g>
     </g>
     <g id="text_17">
      <!-- 1.2 -->
      <g transform="translate(-23.08375 32.11125)scale(0.12 -0.12)">
       <use xlink:href="#BitstreamVeraSans-Roman-31"/>
       <use x="63.623046875" xlink:href="#BitstreamVeraSans-Roman-2e"/>
       <use x="95.41015625" xlink:href="#BitstreamVeraSans-Roman-32"/>
      </g>
     </g>
    </g>
   </g>
   <g id="text_18">
    <g clip-path="url(#pa7542462e2)">
     <!-- BERNHARD -->
     <defs>
      <path d="M 19.671875 34.8125 
L 19.671875 8.109375 
L 35.5 8.109375 
Q 43.453125 8.109375 47.28125 11.40625 
Q 51.125 14.703125 51.125 21.484375 
Q 51.125 28.328125 47.28125 31.5625 
Q 43.453125 34.8125 35.5 34.8125 
z
M 19.671875 64.796875 
L 19.671875 42.828125 
L 34.28125 42.828125 
Q 41.5 42.828125 45.03125 45.53125 
Q 48.578125 48.25 48.578125 53.8125 
Q 48.578125 59.328125 45.03125 62.0625 
Q 41.5 64.796875 34.28125 64.796875 
z
M 9.8125 72.90625 
L 35.015625 72.90625 
Q 46.296875 72.90625 52.390625 68.21875 
Q 58.5 63.53125 58.5 54.890625 
Q 58.5 48.1875 55.375 44.234375 
Q 52.25 40.28125 46.1875 39.3125 
Q 53.46875 37.75 57.5 32.78125 
Q 61.53125 27.828125 61.53125 20.40625 
Q 61.53125 10.640625 54.890625 5.3125 
Q 48.25 0 35.984375 0 
L 9.8125 0 
z
" id="BitstreamVeraSans-Roman-42"/>
      <path d="M 34.1875 63.1875 
L 20.796875 26.90625 
L 47.609375 26.90625 
z
M 28.609375 72.90625 
L 39.796875 72.90625 
L 67.578125 0 
L 57.328125 0 
L 50.6875 18.703125 
L 17.828125 18.703125 
L 11.1875 0 
L 0.78125 0 
z
" id="BitstreamVeraSans-Roman-41"/>
      <path d="M 9.8125 72.90625 
L 55.90625 72.90625 
L 55.90625 64.59375 
L 19.671875 64.59375 
L 19.671875 43.015625 
L 54.390625 43.015625 
L 54.390625 34.71875 
L 19.671875 34.71875 
L 19.671875 8.296875 
L 56.78125 8.296875 
L 56.78125 0 
L 9.8125 0 
z
" id="BitstreamVeraSans-Roman-45"/>
      <path d="M 19.671875 64.796875 
L 19.671875 8.109375 
L 31.59375 8.109375 
Q 46.6875 8.109375 53.6875 14.9375 
Q 60.6875 21.78125 60.6875 36.53125 
Q 60.6875 51.171875 53.6875 57.984375 
Q 46.6875 64.796875 31.59375 64.796875 
z
M 9.8125 72.90625 
L 30.078125 72.90625 
Q 51.265625 72.90625 61.171875 64.09375 
Q 71.09375 55.28125 71.09375 36.53125 
Q 71.09375 17.671875 61.125 8.828125 
Q 51.171875 0 30.078125 0 
L 9.8125 0 
z
" id="BitstreamVeraSans-Roman-44"/>
      <path d="M 44.390625 34.1875 
Q 47.5625 33.109375 50.5625 29.59375 
Q 53.5625 26.078125 56.59375 19.921875 
L 66.609375 0 
L 56 0 
L 46.6875 18.703125 
Q 43.0625 26.03125 39.671875 28.421875 
Q 36.28125 30.8125 30.421875 30.8125 
L 19.671875 30.8125 
L 19.671875 0 
L 9.8125 0 
L 9.8125 72.90625 
L 32.078125 72.90625 
Q 44.578125 72.90625 50.734375 67.671875 
Q 56.890625 62.453125 56.890625 51.90625 
Q 56.890625 45.015625 53.6875 40.46875 
Q 50.484375 35.9375 44.390625 34.1875 
M 19.671875 64.796875 
L 19.671875 38.921875 
L 32.078125 38.921875 
Q 39.203125 38.921875 42.84375 42.21875 
Q 46.484375 45.515625 46.484375 51.90625 
Q 46.484375 58.296875 42.84375 61.546875 
Q 39.203125 64.796875 32.078125 64.796875 
z
" id="BitstreamVeraSans-Roman-52"/>
      <path d="M 9.8125 72.90625 
L 23.09375 72.90625 
L 55.421875 11.921875 
L 55.421875 72.90625 
L 64.984375 72.90625 
L 64.984375 0 
L 51.703125 0 
L 19.390625 60.984375 
L 19.390625 0 
L 9.8125 0 
z
" id="BitstreamVeraSans-Roman-4e"/>
      <path d="M 9.8125 72.90625 
L 19.671875 72.90625 
L 19.671875 43.015625 
L 55.515625 43.015625 
L 55.515625 72.90625 
L 65.375 72.90625 
L 65.375 0 
L 55.515625 0 
L 55.515625 34.71875 
L 19.671875 34.71875 
L 19.671875 0 
L 9.8125 0 
z
" id="BitstreamVeraSans-Roman-48"/>
     </defs>
     <g transform="translate(239.27627149 359.428781998)scale(0.12 -0.12)">
      <use xlink:href="#BitstreamVeraSans-Roman-42"/>
      <use x="68.603515625" xlink:href="#BitstreamVeraSans-Roman-45"/>
      <use x="131.787109375" xlink:href="#BitstreamVeraSans-Roman-52"/>
      <use x="201.26953125" xlink:href="#BitstreamVeraSans-Roman-4e"/>
      <use x="276.07421875" xlink:href="#BitstreamVeraSans-Roman-48"/>
      <use x="351.26953125" xlink:href="#BitstreamVeraSans-Roman-41"/>
      <use x="419.677734375" xlink:href="#BitstreamVeraSans-Roman-52"/>
      <use x="489.16015625" xlink:href="#BitstreamVeraSans-Roman-44"/>
     </g>
    </g>
   </g>
   <g id="text_19">
    <g clip-path="url(#pa7542462e2)">
     <!-- DRITTER DIENER -->
     <defs>
      <path id="BitstreamVeraSans-Roman-20"/>
      <path d="M 9.8125 72.90625 
L 19.671875 72.90625 
L 19.671875 0 
L 9.8125 0 
z
" id="BitstreamVeraSans-Roman-49"/>
      <path d="M -0.296875 72.90625 
L 61.375 72.90625 
L 61.375 64.59375 
L 35.5 64.59375 
L 35.5 0 
L 25.59375 0 
L 25.59375 64.59375 
L -0.296875 64.59375 
z
" id="BitstreamVeraSans-Roman-54"/>
     </defs>
     <g transform="translate(322.835156658 202.072858615)scale(0.12 -0.12)">
      <use xlink:href="#BitstreamVeraSans-Roman-44"/>
      <use x="77.001953125" xlink:href="#BitstreamVeraSans-Roman-52"/>
      <use x="146.484375" xlink:href="#BitstreamVeraSans-Roman-49"/>
      <use x="175.9765625" xlink:href="#BitstreamVeraSans-Roman-54"/>
      <use x="237.044921875" xlink:href="#BitstreamVeraSans-Roman-54"/>
      <use x="298.12890625" xlink:href="#BitstreamVeraSans-Roman-45"/>
      <use x="361.3125" xlink:href="#BitstreamVeraSans-Roman-52"/>
      <use x="430.794921875" xlink:href="#BitstreamVeraSans-Roman-20"/>
      <use x="462.58203125" xlink:href="#BitstreamVeraSans-Roman-44"/>
      <use x="539.583984375" xlink:href="#BitstreamVeraSans-Roman-49"/>
      <use x="569.076171875" xlink:href="#BitstreamVeraSans-Roman-45"/>
      <use x="632.259765625" xlink:href="#BitstreamVeraSans-Roman-4e"/>
      <use x="707.064453125" xlink:href="#BitstreamVeraSans-Roman-45"/>
      <use x="770.248046875" xlink:href="#BitstreamVeraSans-Roman-52"/>
     </g>
    </g>
   </g>
   <g id="text_20">
    <g clip-path="url(#pa7542462e2)">
     <!-- RUDTHARDT -->
     <defs>
      <path d="M 8.6875 72.90625 
L 18.609375 72.90625 
L 18.609375 28.609375 
Q 18.609375 16.890625 22.84375 11.734375 
Q 27.09375 6.59375 36.625 6.59375 
Q 46.09375 6.59375 50.34375 11.734375 
Q 54.59375 16.890625 54.59375 28.609375 
L 54.59375 72.90625 
L 64.5 72.90625 
L 64.5 27.390625 
Q 64.5 13.140625 57.4375 5.859375 
Q 50.390625 -1.421875 36.625 -1.421875 
Q 22.796875 -1.421875 15.734375 5.859375 
Q 8.6875 13.140625 8.6875 27.390625 
z
" id="BitstreamVeraSans-Roman-55"/>
     </defs>
     <g transform="translate(173.610987328 413.217323478)scale(0.12 -0.12)">
      <use xlink:href="#BitstreamVeraSans-Roman-52"/>
      <use x="69.482421875" xlink:href="#BitstreamVeraSans-Roman-55"/>
      <use x="142.67578125" xlink:href="#BitstreamVeraSans-Roman-44"/>
      <use x="219.677734375" xlink:href="#BitstreamVeraSans-Roman-54"/>
      <use x="280.76171875" xlink:href="#BitstreamVeraSans-Roman-48"/>
      <use x="355.95703125" xlink:href="#BitstreamVeraSans-Roman-41"/>
      <use x="424.365234375" xlink:href="#BitstreamVeraSans-Roman-52"/>
      <use x="493.84765625" xlink:href="#BitstreamVeraSans-Roman-44"/>
      <use x="570.849609375" xlink:href="#BitstreamVeraSans-Roman-54"/>
     </g>
    </g>
   </g>
   <g id="text_21">
    <g clip-path="url(#pa7542462e2)">
     <!-- KAISER LUDWIG -->
     <defs>
      <path d="M 9.8125 72.90625 
L 19.671875 72.90625 
L 19.671875 42.09375 
L 52.390625 72.90625 
L 65.09375 72.90625 
L 28.90625 38.921875 
L 67.671875 0 
L 54.6875 0 
L 19.671875 35.109375 
L 19.671875 0 
L 9.8125 0 
z
" id="BitstreamVeraSans-Roman-4b"/>
      <path d="M 59.515625 10.40625 
L 59.515625 29.984375 
L 43.40625 29.984375 
L 43.40625 38.09375 
L 69.28125 38.09375 
L 69.28125 6.78125 
Q 63.578125 2.734375 56.6875 0.65625 
Q 49.8125 -1.421875 42 -1.421875 
Q 24.90625 -1.421875 15.25 8.5625 
Q 5.609375 18.5625 5.609375 36.375 
Q 5.609375 54.25 15.25 64.234375 
Q 24.90625 74.21875 42 74.21875 
Q 49.125 74.21875 55.546875 72.453125 
Q 61.96875 70.703125 67.390625 67.28125 
L 67.390625 56.78125 
Q 61.921875 61.421875 55.765625 63.765625 
Q 49.609375 66.109375 42.828125 66.109375 
Q 29.4375 66.109375 22.71875 58.640625 
Q 16.015625 51.171875 16.015625 36.375 
Q 16.015625 21.625 22.71875 14.15625 
Q 29.4375 6.6875 42.828125 6.6875 
Q 48.046875 6.6875 52.140625 7.59375 
Q 56.25 8.5 59.515625 10.40625 
" id="BitstreamVeraSans-Roman-47"/>
      <path d="M 53.515625 70.515625 
L 53.515625 60.890625 
Q 47.90625 63.578125 42.921875 64.890625 
Q 37.9375 66.21875 33.296875 66.21875 
Q 25.25 66.21875 20.875 63.09375 
Q 16.5 59.96875 16.5 54.203125 
Q 16.5 49.359375 19.40625 46.890625 
Q 22.3125 44.4375 30.421875 42.921875 
L 36.375 41.703125 
Q 47.40625 39.59375 52.65625 34.296875 
Q 57.90625 29 57.90625 20.125 
Q 57.90625 9.515625 50.796875 4.046875 
Q 43.703125 -1.421875 29.984375 -1.421875 
Q 24.8125 -1.421875 18.96875 -0.25 
Q 13.140625 0.921875 6.890625 3.21875 
L 6.890625 13.375 
Q 12.890625 10.015625 18.65625 8.296875 
Q 24.421875 6.59375 29.984375 6.59375 
Q 38.421875 6.59375 43.015625 9.90625 
Q 47.609375 13.234375 47.609375 19.390625 
Q 47.609375 24.75 44.3125 27.78125 
Q 41.015625 30.8125 33.5 32.328125 
L 27.484375 33.5 
Q 16.453125 35.6875 11.515625 40.375 
Q 6.59375 45.0625 6.59375 53.421875 
Q 6.59375 63.09375 13.40625 68.65625 
Q 20.21875 74.21875 32.171875 74.21875 
Q 37.3125 74.21875 42.625 73.28125 
Q 47.953125 72.359375 53.515625 70.515625 
" id="BitstreamVeraSans-Roman-53"/>
      <path d="M 9.8125 72.90625 
L 19.671875 72.90625 
L 19.671875 8.296875 
L 55.171875 8.296875 
L 55.171875 0 
L 9.8125 0 
z
" id="BitstreamVeraSans-Roman-4c"/>
      <path d="M 3.328125 72.90625 
L 13.28125 72.90625 
L 28.609375 11.28125 
L 43.890625 72.90625 
L 54.984375 72.90625 
L 70.3125 11.28125 
L 85.59375 72.90625 
L 95.609375 72.90625 
L 77.296875 0 
L 64.890625 0 
L 49.515625 63.28125 
L 33.984375 0 
L 21.578125 0 
z
" id="BitstreamVeraSans-Roman-57"/>
     </defs>
     <g transform="translate(200.257465148 453.499204505)scale(0.12 -0.12)">
      <use xlink:href="#BitstreamVeraSans-Roman-4b"/>
      <use x="65.560546875" xlink:href="#BitstreamVeraSans-Roman-41"/>
      <use x="133.96875" xlink:href="#BitstreamVeraSans-Roman-49"/>
      <use x="163.4609375" xlink:href="#BitstreamVeraSans-Roman-53"/>
      <use x="226.9375" xlink:href="#BitstreamVeraSans-Roman-45"/>
      <use x="290.12109375" xlink:href="#BitstreamVeraSans-Roman-52"/>
      <use x="359.603515625" xlink:href="#BitstreamVeraSans-Roman-20"/>
      <use x="391.390625" xlink:href="#BitstreamVeraSans-Roman-4c"/>
      <use x="447.025390625" xlink:href="#BitstreamVeraSans-Roman-55"/>
      <use x="520.21875" xlink:href="#BitstreamVeraSans-Roman-44"/>
      <use x="597.220703125" xlink:href="#BitstreamVeraSans-Roman-57"/>
      <use x="696.09765625" xlink:href="#BitstreamVeraSans-Roman-49"/>
      <use x="725.58984375" xlink:href="#BitstreamVeraSans-Roman-47"/>
     </g>
    </g>
   </g>
   <g id="text_22">
    <g clip-path="url(#pa7542462e2)">
     <!-- JUDITH -->
     <defs>
      <path d="M 9.8125 72.90625 
L 19.671875 72.90625 
L 19.671875 5.078125 
Q 19.671875 -8.109375 14.671875 -14.0625 
Q 9.671875 -20.015625 -1.421875 -20.015625 
L -5.171875 -20.015625 
L -5.171875 -11.71875 
L -2.09375 -11.71875 
Q 4.4375 -11.71875 7.125 -8.046875 
Q 9.8125 -4.390625 9.8125 5.078125 
z
" id="BitstreamVeraSans-Roman-4a"/>
     </defs>
     <g transform="translate(219.925401494 408.365878676)scale(0.12 -0.12)">
      <use xlink:href="#BitstreamVeraSans-Roman-4a"/>
      <use x="29.4921875" xlink:href="#BitstreamVeraSans-Roman-55"/>
      <use x="102.685546875" xlink:href="#BitstreamVeraSans-Roman-44"/>
      <use x="179.6875" xlink:href="#BitstreamVeraSans-Roman-49"/>
      <use x="209.1796875" xlink:href="#BitstreamVeraSans-Roman-54"/>
      <use x="270.263671875" xlink:href="#BitstreamVeraSans-Roman-48"/>
     </g>
    </g>
   </g>
   <g id="text_23">
    <g clip-path="url(#pa7542462e2)">
     <!-- ABDALLAH -->
     <g transform="translate(209.176906566 341.391732515)scale(0.12 -0.12)">
      <use xlink:href="#BitstreamVeraSans-Roman-41"/>
      <use x="68.408203125" xlink:href="#BitstreamVeraSans-Roman-42"/>
      <use x="137.01171875" xlink:href="#BitstreamVeraSans-Roman-44"/>
      <use x="213.998046875" xlink:href="#BitstreamVeraSans-Roman-41"/>
      <use x="282.40625" xlink:href="#BitstreamVeraSans-Roman-4c"/>
      <use x="338.119140625" xlink:href="#BitstreamVeraSans-Roman-4c"/>
      <use x="393.86328125" xlink:href="#BitstreamVeraSans-Roman-41"/>
      <use x="462.271484375" xlink:href="#BitstreamVeraSans-Roman-48"/>
     </g>
    </g>
   </g>
   <g id="text_24">
    <g clip-path="url(#pa7542462e2)">
     <!-- DIE FRANKEN -->
     <defs>
      <path d="M 9.8125 72.90625 
L 51.703125 72.90625 
L 51.703125 64.59375 
L 19.671875 64.59375 
L 19.671875 43.109375 
L 48.578125 43.109375 
L 48.578125 34.8125 
L 19.671875 34.8125 
L 19.671875 0 
L 9.8125 0 
z
" id="BitstreamVeraSans-Roman-46"/>
     </defs>
     <g transform="translate(327.808055796 438.077019747)scale(0.12 -0.12)">
      <use xlink:href="#BitstreamVeraSans-Roman-44"/>
      <use x="77.001953125" xlink:href="#BitstreamVeraSans-Roman-49"/>
      <use x="106.494140625" xlink:href="#BitstreamVeraSans-Roman-45"/>
      <use x="169.677734375" xlink:href="#BitstreamVeraSans-Roman-20"/>
      <use x="201.46484375" xlink:href="#BitstreamVeraSans-Roman-46"/>
      <use x="258.984375" xlink:href="#BitstreamVeraSans-Roman-52"/>
      <use x="328.404296875" xlink:href="#BitstreamVeraSans-Roman-41"/>
      <use x="396.8125" xlink:href="#BitstreamVeraSans-Roman-4e"/>
      <use x="471.6171875" xlink:href="#BitstreamVeraSans-Roman-4b"/>
      <use x="537.193359375" xlink:href="#BitstreamVeraSans-Roman-45"/>
      <use x="600.376953125" xlink:href="#BitstreamVeraSans-Roman-4e"/>
     </g>
    </g>
   </g>
   <g id="text_25">
    <g clip-path="url(#pa7542462e2)">
     <!-- HUMFRIED -->
     <defs>
      <path d="M 9.8125 72.90625 
L 24.515625 72.90625 
L 43.109375 23.296875 
L 61.8125 72.90625 
L 76.515625 72.90625 
L 76.515625 0 
L 66.890625 0 
L 66.890625 64.015625 
L 48.09375 14.015625 
L 38.1875 14.015625 
L 19.390625 64.015625 
L 19.390625 0 
L 9.8125 0 
z
" id="BitstreamVeraSans-Roman-4d"/>
     </defs>
     <g transform="translate(40.1184375 392.796994854)scale(0.12 -0.12)">
      <use xlink:href="#BitstreamVeraSans-Roman-48"/>
      <use x="75.1953125" xlink:href="#BitstreamVeraSans-Roman-55"/>
      <use x="148.388671875" xlink:href="#BitstreamVeraSans-Roman-4d"/>
      <use x="234.66796875" xlink:href="#BitstreamVeraSans-Roman-46"/>
      <use x="292.1875" xlink:href="#BitstreamVeraSans-Roman-52"/>
      <use x="361.669921875" xlink:href="#BitstreamVeraSans-Roman-49"/>
      <use x="391.162109375" xlink:href="#BitstreamVeraSans-Roman-45"/>
      <use x="454.345703125" xlink:href="#BitstreamVeraSans-Roman-44"/>
     </g>
    </g>
   </g>
   <g id="text_26">
    <g clip-path="url(#pa7542462e2)">
     <!-- KARL -->
     <g transform="translate(207.25823124 376.659589996)scale(0.12 -0.12)">
      <use xlink:href="#BitstreamVeraSans-Roman-4b"/>
      <use x="65.560546875" xlink:href="#BitstreamVeraSans-Roman-41"/>
      <use x="133.96875" xlink:href="#BitstreamVeraSans-Roman-52"/>
      <use x="203.451171875" xlink:href="#BitstreamVeraSans-Roman-4c"/>
     </g>
    </g>
   </g>
   <g id="text_27">
    <g clip-path="url(#pa7542462e2)">
     <!-- TEMIN -->
     <g transform="translate(261.954398349 261.851449075)scale(0.12 -0.12)">
      <use xlink:href="#BitstreamVeraSans-Roman-54"/>
      <use x="61.083984375" xlink:href="#BitstreamVeraSans-Roman-45"/>
      <use x="124.267578125" xlink:href="#BitstreamVeraSans-Roman-4d"/>
      <use x="210.546875" xlink:href="#BitstreamVeraSans-Roman-49"/>
      <use x="240.0390625" xlink:href="#BitstreamVeraSans-Roman-4e"/>
     </g>
    </g>
   </g>
   <g id="text_28">
    <g clip-path="url(#pa7542462e2)">
     <!-- MATFRIED -->
     <g transform="translate(313.862363492 407.644402803)scale(0.12 -0.12)">
      <use xlink:href="#BitstreamVeraSans-Roman-4d"/>
      <use x="86.279296875" xlink:href="#BitstreamVeraSans-Roman-41"/>
      <use x="154.578125" xlink:href="#BitstreamVeraSans-Roman-54"/>
      <use x="215.662109375" xlink:href="#BitstreamVeraSans-Roman-46"/>
      <use x="273.181640625" xlink:href="#BitstreamVeraSans-Roman-52"/>
      <use x="342.6640625" xlink:href="#BitstreamVeraSans-Roman-49"/>
      <use x="372.15625" xlink:href="#BitstreamVeraSans-Roman-45"/>
      <use x="435.33984375" xlink:href="#BitstreamVeraSans-Roman-44"/>
     </g>
    </g>
   </g>
   <g id="text_29">
    <g clip-path="url(#pa7542462e2)">
     <!-- AGOBARD -->
     <defs>
      <path d="M 39.40625 66.21875 
Q 28.65625 66.21875 22.328125 58.203125 
Q 16.015625 50.203125 16.015625 36.375 
Q 16.015625 22.609375 22.328125 14.59375 
Q 28.65625 6.59375 39.40625 6.59375 
Q 50.140625 6.59375 56.421875 14.59375 
Q 62.703125 22.609375 62.703125 36.375 
Q 62.703125 50.203125 56.421875 58.203125 
Q 50.140625 66.21875 39.40625 66.21875 
M 39.40625 74.21875 
Q 54.734375 74.21875 63.90625 63.9375 
Q 73.09375 53.65625 73.09375 36.375 
Q 73.09375 19.140625 63.90625 8.859375 
Q 54.734375 -1.421875 39.40625 -1.421875 
Q 24.03125 -1.421875 14.8125 8.828125 
Q 5.609375 19.09375 5.609375 36.375 
Q 5.609375 53.65625 14.8125 63.9375 
Q 24.03125 74.21875 39.40625 74.21875 
" id="BitstreamVeraSans-Roman-4f"/>
     </defs>
     <g transform="translate(206.243889561 487.074908875)scale(0.12 -0.12)">
      <use xlink:href="#BitstreamVeraSans-Roman-41"/>
      <use x="68.392578125" xlink:href="#BitstreamVeraSans-Roman-47"/>
      <use x="145.8828125" xlink:href="#BitstreamVeraSans-Roman-4f"/>
      <use x="224.59375" xlink:href="#BitstreamVeraSans-Roman-42"/>
      <use x="293.197265625" xlink:href="#BitstreamVeraSans-Roman-41"/>
      <use x="361.60546875" xlink:href="#BitstreamVeraSans-Roman-52"/>
      <use x="431.087890625" xlink:href="#BitstreamVeraSans-Roman-44"/>
     </g>
    </g>
   </g>
   <g id="text_30">
    <g clip-path="url(#pa7542462e2)">
     <!-- ZWEITER DIENER -->
     <defs>
      <path d="M 5.609375 72.90625 
L 62.890625 72.90625 
L 62.890625 65.375 
L 16.796875 8.296875 
L 64.015625 8.296875 
L 64.015625 0 
L 4.5 0 
L 4.5 7.515625 
L 50.59375 64.59375 
L 5.609375 64.59375 
z
" id="BitstreamVeraSans-Roman-5a"/>
     </defs>
     <g transform="translate(248.612064057 190.717564601)scale(0.12 -0.12)">
      <use xlink:href="#BitstreamVeraSans-Roman-5a"/>
      <use x="68.505859375" xlink:href="#BitstreamVeraSans-Roman-57"/>
      <use x="167.3828125" xlink:href="#BitstreamVeraSans-Roman-45"/>
      <use x="230.56640625" xlink:href="#BitstreamVeraSans-Roman-49"/>
      <use x="260.05859375" xlink:href="#BitstreamVeraSans-Roman-54"/>
      <use x="321.142578125" xlink:href="#BitstreamVeraSans-Roman-45"/>
      <use x="384.326171875" xlink:href="#BitstreamVeraSans-Roman-52"/>
      <use x="453.80859375" xlink:href="#BitstreamVeraSans-Roman-20"/>
      <use x="485.595703125" xlink:href="#BitstreamVeraSans-Roman-44"/>
      <use x="562.59765625" xlink:href="#BitstreamVeraSans-Roman-49"/>
      <use x="592.08984375" xlink:href="#BitstreamVeraSans-Roman-45"/>
      <use x="655.2734375" xlink:href="#BitstreamVeraSans-Roman-4e"/>
      <use x="730.078125" xlink:href="#BitstreamVeraSans-Roman-45"/>
      <use x="793.26171875" xlink:href="#BitstreamVeraSans-Roman-52"/>
     </g>
    </g>
   </g>
   <g id="text_31">
    <g clip-path="url(#pa7542462e2)">
     <!-- CHORKNABEN -->
     <defs>
      <path d="M 64.40625 67.28125 
L 64.40625 56.890625 
Q 59.421875 61.53125 53.78125 63.8125 
Q 48.140625 66.109375 41.796875 66.109375 
Q 29.296875 66.109375 22.65625 58.46875 
Q 16.015625 50.828125 16.015625 36.375 
Q 16.015625 21.96875 22.65625 14.328125 
Q 29.296875 6.6875 41.796875 6.6875 
Q 48.140625 6.6875 53.78125 8.984375 
Q 59.421875 11.28125 64.40625 15.921875 
L 64.40625 5.609375 
Q 59.234375 2.09375 53.4375 0.328125 
Q 47.65625 -1.421875 41.21875 -1.421875 
Q 24.65625 -1.421875 15.125 8.703125 
Q 5.609375 18.84375 5.609375 36.375 
Q 5.609375 53.953125 15.125 64.078125 
Q 24.65625 74.21875 41.21875 74.21875 
Q 47.75 74.21875 53.53125 72.484375 
Q 59.328125 70.75 64.40625 67.28125 
" id="BitstreamVeraSans-Roman-43"/>
     </defs>
     <g transform="translate(285.110423047 501.139821429)scale(0.12 -0.12)">
      <use xlink:href="#BitstreamVeraSans-Roman-43"/>
      <use x="69.82421875" xlink:href="#BitstreamVeraSans-Roman-48"/>
      <use x="145.01953125" xlink:href="#BitstreamVeraSans-Roman-4f"/>
      <use x="223.73046875" xlink:href="#BitstreamVeraSans-Roman-52"/>
      <use x="293.212890625" xlink:href="#BitstreamVeraSans-Roman-4b"/>
      <use x="358.7890625" xlink:href="#BitstreamVeraSans-Roman-4e"/>
      <use x="433.59375" xlink:href="#BitstreamVeraSans-Roman-41"/>
      <use x="502.001953125" xlink:href="#BitstreamVeraSans-Roman-42"/>
      <use x="570.60546875" xlink:href="#BitstreamVeraSans-Roman-45"/>
      <use x="633.7890625" xlink:href="#BitstreamVeraSans-Roman-4e"/>
     </g>
    </g>
   </g>
   <g id="text_32">
    <g clip-path="url(#pa7542462e2)">
     <!-- HAMATELLIWA -->
     <g transform="translate(134.548772352 287.62431453)scale(0.12 -0.12)">
      <use xlink:href="#BitstreamVeraSans-Roman-48"/>
      <use x="75.1953125" xlink:href="#BitstreamVeraSans-Roman-41"/>
      <use x="143.603515625" xlink:href="#BitstreamVeraSans-Roman-4d"/>
      <use x="229.8828125" xlink:href="#BitstreamVeraSans-Roman-41"/>
      <use x="298.181640625" xlink:href="#BitstreamVeraSans-Roman-54"/>
      <use x="359.265625" xlink:href="#BitstreamVeraSans-Roman-45"/>
      <use x="422.44921875" xlink:href="#BitstreamVeraSans-Roman-4c"/>
      <use x="478.162109375" xlink:href="#BitstreamVeraSans-Roman-4c"/>
      <use x="533.875" xlink:href="#BitstreamVeraSans-Roman-49"/>
      <use x="563.3671875" xlink:href="#BitstreamVeraSans-Roman-57"/>
      <use x="662.166015625" xlink:href="#BitstreamVeraSans-Roman-41"/>
     </g>
    </g>
   </g>
   <g id="text_33">
    <g clip-path="url(#pa7542462e2)">
     <!-- LUDWIG -->
     <g transform="translate(277.025215889 422.435883218)scale(0.12 -0.12)">
      <use xlink:href="#BitstreamVeraSans-Roman-4c"/>
      <use x="55.634765625" xlink:href="#BitstreamVeraSans-Roman-55"/>
      <use x="128.828125" xlink:href="#BitstreamVeraSans-Roman-44"/>
      <use x="205.830078125" xlink:href="#BitstreamVeraSans-Roman-57"/>
      <use x="304.70703125" xlink:href="#BitstreamVeraSans-Roman-49"/>
      <use x="334.19921875" xlink:href="#BitstreamVeraSans-Roman-47"/>
     </g>
    </g>
   </g>
   <g id="text_34">
    <g clip-path="url(#pa7542462e2)">
     <!-- ELISACHAR -->
     <g transform="translate(474.637452225 484.117089598)scale(0.12 -0.12)">
      <use xlink:href="#BitstreamVeraSans-Roman-45"/>
      <use x="63.18359375" xlink:href="#BitstreamVeraSans-Roman-4c"/>
      <use x="118.896484375" xlink:href="#BitstreamVeraSans-Roman-49"/>
      <use x="148.388671875" xlink:href="#BitstreamVeraSans-Roman-53"/>
      <use x="211.880859375" xlink:href="#BitstreamVeraSans-Roman-41"/>
      <use x="280.2734375" xlink:href="#BitstreamVeraSans-Roman-43"/>
      <use x="350.09765625" xlink:href="#BitstreamVeraSans-Roman-48"/>
      <use x="425.29296875" xlink:href="#BitstreamVeraSans-Roman-41"/>
      <use x="493.701171875" xlink:href="#BitstreamVeraSans-Roman-52"/>
     </g>
    </g>
   </g>
   <g id="text_35">
    <g clip-path="url(#pa7542462e2)">
     <!-- ERSTER DIENER -->
     <g transform="translate(353.116935549 110.282678571)scale(0.12 -0.12)">
      <use xlink:href="#BitstreamVeraSans-Roman-45"/>
      <use x="63.18359375" xlink:href="#BitstreamVeraSans-Roman-52"/>
      <use x="132.666015625" xlink:href="#BitstreamVeraSans-Roman-53"/>
      <use x="196.142578125" xlink:href="#BitstreamVeraSans-Roman-54"/>
      <use x="257.2265625" xlink:href="#BitstreamVeraSans-Roman-45"/>
      <use x="320.41015625" xlink:href="#BitstreamVeraSans-Roman-52"/>
      <use x="389.892578125" xlink:href="#BitstreamVeraSans-Roman-20"/>
      <use x="421.6796875" xlink:href="#BitstreamVeraSans-Roman-44"/>
      <use x="498.681640625" xlink:href="#BitstreamVeraSans-Roman-49"/>
      <use x="528.173828125" xlink:href="#BitstreamVeraSans-Roman-45"/>
      <use x="591.357421875" xlink:href="#BitstreamVeraSans-Roman-4e"/>
      <use x="666.162109375" xlink:href="#BitstreamVeraSans-Roman-45"/>
      <use x="729.345703125" xlink:href="#BitstreamVeraSans-Roman-52"/>
     </g>
    </g>
   </g>
   <g id="text_36">
    <g clip-path="url(#pa7542462e2)">
     <!-- LOTHAR -->
     <g transform="translate(246.421674061 418.064928838)scale(0.12 -0.12)">
      <use xlink:href="#BitstreamVeraSans-Roman-4c"/>
      <use x="55.666015625" xlink:href="#BitstreamVeraSans-Roman-4f"/>
      <use x="134.376953125" xlink:href="#BitstreamVeraSans-Roman-54"/>
      <use x="195.4609375" xlink:href="#BitstreamVeraSans-Roman-48"/>
      <use x="270.65625" xlink:href="#BitstreamVeraSans-Roman-41"/>
      <use x="339.064453125" xlink:href="#BitstreamVeraSans-Roman-52"/>
     </g>
    </g>
   </g>
   <g id="text_37">
    <g clip-path="url(#pa7542462e2)">
     <!-- FRECHULF -->
     <g transform="translate(493.188715787 257.443123107)scale(0.12 -0.12)">
      <use xlink:href="#BitstreamVeraSans-Roman-46"/>
      <use x="57.51953125" xlink:href="#BitstreamVeraSans-Roman-52"/>
      <use x="127.001953125" xlink:href="#BitstreamVeraSans-Roman-45"/>
      <use x="190.185546875" xlink:href="#BitstreamVeraSans-Roman-43"/>
      <use x="260.009765625" xlink:href="#BitstreamVeraSans-Roman-48"/>
      <use x="335.205078125" xlink:href="#BitstreamVeraSans-Roman-55"/>
      <use x="408.3984375" xlink:href="#BitstreamVeraSans-Roman-4c"/>
      <use x="464.111328125" xlink:href="#BitstreamVeraSans-Roman-46"/>
     </g>
    </g>
   </g>
   <g id="text_38">
    <g clip-path="url(#pa7542462e2)">
     <!-- SATILATLAS -->
     <g transform="translate(271.063744954 317.314971827)scale(0.12 -0.12)">
      <use xlink:href="#BitstreamVeraSans-Roman-53"/>
      <use x="63.4921875" xlink:href="#BitstreamVeraSans-Roman-41"/>
      <use x="131.791015625" xlink:href="#BitstreamVeraSans-Roman-54"/>
      <use x="192.875" xlink:href="#BitstreamVeraSans-Roman-49"/>
      <use x="222.3671875" xlink:href="#BitstreamVeraSans-Roman-4c"/>
      <use x="278.111328125" xlink:href="#BitstreamVeraSans-Roman-41"/>
      <use x="346.41015625" xlink:href="#BitstreamVeraSans-Roman-54"/>
      <use x="407.494140625" xlink:href="#BitstreamVeraSans-Roman-4c"/>
      <use x="463.23828125" xlink:href="#BitstreamVeraSans-Roman-41"/>
      <use x="531.646484375" xlink:href="#BitstreamVeraSans-Roman-53"/>
     </g>
    </g>
   </g>
   <g id="text_39">
    <g clip-path="url(#pa7542462e2)">
     <!-- HUGO -->
     <g transform="translate(333.949727021 391.956010734)scale(0.12 -0.12)">
      <use xlink:href="#BitstreamVeraSans-Roman-48"/>
      <use x="75.1953125" xlink:href="#BitstreamVeraSans-Roman-55"/>
      <use x="148.388671875" xlink:href="#BitstreamVeraSans-Roman-47"/>
      <use x="225.87890625" xlink:href="#BitstreamVeraSans-Roman-4f"/>
     </g>
    </g>
   </g>
   <g id="text_40">
    <g clip-path="url(#pa7542462e2)">
     <!-- DIE DEUTSCHEN -->
     <g transform="translate(230.447139126 328.105751012)scale(0.12 -0.12)">
      <use xlink:href="#BitstreamVeraSans-Roman-44"/>
      <use x="77.001953125" xlink:href="#BitstreamVeraSans-Roman-49"/>
      <use x="106.494140625" xlink:href="#BitstreamVeraSans-Roman-45"/>
      <use x="169.677734375" xlink:href="#BitstreamVeraSans-Roman-20"/>
      <use x="201.46484375" xlink:href="#BitstreamVeraSans-Roman-44"/>
      <use x="278.466796875" xlink:href="#BitstreamVeraSans-Roman-45"/>
      <use x="341.650390625" xlink:href="#BitstreamVeraSans-Roman-55"/>
      <use x="414.84375" xlink:href="#BitstreamVeraSans-Roman-54"/>
      <use x="475.927734375" xlink:href="#BitstreamVeraSans-Roman-53"/>
      <use x="539.404296875" xlink:href="#BitstreamVeraSans-Roman-43"/>
      <use x="609.228515625" xlink:href="#BitstreamVeraSans-Roman-48"/>
      <use x="684.423828125" xlink:href="#BitstreamVeraSans-Roman-45"/>
      <use x="747.607421875" xlink:href="#BitstreamVeraSans-Roman-4e"/>
     </g>
    </g>
   </g>
   <g id="text_41">
    <g clip-path="url(#pa7542462e2)">
     <!-- OTTGAR -->
     <g transform="translate(136.9862821 379.460227293)scale(0.12 -0.12)">
      <use xlink:href="#BitstreamVeraSans-Roman-4f"/>
      <use x="78.7109375" xlink:href="#BitstreamVeraSans-Roman-54"/>
      <use x="139.779296875" xlink:href="#BitstreamVeraSans-Roman-54"/>
      <use x="200.86328125" xlink:href="#BitstreamVeraSans-Roman-47"/>
      <use x="278.353515625" xlink:href="#BitstreamVeraSans-Roman-41"/>
      <use x="346.76171875" xlink:href="#BitstreamVeraSans-Roman-52"/>
     </g>
    </g>
   </g>
   <g id="text_42">
    <g clip-path="url(#pa7542462e2)">
     <!-- EBO -->
     <g transform="translate(295.528706884 457.96610258)scale(0.12 -0.12)">
      <use xlink:href="#BitstreamVeraSans-Roman-45"/>
      <use x="63.18359375" xlink:href="#BitstreamVeraSans-Roman-42"/>
      <use x="131.771484375" xlink:href="#BitstreamVeraSans-Roman-4f"/>
     </g>
    </g>
   </g>
   <g id="text_43">
    <g clip-path="url(#pa7542462e2)">
     <!-- WALA -->
     <g transform="translate(274.01294679 402.378142946)scale(0.12 -0.12)">
      <use xlink:href="#BitstreamVeraSans-Roman-57"/>
      <use x="98.798828125" xlink:href="#BitstreamVeraSans-Roman-41"/>
      <use x="167.20703125" xlink:href="#BitstreamVeraSans-Roman-4c"/>
      <use x="222.951171875" xlink:href="#BitstreamVeraSans-Roman-41"/>
     </g>
    </g>
   </g>
  </g>
 </g>
 <defs>
  <clipPath id="pa7542462e2">
   <rect height="547.2" width="576.0" x="0.0" y="28.8"/>
  </clipPath>
 </defs>
</svg>
