<?xml version="1.0" encoding="utf-8" standalone="no"?>
<!DOCTYPE svg PUBLIC "-//W3C//DTD SVG 1.1//EN"
  "http://www.w3.org/Graphics/SVG/1.1/DTD/svg11.dtd">
<!-- Created with matplotlib (http://matplotlib.org/) -->
<svg height="576pt" version="1.1" viewBox="0 0 576 576" width="576pt" xmlns="http://www.w3.org/2000/svg" xmlns:xlink="http://www.w3.org/1999/xlink">
 <defs>
  <style type="text/css">
*{stroke-linecap:butt;stroke-linejoin:round;stroke-miterlimit:100000;}
  </style>
 </defs>
 <g id="figure_1">
  <g id="patch_1">
   <path d="M 0 576 
L 576 576 
L 576 0 
L 0 0 
z
" style="fill:#ffffff;"/>
  </g>
  <g id="axes_1">
   <g id="patch_2">
    <path d="M 0 576 
L 576 576 
L 576 28.8 
L 0 28.8 
z
" style="fill:#ffffff;"/>
   </g>
   <g id="LineCollection_1">
    <path clip-path="url(#pb1acf4f9f9)" d="M 448.612961 112.869414 
L 402.138501 106.971429 
" style="fill:none;stroke:#808080;"/>
    <path clip-path="url(#pb1acf4f9f9)" d="M 448.612961 112.869414 
L 354.070231 121.802786 
" style="fill:none;stroke:#808080;"/>
    <path clip-path="url(#pb1acf4f9f9)" d="M 448.612961 112.869414 
L 400.784133 233.759324 
" style="fill:none;stroke:#808080;"/>
    <path clip-path="url(#pb1acf4f9f9)" d="M 448.612961 112.869414 
L 460.517332 157.755216 
" style="fill:none;stroke:#808080;"/>
    <path clip-path="url(#pb1acf4f9f9)" d="M 448.612961 112.869414 
L 382.866977 221.551477 
" style="fill:none;stroke:#808080;"/>
    <path clip-path="url(#pb1acf4f9f9)" d="M 448.612961 112.869414 
L 311.066358 221.523118 
" style="fill:none;stroke:#808080;"/>
    <path clip-path="url(#pb1acf4f9f9)" d="M 448.612961 112.869414 
L 349.565796 259.331441 
" style="fill:none;stroke:#808080;"/>
    <path clip-path="url(#pb1acf4f9f9)" d="M 402.138501 106.971429 
L 354.345842 293.480153 
" style="fill:none;stroke:#808080;"/>
    <path clip-path="url(#pb1acf4f9f9)" d="M 402.138501 106.971429 
L 286.540858 267.831888 
" style="fill:none;stroke:#808080;stroke-width:2.0;"/>
    <path clip-path="url(#pb1acf4f9f9)" d="M 402.138501 106.971429 
L 354.070231 121.802786 
" style="fill:none;stroke:#808080;"/>
    <path clip-path="url(#pb1acf4f9f9)" d="M 402.138501 106.971429 
L 400.784133 233.759324 
" style="fill:none;stroke:#808080;stroke-width:2.0;"/>
    <path clip-path="url(#pb1acf4f9f9)" d="M 402.138501 106.971429 
L 397.102938 293.013485 
" style="fill:none;stroke:#808080;"/>
    <path clip-path="url(#pb1acf4f9f9)" d="M 402.138501 106.971429 
L 460.517332 157.755216 
" style="fill:none;stroke:#808080;"/>
    <path clip-path="url(#pb1acf4f9f9)" d="M 402.138501 106.971429 
L 382.866977 221.551477 
" style="fill:none;stroke:#808080;stroke-width:2.0;"/>
    <path clip-path="url(#pb1acf4f9f9)" d="M 402.138501 106.971429 
L 268.898884 146.317583 
" style="fill:none;stroke:#808080;"/>
    <path clip-path="url(#pb1acf4f9f9)" d="M 402.138501 106.971429 
L 311.066358 221.523118 
" style="fill:none;stroke:#808080;stroke-width:3.0;"/>
    <path clip-path="url(#pb1acf4f9f9)" d="M 402.138501 106.971429 
L 349.565796 259.331441 
" style="fill:none;stroke:#808080;stroke-width:3.0;"/>
    <path clip-path="url(#pb1acf4f9f9)" d="M 398.597295 341.896115 
L 354.345842 293.480153 
" style="fill:none;stroke:#808080;stroke-width:3.0;"/>
    <path clip-path="url(#pb1acf4f9f9)" d="M 398.597295 341.896115 
L 428.295813 310.536922 
" style="fill:none;stroke:#808080;stroke-width:5.0;"/>
    <path clip-path="url(#pb1acf4f9f9)" d="M 398.597295 341.896115 
L 474.013895 474.00323 
" style="fill:none;stroke:#808080;"/>
    <path clip-path="url(#pb1acf4f9f9)" d="M 398.597295 341.896115 
L 400.784133 233.759324 
" style="fill:none;stroke:#808080;"/>
    <path clip-path="url(#pb1acf4f9f9)" d="M 398.597295 341.896115 
L 354.512927 362.344452 
" style="fill:none;stroke:#808080;"/>
    <path clip-path="url(#pb1acf4f9f9)" d="M 398.597295 341.896115 
L 397.102938 293.013485 
" style="fill:none;stroke:#808080;stroke-width:5.0;"/>
    <path clip-path="url(#pb1acf4f9f9)" d="M 398.597295 341.896115 
L 382.866977 221.551477 
" style="fill:none;stroke:#808080;stroke-width:2.0;"/>
    <path clip-path="url(#pb1acf4f9f9)" d="M 398.597295 341.896115 
L 438.333222 344.076361 
" style="fill:none;stroke:#808080;stroke-width:4.0;"/>
    <path clip-path="url(#pb1acf4f9f9)" d="M 398.597295 341.896115 
L 349.565796 259.331441 
" style="fill:none;stroke:#808080;stroke-width:3.0;"/>
    <path clip-path="url(#pb1acf4f9f9)" d="M 354.070231 121.802786 
L 460.517332 157.755216 
" style="fill:none;stroke:#808080;"/>
    <path clip-path="url(#pb1acf4f9f9)" d="M 354.070231 121.802786 
L 400.784133 233.759324 
" style="fill:none;stroke:#808080;"/>
    <path clip-path="url(#pb1acf4f9f9)" d="M 354.070231 121.802786 
L 382.866977 221.551477 
" style="fill:none;stroke:#808080;"/>
    <path clip-path="url(#pb1acf4f9f9)" d="M 354.070231 121.802786 
L 311.066358 221.523118 
" style="fill:none;stroke:#808080;"/>
    <path clip-path="url(#pb1acf4f9f9)" d="M 354.070231 121.802786 
L 349.565796 259.331441 
" style="fill:none;stroke:#808080;"/>
    <path clip-path="url(#pb1acf4f9f9)" d="M 474.013895 474.00323 
L 397.102938 293.013485 
" style="fill:none;stroke:#808080;"/>
    <path clip-path="url(#pb1acf4f9f9)" d="M 474.013895 474.00323 
L 438.333222 344.076361 
" style="fill:none;stroke:#808080;"/>
    <path clip-path="url(#pb1acf4f9f9)" d="M 474.013895 474.00323 
L 428.295813 310.536922 
" style="fill:none;stroke:#808080;"/>
    <path clip-path="url(#pb1acf4f9f9)" d="M 400.784133 233.759324 
L 438.333222 344.076361 
" style="fill:none;stroke:#808080;stroke-width:2.0;"/>
    <path clip-path="url(#pb1acf4f9f9)" d="M 400.784133 233.759324 
L 397.102938 293.013485 
" style="fill:none;stroke:#808080;"/>
    <path clip-path="url(#pb1acf4f9f9)" d="M 400.784133 233.759324 
L 382.866977 221.551477 
" style="fill:none;stroke:#808080;"/>
    <path clip-path="url(#pb1acf4f9f9)" d="M 400.784133 233.759324 
L 286.540858 267.831888 
" style="fill:none;stroke:#808080;"/>
    <path clip-path="url(#pb1acf4f9f9)" d="M 400.784133 233.759324 
L 354.345842 293.480153 
" style="fill:none;stroke:#808080;"/>
    <path clip-path="url(#pb1acf4f9f9)" d="M 400.784133 233.759324 
L 268.898884 146.317583 
" style="fill:none;stroke:#808080;"/>
    <path clip-path="url(#pb1acf4f9f9)" d="M 400.784133 233.759324 
L 349.565796 259.331441 
" style="fill:none;stroke:#808080;stroke-width:5.0;"/>
    <path clip-path="url(#pb1acf4f9f9)" d="M 400.784133 233.759324 
L 428.295813 310.536922 
" style="fill:none;stroke:#808080;"/>
    <path clip-path="url(#pb1acf4f9f9)" d="M 400.784133 233.759324 
L 354.512927 362.344452 
" style="fill:none;stroke:#808080;stroke-width:2.0;"/>
    <path clip-path="url(#pb1acf4f9f9)" d="M 400.784133 233.759324 
L 460.517332 157.755216 
" style="fill:none;stroke:#808080;"/>
    <path clip-path="url(#pb1acf4f9f9)" d="M 400.784133 233.759324 
L 311.066358 221.523118 
" style="fill:none;stroke:#808080;stroke-width:3.0;"/>
    <path clip-path="url(#pb1acf4f9f9)" d="M 397.102938 293.013485 
L 382.866977 221.551477 
" style="fill:none;stroke:#808080;stroke-width:3.0;"/>
    <path clip-path="url(#pb1acf4f9f9)" d="M 397.102938 293.013485 
L 286.540858 267.831888 
" style="fill:none;stroke:#808080;stroke-width:2.0;"/>
    <path clip-path="url(#pb1acf4f9f9)" d="M 397.102938 293.013485 
L 354.345842 293.480153 
" style="fill:none;stroke:#808080;stroke-width:5.0;"/>
    <path clip-path="url(#pb1acf4f9f9)" d="M 397.102938 293.013485 
L 349.565796 259.331441 
" style="fill:none;stroke:#808080;stroke-width:2.0;"/>
    <path clip-path="url(#pb1acf4f9f9)" d="M 397.102938 293.013485 
L 428.295813 310.536922 
" style="fill:none;stroke:#808080;stroke-width:4.0;"/>
    <path clip-path="url(#pb1acf4f9f9)" d="M 397.102938 293.013485 
L 311.066358 221.523118 
" style="fill:none;stroke:#808080;"/>
    <path clip-path="url(#pb1acf4f9f9)" d="M 397.102938 293.013485 
L 354.512927 362.344452 
" style="fill:none;stroke:#808080;"/>
    <path clip-path="url(#pb1acf4f9f9)" d="M 397.102938 293.013485 
L 438.333222 344.076361 
" style="fill:none;stroke:#808080;stroke-width:2.0;"/>
    <path clip-path="url(#pb1acf4f9f9)" d="M 382.866977 221.551477 
L 438.333222 344.076361 
" style="fill:none;stroke:#808080;"/>
    <path clip-path="url(#pb1acf4f9f9)" d="M 382.866977 221.551477 
L 286.540858 267.831888 
" style="fill:none;stroke:#808080;stroke-width:2.0;"/>
    <path clip-path="url(#pb1acf4f9f9)" d="M 382.866977 221.551477 
L 354.345842 293.480153 
" style="fill:none;stroke:#808080;stroke-width:2.0;"/>
    <path clip-path="url(#pb1acf4f9f9)" d="M 382.866977 221.551477 
L 349.565796 259.331441 
" style="fill:none;stroke:#808080;stroke-width:3.0;"/>
    <path clip-path="url(#pb1acf4f9f9)" d="M 382.866977 221.551477 
L 428.295813 310.536922 
" style="fill:none;stroke:#808080;stroke-width:3.0;"/>
    <path clip-path="url(#pb1acf4f9f9)" d="M 382.866977 221.551477 
L 460.517332 157.755216 
" style="fill:none;stroke:#808080;"/>
    <path clip-path="url(#pb1acf4f9f9)" d="M 382.866977 221.551477 
L 311.066358 221.523118 
" style="fill:none;stroke:#808080;stroke-width:2.0;"/>
    <path clip-path="url(#pb1acf4f9f9)" d="M 286.540858 267.831888 
L 428.295813 310.536922 
" style="fill:none;stroke:#808080;"/>
    <path clip-path="url(#pb1acf4f9f9)" d="M 286.540858 267.831888 
L 82.285714 497.828571 
" style="fill:none;stroke:#808080;"/>
    <path clip-path="url(#pb1acf4f9f9)" d="M 286.540858 267.831888 
L 268.898884 146.317583 
" style="fill:none;stroke:#808080;"/>
    <path clip-path="url(#pb1acf4f9f9)" d="M 286.540858 267.831888 
L 354.345842 293.480153 
" style="fill:none;stroke:#808080;stroke-width:2.0;"/>
    <path clip-path="url(#pb1acf4f9f9)" d="M 286.540858 267.831888 
L 311.066358 221.523118 
" style="fill:none;stroke:#808080;stroke-width:3.0;"/>
    <path clip-path="url(#pb1acf4f9f9)" d="M 286.540858 267.831888 
L 349.565796 259.331441 
" style="fill:none;stroke:#808080;stroke-width:2.0;"/>
    <path clip-path="url(#pb1acf4f9f9)" d="M 354.345842 293.480153 
L 354.512927 362.344452 
" style="fill:none;stroke:#808080;"/>
    <path clip-path="url(#pb1acf4f9f9)" d="M 354.345842 293.480153 
L 438.333222 344.076361 
" style="fill:none;stroke:#808080;"/>
    <path clip-path="url(#pb1acf4f9f9)" d="M 354.345842 293.480153 
L 349.565796 259.331441 
" style="fill:none;stroke:#808080;"/>
    <path clip-path="url(#pb1acf4f9f9)" d="M 354.345842 293.480153 
L 311.066358 221.523118 
" style="fill:none;stroke:#808080;"/>
    <path clip-path="url(#pb1acf4f9f9)" d="M 354.345842 293.480153 
L 428.295813 310.536922 
" style="fill:none;stroke:#808080;stroke-width:2.0;"/>
    <path clip-path="url(#pb1acf4f9f9)" d="M 268.898884 146.317583 
L 311.066358 221.523118 
" style="fill:none;stroke:#808080;"/>
    <path clip-path="url(#pb1acf4f9f9)" d="M 268.898884 146.317583 
L 349.565796 259.331441 
" style="fill:none;stroke:#808080;"/>
    <path clip-path="url(#pb1acf4f9f9)" d="M 349.565796 259.331441 
L 438.333222 344.076361 
" style="fill:none;stroke:#808080;stroke-width:3.0;"/>
    <path clip-path="url(#pb1acf4f9f9)" d="M 349.565796 259.331441 
L 428.295813 310.536922 
" style="fill:none;stroke:#808080;stroke-width:3.0;"/>
    <path clip-path="url(#pb1acf4f9f9)" d="M 349.565796 259.331441 
L 82.285714 497.828571 
" style="fill:none;stroke:#808080;"/>
    <path clip-path="url(#pb1acf4f9f9)" d="M 349.565796 259.331441 
L 354.512927 362.344452 
" style="fill:none;stroke:#808080;stroke-width:2.0;"/>
    <path clip-path="url(#pb1acf4f9f9)" d="M 349.565796 259.331441 
L 460.517332 157.755216 
" style="fill:none;stroke:#808080;"/>
    <path clip-path="url(#pb1acf4f9f9)" d="M 349.565796 259.331441 
L 311.066358 221.523118 
" style="fill:none;stroke:#808080;stroke-width:4.0;"/>
    <path clip-path="url(#pb1acf4f9f9)" d="M 428.295813 310.536922 
L 354.512927 362.344452 
" style="fill:none;stroke:#808080;"/>
    <path clip-path="url(#pb1acf4f9f9)" d="M 428.295813 310.536922 
L 438.333222 344.076361 
" style="fill:none;stroke:#808080;stroke-width:4.0;"/>
    <path clip-path="url(#pb1acf4f9f9)" d="M 82.285714 497.828571 
L 311.066358 221.523118 
" style="fill:none;stroke:#808080;"/>
    <path clip-path="url(#pb1acf4f9f9)" d="M 311.066358 221.523118 
L 460.517332 157.755216 
" style="fill:none;stroke:#808080;"/>
    <path clip-path="url(#pb1acf4f9f9)" d="M 354.512927 362.344452 
L 438.333222 344.076361 
" style="fill:none;stroke:#808080;stroke-width:2.0;"/>
   </g>
   <g id="PathCollection_1">
    <path clip-path="url(#pb1acf4f9f9)" d="M 448.612961 117.942411 
C 449.958336 117.942411 451.248788 117.407888 452.200112 116.456564 
C 453.151435 115.505241 453.685958 114.214789 453.685958 112.869414 
C 453.685958 111.52404 453.151435 110.233587 452.200112 109.282264 
C 451.248788 108.330941 449.958336 107.796418 448.612961 107.796418 
C 447.267587 107.796418 445.977134 108.330941 445.025811 109.282264 
C 444.074488 110.233587 443.539965 111.52404 443.539965 112.869414 
C 443.539965 114.214789 444.074488 115.505241 445.025811 116.456564 
C 445.977134 117.407888 447.267587 117.942411 448.612961 117.942411 
z
" style="fill:#4682b4;fill-opacity:0.8;stroke:#000000;stroke-opacity:0.8;"/>
    <path clip-path="url(#pb1acf4f9f9)" d="M 402.138501 113.330766 
C 403.825017 113.330766 405.442685 112.660706 406.635232 111.468159 
C 407.827779 110.275612 408.497839 108.657945 408.497839 106.971429 
C 408.497839 105.284912 407.827779 103.667245 406.635232 102.474698 
C 405.442685 101.282151 403.825017 100.612091 402.138501 100.612091 
C 400.451985 100.612091 398.834317 101.282151 397.64177 102.474698 
C 396.449224 103.667245 395.779164 105.284912 395.779164 106.971429 
C 395.779164 108.657945 396.449224 110.275612 397.64177 111.468159 
C 398.834317 112.660706 400.451985 113.330766 402.138501 113.330766 
z
" style="fill:#4682b4;fill-opacity:0.8;stroke:#000000;stroke-opacity:0.8;"/>
    <path clip-path="url(#pb1acf4f9f9)" d="M 398.597295 347.648353 
C 400.122806 347.648353 401.586042 347.042261 402.664741 345.963561 
C 403.74344 344.884862 404.349532 343.421627 404.349532 341.896115 
C 404.349532 340.370604 403.74344 338.907369 402.664741 337.828669 
C 401.586042 336.74997 400.122806 336.143878 398.597295 336.143878 
C 397.071784 336.143878 395.608548 336.74997 394.529849 337.828669 
C 393.45115 338.907369 392.845058 340.370604 392.845058 341.896115 
C 392.845058 343.421627 393.45115 344.884862 394.529849 345.963561 
C 395.608548 347.042261 397.071784 347.648353 398.597295 347.648353 
z
" style="fill:#4682b4;fill-opacity:0.8;stroke:#000000;stroke-opacity:0.8;"/>
    <path clip-path="url(#pb1acf4f9f9)" d="M 354.070231 126.875783 
C 355.415605 126.875783 356.706058 126.34126 357.657381 125.389936 
C 358.608705 124.438613 359.143227 123.148161 359.143227 121.802786 
C 359.143227 120.457412 358.608705 119.166959 357.657381 118.215636 
C 356.706058 117.264312 355.415605 116.72979 354.070231 116.72979 
C 352.724857 116.72979 351.434404 117.264312 350.483081 118.215636 
C 349.531757 119.166959 348.997234 120.457412 348.997234 121.802786 
C 348.997234 123.148161 349.531757 124.438613 350.483081 125.389936 
C 351.434404 126.34126 352.724857 126.875783 354.070231 126.875783 
z
" style="fill:#4682b4;fill-opacity:0.8;stroke:#000000;stroke-opacity:0.8;"/>
    <path clip-path="url(#pb1acf4f9f9)" d="M 474.013895 477.838055 
C 475.030902 477.838055 476.006392 477.433993 476.725525 476.714861 
C 477.444658 475.995728 477.84872 475.020237 477.84872 474.00323 
C 477.84872 472.986222 477.444658 472.010732 476.725525 471.291599 
C 476.006392 470.572466 475.030902 470.168405 474.013895 470.168405 
C 472.996887 470.168405 472.021397 470.572466 471.302264 471.291599 
C 470.583131 472.010732 470.17907 472.986222 470.17907 474.00323 
C 470.17907 475.020237 470.583131 475.995728 471.302264 476.714861 
C 472.021397 477.433993 472.996887 477.838055 474.013895 477.838055 
z
" style="fill:#4682b4;fill-opacity:0.8;stroke:#000000;stroke-opacity:0.8;"/>
    <path clip-path="url(#pb1acf4f9f9)" d="M 400.784133 241.185431 
C 402.753559 241.185431 404.642588 240.402969 406.035183 239.010375 
C 407.427778 237.61778 408.21024 235.728751 408.21024 233.759324 
C 408.21024 231.789898 407.427778 229.900869 406.035183 228.508274 
C 404.642588 227.115679 402.753559 226.333218 400.784133 226.333218 
C 398.814707 226.333218 396.925677 227.115679 395.533083 228.508274 
C 394.140488 229.900869 393.358026 231.789898 393.358026 233.759324 
C 393.358026 235.728751 394.140488 237.61778 395.533083 239.010375 
C 396.925677 240.402969 398.814707 241.185431 400.784133 241.185431 
z
" style="fill:#4682b4;fill-opacity:0.8;stroke:#000000;stroke-opacity:0.8;"/>
    <path clip-path="url(#pb1acf4f9f9)" d="M 397.102938 299.655597 
C 398.864447 299.655597 400.554045 298.955742 401.79962 297.710167 
C 403.045195 296.464593 403.74505 294.774994 403.74505 293.013485 
C 403.74505 291.251977 403.045195 289.562378 401.79962 288.316803 
C 400.554045 287.071228 398.864447 286.371373 397.102938 286.371373 
C 395.341429 286.371373 393.65183 287.071228 392.406256 288.316803 
C 391.160681 289.562378 390.460826 291.251977 390.460826 293.013485 
C 390.460826 294.774994 391.160681 296.464593 392.406256 297.710167 
C 393.65183 298.955742 395.341429 299.655597 397.102938 299.655597 
z
" style="fill:#4682b4;fill-opacity:0.8;stroke:#000000;stroke-opacity:0.8;"/>
    <path clip-path="url(#pb1acf4f9f9)" d="M 382.866977 228.464806 
C 384.700413 228.464806 386.459004 227.736374 387.755439 226.439938 
C 389.051874 225.143503 389.780306 223.384913 389.780306 221.551477 
C 389.780306 219.71804 389.051874 217.95945 387.755439 216.663015 
C 386.459004 215.36658 384.700413 214.638148 382.866977 214.638148 
C 381.033541 214.638148 379.274951 215.36658 377.978515 216.663015 
C 376.68208 217.95945 375.953648 219.71804 375.953648 221.551477 
C 375.953648 223.384913 376.68208 225.143503 377.978515 226.439938 
C 379.274951 227.736374 381.033541 228.464806 382.866977 228.464806 
z
" style="fill:#4682b4;fill-opacity:0.8;stroke:#000000;stroke-opacity:0.8;"/>
    <path clip-path="url(#pb1acf4f9f9)" d="M 286.540858 273.895279 
C 288.148888 273.895279 289.691274 273.256402 290.828323 272.119353 
C 291.965372 270.982304 292.604249 269.439918 292.604249 267.831888 
C 292.604249 266.223858 291.965372 264.681473 290.828323 263.544424 
C 289.691274 262.407375 288.148888 261.768498 286.540858 261.768498 
C 284.932828 261.768498 283.390442 262.407375 282.253393 263.544424 
C 281.116344 264.681473 280.477467 266.223858 280.477467 267.831888 
C 280.477467 269.439918 281.116344 270.982304 282.253393 272.119353 
C 283.390442 273.256402 284.932828 273.895279 286.540858 273.895279 
z
" style="fill:#4682b4;fill-opacity:0.8;stroke:#000000;stroke-opacity:0.8;"/>
    <path clip-path="url(#pb1acf4f9f9)" d="M 354.345842 299.83949 
C 356.032358 299.83949 357.650026 299.16943 358.842573 297.976883 
C 360.03512 296.784336 360.70518 295.166669 360.70518 293.480153 
C 360.70518 291.793637 360.03512 290.175969 358.842573 288.983422 
C 357.650026 287.790875 356.032358 287.120815 354.345842 287.120815 
C 352.659326 287.120815 351.041658 287.790875 349.849111 288.983422 
C 348.656564 290.175969 347.986504 291.793637 347.986504 293.480153 
C 347.986504 295.166669 348.656564 296.784336 349.849111 297.976883 
C 351.041658 299.16943 352.659326 299.83949 354.345842 299.83949 
z
" style="fill:#4682b4;fill-opacity:0.8;stroke:#000000;stroke-opacity:0.8;"/>
    <path clip-path="url(#pb1acf4f9f9)" d="M 268.898884 150.605048 
C 270.035933 150.605048 271.126564 150.153294 271.930579 149.349279 
C 272.734594 148.545264 273.186348 147.454632 273.186348 146.317583 
C 273.186348 145.180535 272.734594 144.089903 271.930579 143.285888 
C 271.126564 142.481873 270.035933 142.030119 268.898884 142.030119 
C 267.761835 142.030119 266.671203 142.481873 265.867188 143.285888 
C 265.063173 144.089903 264.611419 145.180535 264.611419 146.317583 
C 264.611419 147.454632 265.063173 148.545264 265.867188 149.349279 
C 266.671203 150.153294 267.761835 150.605048 268.898884 150.605048 
z
" style="fill:#4682b4;fill-opacity:0.8;stroke:#000000;stroke-opacity:0.8;"/>
    <path clip-path="url(#pb1acf4f9f9)" d="M 349.565796 267.001091 
C 351.59981 267.001091 353.550791 266.192969 354.989057 264.754703 
C 356.427323 263.316437 357.235445 261.365456 357.235445 259.331441 
C 357.235445 257.297426 356.427323 255.346446 354.989057 253.90818 
C 353.550791 252.469914 351.59981 251.661792 349.565796 251.661792 
C 347.531781 251.661792 345.5808 252.469914 344.142534 253.90818 
C 342.704268 255.346446 341.896146 257.297426 341.896146 259.331441 
C 341.896146 261.365456 342.704268 263.316437 344.142534 264.754703 
C 345.5808 266.192969 347.531781 267.001091 349.565796 267.001091 
z
" style="fill:#4682b4;fill-opacity:0.8;stroke:#000000;stroke-opacity:0.8;"/>
    <path clip-path="url(#pb1acf4f9f9)" d="M 428.295813 316.600312 
C 429.903843 316.600312 431.446228 315.961435 432.583277 314.824386 
C 433.720326 313.687337 434.359203 312.144951 434.359203 310.536922 
C 434.359203 308.928892 433.720326 307.386506 432.583277 306.249457 
C 431.446228 305.112408 429.903843 304.473531 428.295813 304.473531 
C 426.687783 304.473531 425.145397 305.112408 424.008348 306.249457 
C 422.871299 307.386506 422.232422 308.928892 422.232422 310.536922 
C 422.232422 312.144951 422.871299 313.687337 424.008348 314.824386 
C 425.145397 315.961435 426.687783 316.600312 428.295813 316.600312 
z
" style="fill:#4682b4;fill-opacity:0.8;stroke:#000000;stroke-opacity:0.8;"/>
    <path clip-path="url(#pb1acf4f9f9)" d="M 82.285714 501.149627 
C 83.166469 501.149627 84.011268 500.7997 84.634055 500.176913 
C 85.256843 499.554125 85.60677 498.709326 85.60677 497.828571 
C 85.60677 496.947817 85.256843 496.103018 84.634055 495.48023 
C 84.011268 494.857443 83.166469 494.507516 82.285714 494.507516 
C 81.40496 494.507516 80.560161 494.857443 79.937373 495.48023 
C 79.314586 496.103018 78.964658 496.947817 78.964658 497.828571 
C 78.964658 498.709326 79.314586 499.554125 79.937373 500.176913 
C 80.560161 500.7997 81.40496 501.149627 82.285714 501.149627 
z
" style="fill:#4682b4;fill-opacity:0.8;stroke:#000000;stroke-opacity:0.8;"/>
    <path clip-path="url(#pb1acf4f9f9)" d="M 311.066358 226.596115 
C 312.411732 226.596115 313.702185 226.061592 314.653508 225.110268 
C 315.604831 224.158945 316.139354 222.868493 316.139354 221.523118 
C 316.139354 220.177744 315.604831 218.887291 314.653508 217.935968 
C 313.702185 216.984645 312.411732 216.450122 311.066358 216.450122 
C 309.720983 216.450122 308.430531 216.984645 307.479207 217.935968 
C 306.527884 218.887291 305.993361 220.177744 305.993361 221.523118 
C 305.993361 222.868493 306.527884 224.158945 307.479207 225.110268 
C 308.430531 226.061592 309.720983 226.596115 311.066358 226.596115 
z
" style="fill:#4682b4;fill-opacity:0.8;stroke:#000000;stroke-opacity:0.8;"/>
    <path clip-path="url(#pb1acf4f9f9)" d="M 354.512927 367.417449 
C 355.858301 367.417449 357.148754 366.882926 358.100077 365.931603 
C 359.0514 364.980279 359.585923 363.689827 359.585923 362.344452 
C 359.585923 360.999078 359.0514 359.708625 358.100077 358.757302 
C 357.148754 357.805979 355.858301 357.271456 354.512927 357.271456 
C 353.167552 357.271456 351.8771 357.805979 350.925776 358.757302 
C 349.974453 359.708625 349.43993 360.999078 349.43993 362.344452 
C 349.43993 363.689827 349.974453 364.980279 350.925776 365.931603 
C 351.8771 366.882926 353.167552 367.417449 354.512927 367.417449 
z
" style="fill:#4682b4;fill-opacity:0.8;stroke:#000000;stroke-opacity:0.8;"/>
    <path clip-path="url(#pb1acf4f9f9)" d="M 460.517332 164.397328 
C 462.278841 164.397328 463.96844 163.697473 465.214014 162.451898 
C 466.459589 161.206324 467.159444 159.516725 467.159444 157.755216 
C 467.159444 155.993708 466.459589 154.304109 465.214014 153.058534 
C 463.96844 151.812959 462.278841 151.113105 460.517332 151.113105 
C 458.755824 151.113105 457.066225 151.812959 455.82065 153.058534 
C 454.575075 154.304109 453.87522 155.993708 453.87522 157.755216 
C 453.87522 159.516725 454.575075 161.206324 455.82065 162.451898 
C 457.066225 163.697473 458.755824 164.397328 460.517332 164.397328 
z
" style="fill:#4682b4;fill-opacity:0.8;stroke:#000000;stroke-opacity:0.8;"/>
    <path clip-path="url(#pb1acf4f9f9)" d="M 438.333222 349.828599 
C 439.858733 349.828599 441.321969 349.222507 442.400668 348.143807 
C 443.479367 347.065108 444.08546 345.601872 444.08546 344.076361 
C 444.08546 342.55085 443.479367 341.087614 442.400668 340.008915 
C 441.321969 338.930216 439.858733 338.324124 438.333222 338.324124 
C 436.807711 338.324124 435.344475 338.930216 434.265776 340.008915 
C 433.187077 341.087614 432.580985 342.55085 432.580985 344.076361 
C 432.580985 345.601872 433.187077 347.065108 434.265776 348.143807 
C 435.344475 349.222507 436.807711 349.828599 438.333222 349.828599 
z
" style="fill:#4682b4;fill-opacity:0.8;stroke:#000000;stroke-opacity:0.8;"/>
   </g>
   <g id="patch_3">
    <path d="M 0 576 
L 576 576 
" style="fill:none;stroke:#000000;stroke-linecap:square;stroke-linejoin:miter;"/>
   </g>
   <g id="patch_4">
    <path d="M 0 576 
L 0 28.8 
" style="fill:none;stroke:#000000;stroke-linecap:square;stroke-linejoin:miter;"/>
   </g>
   <g id="patch_5">
    <path d="M 0 28.8 
L 576 28.8 
" style="fill:none;stroke:#000000;stroke-linecap:square;stroke-linejoin:miter;"/>
   </g>
   <g id="patch_6">
    <path d="M 576 576 
L 576 28.8 
" style="fill:none;stroke:#000000;stroke-linecap:square;stroke-linejoin:miter;"/>
   </g>
   <g id="matplotlib.axis_1">
    <g id="xtick_1">
     <g id="line2d_1">
      <defs>
       <path d="M 0 0 
L 0 -4 
" id="m0823b4694a" style="stroke:#000000;stroke-width:0.5;"/>
      </defs>
      <g>
       <use style="stroke:#000000;stroke-width:0.5;" x="0.0" xlink:href="#m0823b4694a" y="576.0"/>
      </g>
     </g>
     <g id="line2d_2">
      <defs>
       <path d="M 0 0 
L 0 4 
" id="mf99f426dce" style="stroke:#000000;stroke-width:0.5;"/>
      </defs>
      <g>
       <use style="stroke:#000000;stroke-width:0.5;" x="0.0" xlink:href="#mf99f426dce" y="28.8"/>
      </g>
     </g>
     <g id="text_1">
      <!-- −0.2 -->
      <defs>
       <path d="M 10.59375 35.5 
L 73.1875 35.5 
L 73.1875 27.203125 
L 10.59375 27.203125 
z
" id="BitstreamVeraSans-Roman-2212"/>
       <path d="M 10.6875 12.40625 
L 21 12.40625 
L 21 0 
L 10.6875 0 
z
" id="BitstreamVeraSans-Roman-2e"/>
       <path d="M 31.78125 66.40625 
Q 24.171875 66.40625 20.328125 58.90625 
Q 16.5 51.421875 16.5 36.375 
Q 16.5 21.390625 20.328125 13.890625 
Q 24.171875 6.390625 31.78125 6.390625 
Q 39.453125 6.390625 43.28125 13.890625 
Q 47.125 21.390625 47.125 36.375 
Q 47.125 51.421875 43.28125 58.90625 
Q 39.453125 66.40625 31.78125 66.40625 
M 31.78125 74.21875 
Q 44.046875 74.21875 50.515625 64.515625 
Q 56.984375 54.828125 56.984375 36.375 
Q 56.984375 17.96875 50.515625 8.265625 
Q 44.046875 -1.421875 31.78125 -1.421875 
Q 19.53125 -1.421875 13.0625 8.265625 
Q 6.59375 17.96875 6.59375 36.375 
Q 6.59375 54.828125 13.0625 64.515625 
Q 19.53125 74.21875 31.78125 74.21875 
" id="BitstreamVeraSans-Roman-30"/>
       <path d="M 19.1875 8.296875 
L 53.609375 8.296875 
L 53.609375 0 
L 7.328125 0 
L 7.328125 8.296875 
Q 12.9375 14.109375 22.625 23.890625 
Q 32.328125 33.6875 34.8125 36.53125 
Q 39.546875 41.84375 41.421875 45.53125 
Q 43.3125 49.21875 43.3125 52.78125 
Q 43.3125 58.59375 39.234375 62.25 
Q 35.15625 65.921875 28.609375 65.921875 
Q 23.96875 65.921875 18.8125 64.3125 
Q 13.671875 62.703125 7.8125 59.421875 
L 7.8125 69.390625 
Q 13.765625 71.78125 18.9375 73 
Q 24.125 74.21875 28.421875 74.21875 
Q 39.75 74.21875 46.484375 68.546875 
Q 53.21875 62.890625 53.21875 53.421875 
Q 53.21875 48.921875 51.53125 44.890625 
Q 49.859375 40.875 45.40625 35.40625 
Q 44.1875 33.984375 37.640625 27.21875 
Q 31.109375 20.453125 19.1875 8.296875 
" id="BitstreamVeraSans-Roman-32"/>
      </defs>
      <g transform="translate(-14.5696875 589.118125)scale(0.12 -0.12)">
       <use xlink:href="#BitstreamVeraSans-Roman-2212"/>
       <use x="83.7890625" xlink:href="#BitstreamVeraSans-Roman-30"/>
       <use x="147.412109375" xlink:href="#BitstreamVeraSans-Roman-2e"/>
       <use x="179.19921875" xlink:href="#BitstreamVeraSans-Roman-32"/>
      </g>
     </g>
    </g>
    <g id="xtick_2">
     <g id="line2d_3">
      <g>
       <use style="stroke:#000000;stroke-width:0.5;" x="82.2857142857" xlink:href="#m0823b4694a" y="576.0"/>
      </g>
     </g>
     <g id="line2d_4">
      <g>
       <use style="stroke:#000000;stroke-width:0.5;" x="82.2857142857" xlink:href="#mf99f426dce" y="28.8"/>
      </g>
     </g>
     <g id="text_2">
      <!-- 0.0 -->
      <g transform="translate(72.7438392857 589.118125)scale(0.12 -0.12)">
       <use xlink:href="#BitstreamVeraSans-Roman-30"/>
       <use x="63.623046875" xlink:href="#BitstreamVeraSans-Roman-2e"/>
       <use x="95.41015625" xlink:href="#BitstreamVeraSans-Roman-30"/>
      </g>
     </g>
    </g>
    <g id="xtick_3">
     <g id="line2d_5">
      <g>
       <use style="stroke:#000000;stroke-width:0.5;" x="164.571428571" xlink:href="#m0823b4694a" y="576.0"/>
      </g>
     </g>
     <g id="line2d_6">
      <g>
       <use style="stroke:#000000;stroke-width:0.5;" x="164.571428571" xlink:href="#mf99f426dce" y="28.8"/>
      </g>
     </g>
     <g id="text_3">
      <!-- 0.2 -->
      <g transform="translate(155.029553571 589.118125)scale(0.12 -0.12)">
       <use xlink:href="#BitstreamVeraSans-Roman-30"/>
       <use x="63.623046875" xlink:href="#BitstreamVeraSans-Roman-2e"/>
       <use x="95.41015625" xlink:href="#BitstreamVeraSans-Roman-32"/>
      </g>
     </g>
    </g>
    <g id="xtick_4">
     <g id="line2d_7">
      <g>
       <use style="stroke:#000000;stroke-width:0.5;" x="246.857142857" xlink:href="#m0823b4694a" y="576.0"/>
      </g>
     </g>
     <g id="line2d_8">
      <g>
       <use style="stroke:#000000;stroke-width:0.5;" x="246.857142857" xlink:href="#mf99f426dce" y="28.8"/>
      </g>
     </g>
     <g id="text_4">
      <!-- 0.4 -->
      <defs>
       <path d="M 37.796875 64.3125 
L 12.890625 25.390625 
L 37.796875 25.390625 
z
M 35.203125 72.90625 
L 47.609375 72.90625 
L 47.609375 25.390625 
L 58.015625 25.390625 
L 58.015625 17.1875 
L 47.609375 17.1875 
L 47.609375 0 
L 37.796875 0 
L 37.796875 17.1875 
L 4.890625 17.1875 
L 4.890625 26.703125 
z
" id="BitstreamVeraSans-Roman-34"/>
      </defs>
      <g transform="translate(237.315267857 589.118125)scale(0.12 -0.12)">
       <use xlink:href="#BitstreamVeraSans-Roman-30"/>
       <use x="63.623046875" xlink:href="#BitstreamVeraSans-Roman-2e"/>
       <use x="95.41015625" xlink:href="#BitstreamVeraSans-Roman-34"/>
      </g>
     </g>
    </g>
    <g id="xtick_5">
     <g id="line2d_9">
      <g>
       <use style="stroke:#000000;stroke-width:0.5;" x="329.142857143" xlink:href="#m0823b4694a" y="576.0"/>
      </g>
     </g>
     <g id="line2d_10">
      <g>
       <use style="stroke:#000000;stroke-width:0.5;" x="329.142857143" xlink:href="#mf99f426dce" y="28.8"/>
      </g>
     </g>
     <g id="text_5">
      <!-- 0.6 -->
      <defs>
       <path d="M 33.015625 40.375 
Q 26.375 40.375 22.484375 35.828125 
Q 18.609375 31.296875 18.609375 23.390625 
Q 18.609375 15.53125 22.484375 10.953125 
Q 26.375 6.390625 33.015625 6.390625 
Q 39.65625 6.390625 43.53125 10.953125 
Q 47.40625 15.53125 47.40625 23.390625 
Q 47.40625 31.296875 43.53125 35.828125 
Q 39.65625 40.375 33.015625 40.375 
M 52.59375 71.296875 
L 52.59375 62.3125 
Q 48.875 64.0625 45.09375 64.984375 
Q 41.3125 65.921875 37.59375 65.921875 
Q 27.828125 65.921875 22.671875 59.328125 
Q 17.53125 52.734375 16.796875 39.40625 
Q 19.671875 43.65625 24.015625 45.921875 
Q 28.375 48.1875 33.59375 48.1875 
Q 44.578125 48.1875 50.953125 41.515625 
Q 57.328125 34.859375 57.328125 23.390625 
Q 57.328125 12.15625 50.6875 5.359375 
Q 44.046875 -1.421875 33.015625 -1.421875 
Q 20.359375 -1.421875 13.671875 8.265625 
Q 6.984375 17.96875 6.984375 36.375 
Q 6.984375 53.65625 15.1875 63.9375 
Q 23.390625 74.21875 37.203125 74.21875 
Q 40.921875 74.21875 44.703125 73.484375 
Q 48.484375 72.75 52.59375 71.296875 
" id="BitstreamVeraSans-Roman-36"/>
      </defs>
      <g transform="translate(319.600982143 589.118125)scale(0.12 -0.12)">
       <use xlink:href="#BitstreamVeraSans-Roman-30"/>
       <use x="63.623046875" xlink:href="#BitstreamVeraSans-Roman-2e"/>
       <use x="95.41015625" xlink:href="#BitstreamVeraSans-Roman-36"/>
      </g>
     </g>
    </g>
    <g id="xtick_6">
     <g id="line2d_11">
      <g>
       <use style="stroke:#000000;stroke-width:0.5;" x="411.428571429" xlink:href="#m0823b4694a" y="576.0"/>
      </g>
     </g>
     <g id="line2d_12">
      <g>
       <use style="stroke:#000000;stroke-width:0.5;" x="411.428571429" xlink:href="#mf99f426dce" y="28.8"/>
      </g>
     </g>
     <g id="text_6">
      <!-- 0.8 -->
      <defs>
       <path d="M 31.78125 34.625 
Q 24.75 34.625 20.71875 30.859375 
Q 16.703125 27.09375 16.703125 20.515625 
Q 16.703125 13.921875 20.71875 10.15625 
Q 24.75 6.390625 31.78125 6.390625 
Q 38.8125 6.390625 42.859375 10.171875 
Q 46.921875 13.96875 46.921875 20.515625 
Q 46.921875 27.09375 42.890625 30.859375 
Q 38.875 34.625 31.78125 34.625 
M 21.921875 38.8125 
Q 15.578125 40.375 12.03125 44.71875 
Q 8.5 49.078125 8.5 55.328125 
Q 8.5 64.0625 14.71875 69.140625 
Q 20.953125 74.21875 31.78125 74.21875 
Q 42.671875 74.21875 48.875 69.140625 
Q 55.078125 64.0625 55.078125 55.328125 
Q 55.078125 49.078125 51.53125 44.71875 
Q 48 40.375 41.703125 38.8125 
Q 48.828125 37.15625 52.796875 32.3125 
Q 56.78125 27.484375 56.78125 20.515625 
Q 56.78125 9.90625 50.3125 4.234375 
Q 43.84375 -1.421875 31.78125 -1.421875 
Q 19.734375 -1.421875 13.25 4.234375 
Q 6.78125 9.90625 6.78125 20.515625 
Q 6.78125 27.484375 10.78125 32.3125 
Q 14.796875 37.15625 21.921875 38.8125 
M 18.3125 54.390625 
Q 18.3125 48.734375 21.84375 45.5625 
Q 25.390625 42.390625 31.78125 42.390625 
Q 38.140625 42.390625 41.71875 45.5625 
Q 45.3125 48.734375 45.3125 54.390625 
Q 45.3125 60.0625 41.71875 63.234375 
Q 38.140625 66.40625 31.78125 66.40625 
Q 25.390625 66.40625 21.84375 63.234375 
Q 18.3125 60.0625 18.3125 54.390625 
" id="BitstreamVeraSans-Roman-38"/>
      </defs>
      <g transform="translate(401.886696429 589.118125)scale(0.12 -0.12)">
       <use xlink:href="#BitstreamVeraSans-Roman-30"/>
       <use x="63.623046875" xlink:href="#BitstreamVeraSans-Roman-2e"/>
       <use x="95.41015625" xlink:href="#BitstreamVeraSans-Roman-38"/>
      </g>
     </g>
    </g>
    <g id="xtick_7">
     <g id="line2d_13">
      <g>
       <use style="stroke:#000000;stroke-width:0.5;" x="493.714285714" xlink:href="#m0823b4694a" y="576.0"/>
      </g>
     </g>
     <g id="line2d_14">
      <g>
       <use style="stroke:#000000;stroke-width:0.5;" x="493.714285714" xlink:href="#mf99f426dce" y="28.8"/>
      </g>
     </g>
     <g id="text_7">
      <!-- 1.0 -->
      <defs>
       <path d="M 12.40625 8.296875 
L 28.515625 8.296875 
L 28.515625 63.921875 
L 10.984375 60.40625 
L 10.984375 69.390625 
L 28.421875 72.90625 
L 38.28125 72.90625 
L 38.28125 8.296875 
L 54.390625 8.296875 
L 54.390625 0 
L 12.40625 0 
z
" id="BitstreamVeraSans-Roman-31"/>
      </defs>
      <g transform="translate(484.172410714 589.118125)scale(0.12 -0.12)">
       <use xlink:href="#BitstreamVeraSans-Roman-31"/>
       <use x="63.623046875" xlink:href="#BitstreamVeraSans-Roman-2e"/>
       <use x="95.41015625" xlink:href="#BitstreamVeraSans-Roman-30"/>
      </g>
     </g>
    </g>
    <g id="xtick_8">
     <g id="line2d_15">
      <g>
       <use style="stroke:#000000;stroke-width:0.5;" x="576.0" xlink:href="#m0823b4694a" y="576.0"/>
      </g>
     </g>
     <g id="line2d_16">
      <g>
       <use style="stroke:#000000;stroke-width:0.5;" x="576.0" xlink:href="#mf99f426dce" y="28.8"/>
      </g>
     </g>
     <g id="text_8">
      <!-- 1.2 -->
      <g transform="translate(566.458125 589.118125)scale(0.12 -0.12)">
       <use xlink:href="#BitstreamVeraSans-Roman-31"/>
       <use x="63.623046875" xlink:href="#BitstreamVeraSans-Roman-2e"/>
       <use x="95.41015625" xlink:href="#BitstreamVeraSans-Roman-32"/>
      </g>
     </g>
    </g>
   </g>
   <g id="matplotlib.axis_2">
    <g id="ytick_1">
     <g id="line2d_17">
      <defs>
       <path d="M 0 0 
L 4 0 
" id="m08cf3c099c" style="stroke:#000000;stroke-width:0.5;"/>
      </defs>
      <g>
       <use style="stroke:#000000;stroke-width:0.5;" x="0.0" xlink:href="#m08cf3c099c" y="576.0"/>
      </g>
     </g>
     <g id="line2d_18">
      <defs>
       <path d="M 0 0 
L -4 0 
" id="m3d9318761b" style="stroke:#000000;stroke-width:0.5;"/>
      </defs>
      <g>
       <use style="stroke:#000000;stroke-width:0.5;" x="576.0" xlink:href="#m3d9318761b" y="576.0"/>
      </g>
     </g>
     <g id="text_9">
      <!-- −0.2 -->
      <g transform="translate(-33.139375 579.31125)scale(0.12 -0.12)">
       <use xlink:href="#BitstreamVeraSans-Roman-2212"/>
       <use x="83.7890625" xlink:href="#BitstreamVeraSans-Roman-30"/>
       <use x="147.412109375" xlink:href="#BitstreamVeraSans-Roman-2e"/>
       <use x="179.19921875" xlink:href="#BitstreamVeraSans-Roman-32"/>
      </g>
     </g>
    </g>
    <g id="ytick_2">
     <g id="line2d_19">
      <g>
       <use style="stroke:#000000;stroke-width:0.5;" x="0.0" xlink:href="#m08cf3c099c" y="497.828571429"/>
      </g>
     </g>
     <g id="line2d_20">
      <g>
       <use style="stroke:#000000;stroke-width:0.5;" x="576.0" xlink:href="#m3d9318761b" y="497.828571429"/>
      </g>
     </g>
     <g id="text_10">
      <!-- 0.0 -->
      <g transform="translate(-23.08375 501.139821429)scale(0.12 -0.12)">
       <use xlink:href="#BitstreamVeraSans-Roman-30"/>
       <use x="63.623046875" xlink:href="#BitstreamVeraSans-Roman-2e"/>
       <use x="95.41015625" xlink:href="#BitstreamVeraSans-Roman-30"/>
      </g>
     </g>
    </g>
    <g id="ytick_3">
     <g id="line2d_21">
      <g>
       <use style="stroke:#000000;stroke-width:0.5;" x="0.0" xlink:href="#m08cf3c099c" y="419.657142857"/>
      </g>
     </g>
     <g id="line2d_22">
      <g>
       <use style="stroke:#000000;stroke-width:0.5;" x="576.0" xlink:href="#m3d9318761b" y="419.657142857"/>
      </g>
     </g>
     <g id="text_11">
      <!-- 0.2 -->
      <g transform="translate(-23.08375 422.968392857)scale(0.12 -0.12)">
       <use xlink:href="#BitstreamVeraSans-Roman-30"/>
       <use x="63.623046875" xlink:href="#BitstreamVeraSans-Roman-2e"/>
       <use x="95.41015625" xlink:href="#BitstreamVeraSans-Roman-32"/>
      </g>
     </g>
    </g>
    <g id="ytick_4">
     <g id="line2d_23">
      <g>
       <use style="stroke:#000000;stroke-width:0.5;" x="0.0" xlink:href="#m08cf3c099c" y="341.485714286"/>
      </g>
     </g>
     <g id="line2d_24">
      <g>
       <use style="stroke:#000000;stroke-width:0.5;" x="576.0" xlink:href="#m3d9318761b" y="341.485714286"/>
      </g>
     </g>
     <g id="text_12">
      <!-- 0.4 -->
      <g transform="translate(-23.08375 344.796964286)scale(0.12 -0.12)">
       <use xlink:href="#BitstreamVeraSans-Roman-30"/>
       <use x="63.623046875" xlink:href="#BitstreamVeraSans-Roman-2e"/>
       <use x="95.41015625" xlink:href="#BitstreamVeraSans-Roman-34"/>
      </g>
     </g>
    </g>
    <g id="ytick_5">
     <g id="line2d_25">
      <g>
       <use style="stroke:#000000;stroke-width:0.5;" x="0.0" xlink:href="#m08cf3c099c" y="263.314285714"/>
      </g>
     </g>
     <g id="line2d_26">
      <g>
       <use style="stroke:#000000;stroke-width:0.5;" x="576.0" xlink:href="#m3d9318761b" y="263.314285714"/>
      </g>
     </g>
     <g id="text_13">
      <!-- 0.6 -->
      <g transform="translate(-23.08375 266.625535714)scale(0.12 -0.12)">
       <use xlink:href="#BitstreamVeraSans-Roman-30"/>
       <use x="63.623046875" xlink:href="#BitstreamVeraSans-Roman-2e"/>
       <use x="95.41015625" xlink:href="#BitstreamVeraSans-Roman-36"/>
      </g>
     </g>
    </g>
    <g id="ytick_6">
     <g id="line2d_27">
      <g>
       <use style="stroke:#000000;stroke-width:0.5;" x="0.0" xlink:href="#m08cf3c099c" y="185.142857143"/>
      </g>
     </g>
     <g id="line2d_28">
      <g>
       <use style="stroke:#000000;stroke-width:0.5;" x="576.0" xlink:href="#m3d9318761b" y="185.142857143"/>
      </g>
     </g>
     <g id="text_14">
      <!-- 0.8 -->
      <g transform="translate(-23.08375 188.454107143)scale(0.12 -0.12)">
       <use xlink:href="#BitstreamVeraSans-Roman-30"/>
       <use x="63.623046875" xlink:href="#BitstreamVeraSans-Roman-2e"/>
       <use x="95.41015625" xlink:href="#BitstreamVeraSans-Roman-38"/>
      </g>
     </g>
    </g>
    <g id="ytick_7">
     <g id="line2d_29">
      <g>
       <use style="stroke:#000000;stroke-width:0.5;" x="0.0" xlink:href="#m08cf3c099c" y="106.971428571"/>
      </g>
     </g>
     <g id="line2d_30">
      <g>
       <use style="stroke:#000000;stroke-width:0.5;" x="576.0" xlink:href="#m3d9318761b" y="106.971428571"/>
      </g>
     </g>
     <g id="text_15">
      <!-- 1.0 -->
      <g transform="translate(-23.08375 110.282678571)scale(0.12 -0.12)">
       <use xlink:href="#BitstreamVeraSans-Roman-31"/>
       <use x="63.623046875" xlink:href="#BitstreamVeraSans-Roman-2e"/>
       <use x="95.41015625" xlink:href="#BitstreamVeraSans-Roman-30"/>
      </g>
     </g>
    </g>
    <g id="ytick_8">
     <g id="line2d_31">
      <g>
       <use style="stroke:#000000;stroke-width:0.5;" x="0.0" xlink:href="#m08cf3c099c" y="28.8"/>
      </g>
     </g>
     <g id="line2d_32">
      <g>
       <use style="stroke:#000000;stroke-width:0.5;" x="576.0" xlink:href="#m3d9318761b" y="28.8"/>
      </g>
     </g>
     <g id="text_16">
      <!-- 1.2 -->
      <g transform="translate(-23.08375 32.11125)scale(0.12 -0.12)">
       <use xlink:href="#BitstreamVeraSans-Roman-31"/>
       <use x="63.623046875" xlink:href="#BitstreamVeraSans-Roman-2e"/>
       <use x="95.41015625" xlink:href="#BitstreamVeraSans-Roman-32"/>
      </g>
     </g>
    </g>
   </g>
   <g id="text_17">
    <g clip-path="url(#pb1acf4f9f9)">
     <!-- SARAZENENKÖNIG -->
     <defs>
      <path d="M 34.1875 63.1875 
L 20.796875 26.90625 
L 47.609375 26.90625 
z
M 28.609375 72.90625 
L 39.796875 72.90625 
L 67.578125 0 
L 57.328125 0 
L 50.6875 18.703125 
L 17.828125 18.703125 
L 11.1875 0 
L 0.78125 0 
z
" id="BitstreamVeraSans-Roman-41"/>
      <path d="M 9.8125 72.90625 
L 23.09375 72.90625 
L 55.421875 11.921875 
L 55.421875 72.90625 
L 64.984375 72.90625 
L 64.984375 0 
L 51.703125 0 
L 19.390625 60.984375 
L 19.390625 0 
L 9.8125 0 
z
" id="BitstreamVeraSans-Roman-4e"/>
      <path d="M 9.8125 72.90625 
L 19.671875 72.90625 
L 19.671875 42.09375 
L 52.390625 72.90625 
L 65.09375 72.90625 
L 28.90625 38.921875 
L 67.671875 0 
L 54.6875 0 
L 19.671875 35.109375 
L 19.671875 0 
L 9.8125 0 
z
" id="BitstreamVeraSans-Roman-4b"/>
      <path d="M 9.8125 72.90625 
L 19.671875 72.90625 
L 19.671875 0 
L 9.8125 0 
z
" id="BitstreamVeraSans-Roman-49"/>
      <path d="M 59.515625 10.40625 
L 59.515625 29.984375 
L 43.40625 29.984375 
L 43.40625 38.09375 
L 69.28125 38.09375 
L 69.28125 6.78125 
Q 63.578125 2.734375 56.6875 0.65625 
Q 49.8125 -1.421875 42 -1.421875 
Q 24.90625 -1.421875 15.25 8.5625 
Q 5.609375 18.5625 5.609375 36.375 
Q 5.609375 54.25 15.25 64.234375 
Q 24.90625 74.21875 42 74.21875 
Q 49.125 74.21875 55.546875 72.453125 
Q 61.96875 70.703125 67.390625 67.28125 
L 67.390625 56.78125 
Q 61.921875 61.421875 55.765625 63.765625 
Q 49.609375 66.109375 42.828125 66.109375 
Q 29.4375 66.109375 22.71875 58.640625 
Q 16.015625 51.171875 16.015625 36.375 
Q 16.015625 21.625 22.71875 14.15625 
Q 29.4375 6.6875 42.828125 6.6875 
Q 48.046875 6.6875 52.140625 7.59375 
Q 56.25 8.5 59.515625 10.40625 
" id="BitstreamVeraSans-Roman-47"/>
      <path d="M 53.515625 70.515625 
L 53.515625 60.890625 
Q 47.90625 63.578125 42.921875 64.890625 
Q 37.9375 66.21875 33.296875 66.21875 
Q 25.25 66.21875 20.875 63.09375 
Q 16.5 59.96875 16.5 54.203125 
Q 16.5 49.359375 19.40625 46.890625 
Q 22.3125 44.4375 30.421875 42.921875 
L 36.375 41.703125 
Q 47.40625 39.59375 52.65625 34.296875 
Q 57.90625 29 57.90625 20.125 
Q 57.90625 9.515625 50.796875 4.046875 
Q 43.703125 -1.421875 29.984375 -1.421875 
Q 24.8125 -1.421875 18.96875 -0.25 
Q 13.140625 0.921875 6.890625 3.21875 
L 6.890625 13.375 
Q 12.890625 10.015625 18.65625 8.296875 
Q 24.421875 6.59375 29.984375 6.59375 
Q 38.421875 6.59375 43.015625 9.90625 
Q 47.609375 13.234375 47.609375 19.390625 
Q 47.609375 24.75 44.3125 27.78125 
Q 41.015625 30.8125 33.5 32.328125 
L 27.484375 33.5 
Q 16.453125 35.6875 11.515625 40.375 
Q 6.59375 45.0625 6.59375 53.421875 
Q 6.59375 63.09375 13.40625 68.65625 
Q 20.21875 74.21875 32.171875 74.21875 
Q 37.3125 74.21875 42.625 73.28125 
Q 47.953125 72.359375 53.515625 70.515625 
" id="BitstreamVeraSans-Roman-53"/>
      <path d="M 9.8125 72.90625 
L 55.90625 72.90625 
L 55.90625 64.59375 
L 19.671875 64.59375 
L 19.671875 43.015625 
L 54.390625 43.015625 
L 54.390625 34.71875 
L 19.671875 34.71875 
L 19.671875 8.296875 
L 56.78125 8.296875 
L 56.78125 0 
L 9.8125 0 
z
" id="BitstreamVeraSans-Roman-45"/>
      <path d="M 39.40625 66.21875 
Q 28.65625 66.21875 22.328125 58.203125 
Q 16.015625 50.203125 16.015625 36.375 
Q 16.015625 22.609375 22.328125 14.59375 
Q 28.65625 6.59375 39.40625 6.59375 
Q 50.140625 6.59375 56.421875 14.59375 
Q 62.703125 22.609375 62.703125 36.375 
Q 62.703125 50.203125 56.421875 58.203125 
Q 50.140625 66.21875 39.40625 66.21875 
M 39.40625 74.21875 
Q 54.734375 74.21875 63.90625 63.9375 
Q 73.09375 53.65625 73.09375 36.375 
Q 73.09375 19.140625 63.90625 8.859375 
Q 54.734375 -1.421875 39.40625 -1.421875 
Q 24.03125 -1.421875 14.8125 8.828125 
Q 5.609375 19.09375 5.609375 36.375 
Q 5.609375 53.65625 14.8125 63.9375 
Q 24.03125 74.21875 39.40625 74.21875 
M 43.96875 91.09375 
L 53.875 91.09375 
L 53.875 81.1875 
L 43.96875 81.1875 
z
M 24.875 91.09375 
L 34.78125 91.09375 
L 34.78125 81.1875 
L 24.875 81.1875 
z
" id="BitstreamVeraSans-Roman-d6"/>
      <path d="M 5.609375 72.90625 
L 62.890625 72.90625 
L 62.890625 65.375 
L 16.796875 8.296875 
L 64.015625 8.296875 
L 64.015625 0 
L 4.5 0 
L 4.5 7.515625 
L 50.59375 64.59375 
L 5.609375 64.59375 
z
" id="BitstreamVeraSans-Roman-5a"/>
      <path d="M 44.390625 34.1875 
Q 47.5625 33.109375 50.5625 29.59375 
Q 53.5625 26.078125 56.59375 19.921875 
L 66.609375 0 
L 56 0 
L 46.6875 18.703125 
Q 43.0625 26.03125 39.671875 28.421875 
Q 36.28125 30.8125 30.421875 30.8125 
L 19.671875 30.8125 
L 19.671875 0 
L 9.8125 0 
L 9.8125 72.90625 
L 32.078125 72.90625 
Q 44.578125 72.90625 50.734375 67.671875 
Q 56.890625 62.453125 56.890625 51.90625 
Q 56.890625 45.015625 53.6875 40.46875 
Q 50.484375 35.9375 44.390625 34.1875 
M 19.671875 64.796875 
L 19.671875 38.921875 
L 32.078125 38.921875 
Q 39.203125 38.921875 42.84375 42.21875 
Q 46.484375 45.515625 46.484375 51.90625 
Q 46.484375 58.296875 42.84375 61.546875 
Q 39.203125 64.796875 32.078125 64.796875 
z
" id="BitstreamVeraSans-Roman-52"/>
     </defs>
     <g transform="translate(392.197961242 116.180664177)scale(0.12 -0.12)">
      <use xlink:href="#BitstreamVeraSans-Roman-53"/>
      <use x="63.4921875" xlink:href="#BitstreamVeraSans-Roman-41"/>
      <use x="131.900390625" xlink:href="#BitstreamVeraSans-Roman-52"/>
      <use x="201.3203125" xlink:href="#BitstreamVeraSans-Roman-41"/>
      <use x="269.728515625" xlink:href="#BitstreamVeraSans-Roman-5a"/>
      <use x="338.234375" xlink:href="#BitstreamVeraSans-Roman-45"/>
      <use x="401.41796875" xlink:href="#BitstreamVeraSans-Roman-4e"/>
      <use x="476.22265625" xlink:href="#BitstreamVeraSans-Roman-45"/>
      <use x="539.40625" xlink:href="#BitstreamVeraSans-Roman-4e"/>
      <use x="614.2109375" xlink:href="#BitstreamVeraSans-Roman-4b"/>
      <use x="679.708984375" xlink:href="#BitstreamVeraSans-Roman-d6"/>
      <use x="758.419921875" xlink:href="#BitstreamVeraSans-Roman-4e"/>
      <use x="833.224609375" xlink:href="#BitstreamVeraSans-Roman-49"/>
      <use x="862.716796875" xlink:href="#BitstreamVeraSans-Roman-47"/>
     </g>
    </g>
   </g>
   <g id="text_18">
    <g clip-path="url(#pb1acf4f9f9)">
     <!-- ALMERINE -->
     <defs>
      <path d="M 9.8125 72.90625 
L 24.515625 72.90625 
L 43.109375 23.296875 
L 61.8125 72.90625 
L 76.515625 72.90625 
L 76.515625 0 
L 66.890625 0 
L 66.890625 64.015625 
L 48.09375 14.015625 
L 38.1875 14.015625 
L 19.390625 64.015625 
L 19.390625 0 
L 9.8125 0 
z
" id="BitstreamVeraSans-Roman-4d"/>
      <path d="M 9.8125 72.90625 
L 19.671875 72.90625 
L 19.671875 8.296875 
L 55.171875 8.296875 
L 55.171875 0 
L 9.8125 0 
z
" id="BitstreamVeraSans-Roman-4c"/>
     </defs>
     <g transform="translate(371.503813803 110.282678571)scale(0.12 -0.12)">
      <use xlink:href="#BitstreamVeraSans-Roman-41"/>
      <use x="68.408203125" xlink:href="#BitstreamVeraSans-Roman-4c"/>
      <use x="124.12109375" xlink:href="#BitstreamVeraSans-Roman-4d"/>
      <use x="210.400390625" xlink:href="#BitstreamVeraSans-Roman-45"/>
      <use x="273.583984375" xlink:href="#BitstreamVeraSans-Roman-52"/>
      <use x="343.06640625" xlink:href="#BitstreamVeraSans-Roman-49"/>
      <use x="372.55859375" xlink:href="#BitstreamVeraSans-Roman-4e"/>
      <use x="447.36328125" xlink:href="#BitstreamVeraSans-Roman-45"/>
     </g>
    </g>
   </g>
   <g id="text_19">
    <g clip-path="url(#pb1acf4f9f9)">
     <!-- CURIO -->
     <defs>
      <path d="M 64.40625 67.28125 
L 64.40625 56.890625 
Q 59.421875 61.53125 53.78125 63.8125 
Q 48.140625 66.109375 41.796875 66.109375 
Q 29.296875 66.109375 22.65625 58.46875 
Q 16.015625 50.828125 16.015625 36.375 
Q 16.015625 21.96875 22.65625 14.328125 
Q 29.296875 6.6875 41.796875 6.6875 
Q 48.140625 6.6875 53.78125 8.984375 
Q 59.421875 11.28125 64.40625 15.921875 
L 64.40625 5.609375 
Q 59.234375 2.09375 53.4375 0.328125 
Q 47.65625 -1.421875 41.21875 -1.421875 
Q 24.65625 -1.421875 15.125 8.703125 
Q 5.609375 18.84375 5.609375 36.375 
Q 5.609375 53.953125 15.125 64.078125 
Q 24.65625 74.21875 41.21875 74.21875 
Q 47.75 74.21875 53.53125 72.484375 
Q 59.328125 70.75 64.40625 67.28125 
" id="BitstreamVeraSans-Roman-43"/>
      <path d="M 39.40625 66.21875 
Q 28.65625 66.21875 22.328125 58.203125 
Q 16.015625 50.203125 16.015625 36.375 
Q 16.015625 22.609375 22.328125 14.59375 
Q 28.65625 6.59375 39.40625 6.59375 
Q 50.140625 6.59375 56.421875 14.59375 
Q 62.703125 22.609375 62.703125 36.375 
Q 62.703125 50.203125 56.421875 58.203125 
Q 50.140625 66.21875 39.40625 66.21875 
M 39.40625 74.21875 
Q 54.734375 74.21875 63.90625 63.9375 
Q 73.09375 53.65625 73.09375 36.375 
Q 73.09375 19.140625 63.90625 8.859375 
Q 54.734375 -1.421875 39.40625 -1.421875 
Q 24.03125 -1.421875 14.8125 8.828125 
Q 5.609375 19.09375 5.609375 36.375 
Q 5.609375 53.65625 14.8125 63.9375 
Q 24.03125 74.21875 39.40625 74.21875 
" id="BitstreamVeraSans-Roman-4f"/>
      <path d="M 8.6875 72.90625 
L 18.609375 72.90625 
L 18.609375 28.609375 
Q 18.609375 16.890625 22.84375 11.734375 
Q 27.09375 6.59375 36.625 6.59375 
Q 46.09375 6.59375 50.34375 11.734375 
Q 54.59375 16.890625 54.59375 28.609375 
L 54.59375 72.90625 
L 64.5 72.90625 
L 64.5 27.390625 
Q 64.5 13.140625 57.4375 5.859375 
Q 50.390625 -1.421875 36.625 -1.421875 
Q 22.796875 -1.421875 15.734375 5.859375 
Q 8.6875 13.140625 8.6875 27.390625 
z
" id="BitstreamVeraSans-Roman-55"/>
     </defs>
     <g transform="translate(379.354170043 345.207365311)scale(0.12 -0.12)">
      <use xlink:href="#BitstreamVeraSans-Roman-43"/>
      <use x="69.82421875" xlink:href="#BitstreamVeraSans-Roman-55"/>
      <use x="143.017578125" xlink:href="#BitstreamVeraSans-Roman-52"/>
      <use x="212.5" xlink:href="#BitstreamVeraSans-Roman-49"/>
      <use x="241.9921875" xlink:href="#BitstreamVeraSans-Roman-4f"/>
     </g>
    </g>
   </g>
   <g id="text_20">
    <g clip-path="url(#pb1acf4f9f9)">
     <!-- EIN KASTILIER -->
     <defs>
      <path id="BitstreamVeraSans-Roman-20"/>
      <path d="M -0.296875 72.90625 
L 61.375 72.90625 
L 61.375 64.59375 
L 35.5 64.59375 
L 35.5 0 
L 25.59375 0 
L 25.59375 64.59375 
L -0.296875 64.59375 
z
" id="BitstreamVeraSans-Roman-54"/>
     </defs>
     <g transform="translate(311.758043434 125.114036117)scale(0.12 -0.12)">
      <use xlink:href="#BitstreamVeraSans-Roman-45"/>
      <use x="63.18359375" xlink:href="#BitstreamVeraSans-Roman-49"/>
      <use x="92.67578125" xlink:href="#BitstreamVeraSans-Roman-4e"/>
      <use x="167.48046875" xlink:href="#BitstreamVeraSans-Roman-20"/>
      <use x="199.267578125" xlink:href="#BitstreamVeraSans-Roman-4b"/>
      <use x="264.828125" xlink:href="#BitstreamVeraSans-Roman-41"/>
      <use x="333.236328125" xlink:href="#BitstreamVeraSans-Roman-53"/>
      <use x="396.712890625" xlink:href="#BitstreamVeraSans-Roman-54"/>
      <use x="457.796875" xlink:href="#BitstreamVeraSans-Roman-49"/>
      <use x="487.2890625" xlink:href="#BitstreamVeraSans-Roman-4c"/>
      <use x="543.001953125" xlink:href="#BitstreamVeraSans-Roman-49"/>
      <use x="572.494140625" xlink:href="#BitstreamVeraSans-Roman-45"/>
      <use x="635.677734375" xlink:href="#BitstreamVeraSans-Roman-52"/>
     </g>
    </g>
   </g>
   <g id="text_21">
    <g clip-path="url(#pb1acf4f9f9)">
     <!-- DON FERNANDO -->
     <defs>
      <path d="M 19.671875 64.796875 
L 19.671875 8.109375 
L 31.59375 8.109375 
Q 46.6875 8.109375 53.6875 14.9375 
Q 60.6875 21.78125 60.6875 36.53125 
Q 60.6875 51.171875 53.6875 57.984375 
Q 46.6875 64.796875 31.59375 64.796875 
z
M 9.8125 72.90625 
L 30.078125 72.90625 
Q 51.265625 72.90625 61.171875 64.09375 
Q 71.09375 55.28125 71.09375 36.53125 
Q 71.09375 17.671875 61.125 8.828125 
Q 51.171875 0 30.078125 0 
L 9.8125 0 
z
" id="BitstreamVeraSans-Roman-44"/>
      <path d="M 9.8125 72.90625 
L 51.703125 72.90625 
L 51.703125 64.59375 
L 19.671875 64.59375 
L 19.671875 43.109375 
L 48.578125 43.109375 
L 48.578125 34.8125 
L 19.671875 34.8125 
L 19.671875 0 
L 9.8125 0 
z
" id="BitstreamVeraSans-Roman-46"/>
     </defs>
     <g transform="translate(424.438894641 477.314479794)scale(0.12 -0.12)">
      <use xlink:href="#BitstreamVeraSans-Roman-44"/>
      <use x="77.001953125" xlink:href="#BitstreamVeraSans-Roman-4f"/>
      <use x="155.712890625" xlink:href="#BitstreamVeraSans-Roman-4e"/>
      <use x="230.517578125" xlink:href="#BitstreamVeraSans-Roman-20"/>
      <use x="262.3046875" xlink:href="#BitstreamVeraSans-Roman-46"/>
      <use x="319.82421875" xlink:href="#BitstreamVeraSans-Roman-45"/>
      <use x="383.0078125" xlink:href="#BitstreamVeraSans-Roman-52"/>
      <use x="452.490234375" xlink:href="#BitstreamVeraSans-Roman-4e"/>
      <use x="527.294921875" xlink:href="#BitstreamVeraSans-Roman-41"/>
      <use x="595.703125" xlink:href="#BitstreamVeraSans-Roman-4e"/>
      <use x="670.5078125" xlink:href="#BitstreamVeraSans-Roman-44"/>
      <use x="747.509765625" xlink:href="#BitstreamVeraSans-Roman-4f"/>
     </g>
    </g>
   </g>
   <g id="text_22">
    <g clip-path="url(#pb1acf4f9f9)">
     <!-- MALVIZINO -->
     <defs>
      <path d="M 28.609375 0 
L 0.78125 72.90625 
L 11.078125 72.90625 
L 34.1875 11.53125 
L 57.328125 72.90625 
L 67.578125 72.90625 
L 39.796875 0 
z
" id="BitstreamVeraSans-Roman-56"/>
     </defs>
     <g transform="translate(367.203820488 237.070574327)scale(0.12 -0.12)">
      <use xlink:href="#BitstreamVeraSans-Roman-4d"/>
      <use x="86.279296875" xlink:href="#BitstreamVeraSans-Roman-41"/>
      <use x="154.6875" xlink:href="#BitstreamVeraSans-Roman-4c"/>
      <use x="210.228515625" xlink:href="#BitstreamVeraSans-Roman-56"/>
      <use x="278.63671875" xlink:href="#BitstreamVeraSans-Roman-49"/>
      <use x="308.12890625" xlink:href="#BitstreamVeraSans-Roman-5a"/>
      <use x="376.634765625" xlink:href="#BitstreamVeraSans-Roman-49"/>
      <use x="406.126953125" xlink:href="#BitstreamVeraSans-Roman-4e"/>
      <use x="480.931640625" xlink:href="#BitstreamVeraSans-Roman-4f"/>
     </g>
    </g>
   </g>
   <g id="text_23">
    <g clip-path="url(#pb1acf4f9f9)">
     <!-- LILLA -->
     <g transform="translate(381.197312919 296.324735128)scale(0.12 -0.12)">
      <use xlink:href="#BitstreamVeraSans-Roman-4c"/>
      <use x="55.712890625" xlink:href="#BitstreamVeraSans-Roman-49"/>
      <use x="85.205078125" xlink:href="#BitstreamVeraSans-Roman-4c"/>
      <use x="140.91796875" xlink:href="#BitstreamVeraSans-Roman-4c"/>
      <use x="196.662109375" xlink:href="#BitstreamVeraSans-Roman-41"/>
     </g>
    </g>
   </g>
   <g id="text_24">
    <g clip-path="url(#pb1acf4f9f9)">
     <!-- PRINZ ZIFALDO -->
     <defs>
      <path d="M 19.671875 64.796875 
L 19.671875 37.40625 
L 32.078125 37.40625 
Q 38.96875 37.40625 42.71875 40.96875 
Q 46.484375 44.53125 46.484375 51.125 
Q 46.484375 57.671875 42.71875 61.234375 
Q 38.96875 64.796875 32.078125 64.796875 
z
M 9.8125 72.90625 
L 32.078125 72.90625 
Q 44.34375 72.90625 50.609375 67.359375 
Q 56.890625 61.8125 56.890625 51.125 
Q 56.890625 40.328125 50.609375 34.8125 
Q 44.34375 29.296875 32.078125 29.296875 
L 19.671875 29.296875 
L 19.671875 0 
L 9.8125 0 
z
" id="BitstreamVeraSans-Roman-50"/>
     </defs>
     <g transform="translate(336.691352222 224.862726651)scale(0.12 -0.12)">
      <use xlink:href="#BitstreamVeraSans-Roman-50"/>
      <use x="60.302734375" xlink:href="#BitstreamVeraSans-Roman-52"/>
      <use x="129.78515625" xlink:href="#BitstreamVeraSans-Roman-49"/>
      <use x="159.27734375" xlink:href="#BitstreamVeraSans-Roman-4e"/>
      <use x="234.08203125" xlink:href="#BitstreamVeraSans-Roman-5a"/>
      <use x="302.587890625" xlink:href="#BitstreamVeraSans-Roman-20"/>
      <use x="334.375" xlink:href="#BitstreamVeraSans-Roman-5a"/>
      <use x="402.880859375" xlink:href="#BitstreamVeraSans-Roman-49"/>
      <use x="432.373046875" xlink:href="#BitstreamVeraSans-Roman-46"/>
      <use x="489.751953125" xlink:href="#BitstreamVeraSans-Roman-41"/>
      <use x="558.16015625" xlink:href="#BitstreamVeraSans-Roman-4c"/>
      <use x="613.873046875" xlink:href="#BitstreamVeraSans-Roman-44"/>
      <use x="690.875" xlink:href="#BitstreamVeraSans-Roman-4f"/>
     </g>
    </g>
   </g>
   <g id="text_25">
    <g clip-path="url(#pb1acf4f9f9)">
     <!-- ISABELLA -->
     <defs>
      <path d="M 19.671875 34.8125 
L 19.671875 8.109375 
L 35.5 8.109375 
Q 43.453125 8.109375 47.28125 11.40625 
Q 51.125 14.703125 51.125 21.484375 
Q 51.125 28.328125 47.28125 31.5625 
Q 43.453125 34.8125 35.5 34.8125 
z
M 19.671875 64.796875 
L 19.671875 42.828125 
L 34.28125 42.828125 
Q 41.5 42.828125 45.03125 45.53125 
Q 48.578125 48.25 48.578125 53.8125 
Q 48.578125 59.328125 45.03125 62.0625 
Q 41.5 64.796875 34.28125 64.796875 
z
M 9.8125 72.90625 
L 35.015625 72.90625 
Q 46.296875 72.90625 52.390625 68.21875 
Q 58.5 63.53125 58.5 54.890625 
Q 58.5 48.1875 55.375 44.234375 
Q 52.25 40.28125 46.1875 39.3125 
Q 53.46875 37.75 57.5 32.78125 
Q 61.53125 27.828125 61.53125 20.40625 
Q 61.53125 10.640625 54.890625 5.3125 
Q 48.25 0 35.984375 0 
L 9.8125 0 
z
" id="BitstreamVeraSans-Roman-42"/>
     </defs>
     <g transform="translate(258.156170462 271.143138413)scale(0.12 -0.12)">
      <use xlink:href="#BitstreamVeraSans-Roman-49"/>
      <use x="29.4921875" xlink:href="#BitstreamVeraSans-Roman-53"/>
      <use x="92.984375" xlink:href="#BitstreamVeraSans-Roman-41"/>
      <use x="161.392578125" xlink:href="#BitstreamVeraSans-Roman-42"/>
      <use x="229.99609375" xlink:href="#BitstreamVeraSans-Roman-45"/>
      <use x="293.1796875" xlink:href="#BitstreamVeraSans-Roman-4c"/>
      <use x="348.892578125" xlink:href="#BitstreamVeraSans-Roman-4c"/>
      <use x="404.63671875" xlink:href="#BitstreamVeraSans-Roman-41"/>
     </g>
    </g>
   </g>
   <g id="text_26">
    <g clip-path="url(#pb1acf4f9f9)">
     <!-- INFANTIN -->
     <g transform="translate(326.128029589 296.791402619)scale(0.12 -0.12)">
      <use xlink:href="#BitstreamVeraSans-Roman-49"/>
      <use x="29.4921875" xlink:href="#BitstreamVeraSans-Roman-4e"/>
      <use x="104.296875" xlink:href="#BitstreamVeraSans-Roman-46"/>
      <use x="161.67578125" xlink:href="#BitstreamVeraSans-Roman-41"/>
      <use x="230.083984375" xlink:href="#BitstreamVeraSans-Roman-4e"/>
      <use x="304.888671875" xlink:href="#BitstreamVeraSans-Roman-54"/>
      <use x="365.97265625" xlink:href="#BitstreamVeraSans-Roman-49"/>
      <use x="395.46484375" xlink:href="#BitstreamVeraSans-Roman-4e"/>
     </g>
    </g>
   </g>
   <g id="text_27">
    <g clip-path="url(#pb1acf4f9f9)">
     <!-- EIN MANN -->
     <g transform="translate(238.683258787 149.628833435)scale(0.12 -0.12)">
      <use xlink:href="#BitstreamVeraSans-Roman-45"/>
      <use x="63.18359375" xlink:href="#BitstreamVeraSans-Roman-49"/>
      <use x="92.67578125" xlink:href="#BitstreamVeraSans-Roman-4e"/>
      <use x="167.48046875" xlink:href="#BitstreamVeraSans-Roman-20"/>
      <use x="199.267578125" xlink:href="#BitstreamVeraSans-Roman-4d"/>
      <use x="285.546875" xlink:href="#BitstreamVeraSans-Roman-41"/>
      <use x="353.955078125" xlink:href="#BitstreamVeraSans-Roman-4e"/>
      <use x="428.759765625" xlink:href="#BitstreamVeraSans-Roman-4e"/>
     </g>
    </g>
   </g>
   <g id="text_28">
    <g clip-path="url(#pb1acf4f9f9)">
     <!-- GRISALDO -->
     <g transform="translate(318.377045543 262.642691391)scale(0.12 -0.12)">
      <use xlink:href="#BitstreamVeraSans-Roman-47"/>
      <use x="77.490234375" xlink:href="#BitstreamVeraSans-Roman-52"/>
      <use x="146.97265625" xlink:href="#BitstreamVeraSans-Roman-49"/>
      <use x="176.46484375" xlink:href="#BitstreamVeraSans-Roman-53"/>
      <use x="239.95703125" xlink:href="#BitstreamVeraSans-Roman-41"/>
      <use x="308.365234375" xlink:href="#BitstreamVeraSans-Roman-4c"/>
      <use x="364.078125" xlink:href="#BitstreamVeraSans-Roman-44"/>
      <use x="441.080078125" xlink:href="#BitstreamVeraSans-Roman-4f"/>
     </g>
    </g>
   </g>
   <g id="text_29">
    <g clip-path="url(#pb1acf4f9f9)">
     <!-- BASTIANO -->
     <g transform="translate(397.514875103 313.848171501)scale(0.12 -0.12)">
      <use xlink:href="#BitstreamVeraSans-Roman-42"/>
      <use x="68.603515625" xlink:href="#BitstreamVeraSans-Roman-41"/>
      <use x="137.01171875" xlink:href="#BitstreamVeraSans-Roman-53"/>
      <use x="200.48828125" xlink:href="#BitstreamVeraSans-Roman-54"/>
      <use x="261.572265625" xlink:href="#BitstreamVeraSans-Roman-49"/>
      <use x="291.064453125" xlink:href="#BitstreamVeraSans-Roman-41"/>
      <use x="359.47265625" xlink:href="#BitstreamVeraSans-Roman-4e"/>
      <use x="434.27734375" xlink:href="#BitstreamVeraSans-Roman-4f"/>
     </g>
    </g>
   </g>
   <g id="text_30">
    <g clip-path="url(#pb1acf4f9f9)">
     <!-- SALUZZO -->
     <g transform="translate(53.6994642857 501.139821429)scale(0.12 -0.12)">
      <use xlink:href="#BitstreamVeraSans-Roman-53"/>
      <use x="63.4921875" xlink:href="#BitstreamVeraSans-Roman-41"/>
      <use x="131.900390625" xlink:href="#BitstreamVeraSans-Roman-4c"/>
      <use x="187.53515625" xlink:href="#BitstreamVeraSans-Roman-55"/>
      <use x="260.712890625" xlink:href="#BitstreamVeraSans-Roman-5a"/>
      <use x="329.21875" xlink:href="#BitstreamVeraSans-Roman-5a"/>
      <use x="397.724609375" xlink:href="#BitstreamVeraSans-Roman-4f"/>
     </g>
    </g>
   </g>
   <g id="text_31">
    <g clip-path="url(#pb1acf4f9f9)">
     <!-- KÖNIG -->
     <g transform="translate(334.951989153 365.655702358)scale(0.12 -0.12)">
      <use xlink:href="#BitstreamVeraSans-Roman-4b"/>
      <use x="65.498046875" xlink:href="#BitstreamVeraSans-Roman-d6"/>
      <use x="144.208984375" xlink:href="#BitstreamVeraSans-Roman-4e"/>
      <use x="219.013671875" xlink:href="#BitstreamVeraSans-Roman-49"/>
      <use x="248.505859375" xlink:href="#BitstreamVeraSans-Roman-47"/>
     </g>
    </g>
   </g>
   <g id="text_32">
    <g clip-path="url(#pb1acf4f9f9)">
     <!-- ALLE KASTILIER -->
     <g transform="translate(413.673269626 161.066466308)scale(0.12 -0.12)">
      <use xlink:href="#BitstreamVeraSans-Roman-41"/>
      <use x="68.408203125" xlink:href="#BitstreamVeraSans-Roman-4c"/>
      <use x="124.12109375" xlink:href="#BitstreamVeraSans-Roman-4c"/>
      <use x="179.833984375" xlink:href="#BitstreamVeraSans-Roman-45"/>
      <use x="243.017578125" xlink:href="#BitstreamVeraSans-Roman-20"/>
      <use x="274.8046875" xlink:href="#BitstreamVeraSans-Roman-4b"/>
      <use x="340.365234375" xlink:href="#BitstreamVeraSans-Roman-41"/>
      <use x="408.7734375" xlink:href="#BitstreamVeraSans-Roman-53"/>
      <use x="472.25" xlink:href="#BitstreamVeraSans-Roman-54"/>
      <use x="533.333984375" xlink:href="#BitstreamVeraSans-Roman-49"/>
      <use x="562.826171875" xlink:href="#BitstreamVeraSans-Roman-4c"/>
      <use x="618.5390625" xlink:href="#BitstreamVeraSans-Roman-49"/>
      <use x="648.03125" xlink:href="#BitstreamVeraSans-Roman-45"/>
      <use x="711.21484375" xlink:href="#BitstreamVeraSans-Roman-52"/>
     </g>
    </g>
   </g>
   <g id="text_33">
    <g clip-path="url(#pb1acf4f9f9)">
     <!-- BALLONA -->
     <g transform="translate(282.845732725 224.834368196)scale(0.12 -0.12)">
      <use xlink:href="#BitstreamVeraSans-Roman-42"/>
      <use x="68.603515625" xlink:href="#BitstreamVeraSans-Roman-41"/>
      <use x="137.01171875" xlink:href="#BitstreamVeraSans-Roman-4c"/>
      <use x="192.724609375" xlink:href="#BitstreamVeraSans-Roman-4c"/>
      <use x="248.390625" xlink:href="#BitstreamVeraSans-Roman-4f"/>
      <use x="327.1015625" xlink:href="#BitstreamVeraSans-Roman-4e"/>
      <use x="401.90625" xlink:href="#BitstreamVeraSans-Roman-41"/>
     </g>
    </g>
   </g>
   <g id="text_34">
    <g clip-path="url(#pb1acf4f9f9)">
     <!-- TRUFFALDINO -->
     <g transform="translate(396.165409593 347.387611159)scale(0.12 -0.12)">
      <use xlink:href="#BitstreamVeraSans-Roman-54"/>
      <use x="61.083984375" xlink:href="#BitstreamVeraSans-Roman-52"/>
      <use x="130.56640625" xlink:href="#BitstreamVeraSans-Roman-55"/>
      <use x="203.759765625" xlink:href="#BitstreamVeraSans-Roman-46"/>
      <use x="261.279296875" xlink:href="#BitstreamVeraSans-Roman-46"/>
      <use x="318.658203125" xlink:href="#BitstreamVeraSans-Roman-41"/>
      <use x="387.06640625" xlink:href="#BitstreamVeraSans-Roman-4c"/>
      <use x="442.779296875" xlink:href="#BitstreamVeraSans-Roman-44"/>
      <use x="519.78125" xlink:href="#BitstreamVeraSans-Roman-49"/>
      <use x="549.2734375" xlink:href="#BitstreamVeraSans-Roman-4e"/>
      <use x="624.078125" xlink:href="#BitstreamVeraSans-Roman-4f"/>
     </g>
    </g>
   </g>
  </g>
 </g>
 <defs>
  <clipPath id="pb1acf4f9f9">
   <rect height="547.2" width="576.0" x="0.0" y="28.8"/>
  </clipPath>
 </defs>
</svg>
