<?xml version="1.0" encoding="utf-8" standalone="no"?>
<!DOCTYPE svg PUBLIC "-//W3C//DTD SVG 1.1//EN"
  "http://www.w3.org/Graphics/SVG/1.1/DTD/svg11.dtd">
<!-- Created with matplotlib (http://matplotlib.org/) -->
<svg height="576pt" version="1.1" viewBox="0 0 576 576" width="576pt" xmlns="http://www.w3.org/2000/svg" xmlns:xlink="http://www.w3.org/1999/xlink">
 <defs>
  <style type="text/css">
*{stroke-linecap:butt;stroke-linejoin:round;stroke-miterlimit:100000;}
  </style>
 </defs>
 <g id="figure_1">
  <g id="patch_1">
   <path d="M 0 576 
L 576 576 
L 576 0 
L 0 0 
z
" style="fill:#ffffff;"/>
  </g>
  <g id="axes_1">
   <g id="patch_2">
    <path d="M 0 576 
L 576 576 
L 576 28.8 
L 0 28.8 
z
" style="fill:#ffffff;"/>
   </g>
   <g id="LineCollection_1">
    <path clip-path="url(#pe3da69a288)" d="M 184.735624 203.386489 
L 205.090044 317.147554 
" style="fill:none;stroke:#808080;"/>
    <path clip-path="url(#pe3da69a288)" d="M 184.735624 203.386489 
L 297.647089 326.945048 
" style="fill:none;stroke:#808080;"/>
    <path clip-path="url(#pe3da69a288)" d="M 184.735624 203.386489 
L 271.667269 374.39435 
" style="fill:none;stroke:#808080;"/>
    <path clip-path="url(#pe3da69a288)" d="M 184.735624 203.386489 
L 227.926265 277.134406 
" style="fill:none;stroke:#808080;"/>
    <path clip-path="url(#pe3da69a288)" d="M 97.187982 484.366291 
L 297.647089 326.945048 
" style="fill:none;stroke:#808080;"/>
    <path clip-path="url(#pe3da69a288)" d="M 97.187982 484.366291 
L 271.667269 374.39435 
" style="fill:none;stroke:#808080;"/>
    <path clip-path="url(#pe3da69a288)" d="M 334.123024 364.775265 
L 493.714286 315.942963 
" style="fill:none;stroke:#808080;"/>
    <path clip-path="url(#pe3da69a288)" d="M 334.123024 364.775265 
L 310.05921 429.792409 
" style="fill:none;stroke:#808080;stroke-width:2.0;"/>
    <path clip-path="url(#pe3da69a288)" d="M 334.123024 364.775265 
L 297.647089 326.945048 
" style="fill:none;stroke:#808080;stroke-width:7.0;"/>
    <path clip-path="url(#pe3da69a288)" d="M 334.123024 364.775265 
L 271.667269 374.39435 
" style="fill:none;stroke:#808080;stroke-width:2.0;"/>
    <path clip-path="url(#pe3da69a288)" d="M 334.123024 364.775265 
L 227.926265 277.134406 
" style="fill:none;stroke:#808080;"/>
    <path clip-path="url(#pe3da69a288)" d="M 334.123024 364.775265 
L 341.838011 484.8 
" style="fill:none;stroke:#808080;"/>
    <path clip-path="url(#pe3da69a288)" d="M 334.123024 364.775265 
L 205.090044 317.147554 
" style="fill:none;stroke:#808080;"/>
    <path clip-path="url(#pe3da69a288)" d="M 334.123024 364.775265 
L 378.574583 377.612183 
" style="fill:none;stroke:#808080;stroke-width:2.0;"/>
    <path clip-path="url(#pe3da69a288)" d="M 334.123024 364.775265 
L 461.685037 379.83449 
" style="fill:none;stroke:#808080;"/>
    <path clip-path="url(#pe3da69a288)" d="M 334.123024 364.775265 
L 374.772904 331.838229 
" style="fill:none;stroke:#808080;stroke-width:2.0;"/>
    <path clip-path="url(#pe3da69a288)" d="M 271.667269 374.39435 
L 378.574583 377.612183 
" style="fill:none;stroke:#808080;stroke-width:3.0;"/>
    <path clip-path="url(#pe3da69a288)" d="M 271.667269 374.39435 
L 227.926265 277.134406 
" style="fill:none;stroke:#808080;stroke-width:2.0;"/>
    <path clip-path="url(#pe3da69a288)" d="M 271.667269 374.39435 
L 341.838011 484.8 
" style="fill:none;stroke:#808080;stroke-width:2.0;"/>
    <path clip-path="url(#pe3da69a288)" d="M 271.667269 374.39435 
L 205.090044 317.147554 
" style="fill:none;stroke:#808080;stroke-width:2.0;"/>
    <path clip-path="url(#pe3da69a288)" d="M 271.667269 374.39435 
L 374.772904 331.838229 
" style="fill:none;stroke:#808080;stroke-width:4.0;"/>
    <path clip-path="url(#pe3da69a288)" d="M 271.667269 374.39435 
L 310.05921 429.792409 
" style="fill:none;stroke:#808080;stroke-width:4.0;"/>
    <path clip-path="url(#pe3da69a288)" d="M 271.667269 374.39435 
L 297.647089 326.945048 
" style="fill:none;stroke:#808080;stroke-width:9.0;"/>
    <path clip-path="url(#pe3da69a288)" d="M 227.926265 277.134406 
L 82.285714 241.465915 
" style="fill:none;stroke:#808080;"/>
    <path clip-path="url(#pe3da69a288)" d="M 227.926265 277.134406 
L 205.090044 317.147554 
" style="fill:none;stroke:#808080;stroke-width:6.0;"/>
    <path clip-path="url(#pe3da69a288)" d="M 227.926265 277.134406 
L 297.647089 326.945048 
" style="fill:none;stroke:#808080;stroke-width:6.0;"/>
    <path clip-path="url(#pe3da69a288)" d="M 341.838011 484.8 
L 297.647089 326.945048 
" style="fill:none;stroke:#808080;"/>
    <path clip-path="url(#pe3da69a288)" d="M 341.838011 484.8 
L 374.772904 331.838229 
" style="fill:none;stroke:#808080;"/>
    <path clip-path="url(#pe3da69a288)" d="M 341.838011 484.8 
L 378.574583 377.612183 
" style="fill:none;stroke:#808080;"/>
    <path clip-path="url(#pe3da69a288)" d="M 341.838011 484.8 
L 310.05921 429.792409 
" style="fill:none;stroke:#808080;"/>
    <path clip-path="url(#pe3da69a288)" d="M 205.090044 317.147554 
L 82.285714 241.465915 
" style="fill:none;stroke:#808080;"/>
    <path clip-path="url(#pe3da69a288)" d="M 205.090044 317.147554 
L 297.647089 326.945048 
" style="fill:none;stroke:#808080;stroke-width:6.0;"/>
    <path clip-path="url(#pe3da69a288)" d="M 433.58911 294.972875 
L 493.714286 315.942963 
" style="fill:none;stroke:#808080;"/>
    <path clip-path="url(#pe3da69a288)" d="M 433.58911 294.972875 
L 374.772904 331.838229 
" style="fill:none;stroke:#808080;stroke-width:2.0;"/>
    <path clip-path="url(#pe3da69a288)" d="M 433.58911 294.972875 
L 297.647089 326.945048 
" style="fill:none;stroke:#808080;stroke-width:2.0;"/>
    <path clip-path="url(#pe3da69a288)" d="M 433.58911 294.972875 
L 461.685037 379.83449 
" style="fill:none;stroke:#808080;stroke-width:2.0;"/>
    <path clip-path="url(#pe3da69a288)" d="M 433.58911 294.972875 
L 378.574583 377.612183 
" style="fill:none;stroke:#808080;stroke-width:3.0;"/>
    <path clip-path="url(#pe3da69a288)" d="M 410.389897 135.866583 
L 374.772904 331.838229 
" style="fill:none;stroke:#808080;"/>
    <path clip-path="url(#pe3da69a288)" d="M 410.389897 135.866583 
L 297.647089 326.945048 
" style="fill:none;stroke:#808080;"/>
    <path clip-path="url(#pe3da69a288)" d="M 461.685037 379.83449 
L 493.714286 315.942963 
" style="fill:none;stroke:#808080;"/>
    <path clip-path="url(#pe3da69a288)" d="M 461.685037 379.83449 
L 297.647089 326.945048 
" style="fill:none;stroke:#808080;"/>
    <path clip-path="url(#pe3da69a288)" d="M 461.685037 379.83449 
L 374.772904 331.838229 
" style="fill:none;stroke:#808080;stroke-width:3.0;"/>
    <path clip-path="url(#pe3da69a288)" d="M 461.685037 379.83449 
L 378.574583 377.612183 
" style="fill:none;stroke:#808080;"/>
    <path clip-path="url(#pe3da69a288)" d="M 493.714286 315.942963 
L 297.647089 326.945048 
" style="fill:none;stroke:#808080;"/>
    <path clip-path="url(#pe3da69a288)" d="M 493.714286 315.942963 
L 374.772904 331.838229 
" style="fill:none;stroke:#808080;stroke-width:2.0;"/>
    <path clip-path="url(#pe3da69a288)" d="M 493.714286 315.942963 
L 378.574583 377.612183 
" style="fill:none;stroke:#808080;"/>
    <path clip-path="url(#pe3da69a288)" d="M 82.285714 241.465915 
L 297.647089 326.945048 
" style="fill:none;stroke:#808080;"/>
    <path clip-path="url(#pe3da69a288)" d="M 374.772904 331.838229 
L 310.05921 429.792409 
" style="fill:none;stroke:#808080;stroke-width:2.0;"/>
    <path clip-path="url(#pe3da69a288)" d="M 374.772904 331.838229 
L 378.574583 377.612183 
" style="fill:none;stroke:#808080;stroke-width:8.0;"/>
    <path clip-path="url(#pe3da69a288)" d="M 374.772904 331.838229 
L 297.647089 326.945048 
" style="fill:none;stroke:#808080;stroke-width:7.0;"/>
    <path clip-path="url(#pe3da69a288)" d="M 378.574583 377.612183 
L 310.05921 429.792409 
" style="fill:none;stroke:#808080;stroke-width:2.0;"/>
    <path clip-path="url(#pe3da69a288)" d="M 378.574583 377.612183 
L 297.647089 326.945048 
" style="fill:none;stroke:#808080;stroke-width:5.0;"/>
    <path clip-path="url(#pe3da69a288)" d="M 310.05921 429.792409 
L 297.647089 326.945048 
" style="fill:none;stroke:#808080;stroke-width:3.0;"/>
   </g>
   <g id="PathCollection_1">
    <path clip-path="url(#pe3da69a288)" d="M 184.735624 208.386489 
C 186.061639 208.386489 187.333523 207.859658 188.271157 206.922023 
C 189.208792 205.984389 189.735624 204.712505 189.735624 203.386489 
C 189.735624 202.060474 189.208792 200.78859 188.271157 199.850955 
C 187.333523 198.913321 186.061639 198.386489 184.735624 198.386489 
C 183.409608 198.386489 182.137724 198.913321 181.20009 199.850955 
C 180.262455 200.78859 179.735624 202.060474 179.735624 203.386489 
C 179.735624 204.712505 180.262455 205.984389 181.20009 206.922023 
C 182.137724 207.859658 183.409608 208.386489 184.735624 208.386489 
z
" style="fill:#4682b4;fill-opacity:0.8;stroke:#000000;stroke-opacity:0.8;"/>
    <path clip-path="url(#pe3da69a288)" d="M 97.187982 487.253043 
C 97.953557 487.253043 98.68788 486.948876 99.229223 486.407533 
C 99.770567 485.866189 100.074733 485.131867 100.074733 484.366291 
C 100.074733 483.600716 99.770567 482.866393 99.229223 482.32505 
C 98.68788 481.783706 97.953557 481.47954 97.187982 481.47954 
C 96.422406 481.47954 95.688084 481.783706 95.14674 482.32505 
C 94.605397 482.866393 94.301231 483.600716 94.301231 484.366291 
C 94.301231 485.131867 94.605397 485.866189 95.14674 486.407533 
C 95.688084 486.948876 96.422406 487.253043 97.187982 487.253043 
z
" style="fill:#4682b4;fill-opacity:0.8;stroke:#000000;stroke-opacity:0.8;"/>
    <path clip-path="url(#pe3da69a288)" d="M 334.123024 371.230238 
C 335.834903 371.230238 337.476898 370.550101 338.687379 369.33962 
C 339.89786 368.129139 340.577996 366.487144 340.577996 364.775265 
C 340.577996 363.063387 339.89786 361.421392 338.687379 360.210911 
C 337.476898 359.00043 335.834903 358.320293 334.123024 358.320293 
C 332.411145 358.320293 330.76915 359.00043 329.558669 360.210911 
C 328.348188 361.421392 327.668052 363.063387 327.668052 364.775265 
C 327.668052 366.487144 328.348188 368.129139 329.558669 369.33962 
C 330.76915 370.550101 332.411145 371.230238 334.123024 371.230238 
z
" style="fill:#4682b4;fill-opacity:0.8;stroke:#000000;stroke-opacity:0.8;"/>
    <path clip-path="url(#pe3da69a288)" d="M 271.667269 380.849323 
C 273.379147 380.849323 275.021142 380.169186 276.231623 378.958705 
C 277.442104 377.748224 278.122241 376.106229 278.122241 374.39435 
C 278.122241 372.682472 277.442104 371.040477 276.231623 369.829996 
C 275.021142 368.619515 273.379147 367.939378 271.667269 367.939378 
C 269.95539 367.939378 268.313395 368.619515 267.102914 369.829996 
C 265.892433 371.040477 265.212296 372.682472 265.212296 374.39435 
C 265.212296 376.106229 265.892433 377.748224 267.102914 378.958705 
C 268.313395 380.169186 269.95539 380.849323 271.667269 380.849323 
z
" style="fill:#4682b4;fill-opacity:0.8;stroke:#000000;stroke-opacity:0.8;"/>
    <path clip-path="url(#pe3da69a288)" d="M 227.926265 282.134406 
C 229.252281 282.134406 230.524165 281.607575 231.461799 280.66994 
C 232.399434 279.732306 232.926265 278.460422 232.926265 277.134406 
C 232.926265 275.808391 232.399434 274.536507 231.461799 273.598873 
C 230.524165 272.661238 229.252281 272.134406 227.926265 272.134406 
C 226.60025 272.134406 225.328366 272.661238 224.390731 273.598873 
C 223.453097 274.536507 222.926265 275.808391 222.926265 277.134406 
C 222.926265 278.460422 223.453097 279.732306 224.390731 280.66994 
C 225.328366 281.607575 226.60025 282.134406 227.926265 282.134406 
z
" style="fill:#4682b4;fill-opacity:0.8;stroke:#000000;stroke-opacity:0.8;"/>
    <path clip-path="url(#pe3da69a288)" d="M 341.838011 489.8 
C 343.164027 489.8 344.435911 489.273168 345.373545 488.335534 
C 346.31118 487.397899 346.838011 486.126015 346.838011 484.8 
C 346.838011 483.473985 346.31118 482.202101 345.373545 481.264466 
C 344.435911 480.326832 343.164027 479.8 341.838011 479.8 
C 340.511996 479.8 339.240112 480.326832 338.302477 481.264466 
C 337.364843 482.202101 336.838011 483.473985 336.838011 484.8 
C 336.838011 486.126015 337.364843 487.397899 338.302477 488.335534 
C 339.240112 489.273168 340.511996 489.8 341.838011 489.8 
z
" style="fill:#4682b4;fill-opacity:0.8;stroke:#000000;stroke-opacity:0.8;"/>
    <path clip-path="url(#pe3da69a288)" d="M 205.090044 322.147554 
C 206.416059 322.147554 207.687943 321.620723 208.625578 320.683088 
C 209.563212 319.745454 210.090044 318.47357 210.090044 317.147554 
C 210.090044 315.821539 209.563212 314.549655 208.625578 313.61202 
C 207.687943 312.674386 206.416059 312.147554 205.090044 312.147554 
C 203.764028 312.147554 202.492145 312.674386 201.55451 313.61202 
C 200.616875 314.549655 200.090044 315.821539 200.090044 317.147554 
C 200.090044 318.47357 200.616875 319.745454 201.55451 320.683088 
C 202.492145 321.620723 203.764028 322.147554 205.090044 322.147554 
z
" style="fill:#4682b4;fill-opacity:0.8;stroke:#000000;stroke-opacity:0.8;"/>
    <path clip-path="url(#pe3da69a288)" d="M 433.58911 299.53723 
C 434.799591 299.53723 435.960657 299.0563 436.816596 298.200361 
C 437.672536 297.344422 438.153465 296.183356 438.153465 294.972875 
C 438.153465 293.762394 437.672536 292.601328 436.816596 291.745389 
C 435.960657 290.88945 434.799591 290.40852 433.58911 290.40852 
C 432.378629 290.40852 431.217563 290.88945 430.361624 291.745389 
C 429.505685 292.601328 429.024756 293.762394 429.024756 294.972875 
C 429.024756 296.183356 429.505685 297.344422 430.361624 298.200361 
C 431.217563 299.0563 432.378629 299.53723 433.58911 299.53723 
z
" style="fill:#4682b4;fill-opacity:0.8;stroke:#000000;stroke-opacity:0.8;"/>
    <path clip-path="url(#pe3da69a288)" d="M 410.389897 138.753334 
C 411.155473 138.753334 411.889795 138.449168 412.431139 137.907824 
C 412.972482 137.366481 413.276648 136.632158 413.276648 135.866583 
C 413.276648 135.101008 412.972482 134.366685 412.431139 133.825342 
C 411.889795 133.283998 411.155473 132.979832 410.389897 132.979832 
C 409.624322 132.979832 408.889999 133.283998 408.348656 133.825342 
C 407.807312 134.366685 407.503146 135.101008 407.503146 135.866583 
C 407.503146 136.632158 407.807312 137.366481 408.348656 137.907824 
C 408.889999 138.449168 409.624322 138.753334 410.389897 138.753334 
z
" style="fill:#4682b4;fill-opacity:0.8;stroke:#000000;stroke-opacity:0.8;"/>
    <path clip-path="url(#pe3da69a288)" d="M 461.685037 384.83449 
C 463.011052 384.83449 464.282936 384.307659 465.220571 383.370024 
C 466.158205 382.43239 466.685037 381.160506 466.685037 379.83449 
C 466.685037 378.508475 466.158205 377.236591 465.220571 376.298957 
C 464.282936 375.361322 463.011052 374.83449 461.685037 374.83449 
C 460.359021 374.83449 459.087138 375.361322 458.149503 376.298957 
C 457.211869 377.236591 456.685037 378.508475 456.685037 379.83449 
C 456.685037 381.160506 457.211869 382.43239 458.149503 383.370024 
C 459.087138 384.307659 460.359021 384.83449 461.685037 384.83449 
z
" style="fill:#4682b4;fill-opacity:0.8;stroke:#000000;stroke-opacity:0.8;"/>
    <path clip-path="url(#pe3da69a288)" d="M 493.714286 323.848657 
C 495.8109 323.848657 497.821925 323.015663 499.304456 321.533133 
C 500.786986 320.050602 501.61998 318.039577 501.61998 315.942963 
C 501.61998 313.846348 500.786986 311.835323 499.304456 310.352793 
C 497.821925 308.870262 495.8109 308.037268 493.714286 308.037268 
C 491.617671 308.037268 489.606646 308.870262 488.124116 310.352793 
C 486.641585 311.835323 485.808592 313.846348 485.808592 315.942963 
C 485.808592 318.039577 486.641585 320.050602 488.124116 321.533133 
C 489.606646 323.015663 491.617671 323.848657 493.714286 323.848657 
z
" style="fill:#4682b4;fill-opacity:0.8;stroke:#000000;stroke-opacity:0.8;"/>
    <path clip-path="url(#pe3da69a288)" d="M 82.285714 245.548397 
C 83.368401 245.548397 84.40689 245.118241 85.172466 244.352666 
C 85.938041 243.587091 86.368197 242.548602 86.368197 241.465915 
C 86.368197 240.383227 85.938041 239.344739 85.172466 238.579163 
C 84.40689 237.813588 83.368401 237.383432 82.285714 237.383432 
C 81.203027 237.383432 80.164538 237.813588 79.398963 238.579163 
C 78.633388 239.344739 78.203231 240.383227 78.203231 241.465915 
C 78.203231 242.548602 78.633388 243.587091 79.398963 244.352666 
C 80.164538 245.118241 81.203027 245.548397 82.285714 245.548397 
z
" style="fill:#4682b4;fill-opacity:0.8;stroke:#000000;stroke-opacity:0.8;"/>
    <path clip-path="url(#pe3da69a288)" d="M 374.772904 335.373763 
C 375.710538 335.373763 376.609896 335.001236 377.272904 334.338229 
C 377.935912 333.675221 378.308438 332.775863 378.308438 331.838229 
C 378.308438 330.900594 377.935912 330.001236 377.272904 329.338229 
C 376.609896 328.675221 375.710538 328.302695 374.772904 328.302695 
C 373.835269 328.302695 372.935912 328.675221 372.272904 329.338229 
C 371.609896 330.001236 371.23737 330.900594 371.23737 331.838229 
C 371.23737 332.775863 371.609896 333.675221 372.272904 334.338229 
C 372.935912 335.001236 373.835269 335.373763 374.772904 335.373763 
z
" style="fill:#4682b4;fill-opacity:0.8;stroke:#000000;stroke-opacity:0.8;"/>
    <path clip-path="url(#pe3da69a288)" d="M 378.574583 384.067155 
C 380.286462 384.067155 381.928457 383.387018 383.138938 382.176537 
C 384.349419 380.966056 385.029556 379.324061 385.029556 377.612183 
C 385.029556 375.900304 384.349419 374.258309 383.138938 373.047828 
C 381.928457 371.837347 380.286462 371.15721 378.574583 371.15721 
C 376.862705 371.15721 375.22071 371.837347 374.010229 373.047828 
C 372.799748 374.258309 372.119611 375.900304 372.119611 377.612183 
C 372.119611 379.324061 372.799748 380.966056 374.010229 382.176537 
C 375.22071 383.387018 376.862705 384.067155 378.574583 384.067155 
z
" style="fill:#4682b4;fill-opacity:0.8;stroke:#000000;stroke-opacity:0.8;"/>
    <path clip-path="url(#pe3da69a288)" d="M 310.05921 434.792409 
C 311.385225 434.792409 312.657109 434.265577 313.594744 433.327943 
C 314.532378 432.390308 315.05921 431.118424 315.05921 429.792409 
C 315.05921 428.466393 314.532378 427.19451 313.594744 426.256875 
C 312.657109 425.31924 311.385225 424.792409 310.05921 424.792409 
C 308.733194 424.792409 307.46131 425.31924 306.523676 426.256875 
C 305.586041 427.19451 305.05921 428.466393 305.05921 429.792409 
C 305.05921 431.118424 305.586041 432.390308 306.523676 433.327943 
C 307.46131 434.265577 308.733194 434.792409 310.05921 434.792409 
z
" style="fill:#4682b4;fill-opacity:0.8;stroke:#000000;stroke-opacity:0.8;"/>
    <path clip-path="url(#pe3da69a288)" d="M 297.647089 333.068772 
C 299.27112 333.068772 300.828853 332.423538 301.977216 331.275175 
C 303.125579 330.126811 303.770813 328.569078 303.770813 326.945048 
C 303.770813 325.321017 303.125579 323.763284 301.977216 322.614921 
C 300.828853 321.466557 299.27112 320.821323 297.647089 320.821323 
C 296.023058 320.821323 294.465325 321.466557 293.316962 322.614921 
C 292.168599 323.763284 291.523365 325.321017 291.523365 326.945048 
C 291.523365 328.569078 292.168599 330.126811 293.316962 331.275175 
C 294.465325 332.423538 296.023058 333.068772 297.647089 333.068772 
z
" style="fill:#4682b4;fill-opacity:0.8;stroke:#000000;stroke-opacity:0.8;"/>
   </g>
   <g id="patch_3">
    <path d="M 0 576 
L 576 576 
" style="fill:none;stroke:#000000;stroke-linecap:square;stroke-linejoin:miter;"/>
   </g>
   <g id="patch_4">
    <path d="M 0 576 
L 0 28.8 
" style="fill:none;stroke:#000000;stroke-linecap:square;stroke-linejoin:miter;"/>
   </g>
   <g id="patch_5">
    <path d="M 0 28.8 
L 576 28.8 
" style="fill:none;stroke:#000000;stroke-linecap:square;stroke-linejoin:miter;"/>
   </g>
   <g id="patch_6">
    <path d="M 576 576 
L 576 28.8 
" style="fill:none;stroke:#000000;stroke-linecap:square;stroke-linejoin:miter;"/>
   </g>
   <g id="matplotlib.axis_1">
    <g id="xtick_1">
     <g id="line2d_1">
      <defs>
       <path d="M 0 0 
L 0 -4 
" id="md5983468c2" style="stroke:#000000;stroke-width:0.5;"/>
      </defs>
      <g>
       <use style="stroke:#000000;stroke-width:0.5;" x="0.0" xlink:href="#md5983468c2" y="576.0"/>
      </g>
     </g>
     <g id="line2d_2">
      <defs>
       <path d="M 0 0 
L 0 4 
" id="m64aceb8fbb" style="stroke:#000000;stroke-width:0.5;"/>
      </defs>
      <g>
       <use style="stroke:#000000;stroke-width:0.5;" x="0.0" xlink:href="#m64aceb8fbb" y="28.8"/>
      </g>
     </g>
     <g id="text_1">
      <!-- −0.2 -->
      <defs>
       <path d="M 10.59375 35.5 
L 73.1875 35.5 
L 73.1875 27.203125 
L 10.59375 27.203125 
z
" id="BitstreamVeraSans-Roman-2212"/>
       <path d="M 10.6875 12.40625 
L 21 12.40625 
L 21 0 
L 10.6875 0 
z
" id="BitstreamVeraSans-Roman-2e"/>
       <path d="M 31.78125 66.40625 
Q 24.171875 66.40625 20.328125 58.90625 
Q 16.5 51.421875 16.5 36.375 
Q 16.5 21.390625 20.328125 13.890625 
Q 24.171875 6.390625 31.78125 6.390625 
Q 39.453125 6.390625 43.28125 13.890625 
Q 47.125 21.390625 47.125 36.375 
Q 47.125 51.421875 43.28125 58.90625 
Q 39.453125 66.40625 31.78125 66.40625 
M 31.78125 74.21875 
Q 44.046875 74.21875 50.515625 64.515625 
Q 56.984375 54.828125 56.984375 36.375 
Q 56.984375 17.96875 50.515625 8.265625 
Q 44.046875 -1.421875 31.78125 -1.421875 
Q 19.53125 -1.421875 13.0625 8.265625 
Q 6.59375 17.96875 6.59375 36.375 
Q 6.59375 54.828125 13.0625 64.515625 
Q 19.53125 74.21875 31.78125 74.21875 
" id="BitstreamVeraSans-Roman-30"/>
       <path d="M 19.1875 8.296875 
L 53.609375 8.296875 
L 53.609375 0 
L 7.328125 0 
L 7.328125 8.296875 
Q 12.9375 14.109375 22.625 23.890625 
Q 32.328125 33.6875 34.8125 36.53125 
Q 39.546875 41.84375 41.421875 45.53125 
Q 43.3125 49.21875 43.3125 52.78125 
Q 43.3125 58.59375 39.234375 62.25 
Q 35.15625 65.921875 28.609375 65.921875 
Q 23.96875 65.921875 18.8125 64.3125 
Q 13.671875 62.703125 7.8125 59.421875 
L 7.8125 69.390625 
Q 13.765625 71.78125 18.9375 73 
Q 24.125 74.21875 28.421875 74.21875 
Q 39.75 74.21875 46.484375 68.546875 
Q 53.21875 62.890625 53.21875 53.421875 
Q 53.21875 48.921875 51.53125 44.890625 
Q 49.859375 40.875 45.40625 35.40625 
Q 44.1875 33.984375 37.640625 27.21875 
Q 31.109375 20.453125 19.1875 8.296875 
" id="BitstreamVeraSans-Roman-32"/>
      </defs>
      <g transform="translate(-14.5696875 589.118125)scale(0.12 -0.12)">
       <use xlink:href="#BitstreamVeraSans-Roman-2212"/>
       <use x="83.7890625" xlink:href="#BitstreamVeraSans-Roman-30"/>
       <use x="147.412109375" xlink:href="#BitstreamVeraSans-Roman-2e"/>
       <use x="179.19921875" xlink:href="#BitstreamVeraSans-Roman-32"/>
      </g>
     </g>
    </g>
    <g id="xtick_2">
     <g id="line2d_3">
      <g>
       <use style="stroke:#000000;stroke-width:0.5;" x="82.2857142857" xlink:href="#md5983468c2" y="576.0"/>
      </g>
     </g>
     <g id="line2d_4">
      <g>
       <use style="stroke:#000000;stroke-width:0.5;" x="82.2857142857" xlink:href="#m64aceb8fbb" y="28.8"/>
      </g>
     </g>
     <g id="text_2">
      <!-- 0.0 -->
      <g transform="translate(72.7438392857 589.118125)scale(0.12 -0.12)">
       <use xlink:href="#BitstreamVeraSans-Roman-30"/>
       <use x="63.623046875" xlink:href="#BitstreamVeraSans-Roman-2e"/>
       <use x="95.41015625" xlink:href="#BitstreamVeraSans-Roman-30"/>
      </g>
     </g>
    </g>
    <g id="xtick_3">
     <g id="line2d_5">
      <g>
       <use style="stroke:#000000;stroke-width:0.5;" x="164.571428571" xlink:href="#md5983468c2" y="576.0"/>
      </g>
     </g>
     <g id="line2d_6">
      <g>
       <use style="stroke:#000000;stroke-width:0.5;" x="164.571428571" xlink:href="#m64aceb8fbb" y="28.8"/>
      </g>
     </g>
     <g id="text_3">
      <!-- 0.2 -->
      <g transform="translate(155.029553571 589.118125)scale(0.12 -0.12)">
       <use xlink:href="#BitstreamVeraSans-Roman-30"/>
       <use x="63.623046875" xlink:href="#BitstreamVeraSans-Roman-2e"/>
       <use x="95.41015625" xlink:href="#BitstreamVeraSans-Roman-32"/>
      </g>
     </g>
    </g>
    <g id="xtick_4">
     <g id="line2d_7">
      <g>
       <use style="stroke:#000000;stroke-width:0.5;" x="246.857142857" xlink:href="#md5983468c2" y="576.0"/>
      </g>
     </g>
     <g id="line2d_8">
      <g>
       <use style="stroke:#000000;stroke-width:0.5;" x="246.857142857" xlink:href="#m64aceb8fbb" y="28.8"/>
      </g>
     </g>
     <g id="text_4">
      <!-- 0.4 -->
      <defs>
       <path d="M 37.796875 64.3125 
L 12.890625 25.390625 
L 37.796875 25.390625 
z
M 35.203125 72.90625 
L 47.609375 72.90625 
L 47.609375 25.390625 
L 58.015625 25.390625 
L 58.015625 17.1875 
L 47.609375 17.1875 
L 47.609375 0 
L 37.796875 0 
L 37.796875 17.1875 
L 4.890625 17.1875 
L 4.890625 26.703125 
z
" id="BitstreamVeraSans-Roman-34"/>
      </defs>
      <g transform="translate(237.315267857 589.118125)scale(0.12 -0.12)">
       <use xlink:href="#BitstreamVeraSans-Roman-30"/>
       <use x="63.623046875" xlink:href="#BitstreamVeraSans-Roman-2e"/>
       <use x="95.41015625" xlink:href="#BitstreamVeraSans-Roman-34"/>
      </g>
     </g>
    </g>
    <g id="xtick_5">
     <g id="line2d_9">
      <g>
       <use style="stroke:#000000;stroke-width:0.5;" x="329.142857143" xlink:href="#md5983468c2" y="576.0"/>
      </g>
     </g>
     <g id="line2d_10">
      <g>
       <use style="stroke:#000000;stroke-width:0.5;" x="329.142857143" xlink:href="#m64aceb8fbb" y="28.8"/>
      </g>
     </g>
     <g id="text_5">
      <!-- 0.6 -->
      <defs>
       <path d="M 33.015625 40.375 
Q 26.375 40.375 22.484375 35.828125 
Q 18.609375 31.296875 18.609375 23.390625 
Q 18.609375 15.53125 22.484375 10.953125 
Q 26.375 6.390625 33.015625 6.390625 
Q 39.65625 6.390625 43.53125 10.953125 
Q 47.40625 15.53125 47.40625 23.390625 
Q 47.40625 31.296875 43.53125 35.828125 
Q 39.65625 40.375 33.015625 40.375 
M 52.59375 71.296875 
L 52.59375 62.3125 
Q 48.875 64.0625 45.09375 64.984375 
Q 41.3125 65.921875 37.59375 65.921875 
Q 27.828125 65.921875 22.671875 59.328125 
Q 17.53125 52.734375 16.796875 39.40625 
Q 19.671875 43.65625 24.015625 45.921875 
Q 28.375 48.1875 33.59375 48.1875 
Q 44.578125 48.1875 50.953125 41.515625 
Q 57.328125 34.859375 57.328125 23.390625 
Q 57.328125 12.15625 50.6875 5.359375 
Q 44.046875 -1.421875 33.015625 -1.421875 
Q 20.359375 -1.421875 13.671875 8.265625 
Q 6.984375 17.96875 6.984375 36.375 
Q 6.984375 53.65625 15.1875 63.9375 
Q 23.390625 74.21875 37.203125 74.21875 
Q 40.921875 74.21875 44.703125 73.484375 
Q 48.484375 72.75 52.59375 71.296875 
" id="BitstreamVeraSans-Roman-36"/>
      </defs>
      <g transform="translate(319.600982143 589.118125)scale(0.12 -0.12)">
       <use xlink:href="#BitstreamVeraSans-Roman-30"/>
       <use x="63.623046875" xlink:href="#BitstreamVeraSans-Roman-2e"/>
       <use x="95.41015625" xlink:href="#BitstreamVeraSans-Roman-36"/>
      </g>
     </g>
    </g>
    <g id="xtick_6">
     <g id="line2d_11">
      <g>
       <use style="stroke:#000000;stroke-width:0.5;" x="411.428571429" xlink:href="#md5983468c2" y="576.0"/>
      </g>
     </g>
     <g id="line2d_12">
      <g>
       <use style="stroke:#000000;stroke-width:0.5;" x="411.428571429" xlink:href="#m64aceb8fbb" y="28.8"/>
      </g>
     </g>
     <g id="text_6">
      <!-- 0.8 -->
      <defs>
       <path d="M 31.78125 34.625 
Q 24.75 34.625 20.71875 30.859375 
Q 16.703125 27.09375 16.703125 20.515625 
Q 16.703125 13.921875 20.71875 10.15625 
Q 24.75 6.390625 31.78125 6.390625 
Q 38.8125 6.390625 42.859375 10.171875 
Q 46.921875 13.96875 46.921875 20.515625 
Q 46.921875 27.09375 42.890625 30.859375 
Q 38.875 34.625 31.78125 34.625 
M 21.921875 38.8125 
Q 15.578125 40.375 12.03125 44.71875 
Q 8.5 49.078125 8.5 55.328125 
Q 8.5 64.0625 14.71875 69.140625 
Q 20.953125 74.21875 31.78125 74.21875 
Q 42.671875 74.21875 48.875 69.140625 
Q 55.078125 64.0625 55.078125 55.328125 
Q 55.078125 49.078125 51.53125 44.71875 
Q 48 40.375 41.703125 38.8125 
Q 48.828125 37.15625 52.796875 32.3125 
Q 56.78125 27.484375 56.78125 20.515625 
Q 56.78125 9.90625 50.3125 4.234375 
Q 43.84375 -1.421875 31.78125 -1.421875 
Q 19.734375 -1.421875 13.25 4.234375 
Q 6.78125 9.90625 6.78125 20.515625 
Q 6.78125 27.484375 10.78125 32.3125 
Q 14.796875 37.15625 21.921875 38.8125 
M 18.3125 54.390625 
Q 18.3125 48.734375 21.84375 45.5625 
Q 25.390625 42.390625 31.78125 42.390625 
Q 38.140625 42.390625 41.71875 45.5625 
Q 45.3125 48.734375 45.3125 54.390625 
Q 45.3125 60.0625 41.71875 63.234375 
Q 38.140625 66.40625 31.78125 66.40625 
Q 25.390625 66.40625 21.84375 63.234375 
Q 18.3125 60.0625 18.3125 54.390625 
" id="BitstreamVeraSans-Roman-38"/>
      </defs>
      <g transform="translate(401.886696429 589.118125)scale(0.12 -0.12)">
       <use xlink:href="#BitstreamVeraSans-Roman-30"/>
       <use x="63.623046875" xlink:href="#BitstreamVeraSans-Roman-2e"/>
       <use x="95.41015625" xlink:href="#BitstreamVeraSans-Roman-38"/>
      </g>
     </g>
    </g>
    <g id="xtick_7">
     <g id="line2d_13">
      <g>
       <use style="stroke:#000000;stroke-width:0.5;" x="493.714285714" xlink:href="#md5983468c2" y="576.0"/>
      </g>
     </g>
     <g id="line2d_14">
      <g>
       <use style="stroke:#000000;stroke-width:0.5;" x="493.714285714" xlink:href="#m64aceb8fbb" y="28.8"/>
      </g>
     </g>
     <g id="text_7">
      <!-- 1.0 -->
      <defs>
       <path d="M 12.40625 8.296875 
L 28.515625 8.296875 
L 28.515625 63.921875 
L 10.984375 60.40625 
L 10.984375 69.390625 
L 28.421875 72.90625 
L 38.28125 72.90625 
L 38.28125 8.296875 
L 54.390625 8.296875 
L 54.390625 0 
L 12.40625 0 
z
" id="BitstreamVeraSans-Roman-31"/>
      </defs>
      <g transform="translate(484.172410714 589.118125)scale(0.12 -0.12)">
       <use xlink:href="#BitstreamVeraSans-Roman-31"/>
       <use x="63.623046875" xlink:href="#BitstreamVeraSans-Roman-2e"/>
       <use x="95.41015625" xlink:href="#BitstreamVeraSans-Roman-30"/>
      </g>
     </g>
    </g>
    <g id="xtick_8">
     <g id="line2d_15">
      <g>
       <use style="stroke:#000000;stroke-width:0.5;" x="576.0" xlink:href="#md5983468c2" y="576.0"/>
      </g>
     </g>
     <g id="line2d_16">
      <g>
       <use style="stroke:#000000;stroke-width:0.5;" x="576.0" xlink:href="#m64aceb8fbb" y="28.8"/>
      </g>
     </g>
     <g id="text_8">
      <!-- 1.2 -->
      <g transform="translate(566.458125 589.118125)scale(0.12 -0.12)">
       <use xlink:href="#BitstreamVeraSans-Roman-31"/>
       <use x="63.623046875" xlink:href="#BitstreamVeraSans-Roman-2e"/>
       <use x="95.41015625" xlink:href="#BitstreamVeraSans-Roman-32"/>
      </g>
     </g>
    </g>
   </g>
   <g id="matplotlib.axis_2">
    <g id="ytick_1">
     <g id="line2d_17">
      <defs>
       <path d="M 0 0 
L 4 0 
" id="mbeccd0b8f5" style="stroke:#000000;stroke-width:0.5;"/>
      </defs>
      <g>
       <use style="stroke:#000000;stroke-width:0.5;" x="0.0" xlink:href="#mbeccd0b8f5" y="576.0"/>
      </g>
     </g>
     <g id="line2d_18">
      <defs>
       <path d="M 0 0 
L -4 0 
" id="mdd24d2b48f" style="stroke:#000000;stroke-width:0.5;"/>
      </defs>
      <g>
       <use style="stroke:#000000;stroke-width:0.5;" x="576.0" xlink:href="#mdd24d2b48f" y="576.0"/>
      </g>
     </g>
     <g id="text_9">
      <!-- −0.2 -->
      <g transform="translate(-33.139375 579.31125)scale(0.12 -0.12)">
       <use xlink:href="#BitstreamVeraSans-Roman-2212"/>
       <use x="83.7890625" xlink:href="#BitstreamVeraSans-Roman-30"/>
       <use x="147.412109375" xlink:href="#BitstreamVeraSans-Roman-2e"/>
       <use x="179.19921875" xlink:href="#BitstreamVeraSans-Roman-32"/>
      </g>
     </g>
    </g>
    <g id="ytick_2">
     <g id="line2d_19">
      <g>
       <use style="stroke:#000000;stroke-width:0.5;" x="0.0" xlink:href="#mbeccd0b8f5" y="484.8"/>
      </g>
     </g>
     <g id="line2d_20">
      <g>
       <use style="stroke:#000000;stroke-width:0.5;" x="576.0" xlink:href="#mdd24d2b48f" y="484.8"/>
      </g>
     </g>
     <g id="text_10">
      <!-- 0.0 -->
      <g transform="translate(-23.08375 488.11125)scale(0.12 -0.12)">
       <use xlink:href="#BitstreamVeraSans-Roman-30"/>
       <use x="63.623046875" xlink:href="#BitstreamVeraSans-Roman-2e"/>
       <use x="95.41015625" xlink:href="#BitstreamVeraSans-Roman-30"/>
      </g>
     </g>
    </g>
    <g id="ytick_3">
     <g id="line2d_21">
      <g>
       <use style="stroke:#000000;stroke-width:0.5;" x="0.0" xlink:href="#mbeccd0b8f5" y="393.6"/>
      </g>
     </g>
     <g id="line2d_22">
      <g>
       <use style="stroke:#000000;stroke-width:0.5;" x="576.0" xlink:href="#mdd24d2b48f" y="393.6"/>
      </g>
     </g>
     <g id="text_11">
      <!-- 0.2 -->
      <g transform="translate(-23.08375 396.91125)scale(0.12 -0.12)">
       <use xlink:href="#BitstreamVeraSans-Roman-30"/>
       <use x="63.623046875" xlink:href="#BitstreamVeraSans-Roman-2e"/>
       <use x="95.41015625" xlink:href="#BitstreamVeraSans-Roman-32"/>
      </g>
     </g>
    </g>
    <g id="ytick_4">
     <g id="line2d_23">
      <g>
       <use style="stroke:#000000;stroke-width:0.5;" x="0.0" xlink:href="#mbeccd0b8f5" y="302.4"/>
      </g>
     </g>
     <g id="line2d_24">
      <g>
       <use style="stroke:#000000;stroke-width:0.5;" x="576.0" xlink:href="#mdd24d2b48f" y="302.4"/>
      </g>
     </g>
     <g id="text_12">
      <!-- 0.4 -->
      <g transform="translate(-23.08375 305.71125)scale(0.12 -0.12)">
       <use xlink:href="#BitstreamVeraSans-Roman-30"/>
       <use x="63.623046875" xlink:href="#BitstreamVeraSans-Roman-2e"/>
       <use x="95.41015625" xlink:href="#BitstreamVeraSans-Roman-34"/>
      </g>
     </g>
    </g>
    <g id="ytick_5">
     <g id="line2d_25">
      <g>
       <use style="stroke:#000000;stroke-width:0.5;" x="0.0" xlink:href="#mbeccd0b8f5" y="211.2"/>
      </g>
     </g>
     <g id="line2d_26">
      <g>
       <use style="stroke:#000000;stroke-width:0.5;" x="576.0" xlink:href="#mdd24d2b48f" y="211.2"/>
      </g>
     </g>
     <g id="text_13">
      <!-- 0.6 -->
      <g transform="translate(-23.08375 214.51125)scale(0.12 -0.12)">
       <use xlink:href="#BitstreamVeraSans-Roman-30"/>
       <use x="63.623046875" xlink:href="#BitstreamVeraSans-Roman-2e"/>
       <use x="95.41015625" xlink:href="#BitstreamVeraSans-Roman-36"/>
      </g>
     </g>
    </g>
    <g id="ytick_6">
     <g id="line2d_27">
      <g>
       <use style="stroke:#000000;stroke-width:0.5;" x="0.0" xlink:href="#mbeccd0b8f5" y="120.0"/>
      </g>
     </g>
     <g id="line2d_28">
      <g>
       <use style="stroke:#000000;stroke-width:0.5;" x="576.0" xlink:href="#mdd24d2b48f" y="120.0"/>
      </g>
     </g>
     <g id="text_14">
      <!-- 0.8 -->
      <g transform="translate(-23.08375 123.31125)scale(0.12 -0.12)">
       <use xlink:href="#BitstreamVeraSans-Roman-30"/>
       <use x="63.623046875" xlink:href="#BitstreamVeraSans-Roman-2e"/>
       <use x="95.41015625" xlink:href="#BitstreamVeraSans-Roman-38"/>
      </g>
     </g>
    </g>
    <g id="ytick_7">
     <g id="line2d_29">
      <g>
       <use style="stroke:#000000;stroke-width:0.5;" x="0.0" xlink:href="#mbeccd0b8f5" y="28.8"/>
      </g>
     </g>
     <g id="line2d_30">
      <g>
       <use style="stroke:#000000;stroke-width:0.5;" x="576.0" xlink:href="#mdd24d2b48f" y="28.8"/>
      </g>
     </g>
     <g id="text_15">
      <!-- 1.0 -->
      <g transform="translate(-23.08375 32.11125)scale(0.12 -0.12)">
       <use xlink:href="#BitstreamVeraSans-Roman-31"/>
       <use x="63.623046875" xlink:href="#BitstreamVeraSans-Roman-2e"/>
       <use x="95.41015625" xlink:href="#BitstreamVeraSans-Roman-30"/>
      </g>
     </g>
    </g>
   </g>
   <g id="text_16">
    <g clip-path="url(#pe3da69a288)">
     <!-- HERR GLAUBELEICHT -->
     <defs>
      <path d="M 64.40625 67.28125 
L 64.40625 56.890625 
Q 59.421875 61.53125 53.78125 63.8125 
Q 48.140625 66.109375 41.796875 66.109375 
Q 29.296875 66.109375 22.65625 58.46875 
Q 16.015625 50.828125 16.015625 36.375 
Q 16.015625 21.96875 22.65625 14.328125 
Q 29.296875 6.6875 41.796875 6.6875 
Q 48.140625 6.6875 53.78125 8.984375 
Q 59.421875 11.28125 64.40625 15.921875 
L 64.40625 5.609375 
Q 59.234375 2.09375 53.4375 0.328125 
Q 47.65625 -1.421875 41.21875 -1.421875 
Q 24.65625 -1.421875 15.125 8.703125 
Q 5.609375 18.84375 5.609375 36.375 
Q 5.609375 53.953125 15.125 64.078125 
Q 24.65625 74.21875 41.21875 74.21875 
Q 47.75 74.21875 53.53125 72.484375 
Q 59.328125 70.75 64.40625 67.28125 
" id="BitstreamVeraSans-Roman-43"/>
      <path d="M 34.1875 63.1875 
L 20.796875 26.90625 
L 47.609375 26.90625 
z
M 28.609375 72.90625 
L 39.796875 72.90625 
L 67.578125 0 
L 57.328125 0 
L 50.6875 18.703125 
L 17.828125 18.703125 
L 11.1875 0 
L 0.78125 0 
z
" id="BitstreamVeraSans-Roman-41"/>
      <path d="M 44.390625 34.1875 
Q 47.5625 33.109375 50.5625 29.59375 
Q 53.5625 26.078125 56.59375 19.921875 
L 66.609375 0 
L 56 0 
L 46.6875 18.703125 
Q 43.0625 26.03125 39.671875 28.421875 
Q 36.28125 30.8125 30.421875 30.8125 
L 19.671875 30.8125 
L 19.671875 0 
L 9.8125 0 
L 9.8125 72.90625 
L 32.078125 72.90625 
Q 44.578125 72.90625 50.734375 67.671875 
Q 56.890625 62.453125 56.890625 51.90625 
Q 56.890625 45.015625 53.6875 40.46875 
Q 50.484375 35.9375 44.390625 34.1875 
M 19.671875 64.796875 
L 19.671875 38.921875 
L 32.078125 38.921875 
Q 39.203125 38.921875 42.84375 42.21875 
Q 46.484375 45.515625 46.484375 51.90625 
Q 46.484375 58.296875 42.84375 61.546875 
Q 39.203125 64.796875 32.078125 64.796875 
z
" id="BitstreamVeraSans-Roman-52"/>
      <path d="M 9.8125 72.90625 
L 55.90625 72.90625 
L 55.90625 64.59375 
L 19.671875 64.59375 
L 19.671875 43.015625 
L 54.390625 43.015625 
L 54.390625 34.71875 
L 19.671875 34.71875 
L 19.671875 8.296875 
L 56.78125 8.296875 
L 56.78125 0 
L 9.8125 0 
z
" id="BitstreamVeraSans-Roman-45"/>
      <path d="M 9.8125 72.90625 
L 19.671875 72.90625 
L 19.671875 0 
L 9.8125 0 
z
" id="BitstreamVeraSans-Roman-49"/>
      <path d="M 9.8125 72.90625 
L 19.671875 72.90625 
L 19.671875 43.015625 
L 55.515625 43.015625 
L 55.515625 72.90625 
L 65.375 72.90625 
L 65.375 0 
L 55.515625 0 
L 55.515625 34.71875 
L 19.671875 34.71875 
L 19.671875 0 
L 9.8125 0 
z
" id="BitstreamVeraSans-Roman-48"/>
      <path d="M 19.671875 34.8125 
L 19.671875 8.109375 
L 35.5 8.109375 
Q 43.453125 8.109375 47.28125 11.40625 
Q 51.125 14.703125 51.125 21.484375 
Q 51.125 28.328125 47.28125 31.5625 
Q 43.453125 34.8125 35.5 34.8125 
z
M 19.671875 64.796875 
L 19.671875 42.828125 
L 34.28125 42.828125 
Q 41.5 42.828125 45.03125 45.53125 
Q 48.578125 48.25 48.578125 53.8125 
Q 48.578125 59.328125 45.03125 62.0625 
Q 41.5 64.796875 34.28125 64.796875 
z
M 9.8125 72.90625 
L 35.015625 72.90625 
Q 46.296875 72.90625 52.390625 68.21875 
Q 58.5 63.53125 58.5 54.890625 
Q 58.5 48.1875 55.375 44.234375 
Q 52.25 40.28125 46.1875 39.3125 
Q 53.46875 37.75 57.5 32.78125 
Q 61.53125 27.828125 61.53125 20.40625 
Q 61.53125 10.640625 54.890625 5.3125 
Q 48.25 0 35.984375 0 
L 9.8125 0 
z
" id="BitstreamVeraSans-Roman-42"/>
      <path d="M 8.6875 72.90625 
L 18.609375 72.90625 
L 18.609375 28.609375 
Q 18.609375 16.890625 22.84375 11.734375 
Q 27.09375 6.59375 36.625 6.59375 
Q 46.09375 6.59375 50.34375 11.734375 
Q 54.59375 16.890625 54.59375 28.609375 
L 54.59375 72.90625 
L 64.5 72.90625 
L 64.5 27.390625 
Q 64.5 13.140625 57.4375 5.859375 
Q 50.390625 -1.421875 36.625 -1.421875 
Q 22.796875 -1.421875 15.734375 5.859375 
Q 8.6875 13.140625 8.6875 27.390625 
z
" id="BitstreamVeraSans-Roman-55"/>
      <path d="M 9.8125 72.90625 
L 19.671875 72.90625 
L 19.671875 8.296875 
L 55.171875 8.296875 
L 55.171875 0 
L 9.8125 0 
z
" id="BitstreamVeraSans-Roman-4c"/>
      <path d="M -0.296875 72.90625 
L 61.375 72.90625 
L 61.375 64.59375 
L 35.5 64.59375 
L 35.5 0 
L 25.59375 0 
L 25.59375 64.59375 
L -0.296875 64.59375 
z
" id="BitstreamVeraSans-Roman-54"/>
      <path id="BitstreamVeraSans-Roman-20"/>
      <path d="M 59.515625 10.40625 
L 59.515625 29.984375 
L 43.40625 29.984375 
L 43.40625 38.09375 
L 69.28125 38.09375 
L 69.28125 6.78125 
Q 63.578125 2.734375 56.6875 0.65625 
Q 49.8125 -1.421875 42 -1.421875 
Q 24.90625 -1.421875 15.25 8.5625 
Q 5.609375 18.5625 5.609375 36.375 
Q 5.609375 54.25 15.25 64.234375 
Q 24.90625 74.21875 42 74.21875 
Q 49.125 74.21875 55.546875 72.453125 
Q 61.96875 70.703125 67.390625 67.28125 
L 67.390625 56.78125 
Q 61.921875 61.421875 55.765625 63.765625 
Q 49.609375 66.109375 42.828125 66.109375 
Q 29.4375 66.109375 22.71875 58.640625 
Q 16.015625 51.171875 16.015625 36.375 
Q 16.015625 21.625 22.71875 14.15625 
Q 29.4375 6.6875 42.828125 6.6875 
Q 48.046875 6.6875 52.140625 7.59375 
Q 56.25 8.5 59.515625 10.40625 
" id="BitstreamVeraSans-Roman-47"/>
     </defs>
     <g transform="translate(429.497410714 319.25421263)scale(0.12 -0.12)">
      <use xlink:href="#BitstreamVeraSans-Roman-48"/>
      <use x="75.1953125" xlink:href="#BitstreamVeraSans-Roman-45"/>
      <use x="138.37890625" xlink:href="#BitstreamVeraSans-Roman-52"/>
      <use x="207.861328125" xlink:href="#BitstreamVeraSans-Roman-52"/>
      <use x="277.34375" xlink:href="#BitstreamVeraSans-Roman-20"/>
      <use x="309.130859375" xlink:href="#BitstreamVeraSans-Roman-47"/>
      <use x="386.62109375" xlink:href="#BitstreamVeraSans-Roman-4c"/>
      <use x="442.365234375" xlink:href="#BitstreamVeraSans-Roman-41"/>
      <use x="510.7734375" xlink:href="#BitstreamVeraSans-Roman-55"/>
      <use x="583.966796875" xlink:href="#BitstreamVeraSans-Roman-42"/>
      <use x="652.5703125" xlink:href="#BitstreamVeraSans-Roman-45"/>
      <use x="715.75390625" xlink:href="#BitstreamVeraSans-Roman-4c"/>
      <use x="771.466796875" xlink:href="#BitstreamVeraSans-Roman-45"/>
      <use x="834.650390625" xlink:href="#BitstreamVeraSans-Roman-49"/>
      <use x="864.142578125" xlink:href="#BitstreamVeraSans-Roman-43"/>
      <use x="933.966796875" xlink:href="#BitstreamVeraSans-Roman-48"/>
      <use x="1009.162109375" xlink:href="#BitstreamVeraSans-Roman-54"/>
     </g>
    </g>
   </g>
   <g id="text_17">
    <g clip-path="url(#pe3da69a288)">
     <!-- DER DIENER -->
     <defs>
      <path d="M 19.671875 64.796875 
L 19.671875 8.109375 
L 31.59375 8.109375 
Q 46.6875 8.109375 53.6875 14.9375 
Q 60.6875 21.78125 60.6875 36.53125 
Q 60.6875 51.171875 53.6875 57.984375 
Q 46.6875 64.796875 31.59375 64.796875 
z
M 9.8125 72.90625 
L 30.078125 72.90625 
Q 51.265625 72.90625 61.171875 64.09375 
Q 71.09375 55.28125 71.09375 36.53125 
Q 71.09375 17.671875 61.125 8.828125 
Q 51.171875 0 30.078125 0 
L 9.8125 0 
z
" id="BitstreamVeraSans-Roman-44"/>
      <path d="M 9.8125 72.90625 
L 23.09375 72.90625 
L 55.421875 11.921875 
L 55.421875 72.90625 
L 64.984375 72.90625 
L 64.984375 0 
L 51.703125 0 
L 19.390625 60.984375 
L 19.390625 0 
L 9.8125 0 
z
" id="BitstreamVeraSans-Roman-4e"/>
     </defs>
     <g transform="translate(60.0704818876 487.677541164)scale(0.12 -0.12)">
      <use xlink:href="#BitstreamVeraSans-Roman-44"/>
      <use x="77.001953125" xlink:href="#BitstreamVeraSans-Roman-45"/>
      <use x="140.185546875" xlink:href="#BitstreamVeraSans-Roman-52"/>
      <use x="209.66796875" xlink:href="#BitstreamVeraSans-Roman-20"/>
      <use x="241.455078125" xlink:href="#BitstreamVeraSans-Roman-44"/>
      <use x="318.45703125" xlink:href="#BitstreamVeraSans-Roman-49"/>
      <use x="347.94921875" xlink:href="#BitstreamVeraSans-Roman-45"/>
      <use x="411.1328125" xlink:href="#BitstreamVeraSans-Roman-4e"/>
      <use x="485.9375" xlink:href="#BitstreamVeraSans-Roman-45"/>
      <use x="549.12109375" xlink:href="#BitstreamVeraSans-Roman-52"/>
     </g>
    </g>
   </g>
   <g id="text_18">
    <g clip-path="url(#pe3da69a288)">
     <!-- HERR WACKERMANN -->
     <defs>
      <path d="M 9.8125 72.90625 
L 19.671875 72.90625 
L 19.671875 42.09375 
L 52.390625 72.90625 
L 65.09375 72.90625 
L 28.90625 38.921875 
L 67.671875 0 
L 54.6875 0 
L 19.671875 35.109375 
L 19.671875 0 
L 9.8125 0 
z
" id="BitstreamVeraSans-Roman-4b"/>
      <path d="M 9.8125 72.90625 
L 24.515625 72.90625 
L 43.109375 23.296875 
L 61.8125 72.90625 
L 76.515625 72.90625 
L 76.515625 0 
L 66.890625 0 
L 66.890625 64.015625 
L 48.09375 14.015625 
L 38.1875 14.015625 
L 19.390625 64.015625 
L 19.390625 0 
L 9.8125 0 
z
" id="BitstreamVeraSans-Roman-4d"/>
      <path d="M 3.328125 72.90625 
L 13.28125 72.90625 
L 28.609375 11.28125 
L 43.890625 72.90625 
L 54.984375 72.90625 
L 70.3125 11.28125 
L 85.59375 72.90625 
L 95.609375 72.90625 
L 77.296875 0 
L 64.890625 0 
L 49.515625 63.28125 
L 33.984375 0 
L 21.578125 0 
z
" id="BitstreamVeraSans-Roman-57"/>
     </defs>
     <g transform="translate(271.199899016 368.086515356)scale(0.12 -0.12)">
      <use xlink:href="#BitstreamVeraSans-Roman-48"/>
      <use x="75.1953125" xlink:href="#BitstreamVeraSans-Roman-45"/>
      <use x="138.37890625" xlink:href="#BitstreamVeraSans-Roman-52"/>
      <use x="207.861328125" xlink:href="#BitstreamVeraSans-Roman-52"/>
      <use x="277.34375" xlink:href="#BitstreamVeraSans-Roman-20"/>
      <use x="309.130859375" xlink:href="#BitstreamVeraSans-Roman-57"/>
      <use x="407.9296875" xlink:href="#BitstreamVeraSans-Roman-41"/>
      <use x="476.322265625" xlink:href="#BitstreamVeraSans-Roman-43"/>
      <use x="546.146484375" xlink:href="#BitstreamVeraSans-Roman-4b"/>
      <use x="611.72265625" xlink:href="#BitstreamVeraSans-Roman-45"/>
      <use x="674.90625" xlink:href="#BitstreamVeraSans-Roman-52"/>
      <use x="744.388671875" xlink:href="#BitstreamVeraSans-Roman-4d"/>
      <use x="830.66796875" xlink:href="#BitstreamVeraSans-Roman-41"/>
      <use x="899.076171875" xlink:href="#BitstreamVeraSans-Roman-4e"/>
      <use x="973.880859375" xlink:href="#BitstreamVeraSans-Roman-4e"/>
     </g>
    </g>
   </g>
   <g id="text_19">
    <g clip-path="url(#pe3da69a288)">
     <!-- HERR SCHEINFROMM -->
     <defs>
      <path d="M 53.515625 70.515625 
L 53.515625 60.890625 
Q 47.90625 63.578125 42.921875 64.890625 
Q 37.9375 66.21875 33.296875 66.21875 
Q 25.25 66.21875 20.875 63.09375 
Q 16.5 59.96875 16.5 54.203125 
Q 16.5 49.359375 19.40625 46.890625 
Q 22.3125 44.4375 30.421875 42.921875 
L 36.375 41.703125 
Q 47.40625 39.59375 52.65625 34.296875 
Q 57.90625 29 57.90625 20.125 
Q 57.90625 9.515625 50.796875 4.046875 
Q 43.703125 -1.421875 29.984375 -1.421875 
Q 24.8125 -1.421875 18.96875 -0.25 
Q 13.140625 0.921875 6.890625 3.21875 
L 6.890625 13.375 
Q 12.890625 10.015625 18.65625 8.296875 
Q 24.421875 6.59375 29.984375 6.59375 
Q 38.421875 6.59375 43.015625 9.90625 
Q 47.609375 13.234375 47.609375 19.390625 
Q 47.609375 24.75 44.3125 27.78125 
Q 41.015625 30.8125 33.5 32.328125 
L 27.484375 33.5 
Q 16.453125 35.6875 11.515625 40.375 
Q 6.59375 45.0625 6.59375 53.421875 
Q 6.59375 63.09375 13.40625 68.65625 
Q 20.21875 74.21875 32.171875 74.21875 
Q 37.3125 74.21875 42.625 73.28125 
Q 47.953125 72.359375 53.515625 70.515625 
" id="BitstreamVeraSans-Roman-53"/>
      <path d="M 39.40625 66.21875 
Q 28.65625 66.21875 22.328125 58.203125 
Q 16.015625 50.203125 16.015625 36.375 
Q 16.015625 22.609375 22.328125 14.59375 
Q 28.65625 6.59375 39.40625 6.59375 
Q 50.140625 6.59375 56.421875 14.59375 
Q 62.703125 22.609375 62.703125 36.375 
Q 62.703125 50.203125 56.421875 58.203125 
Q 50.140625 66.21875 39.40625 66.21875 
M 39.40625 74.21875 
Q 54.734375 74.21875 63.90625 63.9375 
Q 73.09375 53.65625 73.09375 36.375 
Q 73.09375 19.140625 63.90625 8.859375 
Q 54.734375 -1.421875 39.40625 -1.421875 
Q 24.03125 -1.421875 14.8125 8.828125 
Q 5.609375 19.09375 5.609375 36.375 
Q 5.609375 53.65625 14.8125 63.9375 
Q 24.03125 74.21875 39.40625 74.21875 
" id="BitstreamVeraSans-Roman-4f"/>
      <path d="M 9.8125 72.90625 
L 51.703125 72.90625 
L 51.703125 64.59375 
L 19.671875 64.59375 
L 19.671875 43.109375 
L 48.578125 43.109375 
L 48.578125 34.8125 
L 19.671875 34.8125 
L 19.671875 0 
L 9.8125 0 
z
" id="BitstreamVeraSans-Roman-46"/>
     </defs>
     <g transform="translate(207.861018719 377.705600356)scale(0.12 -0.12)">
      <use xlink:href="#BitstreamVeraSans-Roman-48"/>
      <use x="75.1953125" xlink:href="#BitstreamVeraSans-Roman-45"/>
      <use x="138.37890625" xlink:href="#BitstreamVeraSans-Roman-52"/>
      <use x="207.861328125" xlink:href="#BitstreamVeraSans-Roman-52"/>
      <use x="277.34375" xlink:href="#BitstreamVeraSans-Roman-20"/>
      <use x="309.130859375" xlink:href="#BitstreamVeraSans-Roman-53"/>
      <use x="372.607421875" xlink:href="#BitstreamVeraSans-Roman-43"/>
      <use x="442.431640625" xlink:href="#BitstreamVeraSans-Roman-48"/>
      <use x="517.626953125" xlink:href="#BitstreamVeraSans-Roman-45"/>
      <use x="580.810546875" xlink:href="#BitstreamVeraSans-Roman-49"/>
      <use x="610.302734375" xlink:href="#BitstreamVeraSans-Roman-4e"/>
      <use x="685.107421875" xlink:href="#BitstreamVeraSans-Roman-46"/>
      <use x="742.626953125" xlink:href="#BitstreamVeraSans-Roman-52"/>
      <use x="812.109375" xlink:href="#BitstreamVeraSans-Roman-4f"/>
      <use x="890.8203125" xlink:href="#BitstreamVeraSans-Roman-4d"/>
      <use x="977.099609375" xlink:href="#BitstreamVeraSans-Roman-4d"/>
     </g>
    </g>
   </g>
   <g id="text_20">
    <g clip-path="url(#pe3da69a288)">
     <!-- FRAU ZANCKENHEIMIN -->
     <defs>
      <path d="M 5.609375 72.90625 
L 62.890625 72.90625 
L 62.890625 65.375 
L 16.796875 8.296875 
L 64.015625 8.296875 
L 64.015625 0 
L 4.5 0 
L 4.5 7.515625 
L 50.59375 64.59375 
L 5.609375 64.59375 
z
" id="BitstreamVeraSans-Roman-5a"/>
     </defs>
     <g transform="translate(159.290952728 280.445656485)scale(0.12 -0.12)">
      <use xlink:href="#BitstreamVeraSans-Roman-46"/>
      <use x="57.51953125" xlink:href="#BitstreamVeraSans-Roman-52"/>
      <use x="126.939453125" xlink:href="#BitstreamVeraSans-Roman-41"/>
      <use x="195.34765625" xlink:href="#BitstreamVeraSans-Roman-55"/>
      <use x="268.541015625" xlink:href="#BitstreamVeraSans-Roman-20"/>
      <use x="300.328125" xlink:href="#BitstreamVeraSans-Roman-5a"/>
      <use x="368.833984375" xlink:href="#BitstreamVeraSans-Roman-41"/>
      <use x="437.2421875" xlink:href="#BitstreamVeraSans-Roman-4e"/>
      <use x="512.046875" xlink:href="#BitstreamVeraSans-Roman-43"/>
      <use x="581.87109375" xlink:href="#BitstreamVeraSans-Roman-4b"/>
      <use x="647.447265625" xlink:href="#BitstreamVeraSans-Roman-45"/>
      <use x="710.630859375" xlink:href="#BitstreamVeraSans-Roman-4e"/>
      <use x="785.435546875" xlink:href="#BitstreamVeraSans-Roman-48"/>
      <use x="860.630859375" xlink:href="#BitstreamVeraSans-Roman-45"/>
      <use x="923.814453125" xlink:href="#BitstreamVeraSans-Roman-49"/>
      <use x="953.306640625" xlink:href="#BitstreamVeraSans-Roman-4d"/>
      <use x="1039.5859375" xlink:href="#BitstreamVeraSans-Roman-49"/>
      <use x="1069.078125" xlink:href="#BitstreamVeraSans-Roman-4e"/>
     </g>
    </g>
   </g>
   <g id="text_21">
    <g clip-path="url(#pe3da69a288)">
     <!-- DER ADVOCAT -->
     <defs>
      <path d="M 28.609375 0 
L 0.78125 72.90625 
L 11.078125 72.90625 
L 34.1875 11.53125 
L 57.328125 72.90625 
L 67.578125 72.90625 
L 39.796875 0 
z
" id="BitstreamVeraSans-Roman-56"/>
     </defs>
     <g transform="translate(297.848636351 488.11125)scale(0.12 -0.12)">
      <use xlink:href="#BitstreamVeraSans-Roman-44"/>
      <use x="77.001953125" xlink:href="#BitstreamVeraSans-Roman-45"/>
      <use x="140.185546875" xlink:href="#BitstreamVeraSans-Roman-52"/>
      <use x="209.66796875" xlink:href="#BitstreamVeraSans-Roman-20"/>
      <use x="241.455078125" xlink:href="#BitstreamVeraSans-Roman-41"/>
      <use x="309.86328125" xlink:href="#BitstreamVeraSans-Roman-44"/>
      <use x="386.849609375" xlink:href="#BitstreamVeraSans-Roman-56"/>
      <use x="455.2421875" xlink:href="#BitstreamVeraSans-Roman-4f"/>
      <use x="533.953125" xlink:href="#BitstreamVeraSans-Roman-43"/>
      <use x="603.77734375" xlink:href="#BitstreamVeraSans-Roman-41"/>
      <use x="672.076171875" xlink:href="#BitstreamVeraSans-Roman-54"/>
     </g>
    </g>
   </g>
   <g id="text_22">
    <g clip-path="url(#pe3da69a288)">
     <!-- FRAU SEUFFZERIN -->
     <g transform="translate(149.848793951 320.458804216)scale(0.12 -0.12)">
      <use xlink:href="#BitstreamVeraSans-Roman-46"/>
      <use x="57.51953125" xlink:href="#BitstreamVeraSans-Roman-52"/>
      <use x="126.939453125" xlink:href="#BitstreamVeraSans-Roman-41"/>
      <use x="195.34765625" xlink:href="#BitstreamVeraSans-Roman-55"/>
      <use x="268.541015625" xlink:href="#BitstreamVeraSans-Roman-20"/>
      <use x="300.328125" xlink:href="#BitstreamVeraSans-Roman-53"/>
      <use x="363.8046875" xlink:href="#BitstreamVeraSans-Roman-45"/>
      <use x="426.98828125" xlink:href="#BitstreamVeraSans-Roman-55"/>
      <use x="500.181640625" xlink:href="#BitstreamVeraSans-Roman-46"/>
      <use x="557.701171875" xlink:href="#BitstreamVeraSans-Roman-46"/>
      <use x="615.220703125" xlink:href="#BitstreamVeraSans-Roman-5a"/>
      <use x="683.7265625" xlink:href="#BitstreamVeraSans-Roman-45"/>
      <use x="746.91015625" xlink:href="#BitstreamVeraSans-Roman-52"/>
      <use x="816.392578125" xlink:href="#BitstreamVeraSans-Roman-49"/>
      <use x="845.884765625" xlink:href="#BitstreamVeraSans-Roman-4e"/>
     </g>
    </g>
   </g>
   <g id="text_23">
    <g clip-path="url(#pe3da69a288)">
     <!-- JUNGFER DORCHEN -->
     <defs>
      <path d="M 9.8125 72.90625 
L 19.671875 72.90625 
L 19.671875 5.078125 
Q 19.671875 -8.109375 14.671875 -14.0625 
Q 9.671875 -20.015625 -1.421875 -20.015625 
L -5.171875 -20.015625 
L -5.171875 -11.71875 
L -2.09375 -11.71875 
Q 4.4375 -11.71875 7.125 -8.046875 
Q 9.8125 -4.390625 9.8125 5.078125 
z
" id="BitstreamVeraSans-Roman-4a"/>
     </defs>
     <g transform="translate(374.48254772 298.284124972)scale(0.12 -0.12)">
      <use xlink:href="#BitstreamVeraSans-Roman-4a"/>
      <use x="29.4921875" xlink:href="#BitstreamVeraSans-Roman-55"/>
      <use x="102.685546875" xlink:href="#BitstreamVeraSans-Roman-4e"/>
      <use x="177.490234375" xlink:href="#BitstreamVeraSans-Roman-47"/>
      <use x="254.98046875" xlink:href="#BitstreamVeraSans-Roman-46"/>
      <use x="312.5" xlink:href="#BitstreamVeraSans-Roman-45"/>
      <use x="375.68359375" xlink:href="#BitstreamVeraSans-Roman-52"/>
      <use x="445.166015625" xlink:href="#BitstreamVeraSans-Roman-20"/>
      <use x="476.953125" xlink:href="#BitstreamVeraSans-Roman-44"/>
      <use x="553.955078125" xlink:href="#BitstreamVeraSans-Roman-4f"/>
      <use x="632.666015625" xlink:href="#BitstreamVeraSans-Roman-52"/>
      <use x="702.0703125" xlink:href="#BitstreamVeraSans-Roman-43"/>
      <use x="771.89453125" xlink:href="#BitstreamVeraSans-Roman-48"/>
      <use x="847.08984375" xlink:href="#BitstreamVeraSans-Roman-45"/>
      <use x="910.2734375" xlink:href="#BitstreamVeraSans-Roman-4e"/>
     </g>
    </g>
   </g>
   <g id="text_24">
    <g clip-path="url(#pe3da69a288)">
     <!-- FRAU BETTELSACKIN -->
     <g transform="translate(347.703959608 139.177832973)scale(0.12 -0.12)">
      <use xlink:href="#BitstreamVeraSans-Roman-46"/>
      <use x="57.51953125" xlink:href="#BitstreamVeraSans-Roman-52"/>
      <use x="126.939453125" xlink:href="#BitstreamVeraSans-Roman-41"/>
      <use x="195.34765625" xlink:href="#BitstreamVeraSans-Roman-55"/>
      <use x="268.541015625" xlink:href="#BitstreamVeraSans-Roman-20"/>
      <use x="300.328125" xlink:href="#BitstreamVeraSans-Roman-42"/>
      <use x="368.931640625" xlink:href="#BitstreamVeraSans-Roman-45"/>
      <use x="432.115234375" xlink:href="#BitstreamVeraSans-Roman-54"/>
      <use x="493.18359375" xlink:href="#BitstreamVeraSans-Roman-54"/>
      <use x="554.267578125" xlink:href="#BitstreamVeraSans-Roman-45"/>
      <use x="617.451171875" xlink:href="#BitstreamVeraSans-Roman-4c"/>
      <use x="673.1640625" xlink:href="#BitstreamVeraSans-Roman-53"/>
      <use x="736.65625" xlink:href="#BitstreamVeraSans-Roman-41"/>
      <use x="805.048828125" xlink:href="#BitstreamVeraSans-Roman-43"/>
      <use x="874.873046875" xlink:href="#BitstreamVeraSans-Roman-4b"/>
      <use x="940.44921875" xlink:href="#BitstreamVeraSans-Roman-49"/>
      <use x="969.94140625" xlink:href="#BitstreamVeraSans-Roman-4e"/>
     </g>
    </g>
   </g>
   <g id="text_25">
    <g clip-path="url(#pe3da69a288)">
     <!-- HERR LIEBMANN -->
     <g transform="translate(411.856911999 383.145740408)scale(0.12 -0.12)">
      <use xlink:href="#BitstreamVeraSans-Roman-48"/>
      <use x="75.1953125" xlink:href="#BitstreamVeraSans-Roman-45"/>
      <use x="138.37890625" xlink:href="#BitstreamVeraSans-Roman-52"/>
      <use x="207.861328125" xlink:href="#BitstreamVeraSans-Roman-52"/>
      <use x="277.34375" xlink:href="#BitstreamVeraSans-Roman-20"/>
      <use x="309.130859375" xlink:href="#BitstreamVeraSans-Roman-4c"/>
      <use x="364.84375" xlink:href="#BitstreamVeraSans-Roman-49"/>
      <use x="394.3359375" xlink:href="#BitstreamVeraSans-Roman-45"/>
      <use x="457.51953125" xlink:href="#BitstreamVeraSans-Roman-42"/>
      <use x="526.123046875" xlink:href="#BitstreamVeraSans-Roman-4d"/>
      <use x="612.40234375" xlink:href="#BitstreamVeraSans-Roman-41"/>
      <use x="680.810546875" xlink:href="#BitstreamVeraSans-Roman-4e"/>
      <use x="755.615234375" xlink:href="#BitstreamVeraSans-Roman-4e"/>
     </g>
    </g>
   </g>
   <g id="text_26">
    <g clip-path="url(#pe3da69a288)">
     <!-- FRAU GLAUBELEICHTIN -->
     <g transform="translate(227.701151534 330.256297552)scale(0.12 -0.12)">
      <use xlink:href="#BitstreamVeraSans-Roman-46"/>
      <use x="57.51953125" xlink:href="#BitstreamVeraSans-Roman-52"/>
      <use x="126.939453125" xlink:href="#BitstreamVeraSans-Roman-41"/>
      <use x="195.34765625" xlink:href="#BitstreamVeraSans-Roman-55"/>
      <use x="268.541015625" xlink:href="#BitstreamVeraSans-Roman-20"/>
      <use x="300.328125" xlink:href="#BitstreamVeraSans-Roman-47"/>
      <use x="377.818359375" xlink:href="#BitstreamVeraSans-Roman-4c"/>
      <use x="433.5625" xlink:href="#BitstreamVeraSans-Roman-41"/>
      <use x="501.970703125" xlink:href="#BitstreamVeraSans-Roman-55"/>
      <use x="575.1640625" xlink:href="#BitstreamVeraSans-Roman-42"/>
      <use x="643.767578125" xlink:href="#BitstreamVeraSans-Roman-45"/>
      <use x="706.951171875" xlink:href="#BitstreamVeraSans-Roman-4c"/>
      <use x="762.6640625" xlink:href="#BitstreamVeraSans-Roman-45"/>
      <use x="825.84765625" xlink:href="#BitstreamVeraSans-Roman-49"/>
      <use x="855.33984375" xlink:href="#BitstreamVeraSans-Roman-43"/>
      <use x="925.1640625" xlink:href="#BitstreamVeraSans-Roman-48"/>
      <use x="1000.359375" xlink:href="#BitstreamVeraSans-Roman-54"/>
      <use x="1061.443359375" xlink:href="#BitstreamVeraSans-Roman-49"/>
      <use x="1090.935546875" xlink:href="#BitstreamVeraSans-Roman-4e"/>
     </g>
    </g>
   </g>
   <g id="text_27">
    <g clip-path="url(#pe3da69a288)">
     <!-- FRAU EHRLICHEN -->
     <g transform="translate(132.14937356 206.697739231)scale(0.12 -0.12)">
      <use xlink:href="#BitstreamVeraSans-Roman-46"/>
      <use x="57.51953125" xlink:href="#BitstreamVeraSans-Roman-52"/>
      <use x="126.939453125" xlink:href="#BitstreamVeraSans-Roman-41"/>
      <use x="195.34765625" xlink:href="#BitstreamVeraSans-Roman-55"/>
      <use x="268.541015625" xlink:href="#BitstreamVeraSans-Roman-20"/>
      <use x="300.328125" xlink:href="#BitstreamVeraSans-Roman-45"/>
      <use x="363.51171875" xlink:href="#BitstreamVeraSans-Roman-48"/>
      <use x="438.70703125" xlink:href="#BitstreamVeraSans-Roman-52"/>
      <use x="508.189453125" xlink:href="#BitstreamVeraSans-Roman-4c"/>
      <use x="563.90234375" xlink:href="#BitstreamVeraSans-Roman-49"/>
      <use x="593.39453125" xlink:href="#BitstreamVeraSans-Roman-43"/>
      <use x="663.21875" xlink:href="#BitstreamVeraSans-Roman-48"/>
      <use x="738.4140625" xlink:href="#BitstreamVeraSans-Roman-45"/>
      <use x="801.59765625" xlink:href="#BitstreamVeraSans-Roman-4e"/>
     </g>
    </g>
   </g>
   <g id="text_28">
    <g clip-path="url(#pe3da69a288)">
     <!-- JACOB -->
     <g transform="translate(63.3838392857 244.777164588)scale(0.12 -0.12)">
      <use xlink:href="#BitstreamVeraSans-Roman-4a"/>
      <use x="29.4765625" xlink:href="#BitstreamVeraSans-Roman-41"/>
      <use x="97.869140625" xlink:href="#BitstreamVeraSans-Roman-43"/>
      <use x="167.693359375" xlink:href="#BitstreamVeraSans-Roman-4f"/>
      <use x="246.404296875" xlink:href="#BitstreamVeraSans-Roman-42"/>
     </g>
    </g>
   </g>
   <g id="text_29">
    <g clip-path="url(#pe3da69a288)">
     <!-- CATHRINE -->
     <g transform="translate(344.089466397 335.149478629)scale(0.12 -0.12)">
      <use xlink:href="#BitstreamVeraSans-Roman-43"/>
      <use x="69.82421875" xlink:href="#BitstreamVeraSans-Roman-41"/>
      <use x="138.123046875" xlink:href="#BitstreamVeraSans-Roman-54"/>
      <use x="199.20703125" xlink:href="#BitstreamVeraSans-Roman-48"/>
      <use x="274.40234375" xlink:href="#BitstreamVeraSans-Roman-52"/>
      <use x="343.884765625" xlink:href="#BitstreamVeraSans-Roman-49"/>
      <use x="373.376953125" xlink:href="#BitstreamVeraSans-Roman-4e"/>
      <use x="448.181640625" xlink:href="#BitstreamVeraSans-Roman-45"/>
     </g>
    </g>
   </g>
   <g id="text_30">
    <g clip-path="url(#pe3da69a288)">
     <!-- HERR VON MUCKERSDORFF -->
     <g transform="translate(226.412647245 433.103658949)scale(0.12 -0.12)">
      <use xlink:href="#BitstreamVeraSans-Roman-48"/>
      <use x="75.1953125" xlink:href="#BitstreamVeraSans-Roman-45"/>
      <use x="138.37890625" xlink:href="#BitstreamVeraSans-Roman-52"/>
      <use x="207.861328125" xlink:href="#BitstreamVeraSans-Roman-52"/>
      <use x="277.34375" xlink:href="#BitstreamVeraSans-Roman-20"/>
      <use x="309.130859375" xlink:href="#BitstreamVeraSans-Roman-56"/>
      <use x="377.5234375" xlink:href="#BitstreamVeraSans-Roman-4f"/>
      <use x="456.234375" xlink:href="#BitstreamVeraSans-Roman-4e"/>
      <use x="531.0390625" xlink:href="#BitstreamVeraSans-Roman-20"/>
      <use x="562.826171875" xlink:href="#BitstreamVeraSans-Roman-4d"/>
      <use x="649.10546875" xlink:href="#BitstreamVeraSans-Roman-55"/>
      <use x="722.298828125" xlink:href="#BitstreamVeraSans-Roman-43"/>
      <use x="792.123046875" xlink:href="#BitstreamVeraSans-Roman-4b"/>
      <use x="857.69921875" xlink:href="#BitstreamVeraSans-Roman-45"/>
      <use x="920.8828125" xlink:href="#BitstreamVeraSans-Roman-52"/>
      <use x="990.365234375" xlink:href="#BitstreamVeraSans-Roman-53"/>
      <use x="1053.841796875" xlink:href="#BitstreamVeraSans-Roman-44"/>
      <use x="1130.84375" xlink:href="#BitstreamVeraSans-Roman-4f"/>
      <use x="1209.5546875" xlink:href="#BitstreamVeraSans-Roman-52"/>
      <use x="1279.037109375" xlink:href="#BitstreamVeraSans-Roman-46"/>
      <use x="1336.556640625" xlink:href="#BitstreamVeraSans-Roman-46"/>
     </g>
    </g>
   </g>
   <g id="text_31">
    <g clip-path="url(#pe3da69a288)">
     <!-- JUNGFER LUISCHEN -->
     <g transform="translate(319.666770817 380.92343255)scale(0.12 -0.12)">
      <use xlink:href="#BitstreamVeraSans-Roman-4a"/>
      <use x="29.4921875" xlink:href="#BitstreamVeraSans-Roman-55"/>
      <use x="102.685546875" xlink:href="#BitstreamVeraSans-Roman-4e"/>
      <use x="177.490234375" xlink:href="#BitstreamVeraSans-Roman-47"/>
      <use x="254.98046875" xlink:href="#BitstreamVeraSans-Roman-46"/>
      <use x="312.5" xlink:href="#BitstreamVeraSans-Roman-45"/>
      <use x="375.68359375" xlink:href="#BitstreamVeraSans-Roman-52"/>
      <use x="445.166015625" xlink:href="#BitstreamVeraSans-Roman-20"/>
      <use x="476.953125" xlink:href="#BitstreamVeraSans-Roman-4c"/>
      <use x="532.587890625" xlink:href="#BitstreamVeraSans-Roman-55"/>
      <use x="605.78125" xlink:href="#BitstreamVeraSans-Roman-49"/>
      <use x="635.2734375" xlink:href="#BitstreamVeraSans-Roman-53"/>
      <use x="698.75" xlink:href="#BitstreamVeraSans-Roman-43"/>
      <use x="768.57421875" xlink:href="#BitstreamVeraSans-Roman-48"/>
      <use x="843.76953125" xlink:href="#BitstreamVeraSans-Roman-45"/>
      <use x="906.953125" xlink:href="#BitstreamVeraSans-Roman-4e"/>
     </g>
    </g>
   </g>
  </g>
 </g>
 <defs>
  <clipPath id="pe3da69a288">
   <rect height="547.2" width="576.0" x="0.0" y="28.8"/>
  </clipPath>
 </defs>
</svg>
