<?xml version="1.0" encoding="utf-8" standalone="no"?>
<!DOCTYPE svg PUBLIC "-//W3C//DTD SVG 1.1//EN"
  "http://www.w3.org/Graphics/SVG/1.1/DTD/svg11.dtd">
<!-- Created with matplotlib (http://matplotlib.org/) -->
<svg height="576pt" version="1.1" viewBox="0 0 576 576" width="576pt" xmlns="http://www.w3.org/2000/svg" xmlns:xlink="http://www.w3.org/1999/xlink">
 <defs>
  <style type="text/css">
*{stroke-linecap:butt;stroke-linejoin:round;stroke-miterlimit:100000;}
  </style>
 </defs>
 <g id="figure_1">
  <g id="patch_1">
   <path d="M 0 576 
L 576 576 
L 576 0 
L 0 0 
z
" style="fill:#ffffff;"/>
  </g>
  <g id="axes_1">
   <g id="patch_2">
    <path d="M 0 576 
L 576 576 
L 576 28.8 
L 0 28.8 
z
" style="fill:#ffffff;"/>
   </g>
   <g id="LineCollection_1">
    <path clip-path="url(#p019e889a04)" d="M 219.555888 323.402299 
L 193.589824 201.010801 
" style="fill:none;stroke:#808080;stroke-width:3.0;"/>
    <path clip-path="url(#p019e889a04)" d="M 219.555888 323.402299 
L 104.231915 238.036436 
" style="fill:none;stroke:#808080;"/>
    <path clip-path="url(#p019e889a04)" d="M 219.555888 323.402299 
L 245.282208 419.201479 
" style="fill:none;stroke:#808080;stroke-width:3.0;"/>
    <path clip-path="url(#p019e889a04)" d="M 219.555888 323.402299 
L 346.590658 312.586752 
" style="fill:none;stroke:#808080;stroke-width:2.0;"/>
    <path clip-path="url(#p019e889a04)" d="M 219.555888 323.402299 
L 267.387737 187.628551 
" style="fill:none;stroke:#808080;stroke-width:2.0;"/>
    <path clip-path="url(#p019e889a04)" d="M 219.555888 323.402299 
L 258.175636 268.315014 
" style="fill:none;stroke:#808080;stroke-width:4.0;"/>
    <path clip-path="url(#p019e889a04)" d="M 245.282208 419.201479 
L 193.589824 201.010801 
" style="fill:none;stroke:#808080;"/>
    <path clip-path="url(#p019e889a04)" d="M 245.282208 419.201479 
L 258.175636 268.315014 
" style="fill:none;stroke:#808080;stroke-width:3.0;"/>
    <path clip-path="url(#p019e889a04)" d="M 245.282208 419.201479 
L 346.590658 312.586752 
" style="fill:none;stroke:#808080;"/>
    <path clip-path="url(#p019e889a04)" d="M 258.175636 268.315014 
L 193.589824 201.010801 
" style="fill:none;stroke:#808080;stroke-width:3.0;"/>
    <path clip-path="url(#p019e889a04)" d="M 258.175636 268.315014 
L 300.478098 110.627303 
" style="fill:none;stroke:#808080;stroke-width:3.0;"/>
    <path clip-path="url(#p019e889a04)" d="M 258.175636 268.315014 
L 82.285714 401.929026 
" style="fill:none;stroke:#808080;"/>
    <path clip-path="url(#p019e889a04)" d="M 258.175636 268.315014 
L 104.231915 238.036436 
" style="fill:none;stroke:#808080;"/>
    <path clip-path="url(#p019e889a04)" d="M 258.175636 268.315014 
L 267.387737 187.628551 
" style="fill:none;stroke:#808080;stroke-width:4.0;"/>
    <path clip-path="url(#p019e889a04)" d="M 258.175636 268.315014 
L 346.590658 312.586752 
" style="fill:none;stroke:#808080;stroke-width:9.0;"/>
    <path clip-path="url(#p019e889a04)" d="M 258.175636 268.315014 
L 167.066821 103.605322 
" style="fill:none;stroke:#808080;stroke-width:2.0;"/>
    <path clip-path="url(#p019e889a04)" d="M 421.649264 515.2 
L 346.590658 312.586752 
" style="fill:none;stroke:#808080;stroke-width:2.0;"/>
    <path clip-path="url(#p019e889a04)" d="M 346.590658 312.586752 
L 487.280971 153.712061 
" style="fill:none;stroke:#808080;"/>
    <path clip-path="url(#p019e889a04)" d="M 346.590658 312.586752 
L 300.478098 110.627303 
" style="fill:none;stroke:#808080;"/>
    <path clip-path="url(#p019e889a04)" d="M 346.590658 312.586752 
L 493.714286 365.543258 
" style="fill:none;stroke:#808080;stroke-width:2.0;"/>
    <path clip-path="url(#p019e889a04)" d="M 346.590658 312.586752 
L 267.387737 187.628551 
" style="fill:none;stroke:#808080;stroke-width:2.0;"/>
    <path clip-path="url(#p019e889a04)" d="M 82.285714 401.929026 
L 104.231915 238.036436 
" style="fill:none;stroke:#808080;"/>
    <path clip-path="url(#p019e889a04)" d="M 167.066821 103.605322 
L 193.589824 201.010801 
" style="fill:none;stroke:#808080;stroke-width:4.0;"/>
    <path clip-path="url(#p019e889a04)" d="M 167.066821 103.605322 
L 267.387737 187.628551 
" style="fill:none;stroke:#808080;"/>
    <path clip-path="url(#p019e889a04)" d="M 167.066821 103.605322 
L 104.231915 238.036436 
" style="fill:none;stroke:#808080;"/>
    <path clip-path="url(#p019e889a04)" d="M 193.589824 201.010801 
L 300.478098 110.627303 
" style="fill:none;stroke:#808080;stroke-width:2.0;"/>
    <path clip-path="url(#p019e889a04)" d="M 193.589824 201.010801 
L 104.231915 238.036436 
" style="fill:none;stroke:#808080;stroke-width:3.0;"/>
    <path clip-path="url(#p019e889a04)" d="M 193.589824 201.010801 
L 267.387737 187.628551 
" style="fill:none;stroke:#808080;stroke-width:3.0;"/>
    <path clip-path="url(#p019e889a04)" d="M 300.478098 110.627303 
L 267.387737 187.628551 
" style="fill:none;stroke:#808080;"/>
   </g>
   <g id="PathCollection_1">
    <path clip-path="url(#p019e889a04)" d="M 219.555888 328.992469 
C 221.038419 328.992469 222.460428 328.403453 223.508735 327.355146 
C 224.557043 326.306839 225.146058 324.884829 225.146058 323.402299 
C 225.146058 321.919769 224.557043 320.497759 223.508735 319.449452 
C 222.460428 318.401145 221.038419 317.812129 219.555888 317.812129 
C 218.073358 317.812129 216.651349 318.401145 215.603041 319.449452 
C 214.554734 320.497759 213.965718 321.919769 213.965718 323.402299 
C 213.965718 324.884829 214.554734 326.306839 215.603041 327.355146 
C 216.651349 328.403453 218.073358 328.992469 219.555888 328.992469 
z
" style="fill:#4682b4;fill-opacity:0.8;stroke:#000000;stroke-opacity:0.8;"/>
    <path clip-path="url(#p019e889a04)" d="M 245.282208 423.765833 
C 246.492689 423.765833 247.653755 423.284904 248.509694 422.428965 
C 249.365634 421.573026 249.846563 420.41196 249.846563 419.201479 
C 249.846563 417.990998 249.365634 416.829932 248.509694 415.973993 
C 247.653755 415.118053 246.492689 414.637124 245.282208 414.637124 
C 244.071727 414.637124 242.910662 415.118053 242.054722 415.973993 
C 241.198783 416.829932 240.717854 417.990998 240.717854 419.201479 
C 240.717854 420.41196 241.198783 421.573026 242.054722 422.428965 
C 242.910662 423.284904 244.071727 423.765833 245.282208 423.765833 
z
" style="fill:#4682b4;fill-opacity:0.8;stroke:#000000;stroke-opacity:0.8;"/>
    <path clip-path="url(#p019e889a04)" d="M 258.175636 270.597192 
C 258.780877 270.597192 259.36141 270.356727 259.78938 269.928757 
C 260.217349 269.500788 260.457814 268.920255 260.457814 268.315014 
C 260.457814 267.709774 260.217349 267.129241 259.78938 266.701271 
C 259.36141 266.273302 258.780877 266.032837 258.175636 266.032837 
C 257.570396 266.032837 256.989863 266.273302 256.561893 266.701271 
C 256.133924 267.129241 255.893459 267.709774 255.893459 268.315014 
C 255.893459 268.920255 256.133924 269.500788 256.561893 269.928757 
C 256.989863 270.356727 257.570396 270.597192 258.175636 270.597192 
z
" style="fill:#4682b4;fill-opacity:0.8;stroke:#000000;stroke-opacity:0.8;"/>
    <path clip-path="url(#p019e889a04)" d="M 421.649264 517.482177 
C 422.254505 517.482177 422.835038 517.241713 423.263007 516.813743 
C 423.690977 516.385773 423.931442 515.805241 423.931442 515.2 
C 423.931442 514.594759 423.690977 514.014227 423.263007 513.586257 
C 422.835038 513.158287 422.254505 512.917823 421.649264 512.917823 
C 421.044024 512.917823 420.463491 513.158287 420.035521 513.586257 
C 419.607552 514.014227 419.367087 514.594759 419.367087 515.2 
C 419.367087 515.805241 419.607552 516.385773 420.035521 516.813743 
C 420.463491 517.241713 421.044024 517.482177 421.649264 517.482177 
z
" style="fill:#4682b4;fill-opacity:0.8;stroke:#000000;stroke-opacity:0.8;"/>
    <path clip-path="url(#p019e889a04)" d="M 346.590658 314.86893 
C 347.195899 314.86893 347.776431 314.628465 348.204401 314.200496 
C 348.632371 313.772526 348.872835 313.191993 348.872835 312.586752 
C 348.872835 311.981512 348.632371 311.400979 348.204401 310.973009 
C 347.776431 310.54504 347.195899 310.304575 346.590658 310.304575 
C 345.985418 310.304575 345.404885 310.54504 344.976915 310.973009 
C 344.548945 311.400979 344.308481 311.981512 344.308481 312.586752 
C 344.308481 313.191993 344.548945 313.772526 344.976915 314.200496 
C 345.404885 314.628465 345.985418 314.86893 346.590658 314.86893 
z
" style="fill:#4682b4;fill-opacity:0.8;stroke:#000000;stroke-opacity:0.8;"/>
    <path clip-path="url(#p019e889a04)" d="M 82.285714 405.156512 
C 83.141654 405.156512 83.962651 404.816444 84.567892 404.211203 
C 85.173132 403.605963 85.5132 402.784965 85.5132 401.929026 
C 85.5132 401.073086 85.173132 400.252089 84.567892 399.646848 
C 83.962651 399.041608 83.141654 398.70154 82.285714 398.70154 
C 81.429775 398.70154 80.608777 399.041608 80.003537 399.646848 
C 79.398296 400.252089 79.058228 401.073086 79.058228 401.929026 
C 79.058228 402.784965 79.398296 403.605963 80.003537 404.211203 
C 80.608777 404.816444 81.429775 405.156512 82.285714 405.156512 
z
" style="fill:#4682b4;fill-opacity:0.8;stroke:#000000;stroke-opacity:0.8;"/>
    <path clip-path="url(#p019e889a04)" d="M 167.066821 108.169677 
C 168.277302 108.169677 169.438368 107.688747 170.294307 106.832808 
C 171.150247 105.976869 171.631176 104.815803 171.631176 103.605322 
C 171.631176 102.394841 171.150247 101.233775 170.294307 100.377836 
C 169.438368 99.521896 168.277302 99.040967 167.066821 99.040967 
C 165.85634 99.040967 164.695274 99.521896 163.839335 100.377836 
C 162.983396 101.233775 162.502467 102.394841 162.502467 103.605322 
C 162.502467 104.815803 162.983396 105.976869 163.839335 106.832808 
C 164.695274 107.688747 165.85634 108.169677 167.066821 108.169677 
z
" style="fill:#4682b4;fill-opacity:0.8;stroke:#000000;stroke-opacity:0.8;"/>
    <path clip-path="url(#p019e889a04)" d="M 193.589824 207.048874 
C 195.19114 207.048874 196.727085 206.412665 197.859387 205.280363 
C 198.991688 204.148062 199.627898 202.612116 199.627898 201.010801 
C 199.627898 199.409485 198.991688 197.873539 197.859387 196.741238 
C 196.727085 195.608936 195.19114 194.972727 193.589824 194.972727 
C 191.988508 194.972727 190.452562 195.608936 189.320261 196.741238 
C 188.18796 197.873539 187.55175 199.409485 187.55175 201.010801 
C 187.55175 202.612116 188.18796 204.148062 189.320261 205.280363 
C 190.452562 206.412665 191.988508 207.048874 193.589824 207.048874 
z
" style="fill:#4682b4;fill-opacity:0.8;stroke:#000000;stroke-opacity:0.8;"/>
    <path clip-path="url(#p019e889a04)" d="M 104.231915 243.13954 
C 105.585274 243.13954 106.883385 242.601845 107.840354 241.644875 
C 108.797323 240.687906 109.335018 239.389795 109.335018 238.036436 
C 109.335018 236.683077 108.797323 235.384966 107.840354 234.427997 
C 106.883385 233.471028 105.585274 232.933333 104.231915 232.933333 
C 102.878556 232.933333 101.580445 233.471028 100.623476 234.427997 
C 99.666506 235.384966 99.128811 236.683077 99.128811 238.036436 
C 99.128811 239.389795 99.666506 240.687906 100.623476 241.644875 
C 101.580445 242.601845 102.878556 243.13954 104.231915 243.13954 
z
" style="fill:#4682b4;fill-opacity:0.8;stroke:#000000;stroke-opacity:0.8;"/>
    <path clip-path="url(#p019e889a04)" d="M 300.478098 115.191657 
C 301.688579 115.191657 302.849645 114.710728 303.705584 113.854789 
C 304.561523 112.99885 305.042452 111.837784 305.042452 110.627303 
C 305.042452 109.416822 304.561523 108.255756 303.705584 107.399817 
C 302.849645 106.543877 301.688579 106.062948 300.478098 106.062948 
C 299.267617 106.062948 298.106551 106.543877 297.250612 107.399817 
C 296.394672 108.255756 295.913743 109.416822 295.913743 110.627303 
C 295.913743 111.837784 296.394672 112.99885 297.250612 113.854789 
C 298.106551 114.710728 299.267617 115.191657 300.478098 115.191657 
z
" style="fill:#4682b4;fill-opacity:0.8;stroke:#000000;stroke-opacity:0.8;"/>
    <path clip-path="url(#p019e889a04)" d="M 493.714286 371.99823 
C 495.426164 371.99823 497.068159 371.318093 498.27864 370.107612 
C 499.489121 368.897131 500.169258 367.255136 500.169258 365.543258 
C 500.169258 363.831379 499.489121 362.189384 498.27864 360.978903 
C 497.068159 359.768422 495.426164 359.088285 493.714286 359.088285 
C 492.002407 359.088285 490.360412 359.768422 489.149931 360.978903 
C 487.93945 362.189384 487.259313 363.831379 487.259313 365.543258 
C 487.259313 367.255136 487.93945 368.897131 489.149931 370.107612 
C 490.360412 371.318093 492.002407 371.99823 493.714286 371.99823 
z
" style="fill:#4682b4;fill-opacity:0.8;stroke:#000000;stroke-opacity:0.8;"/>
    <path clip-path="url(#p019e889a04)" d="M 267.387737 193.218721 
C 268.870267 193.218721 270.292277 192.629706 271.340584 191.581398 
C 272.388891 190.533091 272.977907 189.111082 272.977907 187.628551 
C 272.977907 186.146021 272.388891 184.724011 271.340584 183.675704 
C 270.292277 182.627397 268.870267 182.038381 267.387737 182.038381 
C 265.905206 182.038381 264.483197 182.627397 263.43489 183.675704 
C 262.386582 184.724011 261.797567 186.146021 261.797567 187.628551 
C 261.797567 189.111082 262.386582 190.533091 263.43489 191.581398 
C 264.483197 192.629706 265.905206 193.218721 267.387737 193.218721 
z
" style="fill:#4682b4;fill-opacity:0.8;stroke:#000000;stroke-opacity:0.8;"/>
    <path clip-path="url(#p019e889a04)" d="M 487.280971 160.558593 
C 489.096693 160.558593 490.838291 159.837199 492.1222 158.55329 
C 493.406109 157.269381 494.127503 155.527783 494.127503 153.712061 
C 494.127503 151.89634 493.406109 150.154741 492.1222 148.870832 
C 490.838291 147.586923 489.096693 146.865529 487.280971 146.865529 
C 485.46525 146.865529 483.723651 147.586923 482.439742 148.870832 
C 481.155833 150.154741 480.434439 151.89634 480.434439 153.712061 
C 480.434439 155.527783 481.155833 157.269381 482.439742 158.55329 
C 483.723651 159.837199 485.46525 160.558593 487.280971 160.558593 
z
" style="fill:#4682b4;fill-opacity:0.8;stroke:#000000;stroke-opacity:0.8;"/>
   </g>
   <g id="patch_3">
    <path d="M 0 576 
L 576 576 
" style="fill:none;stroke:#000000;stroke-linecap:square;stroke-linejoin:miter;"/>
   </g>
   <g id="patch_4">
    <path d="M 0 576 
L 0 28.8 
" style="fill:none;stroke:#000000;stroke-linecap:square;stroke-linejoin:miter;"/>
   </g>
   <g id="patch_5">
    <path d="M 0 28.8 
L 576 28.8 
" style="fill:none;stroke:#000000;stroke-linecap:square;stroke-linejoin:miter;"/>
   </g>
   <g id="patch_6">
    <path d="M 576 576 
L 576 28.8 
" style="fill:none;stroke:#000000;stroke-linecap:square;stroke-linejoin:miter;"/>
   </g>
   <g id="matplotlib.axis_1">
    <g id="xtick_1">
     <g id="line2d_1">
      <defs>
       <path d="M 0 0 
L 0 -4 
" id="m9ee753bead" style="stroke:#000000;stroke-width:0.5;"/>
      </defs>
      <g>
       <use style="stroke:#000000;stroke-width:0.5;" x="0.0" xlink:href="#m9ee753bead" y="576.0"/>
      </g>
     </g>
     <g id="line2d_2">
      <defs>
       <path d="M 0 0 
L 0 4 
" id="mb857ca54cd" style="stroke:#000000;stroke-width:0.5;"/>
      </defs>
      <g>
       <use style="stroke:#000000;stroke-width:0.5;" x="0.0" xlink:href="#mb857ca54cd" y="28.8"/>
      </g>
     </g>
     <g id="text_1">
      <!-- −0.2 -->
      <defs>
       <path d="M 10.59375 35.5 
L 73.1875 35.5 
L 73.1875 27.203125 
L 10.59375 27.203125 
z
" id="BitstreamVeraSans-Roman-2212"/>
       <path d="M 10.6875 12.40625 
L 21 12.40625 
L 21 0 
L 10.6875 0 
z
" id="BitstreamVeraSans-Roman-2e"/>
       <path d="M 31.78125 66.40625 
Q 24.171875 66.40625 20.328125 58.90625 
Q 16.5 51.421875 16.5 36.375 
Q 16.5 21.390625 20.328125 13.890625 
Q 24.171875 6.390625 31.78125 6.390625 
Q 39.453125 6.390625 43.28125 13.890625 
Q 47.125 21.390625 47.125 36.375 
Q 47.125 51.421875 43.28125 58.90625 
Q 39.453125 66.40625 31.78125 66.40625 
M 31.78125 74.21875 
Q 44.046875 74.21875 50.515625 64.515625 
Q 56.984375 54.828125 56.984375 36.375 
Q 56.984375 17.96875 50.515625 8.265625 
Q 44.046875 -1.421875 31.78125 -1.421875 
Q 19.53125 -1.421875 13.0625 8.265625 
Q 6.59375 17.96875 6.59375 36.375 
Q 6.59375 54.828125 13.0625 64.515625 
Q 19.53125 74.21875 31.78125 74.21875 
" id="BitstreamVeraSans-Roman-30"/>
       <path d="M 19.1875 8.296875 
L 53.609375 8.296875 
L 53.609375 0 
L 7.328125 0 
L 7.328125 8.296875 
Q 12.9375 14.109375 22.625 23.890625 
Q 32.328125 33.6875 34.8125 36.53125 
Q 39.546875 41.84375 41.421875 45.53125 
Q 43.3125 49.21875 43.3125 52.78125 
Q 43.3125 58.59375 39.234375 62.25 
Q 35.15625 65.921875 28.609375 65.921875 
Q 23.96875 65.921875 18.8125 64.3125 
Q 13.671875 62.703125 7.8125 59.421875 
L 7.8125 69.390625 
Q 13.765625 71.78125 18.9375 73 
Q 24.125 74.21875 28.421875 74.21875 
Q 39.75 74.21875 46.484375 68.546875 
Q 53.21875 62.890625 53.21875 53.421875 
Q 53.21875 48.921875 51.53125 44.890625 
Q 49.859375 40.875 45.40625 35.40625 
Q 44.1875 33.984375 37.640625 27.21875 
Q 31.109375 20.453125 19.1875 8.296875 
" id="BitstreamVeraSans-Roman-32"/>
      </defs>
      <g transform="translate(-14.5696875 589.118125)scale(0.12 -0.12)">
       <use xlink:href="#BitstreamVeraSans-Roman-2212"/>
       <use x="83.7890625" xlink:href="#BitstreamVeraSans-Roman-30"/>
       <use x="147.412109375" xlink:href="#BitstreamVeraSans-Roman-2e"/>
       <use x="179.19921875" xlink:href="#BitstreamVeraSans-Roman-32"/>
      </g>
     </g>
    </g>
    <g id="xtick_2">
     <g id="line2d_3">
      <g>
       <use style="stroke:#000000;stroke-width:0.5;" x="82.2857142857" xlink:href="#m9ee753bead" y="576.0"/>
      </g>
     </g>
     <g id="line2d_4">
      <g>
       <use style="stroke:#000000;stroke-width:0.5;" x="82.2857142857" xlink:href="#mb857ca54cd" y="28.8"/>
      </g>
     </g>
     <g id="text_2">
      <!-- 0.0 -->
      <g transform="translate(72.7438392857 589.118125)scale(0.12 -0.12)">
       <use xlink:href="#BitstreamVeraSans-Roman-30"/>
       <use x="63.623046875" xlink:href="#BitstreamVeraSans-Roman-2e"/>
       <use x="95.41015625" xlink:href="#BitstreamVeraSans-Roman-30"/>
      </g>
     </g>
    </g>
    <g id="xtick_3">
     <g id="line2d_5">
      <g>
       <use style="stroke:#000000;stroke-width:0.5;" x="164.571428571" xlink:href="#m9ee753bead" y="576.0"/>
      </g>
     </g>
     <g id="line2d_6">
      <g>
       <use style="stroke:#000000;stroke-width:0.5;" x="164.571428571" xlink:href="#mb857ca54cd" y="28.8"/>
      </g>
     </g>
     <g id="text_3">
      <!-- 0.2 -->
      <g transform="translate(155.029553571 589.118125)scale(0.12 -0.12)">
       <use xlink:href="#BitstreamVeraSans-Roman-30"/>
       <use x="63.623046875" xlink:href="#BitstreamVeraSans-Roman-2e"/>
       <use x="95.41015625" xlink:href="#BitstreamVeraSans-Roman-32"/>
      </g>
     </g>
    </g>
    <g id="xtick_4">
     <g id="line2d_7">
      <g>
       <use style="stroke:#000000;stroke-width:0.5;" x="246.857142857" xlink:href="#m9ee753bead" y="576.0"/>
      </g>
     </g>
     <g id="line2d_8">
      <g>
       <use style="stroke:#000000;stroke-width:0.5;" x="246.857142857" xlink:href="#mb857ca54cd" y="28.8"/>
      </g>
     </g>
     <g id="text_4">
      <!-- 0.4 -->
      <defs>
       <path d="M 37.796875 64.3125 
L 12.890625 25.390625 
L 37.796875 25.390625 
z
M 35.203125 72.90625 
L 47.609375 72.90625 
L 47.609375 25.390625 
L 58.015625 25.390625 
L 58.015625 17.1875 
L 47.609375 17.1875 
L 47.609375 0 
L 37.796875 0 
L 37.796875 17.1875 
L 4.890625 17.1875 
L 4.890625 26.703125 
z
" id="BitstreamVeraSans-Roman-34"/>
      </defs>
      <g transform="translate(237.315267857 589.118125)scale(0.12 -0.12)">
       <use xlink:href="#BitstreamVeraSans-Roman-30"/>
       <use x="63.623046875" xlink:href="#BitstreamVeraSans-Roman-2e"/>
       <use x="95.41015625" xlink:href="#BitstreamVeraSans-Roman-34"/>
      </g>
     </g>
    </g>
    <g id="xtick_5">
     <g id="line2d_9">
      <g>
       <use style="stroke:#000000;stroke-width:0.5;" x="329.142857143" xlink:href="#m9ee753bead" y="576.0"/>
      </g>
     </g>
     <g id="line2d_10">
      <g>
       <use style="stroke:#000000;stroke-width:0.5;" x="329.142857143" xlink:href="#mb857ca54cd" y="28.8"/>
      </g>
     </g>
     <g id="text_5">
      <!-- 0.6 -->
      <defs>
       <path d="M 33.015625 40.375 
Q 26.375 40.375 22.484375 35.828125 
Q 18.609375 31.296875 18.609375 23.390625 
Q 18.609375 15.53125 22.484375 10.953125 
Q 26.375 6.390625 33.015625 6.390625 
Q 39.65625 6.390625 43.53125 10.953125 
Q 47.40625 15.53125 47.40625 23.390625 
Q 47.40625 31.296875 43.53125 35.828125 
Q 39.65625 40.375 33.015625 40.375 
M 52.59375 71.296875 
L 52.59375 62.3125 
Q 48.875 64.0625 45.09375 64.984375 
Q 41.3125 65.921875 37.59375 65.921875 
Q 27.828125 65.921875 22.671875 59.328125 
Q 17.53125 52.734375 16.796875 39.40625 
Q 19.671875 43.65625 24.015625 45.921875 
Q 28.375 48.1875 33.59375 48.1875 
Q 44.578125 48.1875 50.953125 41.515625 
Q 57.328125 34.859375 57.328125 23.390625 
Q 57.328125 12.15625 50.6875 5.359375 
Q 44.046875 -1.421875 33.015625 -1.421875 
Q 20.359375 -1.421875 13.671875 8.265625 
Q 6.984375 17.96875 6.984375 36.375 
Q 6.984375 53.65625 15.1875 63.9375 
Q 23.390625 74.21875 37.203125 74.21875 
Q 40.921875 74.21875 44.703125 73.484375 
Q 48.484375 72.75 52.59375 71.296875 
" id="BitstreamVeraSans-Roman-36"/>
      </defs>
      <g transform="translate(319.600982143 589.118125)scale(0.12 -0.12)">
       <use xlink:href="#BitstreamVeraSans-Roman-30"/>
       <use x="63.623046875" xlink:href="#BitstreamVeraSans-Roman-2e"/>
       <use x="95.41015625" xlink:href="#BitstreamVeraSans-Roman-36"/>
      </g>
     </g>
    </g>
    <g id="xtick_6">
     <g id="line2d_11">
      <g>
       <use style="stroke:#000000;stroke-width:0.5;" x="411.428571429" xlink:href="#m9ee753bead" y="576.0"/>
      </g>
     </g>
     <g id="line2d_12">
      <g>
       <use style="stroke:#000000;stroke-width:0.5;" x="411.428571429" xlink:href="#mb857ca54cd" y="28.8"/>
      </g>
     </g>
     <g id="text_6">
      <!-- 0.8 -->
      <defs>
       <path d="M 31.78125 34.625 
Q 24.75 34.625 20.71875 30.859375 
Q 16.703125 27.09375 16.703125 20.515625 
Q 16.703125 13.921875 20.71875 10.15625 
Q 24.75 6.390625 31.78125 6.390625 
Q 38.8125 6.390625 42.859375 10.171875 
Q 46.921875 13.96875 46.921875 20.515625 
Q 46.921875 27.09375 42.890625 30.859375 
Q 38.875 34.625 31.78125 34.625 
M 21.921875 38.8125 
Q 15.578125 40.375 12.03125 44.71875 
Q 8.5 49.078125 8.5 55.328125 
Q 8.5 64.0625 14.71875 69.140625 
Q 20.953125 74.21875 31.78125 74.21875 
Q 42.671875 74.21875 48.875 69.140625 
Q 55.078125 64.0625 55.078125 55.328125 
Q 55.078125 49.078125 51.53125 44.71875 
Q 48 40.375 41.703125 38.8125 
Q 48.828125 37.15625 52.796875 32.3125 
Q 56.78125 27.484375 56.78125 20.515625 
Q 56.78125 9.90625 50.3125 4.234375 
Q 43.84375 -1.421875 31.78125 -1.421875 
Q 19.734375 -1.421875 13.25 4.234375 
Q 6.78125 9.90625 6.78125 20.515625 
Q 6.78125 27.484375 10.78125 32.3125 
Q 14.796875 37.15625 21.921875 38.8125 
M 18.3125 54.390625 
Q 18.3125 48.734375 21.84375 45.5625 
Q 25.390625 42.390625 31.78125 42.390625 
Q 38.140625 42.390625 41.71875 45.5625 
Q 45.3125 48.734375 45.3125 54.390625 
Q 45.3125 60.0625 41.71875 63.234375 
Q 38.140625 66.40625 31.78125 66.40625 
Q 25.390625 66.40625 21.84375 63.234375 
Q 18.3125 60.0625 18.3125 54.390625 
" id="BitstreamVeraSans-Roman-38"/>
      </defs>
      <g transform="translate(401.886696429 589.118125)scale(0.12 -0.12)">
       <use xlink:href="#BitstreamVeraSans-Roman-30"/>
       <use x="63.623046875" xlink:href="#BitstreamVeraSans-Roman-2e"/>
       <use x="95.41015625" xlink:href="#BitstreamVeraSans-Roman-38"/>
      </g>
     </g>
    </g>
    <g id="xtick_7">
     <g id="line2d_13">
      <g>
       <use style="stroke:#000000;stroke-width:0.5;" x="493.714285714" xlink:href="#m9ee753bead" y="576.0"/>
      </g>
     </g>
     <g id="line2d_14">
      <g>
       <use style="stroke:#000000;stroke-width:0.5;" x="493.714285714" xlink:href="#mb857ca54cd" y="28.8"/>
      </g>
     </g>
     <g id="text_7">
      <!-- 1.0 -->
      <defs>
       <path d="M 12.40625 8.296875 
L 28.515625 8.296875 
L 28.515625 63.921875 
L 10.984375 60.40625 
L 10.984375 69.390625 
L 28.421875 72.90625 
L 38.28125 72.90625 
L 38.28125 8.296875 
L 54.390625 8.296875 
L 54.390625 0 
L 12.40625 0 
z
" id="BitstreamVeraSans-Roman-31"/>
      </defs>
      <g transform="translate(484.172410714 589.118125)scale(0.12 -0.12)">
       <use xlink:href="#BitstreamVeraSans-Roman-31"/>
       <use x="63.623046875" xlink:href="#BitstreamVeraSans-Roman-2e"/>
       <use x="95.41015625" xlink:href="#BitstreamVeraSans-Roman-30"/>
      </g>
     </g>
    </g>
    <g id="xtick_8">
     <g id="line2d_15">
      <g>
       <use style="stroke:#000000;stroke-width:0.5;" x="576.0" xlink:href="#m9ee753bead" y="576.0"/>
      </g>
     </g>
     <g id="line2d_16">
      <g>
       <use style="stroke:#000000;stroke-width:0.5;" x="576.0" xlink:href="#mb857ca54cd" y="28.8"/>
      </g>
     </g>
     <g id="text_8">
      <!-- 1.2 -->
      <g transform="translate(566.458125 589.118125)scale(0.12 -0.12)">
       <use xlink:href="#BitstreamVeraSans-Roman-31"/>
       <use x="63.623046875" xlink:href="#BitstreamVeraSans-Roman-2e"/>
       <use x="95.41015625" xlink:href="#BitstreamVeraSans-Roman-32"/>
      </g>
     </g>
    </g>
   </g>
   <g id="matplotlib.axis_2">
    <g id="ytick_1">
     <g id="line2d_17">
      <defs>
       <path d="M 0 0 
L 4 0 
" id="m7d6ec28998" style="stroke:#000000;stroke-width:0.5;"/>
      </defs>
      <g>
       <use style="stroke:#000000;stroke-width:0.5;" x="0.0" xlink:href="#m7d6ec28998" y="576.0"/>
      </g>
     </g>
     <g id="line2d_18">
      <defs>
       <path d="M 0 0 
L -4 0 
" id="m482b059c6c" style="stroke:#000000;stroke-width:0.5;"/>
      </defs>
      <g>
       <use style="stroke:#000000;stroke-width:0.5;" x="576.0" xlink:href="#m482b059c6c" y="576.0"/>
      </g>
     </g>
     <g id="text_9">
      <!-- −0.1 -->
      <g transform="translate(-33.139375 579.31125)scale(0.12 -0.12)">
       <use xlink:href="#BitstreamVeraSans-Roman-2212"/>
       <use x="83.7890625" xlink:href="#BitstreamVeraSans-Roman-30"/>
       <use x="147.412109375" xlink:href="#BitstreamVeraSans-Roman-2e"/>
       <use x="179.19921875" xlink:href="#BitstreamVeraSans-Roman-31"/>
      </g>
     </g>
    </g>
    <g id="ytick_2">
     <g id="line2d_19">
      <g>
       <use style="stroke:#000000;stroke-width:0.5;" x="0.0" xlink:href="#m7d6ec28998" y="515.2"/>
      </g>
     </g>
     <g id="line2d_20">
      <g>
       <use style="stroke:#000000;stroke-width:0.5;" x="576.0" xlink:href="#m482b059c6c" y="515.2"/>
      </g>
     </g>
     <g id="text_10">
      <!-- 0.0 -->
      <g transform="translate(-23.08375 518.51125)scale(0.12 -0.12)">
       <use xlink:href="#BitstreamVeraSans-Roman-30"/>
       <use x="63.623046875" xlink:href="#BitstreamVeraSans-Roman-2e"/>
       <use x="95.41015625" xlink:href="#BitstreamVeraSans-Roman-30"/>
      </g>
     </g>
    </g>
    <g id="ytick_3">
     <g id="line2d_21">
      <g>
       <use style="stroke:#000000;stroke-width:0.5;" x="0.0" xlink:href="#m7d6ec28998" y="454.4"/>
      </g>
     </g>
     <g id="line2d_22">
      <g>
       <use style="stroke:#000000;stroke-width:0.5;" x="576.0" xlink:href="#m482b059c6c" y="454.4"/>
      </g>
     </g>
     <g id="text_11">
      <!-- 0.1 -->
      <g transform="translate(-23.08375 457.71125)scale(0.12 -0.12)">
       <use xlink:href="#BitstreamVeraSans-Roman-30"/>
       <use x="63.623046875" xlink:href="#BitstreamVeraSans-Roman-2e"/>
       <use x="95.41015625" xlink:href="#BitstreamVeraSans-Roman-31"/>
      </g>
     </g>
    </g>
    <g id="ytick_4">
     <g id="line2d_23">
      <g>
       <use style="stroke:#000000;stroke-width:0.5;" x="0.0" xlink:href="#m7d6ec28998" y="393.6"/>
      </g>
     </g>
     <g id="line2d_24">
      <g>
       <use style="stroke:#000000;stroke-width:0.5;" x="576.0" xlink:href="#m482b059c6c" y="393.6"/>
      </g>
     </g>
     <g id="text_12">
      <!-- 0.2 -->
      <g transform="translate(-23.08375 396.91125)scale(0.12 -0.12)">
       <use xlink:href="#BitstreamVeraSans-Roman-30"/>
       <use x="63.623046875" xlink:href="#BitstreamVeraSans-Roman-2e"/>
       <use x="95.41015625" xlink:href="#BitstreamVeraSans-Roman-32"/>
      </g>
     </g>
    </g>
    <g id="ytick_5">
     <g id="line2d_25">
      <g>
       <use style="stroke:#000000;stroke-width:0.5;" x="0.0" xlink:href="#m7d6ec28998" y="332.8"/>
      </g>
     </g>
     <g id="line2d_26">
      <g>
       <use style="stroke:#000000;stroke-width:0.5;" x="576.0" xlink:href="#m482b059c6c" y="332.8"/>
      </g>
     </g>
     <g id="text_13">
      <!-- 0.3 -->
      <defs>
       <path d="M 40.578125 39.3125 
Q 47.65625 37.796875 51.625 33 
Q 55.609375 28.21875 55.609375 21.1875 
Q 55.609375 10.40625 48.1875 4.484375 
Q 40.765625 -1.421875 27.09375 -1.421875 
Q 22.515625 -1.421875 17.65625 -0.515625 
Q 12.796875 0.390625 7.625 2.203125 
L 7.625 11.71875 
Q 11.71875 9.328125 16.59375 8.109375 
Q 21.484375 6.890625 26.8125 6.890625 
Q 36.078125 6.890625 40.9375 10.546875 
Q 45.796875 14.203125 45.796875 21.1875 
Q 45.796875 27.640625 41.28125 31.265625 
Q 36.765625 34.90625 28.71875 34.90625 
L 20.21875 34.90625 
L 20.21875 43.015625 
L 29.109375 43.015625 
Q 36.375 43.015625 40.234375 45.921875 
Q 44.09375 48.828125 44.09375 54.296875 
Q 44.09375 59.90625 40.109375 62.90625 
Q 36.140625 65.921875 28.71875 65.921875 
Q 24.65625 65.921875 20.015625 65.03125 
Q 15.375 64.15625 9.8125 62.3125 
L 9.8125 71.09375 
Q 15.4375 72.65625 20.34375 73.4375 
Q 25.25 74.21875 29.59375 74.21875 
Q 40.828125 74.21875 47.359375 69.109375 
Q 53.90625 64.015625 53.90625 55.328125 
Q 53.90625 49.265625 50.4375 45.09375 
Q 46.96875 40.921875 40.578125 39.3125 
" id="BitstreamVeraSans-Roman-33"/>
      </defs>
      <g transform="translate(-23.08375 336.11125)scale(0.12 -0.12)">
       <use xlink:href="#BitstreamVeraSans-Roman-30"/>
       <use x="63.623046875" xlink:href="#BitstreamVeraSans-Roman-2e"/>
       <use x="95.41015625" xlink:href="#BitstreamVeraSans-Roman-33"/>
      </g>
     </g>
    </g>
    <g id="ytick_6">
     <g id="line2d_27">
      <g>
       <use style="stroke:#000000;stroke-width:0.5;" x="0.0" xlink:href="#m7d6ec28998" y="272.0"/>
      </g>
     </g>
     <g id="line2d_28">
      <g>
       <use style="stroke:#000000;stroke-width:0.5;" x="576.0" xlink:href="#m482b059c6c" y="272.0"/>
      </g>
     </g>
     <g id="text_14">
      <!-- 0.4 -->
      <g transform="translate(-23.08375 275.31125)scale(0.12 -0.12)">
       <use xlink:href="#BitstreamVeraSans-Roman-30"/>
       <use x="63.623046875" xlink:href="#BitstreamVeraSans-Roman-2e"/>
       <use x="95.41015625" xlink:href="#BitstreamVeraSans-Roman-34"/>
      </g>
     </g>
    </g>
    <g id="ytick_7">
     <g id="line2d_29">
      <g>
       <use style="stroke:#000000;stroke-width:0.5;" x="0.0" xlink:href="#m7d6ec28998" y="211.2"/>
      </g>
     </g>
     <g id="line2d_30">
      <g>
       <use style="stroke:#000000;stroke-width:0.5;" x="576.0" xlink:href="#m482b059c6c" y="211.2"/>
      </g>
     </g>
     <g id="text_15">
      <!-- 0.5 -->
      <defs>
       <path d="M 10.796875 72.90625 
L 49.515625 72.90625 
L 49.515625 64.59375 
L 19.828125 64.59375 
L 19.828125 46.734375 
Q 21.96875 47.46875 24.109375 47.828125 
Q 26.265625 48.1875 28.421875 48.1875 
Q 40.625 48.1875 47.75 41.5 
Q 54.890625 34.8125 54.890625 23.390625 
Q 54.890625 11.625 47.5625 5.09375 
Q 40.234375 -1.421875 26.90625 -1.421875 
Q 22.3125 -1.421875 17.546875 -0.640625 
Q 12.796875 0.140625 7.71875 1.703125 
L 7.71875 11.625 
Q 12.109375 9.234375 16.796875 8.0625 
Q 21.484375 6.890625 26.703125 6.890625 
Q 35.15625 6.890625 40.078125 11.328125 
Q 45.015625 15.765625 45.015625 23.390625 
Q 45.015625 31 40.078125 35.4375 
Q 35.15625 39.890625 26.703125 39.890625 
Q 22.75 39.890625 18.8125 39.015625 
Q 14.890625 38.140625 10.796875 36.28125 
z
" id="BitstreamVeraSans-Roman-35"/>
      </defs>
      <g transform="translate(-23.08375 214.51125)scale(0.12 -0.12)">
       <use xlink:href="#BitstreamVeraSans-Roman-30"/>
       <use x="63.623046875" xlink:href="#BitstreamVeraSans-Roman-2e"/>
       <use x="95.41015625" xlink:href="#BitstreamVeraSans-Roman-35"/>
      </g>
     </g>
    </g>
    <g id="ytick_8">
     <g id="line2d_31">
      <g>
       <use style="stroke:#000000;stroke-width:0.5;" x="0.0" xlink:href="#m7d6ec28998" y="150.4"/>
      </g>
     </g>
     <g id="line2d_32">
      <g>
       <use style="stroke:#000000;stroke-width:0.5;" x="576.0" xlink:href="#m482b059c6c" y="150.4"/>
      </g>
     </g>
     <g id="text_16">
      <!-- 0.6 -->
      <g transform="translate(-23.08375 153.71125)scale(0.12 -0.12)">
       <use xlink:href="#BitstreamVeraSans-Roman-30"/>
       <use x="63.623046875" xlink:href="#BitstreamVeraSans-Roman-2e"/>
       <use x="95.41015625" xlink:href="#BitstreamVeraSans-Roman-36"/>
      </g>
     </g>
    </g>
    <g id="ytick_9">
     <g id="line2d_33">
      <g>
       <use style="stroke:#000000;stroke-width:0.5;" x="0.0" xlink:href="#m7d6ec28998" y="89.6"/>
      </g>
     </g>
     <g id="line2d_34">
      <g>
       <use style="stroke:#000000;stroke-width:0.5;" x="576.0" xlink:href="#m482b059c6c" y="89.6"/>
      </g>
     </g>
     <g id="text_17">
      <!-- 0.7 -->
      <defs>
       <path d="M 8.203125 72.90625 
L 55.078125 72.90625 
L 55.078125 68.703125 
L 28.609375 0 
L 18.3125 0 
L 43.21875 64.59375 
L 8.203125 64.59375 
z
" id="BitstreamVeraSans-Roman-37"/>
      </defs>
      <g transform="translate(-23.08375 92.91125)scale(0.12 -0.12)">
       <use xlink:href="#BitstreamVeraSans-Roman-30"/>
       <use x="63.623046875" xlink:href="#BitstreamVeraSans-Roman-2e"/>
       <use x="95.41015625" xlink:href="#BitstreamVeraSans-Roman-37"/>
      </g>
     </g>
    </g>
    <g id="ytick_10">
     <g id="line2d_35">
      <g>
       <use style="stroke:#000000;stroke-width:0.5;" x="0.0" xlink:href="#m7d6ec28998" y="28.8"/>
      </g>
     </g>
     <g id="line2d_36">
      <g>
       <use style="stroke:#000000;stroke-width:0.5;" x="576.0" xlink:href="#m482b059c6c" y="28.8"/>
      </g>
     </g>
     <g id="text_18">
      <!-- 0.8 -->
      <g transform="translate(-23.08375 32.11125)scale(0.12 -0.12)">
       <use xlink:href="#BitstreamVeraSans-Roman-30"/>
       <use x="63.623046875" xlink:href="#BitstreamVeraSans-Roman-2e"/>
       <use x="95.41015625" xlink:href="#BitstreamVeraSans-Roman-38"/>
      </g>
     </g>
    </g>
   </g>
   <g id="text_19">
    <g clip-path="url(#p019e889a04)">
     <!-- ODOARDO GALOTTI -->
     <defs>
      <path d="M 19.671875 64.796875 
L 19.671875 8.109375 
L 31.59375 8.109375 
Q 46.6875 8.109375 53.6875 14.9375 
Q 60.6875 21.78125 60.6875 36.53125 
Q 60.6875 51.171875 53.6875 57.984375 
Q 46.6875 64.796875 31.59375 64.796875 
z
M 9.8125 72.90625 
L 30.078125 72.90625 
Q 51.265625 72.90625 61.171875 64.09375 
Q 71.09375 55.28125 71.09375 36.53125 
Q 71.09375 17.671875 61.125 8.828125 
Q 51.171875 0 30.078125 0 
L 9.8125 0 
z
" id="BitstreamVeraSans-Roman-44"/>
      <path d="M 34.1875 63.1875 
L 20.796875 26.90625 
L 47.609375 26.90625 
z
M 28.609375 72.90625 
L 39.796875 72.90625 
L 67.578125 0 
L 57.328125 0 
L 50.6875 18.703125 
L 17.828125 18.703125 
L 11.1875 0 
L 0.78125 0 
z
" id="BitstreamVeraSans-Roman-41"/>
      <path d="M 9.8125 72.90625 
L 19.671875 72.90625 
L 19.671875 8.296875 
L 55.171875 8.296875 
L 55.171875 0 
L 9.8125 0 
z
" id="BitstreamVeraSans-Roman-4c"/>
      <path d="M -0.296875 72.90625 
L 61.375 72.90625 
L 61.375 64.59375 
L 35.5 64.59375 
L 35.5 0 
L 25.59375 0 
L 25.59375 64.59375 
L -0.296875 64.59375 
z
" id="BitstreamVeraSans-Roman-54"/>
      <path id="BitstreamVeraSans-Roman-20"/>
      <path d="M 39.40625 66.21875 
Q 28.65625 66.21875 22.328125 58.203125 
Q 16.015625 50.203125 16.015625 36.375 
Q 16.015625 22.609375 22.328125 14.59375 
Q 28.65625 6.59375 39.40625 6.59375 
Q 50.140625 6.59375 56.421875 14.59375 
Q 62.703125 22.609375 62.703125 36.375 
Q 62.703125 50.203125 56.421875 58.203125 
Q 50.140625 66.21875 39.40625 66.21875 
M 39.40625 74.21875 
Q 54.734375 74.21875 63.90625 63.9375 
Q 73.09375 53.65625 73.09375 36.375 
Q 73.09375 19.140625 63.90625 8.859375 
Q 54.734375 -1.421875 39.40625 -1.421875 
Q 24.03125 -1.421875 14.8125 8.828125 
Q 5.609375 19.09375 5.609375 36.375 
Q 5.609375 53.65625 14.8125 63.9375 
Q 24.03125 74.21875 39.40625 74.21875 
" id="BitstreamVeraSans-Roman-4f"/>
      <path d="M 59.515625 10.40625 
L 59.515625 29.984375 
L 43.40625 29.984375 
L 43.40625 38.09375 
L 69.28125 38.09375 
L 69.28125 6.78125 
Q 63.578125 2.734375 56.6875 0.65625 
Q 49.8125 -1.421875 42 -1.421875 
Q 24.90625 -1.421875 15.25 8.5625 
Q 5.609375 18.5625 5.609375 36.375 
Q 5.609375 54.25 15.25 64.234375 
Q 24.90625 74.21875 42 74.21875 
Q 49.125 74.21875 55.546875 72.453125 
Q 61.96875 70.703125 67.390625 67.28125 
L 67.390625 56.78125 
Q 61.921875 61.421875 55.765625 63.765625 
Q 49.609375 66.109375 42.828125 66.109375 
Q 29.4375 66.109375 22.71875 58.640625 
Q 16.015625 51.171875 16.015625 36.375 
Q 16.015625 21.625 22.71875 14.15625 
Q 29.4375 6.6875 42.828125 6.6875 
Q 48.046875 6.6875 52.140625 7.59375 
Q 56.25 8.5 59.515625 10.40625 
" id="BitstreamVeraSans-Roman-47"/>
      <path d="M 44.390625 34.1875 
Q 47.5625 33.109375 50.5625 29.59375 
Q 53.5625 26.078125 56.59375 19.921875 
L 66.609375 0 
L 56 0 
L 46.6875 18.703125 
Q 43.0625 26.03125 39.671875 28.421875 
Q 36.28125 30.8125 30.421875 30.8125 
L 19.671875 30.8125 
L 19.671875 0 
L 9.8125 0 
L 9.8125 72.90625 
L 32.078125 72.90625 
Q 44.578125 72.90625 50.734375 67.671875 
Q 56.890625 62.453125 56.890625 51.90625 
Q 56.890625 45.015625 53.6875 40.46875 
Q 50.484375 35.9375 44.390625 34.1875 
M 19.671875 64.796875 
L 19.671875 38.921875 
L 32.078125 38.921875 
Q 39.203125 38.921875 42.84375 42.21875 
Q 46.484375 45.515625 46.484375 51.90625 
Q 46.484375 58.296875 42.84375 61.546875 
Q 39.203125 64.796875 32.078125 64.796875 
z
" id="BitstreamVeraSans-Roman-52"/>
      <path d="M 9.8125 72.90625 
L 19.671875 72.90625 
L 19.671875 0 
L 9.8125 0 
z
" id="BitstreamVeraSans-Roman-49"/>
     </defs>
     <g transform="translate(160.051825796 326.713548955)scale(0.12 -0.12)">
      <use xlink:href="#BitstreamVeraSans-Roman-4f"/>
      <use x="78.7109375" xlink:href="#BitstreamVeraSans-Roman-44"/>
      <use x="155.712890625" xlink:href="#BitstreamVeraSans-Roman-4f"/>
      <use x="234.408203125" xlink:href="#BitstreamVeraSans-Roman-41"/>
      <use x="302.81640625" xlink:href="#BitstreamVeraSans-Roman-52"/>
      <use x="372.298828125" xlink:href="#BitstreamVeraSans-Roman-44"/>
      <use x="449.30078125" xlink:href="#BitstreamVeraSans-Roman-4f"/>
      <use x="528.01171875" xlink:href="#BitstreamVeraSans-Roman-20"/>
      <use x="559.798828125" xlink:href="#BitstreamVeraSans-Roman-47"/>
      <use x="637.2890625" xlink:href="#BitstreamVeraSans-Roman-41"/>
      <use x="705.697265625" xlink:href="#BitstreamVeraSans-Roman-4c"/>
      <use x="761.36328125" xlink:href="#BitstreamVeraSans-Roman-4f"/>
      <use x="840.07421875" xlink:href="#BitstreamVeraSans-Roman-54"/>
      <use x="901.142578125" xlink:href="#BitstreamVeraSans-Roman-54"/>
      <use x="962.2265625" xlink:href="#BitstreamVeraSans-Roman-49"/>
     </g>
    </g>
   </g>
   <g id="text_20">
    <g clip-path="url(#p019e889a04)">
     <!-- ORSINA -->
     <defs>
      <path d="M 53.515625 70.515625 
L 53.515625 60.890625 
Q 47.90625 63.578125 42.921875 64.890625 
Q 37.9375 66.21875 33.296875 66.21875 
Q 25.25 66.21875 20.875 63.09375 
Q 16.5 59.96875 16.5 54.203125 
Q 16.5 49.359375 19.40625 46.890625 
Q 22.3125 44.4375 30.421875 42.921875 
L 36.375 41.703125 
Q 47.40625 39.59375 52.65625 34.296875 
Q 57.90625 29 57.90625 20.125 
Q 57.90625 9.515625 50.796875 4.046875 
Q 43.703125 -1.421875 29.984375 -1.421875 
Q 24.8125 -1.421875 18.96875 -0.25 
Q 13.140625 0.921875 6.890625 3.21875 
L 6.890625 13.375 
Q 12.890625 10.015625 18.65625 8.296875 
Q 24.421875 6.59375 29.984375 6.59375 
Q 38.421875 6.59375 43.015625 9.90625 
Q 47.609375 13.234375 47.609375 19.390625 
Q 47.609375 24.75 44.3125 27.78125 
Q 41.015625 30.8125 33.5 32.328125 
L 27.484375 33.5 
Q 16.453125 35.6875 11.515625 40.375 
Q 6.59375 45.0625 6.59375 53.421875 
Q 6.59375 63.09375 13.40625 68.65625 
Q 20.21875 74.21875 32.171875 74.21875 
Q 37.3125 74.21875 42.625 73.28125 
Q 47.953125 72.359375 53.515625 70.515625 
" id="BitstreamVeraSans-Roman-53"/>
      <path d="M 9.8125 72.90625 
L 23.09375 72.90625 
L 55.421875 11.921875 
L 55.421875 72.90625 
L 64.984375 72.90625 
L 64.984375 0 
L 51.703125 0 
L 19.390625 60.984375 
L 19.390625 0 
L 9.8125 0 
z
" id="BitstreamVeraSans-Roman-4e"/>
     </defs>
     <g transform="translate(222.217833308 422.512728762)scale(0.12 -0.12)">
      <use xlink:href="#BitstreamVeraSans-Roman-4f"/>
      <use x="78.7109375" xlink:href="#BitstreamVeraSans-Roman-52"/>
      <use x="148.193359375" xlink:href="#BitstreamVeraSans-Roman-53"/>
      <use x="211.669921875" xlink:href="#BitstreamVeraSans-Roman-49"/>
      <use x="241.162109375" xlink:href="#BitstreamVeraSans-Roman-4e"/>
      <use x="315.966796875" xlink:href="#BitstreamVeraSans-Roman-41"/>
     </g>
    </g>
   </g>
   <g id="text_21">
    <g clip-path="url(#p019e889a04)">
     <!-- CAMILLO ROTA -->
     <defs>
      <path d="M 64.40625 67.28125 
L 64.40625 56.890625 
Q 59.421875 61.53125 53.78125 63.8125 
Q 48.140625 66.109375 41.796875 66.109375 
Q 29.296875 66.109375 22.65625 58.46875 
Q 16.015625 50.828125 16.015625 36.375 
Q 16.015625 21.96875 22.65625 14.328125 
Q 29.296875 6.6875 41.796875 6.6875 
Q 48.140625 6.6875 53.78125 8.984375 
Q 59.421875 11.28125 64.40625 15.921875 
L 64.40625 5.609375 
Q 59.234375 2.09375 53.4375 0.328125 
Q 47.65625 -1.421875 41.21875 -1.421875 
Q 24.65625 -1.421875 15.125 8.703125 
Q 5.609375 18.84375 5.609375 36.375 
Q 5.609375 53.953125 15.125 64.078125 
Q 24.65625 74.21875 41.21875 74.21875 
Q 47.75 74.21875 53.53125 72.484375 
Q 59.328125 70.75 64.40625 67.28125 
" id="BitstreamVeraSans-Roman-43"/>
      <path d="M 9.8125 72.90625 
L 24.515625 72.90625 
L 43.109375 23.296875 
L 61.8125 72.90625 
L 76.515625 72.90625 
L 76.515625 0 
L 66.890625 0 
L 66.890625 64.015625 
L 48.09375 14.015625 
L 38.1875 14.015625 
L 19.390625 64.015625 
L 19.390625 0 
L 9.8125 0 
z
" id="BitstreamVeraSans-Roman-4d"/>
     </defs>
     <g transform="translate(442.071908671 157.023311063)scale(0.12 -0.12)">
      <use xlink:href="#BitstreamVeraSans-Roman-43"/>
      <use x="69.82421875" xlink:href="#BitstreamVeraSans-Roman-41"/>
      <use x="138.232421875" xlink:href="#BitstreamVeraSans-Roman-4d"/>
      <use x="224.51171875" xlink:href="#BitstreamVeraSans-Roman-49"/>
      <use x="254.00390625" xlink:href="#BitstreamVeraSans-Roman-4c"/>
      <use x="309.716796875" xlink:href="#BitstreamVeraSans-Roman-4c"/>
      <use x="365.3828125" xlink:href="#BitstreamVeraSans-Roman-4f"/>
      <use x="444.09375" xlink:href="#BitstreamVeraSans-Roman-20"/>
      <use x="475.880859375" xlink:href="#BitstreamVeraSans-Roman-52"/>
      <use x="545.36328125" xlink:href="#BitstreamVeraSans-Roman-4f"/>
      <use x="624.07421875" xlink:href="#BitstreamVeraSans-Roman-54"/>
      <use x="685.048828125" xlink:href="#BitstreamVeraSans-Roman-41"/>
     </g>
    </g>
   </g>
   <g id="text_22">
    <g clip-path="url(#p019e889a04)">
     <!-- CONTI -->
     <g transform="translate(402.813014418 518.51125)scale(0.12 -0.12)">
      <use xlink:href="#BitstreamVeraSans-Roman-43"/>
      <use x="69.82421875" xlink:href="#BitstreamVeraSans-Roman-4f"/>
      <use x="148.53515625" xlink:href="#BitstreamVeraSans-Roman-4e"/>
      <use x="223.33984375" xlink:href="#BitstreamVeraSans-Roman-54"/>
      <use x="284.423828125" xlink:href="#BitstreamVeraSans-Roman-49"/>
     </g>
    </g>
   </g>
   <g id="text_23">
    <g clip-path="url(#p019e889a04)">
     <!-- DER KAMMERDIENER -->
     <defs>
      <path d="M 9.8125 72.90625 
L 19.671875 72.90625 
L 19.671875 42.09375 
L 52.390625 72.90625 
L 65.09375 72.90625 
L 28.90625 38.921875 
L 67.671875 0 
L 54.6875 0 
L 19.671875 35.109375 
L 19.671875 0 
L 9.8125 0 
z
" id="BitstreamVeraSans-Roman-4b"/>
      <path d="M 9.8125 72.90625 
L 55.90625 72.90625 
L 55.90625 64.59375 
L 19.671875 64.59375 
L 19.671875 43.015625 
L 54.390625 43.015625 
L 54.390625 34.71875 
L 19.671875 34.71875 
L 19.671875 8.296875 
L 56.78125 8.296875 
L 56.78125 0 
L 9.8125 0 
z
" id="BitstreamVeraSans-Roman-45"/>
     </defs>
     <g transform="translate(430.244598214 368.85450763)scale(0.12 -0.12)">
      <use xlink:href="#BitstreamVeraSans-Roman-44"/>
      <use x="77.001953125" xlink:href="#BitstreamVeraSans-Roman-45"/>
      <use x="140.185546875" xlink:href="#BitstreamVeraSans-Roman-52"/>
      <use x="209.66796875" xlink:href="#BitstreamVeraSans-Roman-20"/>
      <use x="241.455078125" xlink:href="#BitstreamVeraSans-Roman-4b"/>
      <use x="307.015625" xlink:href="#BitstreamVeraSans-Roman-41"/>
      <use x="375.423828125" xlink:href="#BitstreamVeraSans-Roman-4d"/>
      <use x="461.703125" xlink:href="#BitstreamVeraSans-Roman-4d"/>
      <use x="547.982421875" xlink:href="#BitstreamVeraSans-Roman-45"/>
      <use x="611.166015625" xlink:href="#BitstreamVeraSans-Roman-52"/>
      <use x="680.6484375" xlink:href="#BitstreamVeraSans-Roman-44"/>
      <use x="757.650390625" xlink:href="#BitstreamVeraSans-Roman-49"/>
      <use x="787.142578125" xlink:href="#BitstreamVeraSans-Roman-45"/>
      <use x="850.326171875" xlink:href="#BitstreamVeraSans-Roman-4e"/>
      <use x="925.130859375" xlink:href="#BitstreamVeraSans-Roman-45"/>
      <use x="988.314453125" xlink:href="#BitstreamVeraSans-Roman-52"/>
     </g>
    </g>
   </g>
   <g id="text_24">
    <g clip-path="url(#p019e889a04)">
     <!-- ANGELO -->
     <g transform="translate(57.1888392857 405.240275706)scale(0.12 -0.12)">
      <use xlink:href="#BitstreamVeraSans-Roman-41"/>
      <use x="68.408203125" xlink:href="#BitstreamVeraSans-Roman-4e"/>
      <use x="143.212890625" xlink:href="#BitstreamVeraSans-Roman-47"/>
      <use x="220.703125" xlink:href="#BitstreamVeraSans-Roman-45"/>
      <use x="283.88671875" xlink:href="#BitstreamVeraSans-Roman-4c"/>
      <use x="339.552734375" xlink:href="#BitstreamVeraSans-Roman-4f"/>
     </g>
    </g>
   </g>
   <g id="text_25">
    <g clip-path="url(#p019e889a04)">
     <!-- APPIANI -->
     <defs>
      <path d="M 19.671875 64.796875 
L 19.671875 37.40625 
L 32.078125 37.40625 
Q 38.96875 37.40625 42.71875 40.96875 
Q 46.484375 44.53125 46.484375 51.125 
Q 46.484375 57.671875 42.71875 61.234375 
Q 38.96875 64.796875 32.078125 64.796875 
z
M 9.8125 72.90625 
L 32.078125 72.90625 
Q 44.34375 72.90625 50.609375 67.359375 
Q 56.890625 61.8125 56.890625 51.125 
Q 56.890625 40.328125 50.609375 34.8125 
Q 44.34375 29.296875 32.078125 29.296875 
L 19.671875 29.296875 
L 19.671875 0 
L 9.8125 0 
z
" id="BitstreamVeraSans-Roman-50"/>
     </defs>
     <g transform="translate(143.593696282 106.916571916)scale(0.12 -0.12)">
      <use xlink:href="#BitstreamVeraSans-Roman-41"/>
      <use x="68.408203125" xlink:href="#BitstreamVeraSans-Roman-50"/>
      <use x="128.7109375" xlink:href="#BitstreamVeraSans-Roman-50"/>
      <use x="189.013671875" xlink:href="#BitstreamVeraSans-Roman-49"/>
      <use x="218.505859375" xlink:href="#BitstreamVeraSans-Roman-41"/>
      <use x="286.9140625" xlink:href="#BitstreamVeraSans-Roman-4e"/>
      <use x="361.71875" xlink:href="#BitstreamVeraSans-Roman-49"/>
     </g>
    </g>
   </g>
   <g id="text_26">
    <g clip-path="url(#p019e889a04)">
     <!-- CLAUDIA GALOTTI -->
     <defs>
      <path d="M 8.6875 72.90625 
L 18.609375 72.90625 
L 18.609375 28.609375 
Q 18.609375 16.890625 22.84375 11.734375 
Q 27.09375 6.59375 36.625 6.59375 
Q 46.09375 6.59375 50.34375 11.734375 
Q 54.59375 16.890625 54.59375 28.609375 
L 54.59375 72.90625 
L 64.5 72.90625 
L 64.5 27.390625 
Q 64.5 13.140625 57.4375 5.859375 
Q 50.390625 -1.421875 36.625 -1.421875 
Q 22.796875 -1.421875 15.734375 5.859375 
Q 8.6875 13.140625 8.6875 27.390625 
z
" id="BitstreamVeraSans-Roman-55"/>
     </defs>
     <g transform="translate(139.242948913 204.322050614)scale(0.12 -0.12)">
      <use xlink:href="#BitstreamVeraSans-Roman-43"/>
      <use x="69.82421875" xlink:href="#BitstreamVeraSans-Roman-4c"/>
      <use x="125.568359375" xlink:href="#BitstreamVeraSans-Roman-41"/>
      <use x="193.9765625" xlink:href="#BitstreamVeraSans-Roman-55"/>
      <use x="267.169921875" xlink:href="#BitstreamVeraSans-Roman-44"/>
      <use x="344.171875" xlink:href="#BitstreamVeraSans-Roman-49"/>
      <use x="373.6640625" xlink:href="#BitstreamVeraSans-Roman-41"/>
      <use x="442.072265625" xlink:href="#BitstreamVeraSans-Roman-20"/>
      <use x="473.859375" xlink:href="#BitstreamVeraSans-Roman-47"/>
      <use x="551.349609375" xlink:href="#BitstreamVeraSans-Roman-41"/>
      <use x="619.7578125" xlink:href="#BitstreamVeraSans-Roman-4c"/>
      <use x="675.423828125" xlink:href="#BitstreamVeraSans-Roman-4f"/>
      <use x="754.134765625" xlink:href="#BitstreamVeraSans-Roman-54"/>
      <use x="815.203125" xlink:href="#BitstreamVeraSans-Roman-54"/>
      <use x="876.287109375" xlink:href="#BitstreamVeraSans-Roman-49"/>
     </g>
    </g>
   </g>
   <g id="text_27">
    <g clip-path="url(#p019e889a04)">
     <!-- PIRRO -->
     <g transform="translate(85.7828522832 241.347686272)scale(0.12 -0.12)">
      <use xlink:href="#BitstreamVeraSans-Roman-50"/>
      <use x="60.302734375" xlink:href="#BitstreamVeraSans-Roman-49"/>
      <use x="89.794921875" xlink:href="#BitstreamVeraSans-Roman-52"/>
      <use x="159.27734375" xlink:href="#BitstreamVeraSans-Roman-52"/>
      <use x="228.759765625" xlink:href="#BitstreamVeraSans-Roman-4f"/>
     </g>
    </g>
   </g>
   <g id="text_28">
    <g clip-path="url(#p019e889a04)">
     <!-- BATTISTA -->
     <defs>
      <path d="M 19.671875 34.8125 
L 19.671875 8.109375 
L 35.5 8.109375 
Q 43.453125 8.109375 47.28125 11.40625 
Q 51.125 14.703125 51.125 21.484375 
Q 51.125 28.328125 47.28125 31.5625 
Q 43.453125 34.8125 35.5 34.8125 
z
M 19.671875 64.796875 
L 19.671875 42.828125 
L 34.28125 42.828125 
Q 41.5 42.828125 45.03125 45.53125 
Q 48.578125 48.25 48.578125 53.8125 
Q 48.578125 59.328125 45.03125 62.0625 
Q 41.5 64.796875 34.28125 64.796875 
z
M 9.8125 72.90625 
L 35.015625 72.90625 
Q 46.296875 72.90625 52.390625 68.21875 
Q 58.5 63.53125 58.5 54.890625 
Q 58.5 48.1875 55.375 44.234375 
Q 52.25 40.28125 46.1875 39.3125 
Q 53.46875 37.75 57.5 32.78125 
Q 61.53125 27.828125 61.53125 20.40625 
Q 61.53125 10.640625 54.890625 5.3125 
Q 48.25 0 35.984375 0 
L 9.8125 0 
z
" id="BitstreamVeraSans-Roman-42"/>
     </defs>
     <g transform="translate(271.593722769 113.938552736)scale(0.12 -0.12)">
      <use xlink:href="#BitstreamVeraSans-Roman-42"/>
      <use x="68.603515625" xlink:href="#BitstreamVeraSans-Roman-41"/>
      <use x="136.90234375" xlink:href="#BitstreamVeraSans-Roman-54"/>
      <use x="197.970703125" xlink:href="#BitstreamVeraSans-Roman-54"/>
      <use x="259.0546875" xlink:href="#BitstreamVeraSans-Roman-49"/>
      <use x="288.546875" xlink:href="#BitstreamVeraSans-Roman-53"/>
      <use x="352.0234375" xlink:href="#BitstreamVeraSans-Roman-54"/>
      <use x="412.998046875" xlink:href="#BitstreamVeraSans-Roman-41"/>
     </g>
    </g>
   </g>
   <g id="text_29">
    <g clip-path="url(#p019e889a04)">
     <!-- DER PRINZ -->
     <defs>
      <path d="M 5.609375 72.90625 
L 62.890625 72.90625 
L 62.890625 65.375 
L 16.796875 8.296875 
L 64.015625 8.296875 
L 64.015625 0 
L 4.5 0 
L 4.5 7.515625 
L 50.59375 64.59375 
L 5.609375 64.59375 
z
" id="BitstreamVeraSans-Roman-5a"/>
     </defs>
     <g transform="translate(313.947845542 315.89800246)scale(0.12 -0.12)">
      <use xlink:href="#BitstreamVeraSans-Roman-44"/>
      <use x="77.001953125" xlink:href="#BitstreamVeraSans-Roman-45"/>
      <use x="140.185546875" xlink:href="#BitstreamVeraSans-Roman-52"/>
      <use x="209.66796875" xlink:href="#BitstreamVeraSans-Roman-20"/>
      <use x="241.455078125" xlink:href="#BitstreamVeraSans-Roman-50"/>
      <use x="301.7578125" xlink:href="#BitstreamVeraSans-Roman-52"/>
      <use x="371.240234375" xlink:href="#BitstreamVeraSans-Roman-49"/>
      <use x="400.732421875" xlink:href="#BitstreamVeraSans-Roman-4e"/>
      <use x="475.537109375" xlink:href="#BitstreamVeraSans-Roman-5a"/>
     </g>
    </g>
   </g>
   <g id="text_30">
    <g clip-path="url(#p019e889a04)">
     <!-- EMILIA -->
     <g transform="translate(247.432111861 190.939801176)scale(0.12 -0.12)">
      <use xlink:href="#BitstreamVeraSans-Roman-45"/>
      <use x="63.18359375" xlink:href="#BitstreamVeraSans-Roman-4d"/>
      <use x="149.462890625" xlink:href="#BitstreamVeraSans-Roman-49"/>
      <use x="178.955078125" xlink:href="#BitstreamVeraSans-Roman-4c"/>
      <use x="234.66796875" xlink:href="#BitstreamVeraSans-Roman-49"/>
      <use x="264.16015625" xlink:href="#BitstreamVeraSans-Roman-41"/>
     </g>
    </g>
   </g>
   <g id="text_31">
    <g clip-path="url(#p019e889a04)">
     <!-- MARINELLI -->
     <g transform="translate(226.219073986 271.626264384)scale(0.12 -0.12)">
      <use xlink:href="#BitstreamVeraSans-Roman-4d"/>
      <use x="86.279296875" xlink:href="#BitstreamVeraSans-Roman-41"/>
      <use x="154.6875" xlink:href="#BitstreamVeraSans-Roman-52"/>
      <use x="224.169921875" xlink:href="#BitstreamVeraSans-Roman-49"/>
      <use x="253.662109375" xlink:href="#BitstreamVeraSans-Roman-4e"/>
      <use x="328.466796875" xlink:href="#BitstreamVeraSans-Roman-45"/>
      <use x="391.650390625" xlink:href="#BitstreamVeraSans-Roman-4c"/>
      <use x="447.36328125" xlink:href="#BitstreamVeraSans-Roman-4c"/>
      <use x="503.076171875" xlink:href="#BitstreamVeraSans-Roman-49"/>
     </g>
    </g>
   </g>
  </g>
 </g>
 <defs>
  <clipPath id="p019e889a04">
   <rect height="547.2" width="576.0" x="0.0" y="28.8"/>
  </clipPath>
 </defs>
</svg>
